<svg width="376" height="154" viewBox="0 0 376 154" fill="none" xmlns="http://www.w3.org/2000/svg">
<g filter="url(#filter0_d)">
<rect x="8" y="4" width="360" height="138" rx="6" fill="white"/>
<path d="M35.108 28.2898C34.75 25.7045 32.7614 24.2045 30.1818 24.2045C27.142 24.2045 24.8523 26.4205 24.8523 30.1818C24.8523 33.9375 27.1136 36.1591 30.1818 36.1591C32.9489 36.1591 34.7841 34.3693 35.108 32.1477L32.983 32.1364C32.7159 33.5 31.6023 34.267 30.2102 34.267C28.3239 34.267 26.9716 32.8523 26.9716 30.1818C26.9716 27.5568 28.3125 26.0966 30.2159 26.0966C31.6307 26.0966 32.7386 26.8977 32.983 28.2898H35.108ZM40.7543 36.1705C43.3111 36.1705 44.9361 34.3693 44.9361 31.6705C44.9361 28.9659 43.3111 27.1591 40.7543 27.1591C38.1974 27.1591 36.5724 28.9659 36.5724 31.6705C36.5724 34.3693 38.1974 36.1705 40.7543 36.1705ZM40.7656 34.5227C39.3509 34.5227 38.6577 33.2614 38.6577 31.6648C38.6577 30.0682 39.3509 28.7898 40.7656 28.7898C42.1577 28.7898 42.8509 30.0682 42.8509 31.6648C42.8509 33.2614 42.1577 34.5227 40.7656 34.5227ZM46.6818 36H48.7386V30.6932C48.7386 29.6193 49.4545 28.892 50.3409 28.892C51.2102 28.892 51.8068 29.4773 51.8068 30.375V36H53.8239V30.5568C53.8239 29.5739 54.4091 28.892 55.4034 28.892C56.233 28.892 56.892 29.3807 56.892 30.4602V36H58.9545V30.142C58.9545 28.1932 57.8295 27.1591 56.2273 27.1591C54.9602 27.1591 53.9943 27.7841 53.608 28.7557H53.517C53.1818 27.767 52.3352 27.1591 51.1591 27.1591C49.9886 27.1591 49.1136 27.7614 48.75 28.7557H48.6477V27.2727H46.6818V36ZM61.0412 39.2727H63.098V34.625H63.1832C63.5071 35.2614 64.1832 36.1534 65.6832 36.1534C67.7401 36.1534 69.2798 34.5227 69.2798 31.6477C69.2798 28.7386 67.6946 27.1591 65.6776 27.1591C64.1378 27.1591 63.4957 28.0852 63.1832 28.7159H63.0639V27.2727H61.0412V39.2727ZM63.0582 31.6364C63.0582 29.9432 63.7855 28.8466 65.1094 28.8466C66.4787 28.8466 67.1832 30.0114 67.1832 31.6364C67.1832 33.2727 66.4673 34.4659 65.1094 34.4659C63.7969 34.4659 63.0582 33.3295 63.0582 31.6364ZM73.5526 36.1761C74.9219 36.1761 75.7401 35.5341 76.1151 34.8011H76.1832V36H78.1605V30.1591C78.1605 27.8523 76.2798 27.1591 74.6151 27.1591C72.7798 27.1591 71.3707 27.9773 70.9162 29.5682L72.8366 29.8409C73.0412 29.2443 73.6207 28.733 74.6264 28.733C75.581 28.733 76.1037 29.2216 76.1037 30.0795V30.1136C76.1037 30.7045 75.4844 30.733 73.9446 30.8977C72.2514 31.0795 70.6321 31.5852 70.6321 33.5511C70.6321 35.267 71.8878 36.1761 73.5526 36.1761ZM74.0866 34.6648C73.2287 34.6648 72.6151 34.2727 72.6151 33.517C72.6151 32.7273 73.3026 32.3977 74.223 32.267C74.7628 32.1932 75.8423 32.0568 76.1094 31.8409V32.8693C76.1094 33.8409 75.3253 34.6648 74.0866 34.6648ZM82.2855 30.8864C82.2855 29.625 83.0469 28.8977 84.1321 28.8977C85.1946 28.8977 85.831 29.5966 85.831 30.7614V36H87.8878V30.4432C87.8935 28.3523 86.7003 27.1591 84.8991 27.1591C83.5923 27.1591 82.6946 27.7841 82.2969 28.7557H82.1946V27.2727H80.2287V36H82.2855V30.8864ZM90.9446 39.2557C92.5469 39.2557 93.473 38.4261 93.9673 37.0568L97.473 27.2841L95.2741 27.2727L93.2571 33.8636H93.1662L91.1548 27.2727H88.973L92.1378 36.1818L91.9616 36.6534C91.5696 37.6193 90.9787 37.6932 90.081 37.4375L89.6037 39.0341C89.8821 39.1534 90.3821 39.2557 90.9446 39.2557ZM112.523 24.3636H110.426V32.2955H110.324L104.847 24.3636H102.96V36H105.068V28.0739H105.165L110.648 36H112.523V24.3636ZM117.24 36.1761C118.609 36.1761 119.428 35.5341 119.803 34.8011H119.871V36H121.848V30.1591C121.848 27.8523 119.967 27.1591 118.303 27.1591C116.467 27.1591 115.058 27.9773 114.604 29.5682L116.524 29.8409C116.729 29.2443 117.308 28.733 118.314 28.733C119.268 28.733 119.791 29.2216 119.791 30.0795V30.1136C119.791 30.7045 119.172 30.733 117.632 30.8977C115.939 31.0795 114.32 31.5852 114.32 33.5511C114.32 35.267 115.575 36.1761 117.24 36.1761ZM117.774 34.6648C116.916 34.6648 116.303 34.2727 116.303 33.517C116.303 32.7273 116.99 32.3977 117.911 32.267C118.45 32.1932 119.53 32.0568 119.797 31.8409V32.8693C119.797 33.8409 119.013 34.6648 117.774 34.6648ZM123.916 36H125.973V30.6932C125.973 29.6193 126.689 28.892 127.575 28.892C128.445 28.892 129.041 29.4773 129.041 30.375V36H131.058V30.5568C131.058 29.5739 131.643 28.892 132.638 28.892C133.467 28.892 134.126 29.3807 134.126 30.4602V36H136.189V30.142C136.189 28.1932 135.064 27.1591 133.462 27.1591C132.195 27.1591 131.229 27.7841 130.842 28.7557H130.751C130.416 27.767 129.57 27.1591 128.393 27.1591C127.223 27.1591 126.348 27.7614 125.984 28.7557H125.882V27.2727H123.916V36ZM142.139 36.1705C144.173 36.1705 145.571 35.1761 145.935 33.6591L144.014 33.4432C143.736 34.1818 143.054 34.5682 142.168 34.5682C140.838 34.5682 139.957 33.6932 139.94 32.1989H146.02V31.5682C146.02 28.5057 144.179 27.1591 142.031 27.1591C139.531 27.1591 137.901 28.9943 137.901 31.6875C137.901 34.4261 139.509 36.1705 142.139 36.1705ZM139.946 30.8125C140.009 29.6989 140.832 28.7614 142.06 28.7614C143.241 28.7614 144.037 29.625 144.048 30.8125H139.946Z" fill="#333333"/>
<circle cx="159" cy="30" r="4" fill="#2FB212"/>
<path d="M26.2756 47.2727H24.9588V56H26.2756V47.2727ZM29.3651 52.1136C29.3651 51.0696 30.0043 50.473 30.8906 50.473C31.7557 50.473 32.2798 51.0398 32.2798 51.9901V56H33.554V51.8366C33.554 50.2173 32.6634 49.3693 31.3253 49.3693C30.3409 49.3693 29.6974 49.8253 29.3949 50.5199H29.3139V49.4545H28.0909V56H29.3651V52.1136ZM38.3182 49.4545H36.9759V47.8864H35.7017V49.4545H34.7429V50.4773H35.7017V54.3423C35.6974 55.5312 36.6051 56.1065 37.6108 56.0852C38.0156 56.081 38.2884 56.0043 38.4375 55.9489L38.2074 54.8963C38.1222 54.9134 37.9645 54.9517 37.7599 54.9517C37.3466 54.9517 36.9759 54.8153 36.9759 54.0781V50.4773H38.3182V49.4545ZM42.4783 56.1321C43.9059 56.1321 44.9158 55.429 45.2056 54.3636L43.9996 54.1463C43.7695 54.7642 43.2156 55.0795 42.4911 55.0795C41.4002 55.0795 40.6673 54.3722 40.6332 53.1108H45.2866V52.6591C45.2866 50.294 43.8718 49.3693 42.3888 49.3693C40.565 49.3693 39.3633 50.7585 39.3633 52.7699C39.3633 54.8026 40.5479 56.1321 42.4783 56.1321ZM40.6374 52.1562C40.6886 51.2273 41.3619 50.4219 42.3974 50.4219C43.386 50.4219 44.0337 51.1548 44.038 52.1562H40.6374ZM46.7003 56H47.9744V52.0028C47.9744 51.1463 48.6349 50.5284 49.5384 50.5284C49.8026 50.5284 50.1009 50.5753 50.2031 50.6051V49.3864C50.0753 49.3693 49.8239 49.3565 49.6619 49.3565C48.8949 49.3565 48.2386 49.7912 48 50.4943H47.9318V49.4545H46.7003V56ZM52.5799 52.1136C52.5799 51.0696 53.2191 50.473 54.1055 50.473C54.9705 50.473 55.4947 51.0398 55.4947 51.9901V56H56.7688V51.8366C56.7688 50.2173 55.8782 49.3693 54.5401 49.3693C53.5558 49.3693 52.9123 49.8253 52.6097 50.5199H52.5288V49.4545H51.3058V56H52.5799V52.1136ZM63.3825 51.0526C63.1183 50.0341 62.3214 49.3693 60.9066 49.3693C59.4279 49.3693 58.3796 50.1491 58.3796 51.3082C58.3796 52.2372 58.9421 52.8551 60.1694 53.1278L61.2773 53.3707C61.908 53.5114 62.2021 53.7926 62.2021 54.2017C62.2021 54.7088 61.6609 55.1051 60.8256 55.1051C60.0629 55.1051 59.5728 54.777 59.4194 54.1335L58.1879 54.321C58.4009 55.4801 59.364 56.1321 60.8342 56.1321C62.4151 56.1321 63.5103 55.2926 63.5103 54.108C63.5103 53.1832 62.9222 52.6122 61.7205 52.3352L60.6808 52.0966C59.9606 51.9261 59.6495 51.6832 59.6538 51.2401C59.6495 50.7372 60.195 50.3793 60.9194 50.3793C61.712 50.3793 62.0785 50.8182 62.2276 51.2571L63.3825 51.0526ZM66.1854 52.1136C66.1854 51.0696 66.8459 50.473 67.7536 50.473C68.6314 50.473 69.1555 51.0312 69.1555 51.9901V56H70.4297V51.8366C70.4297 50.2045 69.5348 49.3693 68.1882 49.3693C67.1697 49.3693 66.5561 49.8125 66.2493 50.5199H66.1683V47.2727H64.9112V56H66.1854V52.1136ZM72.13 56H73.4041V49.4545H72.13V56ZM72.7734 48.4446C73.2124 48.4446 73.5788 48.1037 73.5788 47.6861C73.5788 47.2685 73.2124 46.9233 72.7734 46.9233C72.3303 46.9233 71.968 47.2685 71.968 47.6861C71.968 48.1037 72.3303 48.4446 72.7734 48.4446ZM75.1183 58.4545H76.3924V54.9815H76.4691C76.6992 55.3991 77.168 56.1278 78.3612 56.1278C79.9464 56.1278 81.0969 54.858 81.0969 52.7401C81.0969 50.6179 79.9293 49.3693 78.3484 49.3693C77.1339 49.3693 76.695 50.1108 76.4691 50.5156H76.3626V49.4545H75.1183V58.4545ZM76.3668 52.7273C76.3668 51.3594 76.9634 50.4517 78.0756 50.4517C79.2305 50.4517 79.81 51.4276 79.81 52.7273C79.81 54.0398 79.2134 55.0412 78.0756 55.0412C76.9805 55.0412 76.3668 54.1037 76.3668 52.7273ZM85.3722 48.4062H88.0909V56H89.4034V48.4062H92.1264V47.2727H85.3722V48.4062ZM93.5167 56H94.7908V49.4545H93.5167V56ZM94.1602 48.4446C94.5991 48.4446 94.9656 48.1037 94.9656 47.6861C94.9656 47.2685 94.5991 46.9233 94.1602 46.9233C93.717 46.9233 93.3548 47.2685 93.3548 47.6861C93.3548 48.1037 93.717 48.4446 94.1602 48.4446ZM99.5604 49.4545H98.218V47.8864H96.9439V49.4545H95.9851V50.4773H96.9439V54.3423C96.9396 55.5312 97.8473 56.1065 98.853 56.0852C99.2578 56.081 99.5305 56.0043 99.6797 55.9489L99.4496 54.8963C99.3643 54.9134 99.2067 54.9517 99.0021 54.9517C98.5888 54.9517 98.218 54.8153 98.218 54.0781V50.4773H99.5604V49.4545ZM102.385 47.2727H101.11V56H102.385V47.2727ZM106.92 56.1321C108.347 56.1321 109.357 55.429 109.647 54.3636L108.441 54.1463C108.211 54.7642 107.657 55.0795 106.933 55.0795C105.842 55.0795 105.109 54.3722 105.075 53.1108H109.728V52.6591C109.728 50.294 108.313 49.3693 106.83 49.3693C105.006 49.3693 103.805 50.7585 103.805 52.7699C103.805 54.8026 104.989 56.1321 106.92 56.1321ZM105.079 52.1562C105.13 51.2273 105.803 50.4219 106.839 50.4219C107.827 50.4219 108.475 51.1548 108.479 52.1562H105.079Z" fill="#8A8A8A"/>
<circle cx="342" cy="30" r="10" fill="#00A5EC"/>
<path d="M342.005 34.1449C344.02 34.1449 345.201 32.5 345.201 29.6406C345.201 26.8026 344.003 25.1534 342.005 25.1534C340.002 25.1534 338.809 26.7983 338.805 29.6406C338.805 32.4957 339.985 34.1406 342.005 34.1449ZM342.005 33.0071C340.824 33.0071 340.113 31.8224 340.113 29.6406C340.117 27.4673 340.829 26.2699 342.005 26.2699C343.177 26.2699 343.893 27.4673 343.893 29.6406C343.893 31.8224 343.181 33.0071 342.005 33.0071Z" fill="white"/>
<path d="M33.4261 78C33.0483 75.9119 31.3778 74.679 29.3295 74.679C26.7244 74.679 24.8352 76.6875 24.8352 79.9091C24.8352 83.1307 26.7244 85.1392 29.3295 85.1392C31.3778 85.1392 33.0483 83.9062 33.4261 81.8182H32.1932C31.8949 83.2301 30.6818 83.9858 29.3295 83.9858C27.4801 83.9858 26.0284 82.554 26.0284 79.9091C26.0284 77.2642 27.4801 75.8324 29.3295 75.8324C30.6818 75.8324 31.8949 76.5881 32.1932 78H33.4261ZM36.4327 80.4062C36.4327 79.0739 37.2828 78.3182 38.4412 78.3182C39.5449 78.3182 40.2111 79.0142 40.2111 80.2273V85H41.3844V80.1477C41.3844 78.1839 40.3404 77.2642 38.7793 77.2642C37.5762 77.2642 36.8901 77.7663 36.5321 78.5568H36.4327V74.8182H35.2594V85H36.4327V80.4062ZM45.7781 85.179C47.1104 85.179 47.8065 84.4631 48.0451 83.9659H48.1048V85H49.2781V79.9688C49.2781 77.5426 47.4286 77.2642 46.4542 77.2642C45.3008 77.2642 43.9883 77.6619 43.3917 79.054L44.5053 79.4517C44.7638 78.8949 45.3754 78.2983 46.494 78.2983C47.5728 78.2983 48.1048 78.87 48.1048 79.8494V79.8892C48.1048 80.456 47.5281 80.4062 46.136 80.5852C44.7191 80.7692 43.1729 81.0824 43.1729 82.8324C43.1729 84.3239 44.3263 85.179 45.7781 85.179ZM45.957 84.125C45.0224 84.125 44.3462 83.7074 44.3462 82.892C44.3462 81.9972 45.1616 81.7188 46.0763 81.5994C46.5735 81.5398 47.9059 81.4006 48.1048 81.1619V82.2358C48.1048 83.1903 47.3491 84.125 45.957 84.125ZM54.7406 77.3636H53.1099V75.5341H51.9366V77.3636H50.7832V78.358H51.9366V83.1307C51.9366 84.4631 53.0105 85.0994 54.0048 85.0994C54.4423 85.0994 54.7207 85.0199 54.8798 84.9602L54.6412 83.9062C54.5417 83.9261 54.3826 83.9659 54.1241 83.9659C53.6071 83.9659 53.1099 83.8068 53.1099 82.8125V78.358H54.7406V77.3636ZM60.443 85H61.6163V80.2273C61.6163 79.1087 62.4316 78.3182 63.3464 78.3182C64.2363 78.3182 64.8578 78.8999 64.8578 79.7699V85H66.051V80.0284C66.051 79.044 66.6674 78.3182 67.7413 78.3182C68.5765 78.3182 69.2924 78.7607 69.2924 79.8892V85H70.4657V79.8892C70.4657 78.0945 69.5012 77.2642 68.139 77.2642C67.0453 77.2642 66.2449 77.7663 65.8521 78.5568H65.7725C65.3947 77.7415 64.7285 77.2642 63.7243 77.2642C62.7299 77.2642 61.9941 77.7415 61.676 78.5568H61.5765V77.3636H60.443V85ZM75.8127 85.1591C77.3638 85.1591 78.4973 84.3835 78.8553 83.2301L77.7218 82.9119C77.4235 83.7074 76.7324 84.1051 75.8127 84.1051C74.4355 84.1051 73.486 83.2152 73.4313 81.5795H78.9746V81.0824C78.9746 78.2386 77.2843 77.2642 75.6934 77.2642C73.6252 77.2642 72.253 78.8949 72.253 81.2415C72.253 83.5881 73.6053 85.1591 75.8127 85.1591ZM73.4313 80.5653C73.5108 79.3771 74.351 78.3182 75.6934 78.3182C76.9661 78.3182 77.7814 79.2727 77.7814 80.5653H73.4313ZM86.1685 79.0739C85.8006 77.9901 84.9753 77.2642 83.464 77.2642C81.8532 77.2642 80.66 78.179 80.66 79.4716C80.66 80.5256 81.2864 81.2315 82.6884 81.5597L83.9611 81.858C84.7317 82.0369 85.0946 82.4048 85.0946 82.9318C85.0946 83.5881 84.3986 84.125 83.3049 84.125C82.3453 84.125 81.7438 83.7124 81.535 82.892L80.4213 83.1705C80.6948 84.468 81.7637 85.1591 83.3248 85.1591C85.0996 85.1591 86.3077 84.1896 86.3077 82.8722C86.3077 81.8082 85.6415 81.1371 84.2793 80.804L83.1458 80.5256C82.2409 80.3018 81.8333 79.9986 81.8333 79.4119C81.8333 78.7557 82.5293 78.2784 83.464 78.2784C84.4881 78.2784 84.9107 78.8452 85.1145 79.3722L86.1685 79.0739ZM93.483 79.0739C93.1151 77.9901 92.2898 77.2642 90.7784 77.2642C89.1676 77.2642 87.9744 78.179 87.9744 79.4716C87.9744 80.5256 88.6009 81.2315 90.0028 81.5597L91.2756 81.858C92.0462 82.0369 92.4091 82.4048 92.4091 82.9318C92.4091 83.5881 91.7131 84.125 90.6193 84.125C89.6598 84.125 89.0582 83.7124 88.8494 82.892L87.7358 83.1705C88.0092 84.468 89.0781 85.1591 90.6392 85.1591C92.4141 85.1591 93.6222 84.1896 93.6222 82.8722C93.6222 81.8082 92.956 81.1371 91.5938 80.804L90.4602 80.5256C89.5554 80.3018 89.1477 79.9986 89.1477 79.4119C89.1477 78.7557 89.8438 78.2784 90.7784 78.2784C91.8026 78.2784 92.2251 78.8452 92.429 79.3722L93.483 79.0739ZM97.6355 85.179C98.9679 85.179 99.6639 84.4631 99.9025 83.9659H99.9622V85H101.135V79.9688C101.135 77.5426 99.286 77.2642 98.3116 77.2642C97.1582 77.2642 95.8457 77.6619 95.2491 79.054L96.3627 79.4517C96.6213 78.8949 97.2328 78.2983 98.3514 78.2983C99.4302 78.2983 99.9622 78.87 99.9622 79.8494V79.8892C99.9622 80.456 99.3855 80.4062 97.9934 80.5852C96.5765 80.7692 95.0304 81.0824 95.0304 82.8324C95.0304 84.3239 96.1838 85.179 97.6355 85.179ZM97.8145 84.125C96.8798 84.125 96.2037 83.7074 96.2037 82.892C96.2037 81.9972 97.019 81.7188 97.9338 81.5994C98.4309 81.5398 99.7633 81.4006 99.9622 81.1619V82.2358C99.9622 83.1903 99.2065 84.125 97.8145 84.125ZM106.359 88.0227C108.189 88.0227 109.661 87.1875 109.661 85.2188V77.3636H108.527V78.5767H108.408C108.149 78.179 107.672 77.2642 106.18 77.2642C104.251 77.2642 102.919 78.7955 102.919 81.142C102.919 83.5284 104.311 84.8807 106.161 84.8807C107.652 84.8807 108.129 84.0057 108.388 83.5881H108.487V85.1392C108.487 86.4119 107.592 86.9886 106.359 86.9886C104.972 86.9886 104.485 86.2578 104.172 85.8352L103.237 86.4915C103.714 87.2919 104.654 88.0227 106.359 88.0227ZM106.32 83.8267C104.848 83.8267 104.092 82.7131 104.092 81.1222C104.092 79.571 104.828 78.3182 106.32 78.3182C107.751 78.3182 108.507 79.4716 108.507 81.1222C108.507 82.8125 107.732 83.8267 106.32 83.8267ZM115.01 85.1591C116.561 85.1591 117.695 84.3835 118.053 83.2301L116.919 82.9119C116.621 83.7074 115.93 84.1051 115.01 84.1051C113.633 84.1051 112.683 83.2152 112.629 81.5795H118.172V81.0824C118.172 78.2386 116.482 77.2642 114.891 77.2642C112.822 77.2642 111.45 78.8949 111.45 81.2415C111.45 83.5881 112.803 85.1591 115.01 85.1591ZM112.629 80.5653C112.708 79.3771 113.548 78.3182 114.891 78.3182C116.163 78.3182 116.979 79.2727 116.979 80.5653H112.629Z" fill="#484848"/>
<g clip-path="url(#clip0)">
<path d="M294.953 112C294.576 109.912 292.905 108.679 290.857 108.679C288.252 108.679 286.363 110.688 286.363 113.909C286.363 117.131 288.252 119.139 290.857 119.139C292.905 119.139 294.576 117.906 294.953 115.818H293.721C293.422 117.23 292.209 117.986 290.857 117.986C289.007 117.986 287.556 116.554 287.556 113.909C287.556 111.264 289.007 109.832 290.857 109.832C292.209 109.832 293.422 110.588 293.721 112H294.953ZM297.96 114.406C297.96 113.074 298.81 112.318 299.969 112.318C301.072 112.318 301.738 113.014 301.738 114.227V119H302.912V114.148C302.912 112.184 301.868 111.264 300.307 111.264C299.104 111.264 298.417 111.766 298.059 112.557H297.96V108.818H296.787V119H297.96V114.406ZM307.305 119.179C308.638 119.179 309.334 118.463 309.572 117.966H309.632V119H310.805V113.969C310.805 111.543 308.956 111.264 307.982 111.264C306.828 111.264 305.516 111.662 304.919 113.054L306.033 113.452C306.291 112.895 306.903 112.298 308.021 112.298C309.1 112.298 309.632 112.87 309.632 113.849V113.889C309.632 114.456 309.055 114.406 307.663 114.585C306.246 114.769 304.7 115.082 304.7 116.832C304.7 118.324 305.854 119.179 307.305 119.179ZM307.484 118.125C306.55 118.125 305.874 117.707 305.874 116.892C305.874 115.997 306.689 115.719 307.604 115.599C308.101 115.54 309.433 115.401 309.632 115.162V116.236C309.632 117.19 308.876 118.125 307.484 118.125ZM316.268 111.364H314.637V109.534H313.464V111.364H312.311V112.358H313.464V117.131C313.464 118.463 314.538 119.099 315.532 119.099C315.97 119.099 316.248 119.02 316.407 118.96L316.169 117.906C316.069 117.926 315.91 117.966 315.651 117.966C315.134 117.966 314.637 117.807 314.637 116.812V112.358H316.268V111.364ZM325.271 119C328.374 119 330.124 117.071 330.124 113.889C330.124 110.727 328.374 108.818 325.411 108.818H322.129V119H325.271ZM323.362 117.906V109.912H325.331C327.718 109.912 328.931 111.423 328.931 113.889C328.931 116.375 327.718 117.906 325.192 117.906H323.362ZM334.28 119.179C335.612 119.179 336.308 118.463 336.547 117.966H336.607V119H337.78V113.969C337.78 111.543 335.931 111.264 334.956 111.264C333.803 111.264 332.49 111.662 331.894 113.054L333.007 113.452C333.266 112.895 333.877 112.298 334.996 112.298C336.075 112.298 336.607 112.87 336.607 113.849V113.889C336.607 114.456 336.03 114.406 334.638 114.585C333.221 114.769 331.675 115.082 331.675 116.832C331.675 118.324 332.828 119.179 334.28 119.179ZM334.459 118.125C333.524 118.125 332.848 117.707 332.848 116.892C332.848 115.997 333.664 115.719 334.578 115.599C335.075 115.54 336.408 115.401 336.607 115.162V116.236C336.607 117.19 335.851 118.125 334.459 118.125ZM343.243 111.364H341.612V109.534H340.439V111.364H339.285V112.358H340.439V117.131C340.439 118.463 341.512 119.099 342.507 119.099C342.944 119.099 343.223 119.02 343.382 118.96L343.143 117.906C343.044 117.926 342.885 117.966 342.626 117.966C342.109 117.966 341.612 117.807 341.612 116.812V112.358H343.243V111.364ZM348.127 119.159C349.678 119.159 350.812 118.384 351.17 117.23L350.036 116.912C349.738 117.707 349.047 118.105 348.127 118.105C346.75 118.105 345.8 117.215 345.746 115.58H351.289V115.082C351.289 112.239 349.599 111.264 348.008 111.264C345.94 111.264 344.567 112.895 344.567 115.241C344.567 117.588 345.92 119.159 348.127 119.159ZM345.746 114.565C345.825 113.377 346.665 112.318 348.008 112.318C349.281 112.318 350.096 113.273 350.096 114.565H345.746Z" fill="#8A8A8A"/>
<rect x="16" y="102" width="79" height="24" rx="12" fill="#F8F8F8"/>
<path d="M32.5 108L27 115H32L31.5 120L37 113H32L32.5 108Z" stroke="#333333" stroke-linecap="round" stroke-linejoin="round"/>
<path d="M51.0824 111.364H52.2756C52.2209 109.827 50.804 108.679 48.8352 108.679C46.8864 108.679 45.3551 109.812 45.3551 111.523C45.3551 112.895 46.3494 113.71 47.9403 114.168L49.1932 114.526C50.267 114.824 51.2216 115.202 51.2216 116.216C51.2216 117.33 50.1477 118.065 48.7358 118.065C47.5227 118.065 46.4489 117.528 46.3494 116.375H45.0767C45.196 118.045 46.5483 119.179 48.7358 119.179C51.0824 119.179 52.4148 117.886 52.4148 116.236C52.4148 114.327 50.6051 113.71 49.5511 113.432L48.517 113.153C47.7614 112.955 46.5483 112.557 46.5483 111.463C46.5483 110.489 47.4432 109.773 48.7955 109.773C50.0284 109.773 50.9631 110.359 51.0824 111.364ZM57.6039 111.364H55.9732V109.534H54.7999V111.364H53.6465V112.358H54.7999V117.131C54.7999 118.463 55.8738 119.099 56.8681 119.099C57.3056 119.099 57.584 119.02 57.7431 118.96L57.5044 117.906C57.405 117.926 57.2459 117.966 56.9874 117.966C56.4703 117.966 55.9732 117.807 55.9732 116.812V112.358H57.6039V111.364ZM61.6159 119.179C62.9483 119.179 63.6444 118.463 63.883 117.966H63.9426V119H65.1159V113.969C65.1159 111.543 63.2665 111.264 62.2921 111.264C61.1387 111.264 59.8262 111.662 59.2296 113.054L60.3432 113.452C60.6017 112.895 61.2132 112.298 62.3319 112.298C63.4107 112.298 63.9426 112.87 63.9426 113.849V113.889C63.9426 114.456 63.3659 114.406 61.9739 114.585C60.557 114.769 59.0108 115.082 59.0108 116.832C59.0108 118.324 60.1642 119.179 61.6159 119.179ZM61.7949 118.125C60.8603 118.125 60.1841 117.707 60.1841 116.892C60.1841 115.997 60.9995 115.719 61.9142 115.599C62.4114 115.54 63.7438 115.401 63.9426 115.162V116.236C63.9426 117.19 63.187 118.125 61.7949 118.125ZM70.5785 111.364H68.9478V109.534H67.7745V111.364H66.6211V112.358H67.7745V117.131C67.7745 118.463 68.8484 119.099 69.8427 119.099C70.2802 119.099 70.5586 119.02 70.7177 118.96L70.479 117.906C70.3796 117.926 70.2205 117.966 69.962 117.966C69.445 117.966 68.9478 117.807 68.9478 116.812V112.358H70.5785V111.364ZM77.1559 115.878C77.1559 117.31 76.0621 117.966 75.1871 117.966C74.2127 117.966 73.5167 117.25 73.5167 116.136V111.364H72.3434V116.216C72.3434 118.165 73.3775 119.099 74.8093 119.099C75.9627 119.099 76.7184 118.483 77.0763 117.707H77.1559V119H78.3292V111.364H77.1559V115.878ZM85.8873 113.074C85.5194 111.99 84.6941 111.264 83.1827 111.264C81.5719 111.264 80.3787 112.179 80.3787 113.472C80.3787 114.526 81.0051 115.232 82.4071 115.56L83.6799 115.858C84.4505 116.037 84.8134 116.405 84.8134 116.932C84.8134 117.588 84.1174 118.125 83.0236 118.125C82.0641 118.125 81.4625 117.712 81.2537 116.892L80.1401 117.17C80.4135 118.468 81.4824 119.159 83.0435 119.159C84.8184 119.159 86.0265 118.19 86.0265 116.872C86.0265 115.808 85.3603 115.137 83.998 114.804L82.8645 114.526C81.9597 114.302 81.552 113.999 81.552 113.412C81.552 112.756 82.248 112.278 83.1827 112.278C84.2069 112.278 84.6294 112.845 84.8333 113.372L85.8873 113.074Z" fill="#333333"/>
</g>
<rect x="8.5" y="4.5" width="359" height="137" rx="5.5" stroke="#EEEEEE"/>
</g>
<defs>
<filter id="filter0_d" x="0" y="0" width="376" height="154" filterUnits="userSpaceOnUse" color-interpolation-filters="sRGB">
<feFlood flood-opacity="0" result="BackgroundImageFix"/>
<feColorMatrix in="SourceAlpha" type="matrix" values="0 0 0 0 0 0 0 0 0 0 0 0 0 0 0 0 0 0 127 0"/>
<feOffset dy="4"/>
<feGaussianBlur stdDeviation="4"/>
<feColorMatrix type="matrix" values="0 0 0 0 0 0 0 0 0 0 0 0 0 0 0 0 0 0 0.04 0"/>
<feBlend mode="normal" in2="BackgroundImageFix" result="effect1_dropShadow"/>
<feBlend mode="normal" in="SourceGraphic" in2="effect1_dropShadow" result="shape"/>
</filter>
<clipPath id="clip0">
<rect x="8" y="104" width="360" height="38" fill="white"/>
</clipPath>
</defs>
</svg>
