<svg width="392" height="170" viewBox="0 0 392 170" fill="none" xmlns="http://www.w3.org/2000/svg">
<g filter="url(#filter0_d)">
<rect x="16" y="12" width="360" height="138" rx="6" fill="white"/>
<path d="M43.108 36.2898C42.75 33.7045 40.7614 32.2045 38.1818 32.2045C35.142 32.2045 32.8523 34.4205 32.8523 38.1818C32.8523 41.9375 35.1136 44.1591 38.1818 44.1591C40.9489 44.1591 42.7841 42.3693 43.108 40.1477L40.983 40.1364C40.7159 41.5 39.6023 42.267 38.2102 42.267C36.3239 42.267 34.9716 40.8523 34.9716 38.1818C34.9716 35.5568 36.3125 34.0966 38.2159 34.0966C39.6307 34.0966 40.7386 34.8977 40.983 36.2898H43.108ZM48.7543 44.1705C51.3111 44.1705 52.9361 42.3693 52.9361 39.6705C52.9361 36.9659 51.3111 35.1591 48.7543 35.1591C46.1974 35.1591 44.5724 36.9659 44.5724 39.6705C44.5724 42.3693 46.1974 44.1705 48.7543 44.1705ZM48.7656 42.5227C47.3509 42.5227 46.6577 41.2614 46.6577 39.6648C46.6577 38.0682 47.3509 36.7898 48.7656 36.7898C50.1577 36.7898 50.8509 38.0682 50.8509 39.6648C50.8509 41.2614 50.1577 42.5227 48.7656 42.5227ZM54.6818 44H56.7386V38.6932C56.7386 37.6193 57.4545 36.892 58.3409 36.892C59.2102 36.892 59.8068 37.4773 59.8068 38.375V44H61.8239V38.5568C61.8239 37.5739 62.4091 36.892 63.4034 36.892C64.233 36.892 64.892 37.3807 64.892 38.4602V44H66.9545V38.142C66.9545 36.1932 65.8295 35.1591 64.2273 35.1591C62.9602 35.1591 61.9943 35.7841 61.608 36.7557H61.517C61.1818 35.767 60.3352 35.1591 59.1591 35.1591C57.9886 35.1591 57.1136 35.7614 56.75 36.7557H56.6477V35.2727H54.6818V44ZM69.0412 47.2727H71.098V42.625H71.1832C71.5071 43.2614 72.1832 44.1534 73.6832 44.1534C75.7401 44.1534 77.2798 42.5227 77.2798 39.6477C77.2798 36.7386 75.6946 35.1591 73.6776 35.1591C72.1378 35.1591 71.4957 36.0852 71.1832 36.7159H71.0639V35.2727H69.0412V47.2727ZM71.0582 39.6364C71.0582 37.9432 71.7855 36.8466 73.1094 36.8466C74.4787 36.8466 75.1832 38.0114 75.1832 39.6364C75.1832 41.2727 74.4673 42.4659 73.1094 42.4659C71.7969 42.4659 71.0582 41.3295 71.0582 39.6364ZM81.5526 44.1761C82.9219 44.1761 83.7401 43.5341 84.1151 42.8011H84.1832V44H86.1605V38.1591C86.1605 35.8523 84.2798 35.1591 82.6151 35.1591C80.7798 35.1591 79.3707 35.9773 78.9162 37.5682L80.8366 37.8409C81.0412 37.2443 81.6207 36.733 82.6264 36.733C83.581 36.733 84.1037 37.2216 84.1037 38.0795V38.1136C84.1037 38.7045 83.4844 38.733 81.9446 38.8977C80.2514 39.0795 78.6321 39.5852 78.6321 41.5511C78.6321 43.267 79.8878 44.1761 81.5526 44.1761ZM82.0866 42.6648C81.2287 42.6648 80.6151 42.2727 80.6151 41.517C80.6151 40.7273 81.3026 40.3977 82.223 40.267C82.7628 40.1932 83.8423 40.0568 84.1094 39.8409V40.8693C84.1094 41.8409 83.3253 42.6648 82.0866 42.6648ZM90.2855 38.8864C90.2855 37.625 91.0469 36.8977 92.1321 36.8977C93.1946 36.8977 93.831 37.5966 93.831 38.7614V44H95.8878V38.4432C95.8935 36.3523 94.7003 35.1591 92.8991 35.1591C91.5923 35.1591 90.6946 35.7841 90.2969 36.7557H90.1946V35.2727H88.2287V44H90.2855V38.8864ZM98.9446 47.2557C100.547 47.2557 101.473 46.4261 101.967 45.0568L105.473 35.2841L103.274 35.2727L101.257 41.8636H101.166L99.1548 35.2727H96.973L100.138 44.1818L99.9616 44.6534C99.5696 45.6193 98.9787 45.6932 98.081 45.4375L97.6037 47.0341C97.8821 47.1534 98.3821 47.2557 98.9446 47.2557ZM120.523 32.3636H118.426V40.2955H118.324L112.847 32.3636H110.96V44H113.068V36.0739H113.165L118.648 44H120.523V32.3636ZM125.24 44.1761C126.609 44.1761 127.428 43.5341 127.803 42.8011H127.871V44H129.848V38.1591C129.848 35.8523 127.967 35.1591 126.303 35.1591C124.467 35.1591 123.058 35.9773 122.604 37.5682L124.524 37.8409C124.729 37.2443 125.308 36.733 126.314 36.733C127.268 36.733 127.791 37.2216 127.791 38.0795V38.1136C127.791 38.7045 127.172 38.733 125.632 38.8977C123.939 39.0795 122.32 39.5852 122.32 41.5511C122.32 43.267 123.575 44.1761 125.24 44.1761ZM125.774 42.6648C124.916 42.6648 124.303 42.2727 124.303 41.517C124.303 40.7273 124.99 40.3977 125.911 40.267C126.45 40.1932 127.53 40.0568 127.797 39.8409V40.8693C127.797 41.8409 127.013 42.6648 125.774 42.6648ZM131.916 44H133.973V38.6932C133.973 37.6193 134.689 36.892 135.575 36.892C136.445 36.892 137.041 37.4773 137.041 38.375V44H139.058V38.5568C139.058 37.5739 139.643 36.892 140.638 36.892C141.467 36.892 142.126 37.3807 142.126 38.4602V44H144.189V38.142C144.189 36.1932 143.064 35.1591 141.462 35.1591C140.195 35.1591 139.229 35.7841 138.842 36.7557H138.751C138.416 35.767 137.57 35.1591 136.393 35.1591C135.223 35.1591 134.348 35.7614 133.984 36.7557H133.882V35.2727H131.916V44ZM150.139 44.1705C152.173 44.1705 153.571 43.1761 153.935 41.6591L152.014 41.4432C151.736 42.1818 151.054 42.5682 150.168 42.5682C148.838 42.5682 147.957 41.6932 147.94 40.1989H154.02V39.5682C154.02 36.5057 152.179 35.1591 150.031 35.1591C147.531 35.1591 145.901 36.9943 145.901 39.6875C145.901 42.4261 147.509 44.1705 150.139 44.1705ZM147.946 38.8125C148.009 37.6989 148.832 36.7614 150.06 36.7614C151.241 36.7614 152.037 37.625 152.048 38.8125H147.946Z" fill="#333333"/>
<circle cx="167" cy="38" r="4" fill="#2FB212"/>
<path d="M34.2756 55.2727H32.9588V64H34.2756V55.2727ZM37.3651 60.1136C37.3651 59.0696 38.0043 58.473 38.8906 58.473C39.7557 58.473 40.2798 59.0398 40.2798 59.9901V64H41.554V59.8366C41.554 58.2173 40.6634 57.3693 39.3253 57.3693C38.3409 57.3693 37.6974 57.8253 37.3949 58.5199H37.3139V57.4545H36.0909V64H37.3651V60.1136ZM46.3182 57.4545H44.9759V55.8864H43.7017V57.4545H42.7429V58.4773H43.7017V62.3423C43.6974 63.5312 44.6051 64.1065 45.6108 64.0852C46.0156 64.081 46.2884 64.0043 46.4375 63.9489L46.2074 62.8963C46.1222 62.9134 45.9645 62.9517 45.7599 62.9517C45.3466 62.9517 44.9759 62.8153 44.9759 62.0781V58.4773H46.3182V57.4545ZM50.4783 64.1321C51.9059 64.1321 52.9158 63.429 53.2056 62.3636L51.9996 62.1463C51.7695 62.7642 51.2156 63.0795 50.4911 63.0795C49.4002 63.0795 48.6673 62.3722 48.6332 61.1108H53.2866V60.6591C53.2866 58.294 51.8718 57.3693 50.3888 57.3693C48.565 57.3693 47.3633 58.7585 47.3633 60.7699C47.3633 62.8026 48.5479 64.1321 50.4783 64.1321ZM48.6374 60.1562C48.6886 59.2273 49.3619 58.4219 50.3974 58.4219C51.386 58.4219 52.0337 59.1548 52.038 60.1562H48.6374ZM54.7003 64H55.9744V60.0028C55.9744 59.1463 56.6349 58.5284 57.5384 58.5284C57.8026 58.5284 58.1009 58.5753 58.2031 58.6051V57.3864C58.0753 57.3693 57.8239 57.3565 57.6619 57.3565C56.8949 57.3565 56.2386 57.7912 56 58.4943H55.9318V57.4545H54.7003V64ZM60.5799 60.1136C60.5799 59.0696 61.2191 58.473 62.1055 58.473C62.9705 58.473 63.4947 59.0398 63.4947 59.9901V64H64.7688V59.8366C64.7688 58.2173 63.8782 57.3693 62.5401 57.3693C61.5558 57.3693 60.9123 57.8253 60.6097 58.5199H60.5288V57.4545H59.3058V64H60.5799V60.1136ZM71.3825 59.0526C71.1183 58.0341 70.3214 57.3693 68.9066 57.3693C67.4279 57.3693 66.3796 58.1491 66.3796 59.3082C66.3796 60.2372 66.9421 60.8551 68.1694 61.1278L69.2773 61.3707C69.908 61.5114 70.2021 61.7926 70.2021 62.2017C70.2021 62.7088 69.6609 63.1051 68.8256 63.1051C68.0629 63.1051 67.5728 62.777 67.4194 62.1335L66.1879 62.321C66.4009 63.4801 67.364 64.1321 68.8342 64.1321C70.4151 64.1321 71.5103 63.2926 71.5103 62.108C71.5103 61.1832 70.9222 60.6122 69.7205 60.3352L68.6808 60.0966C67.9606 59.9261 67.6495 59.6832 67.6538 59.2401C67.6495 58.7372 68.195 58.3793 68.9194 58.3793C69.712 58.3793 70.0785 58.8182 70.2276 59.2571L71.3825 59.0526ZM74.1854 60.1136C74.1854 59.0696 74.8459 58.473 75.7536 58.473C76.6314 58.473 77.1555 59.0312 77.1555 59.9901V64H78.4297V59.8366C78.4297 58.2045 77.5348 57.3693 76.1882 57.3693C75.1697 57.3693 74.5561 57.8125 74.2493 58.5199H74.1683V55.2727H72.9112V64H74.1854V60.1136ZM80.13 64H81.4041V57.4545H80.13V64ZM80.7734 56.4446C81.2124 56.4446 81.5788 56.1037 81.5788 55.6861C81.5788 55.2685 81.2124 54.9233 80.7734 54.9233C80.3303 54.9233 79.968 55.2685 79.968 55.6861C79.968 56.1037 80.3303 56.4446 80.7734 56.4446ZM83.1183 66.4545H84.3924V62.9815H84.4691C84.6992 63.3991 85.168 64.1278 86.3612 64.1278C87.9464 64.1278 89.0969 62.858 89.0969 60.7401C89.0969 58.6179 87.9293 57.3693 86.3484 57.3693C85.1339 57.3693 84.695 58.1108 84.4691 58.5156H84.3626V57.4545H83.1183V66.4545ZM84.3668 60.7273C84.3668 59.3594 84.9634 58.4517 86.0756 58.4517C87.2305 58.4517 87.81 59.4276 87.81 60.7273C87.81 62.0398 87.2134 63.0412 86.0756 63.0412C84.9805 63.0412 84.3668 62.1037 84.3668 60.7273ZM93.3722 56.4062H96.0909V64H97.4034V56.4062H100.126V55.2727H93.3722V56.4062ZM101.517 64H102.791V57.4545H101.517V64ZM102.16 56.4446C102.599 56.4446 102.966 56.1037 102.966 55.6861C102.966 55.2685 102.599 54.9233 102.16 54.9233C101.717 54.9233 101.355 55.2685 101.355 55.6861C101.355 56.1037 101.717 56.4446 102.16 56.4446ZM107.56 57.4545H106.218V55.8864H104.944V57.4545H103.985V58.4773H104.944V62.3423C104.94 63.5312 105.847 64.1065 106.853 64.0852C107.258 64.081 107.531 64.0043 107.68 63.9489L107.45 62.8963C107.364 62.9134 107.207 62.9517 107.002 62.9517C106.589 62.9517 106.218 62.8153 106.218 62.0781V58.4773H107.56V57.4545ZM110.385 55.2727H109.11V64H110.385V55.2727ZM114.92 64.1321C116.347 64.1321 117.357 63.429 117.647 62.3636L116.441 62.1463C116.211 62.7642 115.657 63.0795 114.933 63.0795C113.842 63.0795 113.109 62.3722 113.075 61.1108H117.728V60.6591C117.728 58.294 116.313 57.3693 114.83 57.3693C113.006 57.3693 111.805 58.7585 111.805 60.7699C111.805 62.8026 112.989 64.1321 114.92 64.1321ZM113.079 60.1562C113.13 59.2273 113.803 58.4219 114.839 58.4219C115.827 58.4219 116.475 59.1548 116.479 60.1562H113.079Z" fill="#8A8A8A"/>
<circle cx="350" cy="38" r="10" fill="#00A5EC"/>
<path d="M350.005 42.1449C352.02 42.1449 353.201 40.5 353.201 37.6406C353.201 34.8026 352.003 33.1534 350.005 33.1534C348.002 33.1534 346.809 34.7983 346.805 37.6406C346.805 40.4957 347.985 42.1406 350.005 42.1449ZM350.005 41.0071C348.824 41.0071 348.113 39.8224 348.113 37.6406C348.117 35.4673 348.829 34.2699 350.005 34.2699C351.177 34.2699 351.893 35.4673 351.893 37.6406C351.893 39.8224 351.181 41.0071 350.005 41.0071Z" fill="white"/>
<path d="M41.4261 86C41.0483 83.9119 39.3778 82.679 37.3295 82.679C34.7244 82.679 32.8352 84.6875 32.8352 87.9091C32.8352 91.1307 34.7244 93.1392 37.3295 93.1392C39.3778 93.1392 41.0483 91.9062 41.4261 89.8182H40.1932C39.8949 91.2301 38.6818 91.9858 37.3295 91.9858C35.4801 91.9858 34.0284 90.554 34.0284 87.9091C34.0284 85.2642 35.4801 83.8324 37.3295 83.8324C38.6818 83.8324 39.8949 84.5881 40.1932 86H41.4261ZM44.4327 88.4062C44.4327 87.0739 45.2828 86.3182 46.4412 86.3182C47.5449 86.3182 48.2111 87.0142 48.2111 88.2273V93H49.3844V88.1477C49.3844 86.1839 48.3404 85.2642 46.7793 85.2642C45.5762 85.2642 44.8901 85.7663 44.5321 86.5568H44.4327V82.8182H43.2594V93H44.4327V88.4062ZM53.7781 93.179C55.1104 93.179 55.8065 92.4631 56.0451 91.9659H56.1048V93H57.2781V87.9688C57.2781 85.5426 55.4286 85.2642 54.4542 85.2642C53.3008 85.2642 51.9883 85.6619 51.3917 87.054L52.5053 87.4517C52.7638 86.8949 53.3754 86.2983 54.494 86.2983C55.5728 86.2983 56.1048 86.87 56.1048 87.8494V87.8892C56.1048 88.456 55.5281 88.4062 54.136 88.5852C52.7191 88.7692 51.1729 89.0824 51.1729 90.8324C51.1729 92.3239 52.3263 93.179 53.7781 93.179ZM53.957 92.125C53.0224 92.125 52.3462 91.7074 52.3462 90.892C52.3462 89.9972 53.1616 89.7188 54.0763 89.5994C54.5735 89.5398 55.9059 89.4006 56.1048 89.1619V90.2358C56.1048 91.1903 55.3491 92.125 53.957 92.125ZM62.7406 85.3636H61.1099V83.5341H59.9366V85.3636H58.7832V86.358H59.9366V91.1307C59.9366 92.4631 61.0105 93.0994 62.0048 93.0994C62.4423 93.0994 62.7207 93.0199 62.8798 92.9602L62.6412 91.9062C62.5417 91.9261 62.3826 91.9659 62.1241 91.9659C61.6071 91.9659 61.1099 91.8068 61.1099 90.8125V86.358H62.7406V85.3636ZM68.443 93H69.6163V88.2273C69.6163 87.1087 70.4316 86.3182 71.3464 86.3182C72.2363 86.3182 72.8578 86.8999 72.8578 87.7699V93H74.051V88.0284C74.051 87.044 74.6674 86.3182 75.7413 86.3182C76.5765 86.3182 77.2924 86.7607 77.2924 87.8892V93H78.4657V87.8892C78.4657 86.0945 77.5012 85.2642 76.139 85.2642C75.0453 85.2642 74.2449 85.7663 73.8521 86.5568H73.7725C73.3947 85.7415 72.7285 85.2642 71.7243 85.2642C70.7299 85.2642 69.9941 85.7415 69.676 86.5568H69.5765V85.3636H68.443V93ZM83.8127 93.1591C85.3638 93.1591 86.4973 92.3835 86.8553 91.2301L85.7218 90.9119C85.4235 91.7074 84.7324 92.1051 83.8127 92.1051C82.4355 92.1051 81.486 91.2152 81.4313 89.5795H86.9746V89.0824C86.9746 86.2386 85.2843 85.2642 83.6934 85.2642C81.6252 85.2642 80.253 86.8949 80.253 89.2415C80.253 91.5881 81.6053 93.1591 83.8127 93.1591ZM81.4313 88.5653C81.5108 87.3771 82.351 86.3182 83.6934 86.3182C84.9661 86.3182 85.7814 87.2727 85.7814 88.5653H81.4313ZM94.1685 87.0739C93.8006 85.9901 92.9753 85.2642 91.464 85.2642C89.8532 85.2642 88.66 86.179 88.66 87.4716C88.66 88.5256 89.2864 89.2315 90.6884 89.5597L91.9611 89.858C92.7317 90.0369 93.0946 90.4048 93.0946 90.9318C93.0946 91.5881 92.3986 92.125 91.3049 92.125C90.3453 92.125 89.7438 91.7124 89.535 90.892L88.4213 91.1705C88.6948 92.468 89.7637 93.1591 91.3248 93.1591C93.0996 93.1591 94.3077 92.1896 94.3077 90.8722C94.3077 89.8082 93.6415 89.1371 92.2793 88.804L91.1458 88.5256C90.2409 88.3018 89.8333 87.9986 89.8333 87.4119C89.8333 86.7557 90.5293 86.2784 91.464 86.2784C92.4881 86.2784 92.9107 86.8452 93.1145 87.3722L94.1685 87.0739ZM101.483 87.0739C101.115 85.9901 100.29 85.2642 98.7784 85.2642C97.1676 85.2642 95.9744 86.179 95.9744 87.4716C95.9744 88.5256 96.6009 89.2315 98.0028 89.5597L99.2756 89.858C100.046 90.0369 100.409 90.4048 100.409 90.9318C100.409 91.5881 99.7131 92.125 98.6193 92.125C97.6598 92.125 97.0582 91.7124 96.8494 90.892L95.7358 91.1705C96.0092 92.468 97.0781 93.1591 98.6392 93.1591C100.414 93.1591 101.622 92.1896 101.622 90.8722C101.622 89.8082 100.956 89.1371 99.5938 88.804L98.4602 88.5256C97.5554 88.3018 97.1477 87.9986 97.1477 87.4119C97.1477 86.7557 97.8438 86.2784 98.7784 86.2784C99.8026 86.2784 100.225 86.8452 100.429 87.3722L101.483 87.0739ZM105.635 93.179C106.968 93.179 107.664 92.4631 107.903 91.9659H107.962V93H109.135V87.9688C109.135 85.5426 107.286 85.2642 106.312 85.2642C105.158 85.2642 103.846 85.6619 103.249 87.054L104.363 87.4517C104.621 86.8949 105.233 86.2983 106.351 86.2983C107.43 86.2983 107.962 86.87 107.962 87.8494V87.8892C107.962 88.456 107.385 88.4062 105.993 88.5852C104.577 88.7692 103.03 89.0824 103.03 90.8324C103.03 92.3239 104.184 93.179 105.635 93.179ZM105.814 92.125C104.88 92.125 104.204 91.7074 104.204 90.892C104.204 89.9972 105.019 89.7188 105.934 89.5994C106.431 89.5398 107.763 89.4006 107.962 89.1619V90.2358C107.962 91.1903 107.206 92.125 105.814 92.125ZM114.359 96.0227C116.189 96.0227 117.661 95.1875 117.661 93.2188V85.3636H116.527V86.5767H116.408C116.149 86.179 115.672 85.2642 114.18 85.2642C112.251 85.2642 110.919 86.7955 110.919 89.142C110.919 91.5284 112.311 92.8807 114.161 92.8807C115.652 92.8807 116.129 92.0057 116.388 91.5881H116.487V93.1392C116.487 94.4119 115.592 94.9886 114.359 94.9886C112.972 94.9886 112.485 94.2578 112.172 93.8352L111.237 94.4915C111.714 95.2919 112.654 96.0227 114.359 96.0227ZM114.32 91.8267C112.848 91.8267 112.092 90.7131 112.092 89.1222C112.092 87.571 112.828 86.3182 114.32 86.3182C115.751 86.3182 116.507 87.4716 116.507 89.1222C116.507 90.8125 115.732 91.8267 114.32 91.8267ZM123.01 93.1591C124.561 93.1591 125.695 92.3835 126.053 91.2301L124.919 90.9119C124.621 91.7074 123.93 92.1051 123.01 92.1051C121.633 92.1051 120.683 91.2152 120.629 89.5795H126.172V89.0824C126.172 86.2386 124.482 85.2642 122.891 85.2642C120.822 85.2642 119.45 86.8949 119.45 89.2415C119.45 91.5881 120.803 93.1591 123.01 93.1591ZM120.629 88.5653C120.708 87.3771 121.548 86.3182 122.891 86.3182C124.163 86.3182 124.979 87.2727 124.979 88.5653H120.629Z" fill="#484848"/>
<g clip-path="url(#clip0)">
<path d="M302.953 120C302.576 117.912 300.905 116.679 298.857 116.679C296.252 116.679 294.363 118.688 294.363 121.909C294.363 125.131 296.252 127.139 298.857 127.139C300.905 127.139 302.576 125.906 302.953 123.818H301.721C301.422 125.23 300.209 125.986 298.857 125.986C297.007 125.986 295.556 124.554 295.556 121.909C295.556 119.264 297.007 117.832 298.857 117.832C300.209 117.832 301.422 118.588 301.721 120H302.953ZM305.96 122.406C305.96 121.074 306.81 120.318 307.969 120.318C309.072 120.318 309.738 121.014 309.738 122.227V127H310.912V122.148C310.912 120.184 309.868 119.264 308.307 119.264C307.104 119.264 306.417 119.766 306.059 120.557H305.96V116.818H304.787V127H305.96V122.406ZM315.305 127.179C316.638 127.179 317.334 126.463 317.572 125.966H317.632V127H318.805V121.969C318.805 119.543 316.956 119.264 315.982 119.264C314.828 119.264 313.516 119.662 312.919 121.054L314.033 121.452C314.291 120.895 314.903 120.298 316.021 120.298C317.1 120.298 317.632 120.87 317.632 121.849V121.889C317.632 122.456 317.055 122.406 315.663 122.585C314.246 122.769 312.7 123.082 312.7 124.832C312.7 126.324 313.854 127.179 315.305 127.179ZM315.484 126.125C314.55 126.125 313.874 125.707 313.874 124.892C313.874 123.997 314.689 123.719 315.604 123.599C316.101 123.54 317.433 123.401 317.632 123.162V124.236C317.632 125.19 316.876 126.125 315.484 126.125ZM324.268 119.364H322.637V117.534H321.464V119.364H320.311V120.358H321.464V125.131C321.464 126.463 322.538 127.099 323.532 127.099C323.97 127.099 324.248 127.02 324.407 126.96L324.169 125.906C324.069 125.926 323.91 125.966 323.651 125.966C323.134 125.966 322.637 125.807 322.637 124.812V120.358H324.268V119.364ZM333.271 127C336.374 127 338.124 125.071 338.124 121.889C338.124 118.727 336.374 116.818 333.411 116.818H330.129V127H333.271ZM331.362 125.906V117.912H333.331C335.718 117.912 336.931 119.423 336.931 121.889C336.931 124.375 335.718 125.906 333.192 125.906H331.362ZM342.28 127.179C343.612 127.179 344.308 126.463 344.547 125.966H344.607V127H345.78V121.969C345.78 119.543 343.931 119.264 342.956 119.264C341.803 119.264 340.49 119.662 339.894 121.054L341.007 121.452C341.266 120.895 341.877 120.298 342.996 120.298C344.075 120.298 344.607 120.87 344.607 121.849V121.889C344.607 122.456 344.03 122.406 342.638 122.585C341.221 122.769 339.675 123.082 339.675 124.832C339.675 126.324 340.828 127.179 342.28 127.179ZM342.459 126.125C341.524 126.125 340.848 125.707 340.848 124.892C340.848 123.997 341.664 123.719 342.578 123.599C343.075 123.54 344.408 123.401 344.607 123.162V124.236C344.607 125.19 343.851 126.125 342.459 126.125ZM351.243 119.364H349.612V117.534H348.439V119.364H347.285V120.358H348.439V125.131C348.439 126.463 349.512 127.099 350.507 127.099C350.944 127.099 351.223 127.02 351.382 126.96L351.143 125.906C351.044 125.926 350.885 125.966 350.626 125.966C350.109 125.966 349.612 125.807 349.612 124.812V120.358H351.243V119.364ZM356.127 127.159C357.678 127.159 358.812 126.384 359.17 125.23L358.036 124.912C357.738 125.707 357.047 126.105 356.127 126.105C354.75 126.105 353.8 125.215 353.746 123.58H359.289V123.082C359.289 120.239 357.599 119.264 356.008 119.264C353.94 119.264 352.567 120.895 352.567 123.241C352.567 125.588 353.92 127.159 356.127 127.159ZM353.746 122.565C353.825 121.377 354.665 120.318 356.008 120.318C357.281 120.318 358.096 121.273 358.096 122.565H353.746Z" fill="#8A8A8A"/>
<rect x="24" y="110" width="79" height="24" rx="12" fill="#F8F8F8"/>
<path d="M40.5 116L35 123H40L39.5 128L45 121H40L40.5 116Z" stroke="#333333" stroke-linecap="round" stroke-linejoin="round"/>
<path d="M59.0824 119.364H60.2756C60.2209 117.827 58.804 116.679 56.8352 116.679C54.8864 116.679 53.3551 117.812 53.3551 119.523C53.3551 120.895 54.3494 121.71 55.9403 122.168L57.1932 122.526C58.267 122.824 59.2216 123.202 59.2216 124.216C59.2216 125.33 58.1477 126.065 56.7358 126.065C55.5227 126.065 54.4489 125.528 54.3494 124.375H53.0767C53.196 126.045 54.5483 127.179 56.7358 127.179C59.0824 127.179 60.4148 125.886 60.4148 124.236C60.4148 122.327 58.6051 121.71 57.5511 121.432L56.517 121.153C55.7614 120.955 54.5483 120.557 54.5483 119.463C54.5483 118.489 55.4432 117.773 56.7955 117.773C58.0284 117.773 58.9631 118.359 59.0824 119.364ZM65.6039 119.364H63.9732V117.534H62.7999V119.364H61.6465V120.358H62.7999V125.131C62.7999 126.463 63.8738 127.099 64.8681 127.099C65.3056 127.099 65.584 127.02 65.7431 126.96L65.5044 125.906C65.405 125.926 65.2459 125.966 64.9874 125.966C64.4703 125.966 63.9732 125.807 63.9732 124.812V120.358H65.6039V119.364ZM69.6159 127.179C70.9483 127.179 71.6444 126.463 71.883 125.966H71.9426V127H73.1159V121.969C73.1159 119.543 71.2665 119.264 70.2921 119.264C69.1387 119.264 67.8262 119.662 67.2296 121.054L68.3432 121.452C68.6017 120.895 69.2132 120.298 70.3319 120.298C71.4107 120.298 71.9426 120.87 71.9426 121.849V121.889C71.9426 122.456 71.3659 122.406 69.9739 122.585C68.557 122.769 67.0108 123.082 67.0108 124.832C67.0108 126.324 68.1642 127.179 69.6159 127.179ZM69.7949 126.125C68.8603 126.125 68.1841 125.707 68.1841 124.892C68.1841 123.997 68.9995 123.719 69.9142 123.599C70.4114 123.54 71.7438 123.401 71.9426 123.162V124.236C71.9426 125.19 71.187 126.125 69.7949 126.125ZM78.5785 119.364H76.9478V117.534H75.7745V119.364H74.6211V120.358H75.7745V125.131C75.7745 126.463 76.8484 127.099 77.8427 127.099C78.2802 127.099 78.5586 127.02 78.7177 126.96L78.479 125.906C78.3796 125.926 78.2205 125.966 77.962 125.966C77.445 125.966 76.9478 125.807 76.9478 124.812V120.358H78.5785V119.364ZM85.1559 123.878C85.1559 125.31 84.0621 125.966 83.1871 125.966C82.2127 125.966 81.5167 125.25 81.5167 124.136V119.364H80.3434V124.216C80.3434 126.165 81.3775 127.099 82.8093 127.099C83.9627 127.099 84.7184 126.483 85.0763 125.707H85.1559V127H86.3292V119.364H85.1559V123.878ZM93.8873 121.074C93.5194 119.99 92.6941 119.264 91.1827 119.264C89.5719 119.264 88.3787 120.179 88.3787 121.472C88.3787 122.526 89.0051 123.232 90.4071 123.56L91.6799 123.858C92.4505 124.037 92.8134 124.405 92.8134 124.932C92.8134 125.588 92.1174 126.125 91.0236 126.125C90.0641 126.125 89.4625 125.712 89.2537 124.892L88.1401 125.17C88.4135 126.468 89.4824 127.159 91.0435 127.159C92.8184 127.159 94.0265 126.19 94.0265 124.872C94.0265 123.808 93.3603 123.137 91.998 122.804L90.8645 122.526C89.9597 122.302 89.552 121.999 89.552 121.412C89.552 120.756 90.248 120.278 91.1827 120.278C92.2069 120.278 92.6294 120.845 92.8333 121.372L93.8873 121.074Z" fill="#333333"/>
</g>
<rect x="16.5" y="12.5" width="359" height="137" rx="5.5" stroke="#EEEEEE"/>
</g>
<defs>
<filter id="filter0_d" x="0" y="0" width="392" height="170" filterUnits="userSpaceOnUse" color-interpolation-filters="sRGB">
<feFlood flood-opacity="0" result="BackgroundImageFix"/>
<feColorMatrix in="SourceAlpha" type="matrix" values="0 0 0 0 0 0 0 0 0 0 0 0 0 0 0 0 0 0 127 0"/>
<feOffset dy="4"/>
<feGaussianBlur stdDeviation="8"/>
<feColorMatrix type="matrix" values="0 0 0 0 0 0 0 0 0 0 0 0 0 0 0 0 0 0 0.08 0"/>
<feBlend mode="normal" in2="BackgroundImageFix" result="effect1_dropShadow"/>
<feBlend mode="normal" in="SourceGraphic" in2="effect1_dropShadow" result="shape"/>
</filter>
<clipPath id="clip0">
<rect x="16" y="112" width="360" height="38" fill="white"/>
</clipPath>
</defs>
</svg>
