<svg width="240" height="104" viewBox="0 0 240 104" fill="none" xmlns="http://www.w3.org/2000/svg">
<g clip-path="url(#clip0)">
<rect x="1" y="1" width="238" height="102" rx="7" stroke="#3A1BF5" stroke-width="2"/>
<path d="M74.6548 22.8182H73.1186V33H74.6548V22.8182ZM78.2592 28.4659C78.2592 27.2479 79.005 26.5518 80.0391 26.5518C81.0483 26.5518 81.6598 27.2131 81.6598 28.3217V33H83.1463V28.1428C83.1463 26.2536 82.1072 25.2642 80.5462 25.2642C79.3977 25.2642 78.647 25.7962 78.294 26.6065H78.1996V25.3636H76.7727V33H78.2592V28.4659ZM88.7741 25.3636H87.1286V24.6776C87.1286 24.0014 87.407 23.6335 88.1328 23.6335C88.4411 23.6335 88.6598 23.7031 88.799 23.7479L89.147 22.5447C88.9382 22.4652 88.5057 22.3409 87.9041 22.3409C86.696 22.3409 85.6371 23.0469 85.6371 24.4787V25.3636H84.4588V26.5568H85.6371V33H87.1286V26.5568H88.7741V25.3636ZM93.2237 33.1541C95.3764 33.1541 96.7834 31.5781 96.7834 29.2166C96.7834 26.8402 95.3764 25.2642 93.2237 25.2642C91.071 25.2642 89.6641 26.8402 89.6641 29.2166C89.6641 31.5781 91.071 33.1541 93.2237 33.1541ZM93.2287 31.9062C91.8217 31.9062 91.1655 30.6783 91.1655 29.2116C91.1655 27.75 91.8217 26.5071 93.2287 26.5071C94.6257 26.5071 95.282 27.75 95.282 29.2116C95.282 30.6783 94.6257 31.9062 93.2287 31.9062ZM103.127 33L104.062 30.3054H108.039L108.969 33H110.599L106.935 22.8182H105.161L101.496 33H103.127ZM104.509 29.0128L106.011 24.6676H106.09L107.592 29.0128H104.509ZM111.95 33H113.437V28.3366C113.437 27.3374 114.208 26.6165 115.262 26.6165C115.57 26.6165 115.918 26.6712 116.037 26.706V25.2841C115.888 25.2642 115.595 25.2493 115.406 25.2493C114.511 25.2493 113.745 25.7564 113.467 26.5767H113.387V25.3636H111.95V33ZM120.267 33.1541C122.071 33.1541 123.24 32.0703 123.404 30.5838H121.957C121.768 31.4091 121.127 31.8963 120.277 31.8963C119.019 31.8963 118.208 30.8473 118.208 29.1818C118.208 27.5462 119.034 26.517 120.277 26.517C121.221 26.517 121.798 27.1136 121.957 27.8295H123.404C123.245 26.2884 121.987 25.2642 120.252 25.2642C118.099 25.2642 116.707 26.8849 116.707 29.2166C116.707 31.5185 118.049 33.1541 120.267 33.1541ZM126.48 28.4659C126.48 27.2479 127.251 26.5518 128.309 26.5518C129.334 26.5518 129.945 27.2031 129.945 28.3217V33H131.432V28.1428C131.432 26.2386 130.388 25.2642 128.817 25.2642C127.628 25.2642 126.912 25.7812 126.555 26.6065H126.46V22.8182H124.993V33H126.48V28.4659ZM133.415 33H134.902V25.3636H133.415V33ZM134.166 24.1854C134.678 24.1854 135.106 23.7876 135.106 23.3004C135.106 22.8132 134.678 22.4105 134.166 22.4105C133.649 22.4105 133.226 22.8132 133.226 23.3004C133.226 23.7876 133.649 24.1854 134.166 24.1854ZM140.466 25.3636H138.9V23.5341H137.414V25.3636H136.295V26.5568H137.414V31.0661C137.409 32.4531 138.468 33.1243 139.641 33.0994C140.113 33.0945 140.431 33.005 140.605 32.9403L140.337 31.7124C140.238 31.7322 140.054 31.777 139.815 31.777C139.333 31.777 138.9 31.6179 138.9 30.7578V26.5568H140.466V25.3636ZM145.32 33.1541C146.985 33.1541 148.164 32.3338 148.502 31.0909L147.095 30.8374C146.826 31.5582 146.18 31.9261 145.335 31.9261C144.062 31.9261 143.207 31.1009 143.167 29.6293H148.596V29.1023C148.596 26.343 146.945 25.2642 145.215 25.2642C143.088 25.2642 141.686 26.8849 141.686 29.2315C141.686 31.603 143.068 33.1541 145.32 33.1541ZM143.172 28.5156C143.232 27.4318 144.017 26.4922 145.225 26.4922C146.379 26.4922 147.134 27.3473 147.139 28.5156H143.172ZM153.462 33.1541C155.267 33.1541 156.435 32.0703 156.599 30.5838H155.152C154.963 31.4091 154.322 31.8963 153.472 31.8963C152.214 31.8963 151.404 30.8473 151.404 29.1818C151.404 27.5462 152.229 26.517 153.472 26.517C154.417 26.517 154.993 27.1136 155.152 27.8295H156.599C156.44 26.2884 155.182 25.2642 153.447 25.2642C151.294 25.2642 149.902 26.8849 149.902 29.2166C149.902 31.5185 151.245 33.1541 153.462 33.1541ZM161.753 25.3636H160.187V23.5341H158.701V25.3636H157.582V26.5568H158.701V31.0661C158.696 32.4531 159.755 33.1243 160.928 33.0994C161.4 33.0945 161.719 33.005 161.893 32.9403L161.624 31.7124C161.525 31.7322 161.341 31.777 161.102 31.777C160.62 31.777 160.187 31.6179 160.187 30.7578V26.5568H161.753V25.3636ZM168.235 29.8331C168.24 31.1307 167.276 31.7472 166.44 31.7472C165.521 31.7472 164.884 31.081 164.884 30.0419V25.3636H163.398V30.2209C163.398 32.1151 164.437 33.0994 165.903 33.0994C167.052 33.0994 167.832 32.4929 168.185 31.6776H168.265V33H169.727V25.3636H168.235V29.8331ZM171.724 33H173.21V28.3366C173.21 27.3374 173.981 26.6165 175.035 26.6165C175.343 26.6165 175.691 26.6712 175.811 26.706V25.2841C175.661 25.2642 175.368 25.2493 175.179 25.2493C174.284 25.2493 173.519 25.7564 173.24 26.5767H173.161V25.3636H171.724V33ZM180.115 33.1541C181.78 33.1541 182.958 32.3338 183.297 31.0909L181.89 30.8374C181.621 31.5582 180.975 31.9261 180.13 31.9261C178.857 31.9261 178.002 31.1009 177.962 29.6293H183.391V29.1023C183.391 26.343 181.74 25.2642 180.01 25.2642C177.882 25.2642 176.48 26.8849 176.48 29.2315C176.48 31.603 177.863 33.1541 180.115 33.1541ZM177.967 28.5156C178.027 27.4318 178.812 26.4922 180.02 26.4922C181.174 26.4922 181.929 27.3473 181.934 28.5156H177.967ZM73.1186 57H74.6548V53.4205H76.7429C79.1044 53.4205 80.2727 51.9936 80.2727 50.1143C80.2727 48.2401 79.1143 46.8182 76.7479 46.8182H73.1186V57ZM74.6548 52.1179V48.1357H76.5838C78.1051 48.1357 78.7266 48.9609 78.7266 50.1143C78.7266 51.2678 78.1051 52.1179 76.6037 52.1179H74.6548ZM81.9544 57H83.4409V52.3366C83.4409 51.3374 84.2115 50.6165 85.2654 50.6165C85.5737 50.6165 85.9217 50.6712 86.041 50.706V49.2841C85.8919 49.2642 85.5985 49.2493 85.4096 49.2493C84.5147 49.2493 83.7491 49.7564 83.4707 50.5767H83.3912V49.3636H81.9544V57ZM90.2706 57.1541C92.4233 57.1541 93.8303 55.5781 93.8303 53.2166C93.8303 50.8402 92.4233 49.2642 90.2706 49.2642C88.1179 49.2642 86.7109 50.8402 86.7109 53.2166C86.7109 55.5781 88.1179 57.1541 90.2706 57.1541ZM90.2756 55.9062C88.8686 55.9062 88.2124 54.6783 88.2124 53.2116C88.2124 51.75 88.8686 50.5071 90.2756 50.5071C91.6726 50.5071 92.3288 51.75 92.3288 53.2116C92.3288 54.6783 91.6726 55.9062 90.2756 55.9062ZM99.0542 49.3636H97.4881V47.5341H96.0016V49.3636H94.883V50.5568H96.0016V55.0661C95.9966 56.4531 97.0556 57.1243 98.2289 57.0994C98.7012 57.0945 99.0194 57.005 99.1934 56.9403L98.9249 55.7124C98.8255 55.7322 98.6415 55.777 98.4029 55.777C97.9206 55.777 97.4881 55.6179 97.4881 54.7578V50.5568H99.0542V49.3636ZM103.833 57.1541C105.986 57.1541 107.393 55.5781 107.393 53.2166C107.393 50.8402 105.986 49.2642 103.833 49.2642C101.68 49.2642 100.273 50.8402 100.273 53.2166C100.273 55.5781 101.68 57.1541 103.833 57.1541ZM103.838 55.9062C102.431 55.9062 101.775 54.6783 101.775 53.2116C101.775 51.75 102.431 50.5071 103.838 50.5071C105.235 50.5071 105.891 51.75 105.891 53.2116C105.891 54.6783 105.235 55.9062 103.838 55.9062ZM112.617 49.3636H111.051V47.5341H109.564V49.3636H108.445V50.5568H109.564V55.0661C109.559 56.4531 110.618 57.1243 111.791 57.0994C112.264 57.0945 112.582 57.005 112.756 56.9403L112.487 55.7124C112.388 55.7322 112.204 55.777 111.965 55.777C111.483 55.777 111.051 55.6179 111.051 54.7578V50.5568H112.617V49.3636ZM115.201 59.8438C116.429 59.8438 117.209 59.2024 117.647 58.0192L120.804 49.3786L119.198 49.3636L117.264 55.2898H117.184L115.25 49.3636H113.659L116.453 57.0994L116.27 57.6065C115.892 58.5959 115.36 58.6854 114.544 58.4616L114.186 59.6797C114.365 59.7642 114.753 59.8438 115.201 59.8438ZM122.204 59.8636H123.691V55.8118H123.78C124.049 56.299 124.596 57.1491 125.988 57.1491C127.837 57.1491 129.18 55.6676 129.18 53.1967C129.18 50.7209 127.817 49.2642 125.973 49.2642C124.556 49.2642 124.044 50.1293 123.78 50.6016H123.656V49.3636H122.204V59.8636ZM123.661 53.1818C123.661 51.5859 124.357 50.527 125.655 50.527C127.002 50.527 127.678 51.6655 127.678 53.1818C127.678 54.7131 126.982 55.8814 125.655 55.8814C124.377 55.8814 123.661 54.7876 123.661 53.1818ZM130.845 57H132.331V49.3636H130.845V57ZM131.596 48.1854C132.108 48.1854 132.535 47.7876 132.535 47.3004C132.535 46.8132 132.108 46.4105 131.596 46.4105C131.079 46.4105 130.656 46.8132 130.656 47.3004C130.656 47.7876 131.079 48.1854 131.596 48.1854ZM135.818 52.4659C135.818 51.2479 136.564 50.5518 137.598 50.5518C138.607 50.5518 139.218 51.2131 139.218 52.3217V57H140.705V52.1428C140.705 50.2536 139.666 49.2642 138.105 49.2642C136.956 49.2642 136.206 49.7962 135.853 50.6065H135.758V49.3636H134.331V57H135.818V52.4659ZM145.9 60.0078C147.844 60.0078 149.346 59.1179 149.346 57.169V49.3636H147.889V50.6016H147.779C147.516 50.1293 146.989 49.2642 145.567 49.2642C143.723 49.2642 142.365 50.7209 142.365 53.152C142.365 55.5881 143.752 56.8857 145.557 56.8857C146.959 56.8857 147.501 56.0952 147.77 55.608H147.864V57.1094C147.864 58.2876 147.044 58.8097 145.915 58.8097C144.677 58.8097 144.195 58.1882 143.931 57.7656L142.654 58.2926C143.056 59.2124 144.076 60.0078 145.9 60.0078ZM145.885 55.6527C144.558 55.6527 143.867 54.6335 143.867 53.1321C143.867 51.6655 144.543 50.527 145.885 50.527C147.183 50.527 147.879 51.5859 147.879 53.1321C147.879 54.7081 147.168 55.6527 145.885 55.6527ZM72.6165 72.1406H75.7884V81H77.3196V72.1406H80.4964V70.8182H72.6165V72.1406ZM84.3022 81.1541C85.9677 81.1541 87.146 80.3338 87.484 79.0909L86.0771 78.8374C85.8086 79.5582 85.1623 79.9261 84.3171 79.9261C83.0444 79.9261 82.1893 79.1009 82.1495 77.6293H87.5785V77.1023C87.5785 74.343 85.9279 73.2642 84.1978 73.2642C82.07 73.2642 80.668 74.8849 80.668 77.2315C80.668 79.603 82.0501 81.1541 84.3022 81.1541ZM82.1545 76.5156C82.2141 75.4318 82.9996 74.4922 84.2077 74.4922C85.3612 74.4922 86.1168 75.3473 86.1218 76.5156H82.1545ZM94.9501 75.228C94.6419 74.0398 93.7122 73.2642 92.0616 73.2642C90.3365 73.2642 89.1135 74.174 89.1135 75.5263C89.1135 76.6101 89.7697 77.331 91.2015 77.6491L92.4941 77.9325C93.2299 78.0966 93.573 78.4247 93.573 78.902C93.573 79.4936 92.9416 79.956 91.9672 79.956C91.0772 79.956 90.5055 79.5732 90.3265 78.8224L88.8897 79.0412C89.1383 80.3935 90.2619 81.1541 91.9771 81.1541C93.8216 81.1541 95.0993 80.1747 95.0993 78.7926C95.0993 77.7138 94.4132 77.0476 93.0112 76.7244L91.7981 76.446C90.9579 76.2472 90.595 75.9638 90.6 75.4467C90.595 74.8601 91.2314 74.4425 92.0765 74.4425C93.0012 74.4425 93.4288 74.9545 93.6028 75.4666L94.9501 75.228ZM100.298 73.3636H98.7322V71.5341H97.2457V73.3636H96.1271V74.5568H97.2457V79.0661C97.2408 80.4531 98.2997 81.1243 99.473 81.0994C99.9453 81.0945 100.263 81.005 100.438 80.9403L100.169 79.7124C100.07 79.7322 99.8857 79.777 99.647 79.777C99.1648 79.777 98.7322 79.6179 98.7322 78.7578V74.5568H100.298V73.3636ZM101.943 81H103.429V73.3636H101.943V81ZM102.693 72.1854C103.205 72.1854 103.633 71.7876 103.633 71.3004C103.633 70.8132 103.205 70.4105 102.693 70.4105C102.176 70.4105 101.754 70.8132 101.754 71.3004C101.754 71.7876 102.176 72.1854 102.693 72.1854ZM106.915 76.4659C106.915 75.2479 107.661 74.5518 108.695 74.5518C109.705 74.5518 110.316 75.2131 110.316 76.3217V81H111.803V76.1428C111.803 74.2536 110.763 73.2642 109.202 73.2642C108.054 73.2642 107.303 73.7962 106.95 74.6065H106.856V73.3636H105.429V81H106.915V76.4659ZM116.998 84.0078C118.942 84.0078 120.443 83.1179 120.443 81.169V73.3636H118.987V74.6016H118.877C118.614 74.1293 118.087 73.2642 116.665 73.2642C114.82 73.2642 113.463 74.7209 113.463 77.152C113.463 79.5881 114.85 80.8857 116.655 80.8857C118.057 80.8857 118.599 80.0952 118.867 79.608H118.962V81.1094C118.962 82.2876 118.141 82.8097 117.013 82.8097C115.775 82.8097 115.293 82.1882 115.029 81.7656L113.751 82.2926C114.154 83.2124 115.173 84.0078 116.998 84.0078ZM116.983 79.6527C115.656 79.6527 114.964 78.6335 114.964 77.1321C114.964 75.6655 115.641 74.527 116.983 74.527C118.281 74.527 118.977 75.5859 118.977 77.1321C118.977 78.7081 118.266 79.6527 116.983 79.6527ZM129.105 81.1442C130.025 81.1442 131.044 80.8359 131.73 80.1946L132.416 81H134.096L132.65 79.2699C133.082 78.6932 133.495 77.7884 133.495 76.3764H132.153C132.153 77.0575 131.993 77.6641 131.73 78.1712L129.692 75.7351L130.388 75.223C131.233 74.6065 131.74 73.8956 131.74 72.9261C131.74 71.7379 130.78 70.7088 129.214 70.7088C127.663 70.7088 126.644 71.7081 126.644 73.1151C126.644 74.0249 127.121 74.7457 127.763 75.5263C126.599 76.3317 125.809 77.0824 125.809 78.2955C125.809 79.9311 127.057 81.1442 129.105 81.1442ZM130.895 79.2102C130.368 79.6477 129.736 79.8864 129.11 79.8864C128.006 79.8864 127.285 79.1357 127.285 78.2557C127.285 77.9425 127.549 77.3161 128.344 76.7294L128.613 76.5305L130.895 79.2102ZM128.871 74.7457C128.409 74.179 128.046 73.657 128.046 73.1399C128.046 72.5483 128.533 71.9517 129.249 71.9517C129.935 71.9517 130.383 72.4886 130.383 72.9659C130.383 73.5724 130.05 73.9403 129.498 74.3033L128.871 74.7457ZM140.622 70.8182H139.085V81H140.622V70.8182ZM146.304 73.3636H144.738V71.5341H143.252V73.3636H142.133V74.5568H143.252V79.0661C143.247 80.4531 144.306 81.1243 145.479 81.0994C145.951 81.0945 146.269 81.005 146.443 80.9403L146.175 79.7124C146.075 79.7322 145.892 79.777 145.653 79.777C145.171 79.777 144.738 79.6179 144.738 78.7578V74.5568H146.304V73.3636ZM151.158 81.1541C152.823 81.1541 154.001 80.3338 154.339 79.0909L152.933 78.8374C152.664 79.5582 152.018 79.9261 151.173 79.9261C149.9 79.9261 149.045 79.1009 149.005 77.6293H154.434V77.1023C154.434 74.343 152.783 73.2642 151.053 73.2642C148.925 73.2642 147.523 74.8849 147.523 77.2315C147.523 79.603 148.906 81.1541 151.158 81.1541ZM149.01 76.5156C149.07 75.4318 149.855 74.4922 151.063 74.4922C152.217 74.4922 152.972 75.3473 152.977 76.5156H149.01ZM156.083 81H157.57V76.3366C157.57 75.3374 158.34 74.6165 159.394 74.6165C159.703 74.6165 160.051 74.6712 160.17 74.706V73.2841C160.021 73.2642 159.727 73.2493 159.539 73.2493C158.644 73.2493 157.878 73.7564 157.6 74.5767H157.52V73.3636H156.083V81ZM163.61 81.169C164.873 81.169 165.584 80.5277 165.867 79.956H165.927V81H167.379V75.929C167.379 73.7067 165.629 73.2642 164.416 73.2642C163.034 73.2642 161.761 73.821 161.264 75.2131L162.661 75.5312C162.879 74.9893 163.436 74.4673 164.436 74.4673C165.395 74.4673 165.887 74.9695 165.887 75.8345V75.8693C165.887 76.4112 165.33 76.4013 163.958 76.5604C162.512 76.7294 161.03 77.1072 161.03 78.8423C161.03 80.3438 162.159 81.169 163.61 81.169ZM163.933 79.9759C163.093 79.9759 162.487 79.598 162.487 78.8622C162.487 78.0668 163.193 77.7834 164.053 77.669C164.535 77.6044 165.678 77.4751 165.892 77.2614V78.2457C165.892 79.1506 165.171 79.9759 163.933 79.9759ZM172.923 73.3636H171.357V71.5341H169.871V73.3636H168.752V74.5568H169.871V79.0661C169.866 80.4531 170.925 81.1243 172.098 81.0994C172.57 81.0945 172.888 81.005 173.062 80.9403L172.794 79.7124C172.695 79.7322 172.511 79.777 172.272 79.777C171.79 79.777 171.357 79.6179 171.357 78.7578V74.5568H172.923V73.3636ZM174.568 81H176.054V73.3636H174.568V81ZM175.318 72.1854C175.83 72.1854 176.258 71.7876 176.258 71.3004C176.258 70.8132 175.83 70.4105 175.318 70.4105C174.801 70.4105 174.379 70.8132 174.379 71.3004C174.379 71.7876 174.801 72.1854 175.318 72.1854ZM181.271 81.1541C183.423 81.1541 184.83 79.5781 184.83 77.2166C184.83 74.8402 183.423 73.2642 181.271 73.2642C179.118 73.2642 177.711 74.8402 177.711 77.2166C177.711 79.5781 179.118 81.1541 181.271 81.1541ZM181.276 79.9062C179.869 79.9062 179.212 78.6783 179.212 77.2116C179.212 75.75 179.869 74.5071 181.276 74.5071C182.673 74.5071 183.329 75.75 183.329 77.2116C183.329 78.6783 182.673 79.9062 181.276 79.9062ZM187.976 76.4659C187.976 75.2479 188.722 74.5518 189.756 74.5518C190.765 74.5518 191.377 75.2131 191.377 76.3217V81H192.863V76.1428C192.863 74.2536 191.824 73.2642 190.263 73.2642C189.115 73.2642 188.364 73.7962 188.011 74.6065H187.916V73.3636H186.49V81H187.976V76.4659ZM200.579 75.228C200.271 74.0398 199.341 73.2642 197.691 73.2642C195.965 73.2642 194.742 74.174 194.742 75.5263C194.742 76.6101 195.399 77.331 196.83 77.6491L198.123 77.9325C198.859 78.0966 199.202 78.4247 199.202 78.902C199.202 79.4936 198.57 79.956 197.596 79.956C196.706 79.956 196.134 79.5732 195.955 78.8224L194.519 79.0412C194.767 80.3935 195.891 81.1541 197.606 81.1541C199.45 81.1541 200.728 80.1747 200.728 78.7926C200.728 77.7138 200.042 77.0476 198.64 76.7244L197.427 76.446C196.587 76.2472 196.224 75.9638 196.229 75.4467C196.224 74.8601 196.86 74.4425 197.705 74.4425C198.63 74.4425 199.058 74.9545 199.232 75.4666L200.579 75.228Z" fill="#1A1A1F"/>
<circle opacity="0.2" cx="24" cy="52" r="36" fill="#3188EC"/>
<path d="M32 40C30.9391 40 29.9217 40.4214 29.1716 41.1716C28.4214 41.9217 28 42.9391 28 44V60C28 61.0609 28.4214 62.0783 29.1716 62.8284C29.9217 63.5786 30.9391 64 32 64C33.0609 64 34.0783 63.5786 34.8284 62.8284C35.5786 62.0783 36 61.0609 36 60C36 58.9391 35.5786 57.9217 34.8284 57.1716C34.0783 56.4214 33.0609 56 32 56H16C14.9391 56 13.9217 56.4214 13.1716 57.1716C12.4214 57.9217 12 58.9391 12 60C12 61.0609 12.4214 62.0783 13.1716 62.8284C13.9217 63.5786 14.9391 64 16 64C17.0609 64 18.0783 63.5786 18.8284 62.8284C19.5786 62.0783 20 61.0609 20 60V44C20 42.9391 19.5786 41.9217 18.8284 41.1716C18.0783 40.4214 17.0609 40 16 40C14.9391 40 13.9217 40.4214 13.1716 41.1716C12.4214 41.9217 12 42.9391 12 44C12 45.0609 12.4214 46.0783 13.1716 46.8284C13.9217 47.5786 14.9391 48 16 48H32C33.0609 48 34.0783 47.5786 34.8284 46.8284C35.5786 46.0783 36 45.0609 36 44C36 42.9391 35.5786 41.9217 34.8284 41.1716C34.0783 40.4214 33.0609 40 32 40Z" stroke="#3A1BF5" stroke-width="2.66667" stroke-linecap="round" stroke-linejoin="round"/>
</g>
<defs>
<clipPath id="clip0">
<rect width="240" height="104" fill="white"/>
</clipPath>
</defs>
</svg>
