<svg width="240" height="104" viewBox="0 0 240 104" fill="none" xmlns="http://www.w3.org/2000/svg">
<g clip-path="url(#clip0)">
<rect x="1" y="1" width="238" height="102" rx="7" stroke="#7D01B7" stroke-width="2"/>
<path d="M74.0085 34.8182H72.348L76.0121 45H77.7869L81.451 34.8182H79.7905L76.9567 43.1108H76.8423L74.0085 34.8182ZM82.802 45H84.2885V37.3636H82.802V45ZM83.5527 36.1854C84.0648 36.1854 84.4924 35.7876 84.4924 35.3004C84.4924 34.8132 84.0648 34.4105 83.5527 34.4105C83.0357 34.4105 82.6131 34.8132 82.6131 35.3004C82.6131 35.7876 83.0357 36.1854 83.5527 36.1854ZM92.0107 39.228C91.7024 38.0398 90.7727 37.2642 89.1222 37.2642C87.397 37.2642 86.174 38.174 86.174 39.5263C86.174 40.6101 86.8303 41.331 88.2621 41.6491L89.5547 41.9325C90.2905 42.0966 90.6335 42.4247 90.6335 42.902C90.6335 43.4936 90.0021 43.956 89.0277 43.956C88.1378 43.956 87.5661 43.5732 87.3871 42.8224L85.9503 43.0412C86.1989 44.3935 87.3224 45.1541 89.0376 45.1541C90.8821 45.1541 92.1598 44.1747 92.1598 42.7926C92.1598 41.7138 91.4737 41.0476 90.0717 40.7244L88.8587 40.446C88.0185 40.2472 87.6555 39.9638 87.6605 39.4467C87.6555 38.8601 88.2919 38.4425 89.1371 38.4425C90.0618 38.4425 90.4893 38.9545 90.6634 39.4666L92.0107 39.228ZM98.6316 41.8331C98.6365 43.1307 97.6721 43.7472 96.8368 43.7472C95.9171 43.7472 95.2807 43.081 95.2807 42.0419V37.3636H93.7942V42.2209C93.7942 44.1151 94.8333 45.0994 96.2999 45.0994C97.4483 45.0994 98.2289 44.4929 98.5819 43.6776H98.6614V45H100.123V37.3636H98.6316V41.8331ZM104.343 45.169C105.605 45.169 106.316 44.5277 106.6 43.956H106.659V45H108.111V39.929C108.111 37.7067 106.361 37.2642 105.148 37.2642C103.766 37.2642 102.493 37.821 101.996 39.2131L103.393 39.5312C103.612 38.9893 104.169 38.4673 105.168 38.4673C106.127 38.4673 106.62 38.9695 106.62 39.8345V39.8693C106.62 40.4112 106.063 40.4013 104.691 40.5604C103.244 40.7294 101.762 41.1072 101.762 42.8423C101.762 44.3438 102.891 45.169 104.343 45.169ZM104.666 43.9759C103.826 43.9759 103.219 43.598 103.219 42.8622C103.219 42.0668 103.925 41.7834 104.785 41.669C105.267 41.6044 106.411 41.4751 106.625 41.2614V42.2457C106.625 43.1506 105.904 43.9759 104.666 43.9759ZM111.578 34.8182H110.091V45H111.578V34.8182ZM120.698 45C123.8 45 125.595 43.076 125.595 39.8942C125.595 36.7273 123.8 34.8182 120.802 34.8182H117.402V45H120.698ZM118.938 43.6577V36.1605H120.708C122.935 36.1605 124.084 37.4929 124.084 39.8942C124.084 42.3054 122.935 43.6577 120.613 43.6577H118.938ZM130.677 45.1541C132.343 45.1541 133.521 44.3338 133.859 43.0909L132.452 42.8374C132.184 43.5582 131.537 43.9261 130.692 43.9261C129.419 43.9261 128.564 43.1009 128.525 41.6293H133.953V41.1023C133.953 38.343 132.303 37.2642 130.573 37.2642C128.445 37.2642 127.043 38.8849 127.043 41.2315C127.043 43.603 128.425 45.1541 130.677 45.1541ZM128.529 40.5156C128.589 39.4318 129.375 38.4922 130.583 38.4922C131.736 38.4922 132.492 39.3473 132.497 40.5156H128.529ZM141.325 39.228C141.017 38.0398 140.087 37.2642 138.437 37.2642C136.711 37.2642 135.488 38.174 135.488 39.5263C135.488 40.6101 136.145 41.331 137.577 41.6491L138.869 41.9325C139.605 42.0966 139.948 42.4247 139.948 42.902C139.948 43.4936 139.317 43.956 138.342 43.956C137.452 43.956 136.881 43.5732 136.702 42.8224L135.265 43.0412C135.513 44.3935 136.637 45.1541 138.352 45.1541C140.197 45.1541 141.474 44.1747 141.474 42.7926C141.474 41.7138 140.788 41.0476 139.386 40.7244L138.173 40.446C137.333 40.2472 136.97 39.9638 136.975 39.4467C136.97 38.8601 137.606 38.4425 138.452 38.4425C139.376 38.4425 139.804 38.9545 139.978 39.4666L141.325 39.228ZM143.109 45H144.595V37.3636H143.109V45ZM143.859 36.1854C144.371 36.1854 144.799 35.7876 144.799 35.3004C144.799 34.8132 144.371 34.4105 143.859 34.4105C143.342 34.4105 142.92 34.8132 142.92 35.3004C142.92 35.7876 143.342 36.1854 143.859 36.1854ZM149.797 48.0078C151.741 48.0078 153.242 47.1179 153.242 45.169V37.3636H151.785V38.6016H151.676C151.412 38.1293 150.885 37.2642 149.464 37.2642C147.619 37.2642 146.262 38.7209 146.262 41.152C146.262 43.5881 147.649 44.8857 149.454 44.8857C150.856 44.8857 151.398 44.0952 151.666 43.608H151.76V45.1094C151.76 46.2876 150.94 46.8097 149.812 46.8097C148.574 46.8097 148.091 46.1882 147.828 45.7656L146.55 46.2926C146.953 47.2124 147.972 48.0078 149.797 48.0078ZM149.782 43.6527C148.454 43.6527 147.763 42.6335 147.763 41.1321C147.763 39.6655 148.439 38.527 149.782 38.527C151.079 38.527 151.775 39.5859 151.775 41.1321C151.775 42.7081 151.064 43.6527 149.782 43.6527ZM156.722 40.4659C156.722 39.2479 157.468 38.5518 158.502 38.5518C159.511 38.5518 160.123 39.2131 160.123 40.3217V45H161.609V40.1428C161.609 38.2536 160.57 37.2642 159.009 37.2642C157.861 37.2642 157.11 37.7962 156.757 38.6065H156.662V37.3636H155.236V45H156.722V40.4659ZM81.5753 62.1293C81.2273 59.9517 79.522 58.679 77.3693 58.679C74.7344 58.679 72.7905 60.6527 72.7905 63.9091C72.7905 67.1655 74.7244 69.1392 77.3693 69.1392C79.6065 69.1392 81.2422 67.7372 81.5753 65.7237L80.0241 65.7188C79.7607 67.0213 78.6669 67.7372 77.3793 67.7372C75.6342 67.7372 74.3168 66.3999 74.3168 63.9091C74.3168 61.4382 75.6293 60.081 77.3842 60.081C78.6818 60.081 79.7706 60.8118 80.0241 62.1293H81.5753ZM86.5108 69.1541C88.6635 69.1541 90.0705 67.5781 90.0705 65.2166C90.0705 62.8402 88.6635 61.2642 86.5108 61.2642C84.3581 61.2642 82.9512 62.8402 82.9512 65.2166C82.9512 67.5781 84.3581 69.1541 86.5108 69.1541ZM86.5158 67.9062C85.1088 67.9062 84.4526 66.6783 84.4526 65.2116C84.4526 63.75 85.1088 62.5071 86.5158 62.5071C87.9128 62.5071 88.5691 63.75 88.5691 65.2116C88.5691 66.6783 87.9128 67.9062 86.5158 67.9062ZM91.7298 69H93.2163V64.2919C93.2163 63.2628 93.9371 62.5469 94.7823 62.5469C95.6076 62.5469 96.1793 63.0938 96.1793 63.924V69H97.6609V64.1328C97.6609 63.2131 98.2227 62.5469 99.1921 62.5469C99.9776 62.5469 100.624 62.9844 100.624 64.0185V69H102.11V63.8793C102.11 62.1342 101.136 61.2642 99.7539 61.2642C98.6552 61.2642 97.8299 61.7912 97.462 62.6065H97.3825C97.0494 61.7713 96.3484 61.2642 95.3292 61.2642C94.32 61.2642 93.5692 61.7663 93.2511 62.6065H93.1566V61.3636H91.7298V69ZM104.103 71.8636H105.589V67.8118H105.679C105.947 68.299 106.494 69.1491 107.886 69.1491C109.736 69.1491 111.078 67.6676 111.078 65.1967C111.078 62.7209 109.716 61.2642 107.871 61.2642C106.454 61.2642 105.942 62.1293 105.679 62.6016H105.555V61.3636H104.103V71.8636ZM105.559 65.1818C105.559 63.5859 106.256 62.527 107.553 62.527C108.9 62.527 109.577 63.6655 109.577 65.1818C109.577 66.7131 108.881 67.8814 107.553 67.8814C106.275 67.8814 105.559 66.7876 105.559 65.1818ZM115.96 69.1541C118.113 69.1541 119.52 67.5781 119.52 65.2166C119.52 62.8402 118.113 61.2642 115.96 61.2642C113.807 61.2642 112.4 62.8402 112.4 65.2166C112.4 67.5781 113.807 69.1541 115.96 69.1541ZM115.965 67.9062C114.558 67.9062 113.902 66.6783 113.902 65.2116C113.902 63.75 114.558 62.5071 115.965 62.5071C117.362 62.5071 118.018 63.75 118.018 65.2116C118.018 66.6783 117.362 67.9062 115.965 67.9062ZM122.665 64.4659C122.665 63.2479 123.411 62.5518 124.445 62.5518C125.455 62.5518 126.066 63.2131 126.066 64.3217V69H127.553V64.1428C127.553 62.2536 126.513 61.2642 124.952 61.2642C123.804 61.2642 123.053 61.7962 122.7 62.6065H122.606V61.3636H121.179V69H122.665V64.4659ZM132.837 69.1541C134.503 69.1541 135.681 68.3338 136.019 67.0909L134.612 66.8374C134.344 67.5582 133.697 67.9261 132.852 67.9261C131.58 67.9261 130.724 67.1009 130.685 65.6293H136.114V65.1023C136.114 62.343 134.463 61.2642 132.733 61.2642C130.605 61.2642 129.203 62.8849 129.203 65.2315C129.203 67.603 130.585 69.1541 132.837 69.1541ZM130.69 64.5156C130.749 63.4318 131.535 62.4922 132.743 62.4922C133.896 62.4922 134.652 63.3473 134.657 64.5156H130.69ZM139.249 64.4659C139.249 63.2479 139.995 62.5518 141.029 62.5518C142.039 62.5518 142.65 63.2131 142.65 64.3217V69H144.137V64.1428C144.137 62.2536 143.097 61.2642 141.536 61.2642C140.388 61.2642 139.637 61.7962 139.284 62.6065H139.19V61.3636H137.763V69H139.249V64.4659ZM149.695 61.3636H148.129V59.5341H146.642V61.3636H145.524V62.5568H146.642V67.0661C146.637 68.4531 147.696 69.1243 148.869 69.0994C149.342 69.0945 149.66 69.005 149.834 68.9403L149.566 67.7124C149.466 67.7322 149.282 67.777 149.044 67.777C148.561 67.777 148.129 67.6179 148.129 66.7578V62.5568H149.695V61.3636ZM160.717 61.4929H162.198C162.154 59.8622 160.712 58.679 158.644 58.679C156.6 58.679 155.034 59.8473 155.034 61.6023C155.034 63.0192 156.048 63.8494 157.684 64.2919L158.887 64.62C159.976 64.9084 160.816 65.2663 160.816 66.1712C160.816 67.1655 159.867 67.8217 158.559 67.8217C157.376 67.8217 156.392 67.2947 156.302 66.1861H154.761C154.86 68.0305 156.287 69.169 158.569 69.169C160.96 69.169 162.338 67.9112 162.338 66.1861C162.338 64.3516 160.702 63.6406 159.409 63.3224L158.415 63.0639C157.619 62.8601 156.561 62.4872 156.566 61.5128C156.566 60.6477 157.356 60.0064 158.609 60.0064C159.777 60.0064 160.607 60.5533 160.717 61.4929ZM167.271 69.1541C169.075 69.1541 170.244 68.0703 170.408 66.5838H168.961C168.772 67.4091 168.131 67.8963 167.281 67.8963C166.023 67.8963 165.212 66.8473 165.212 65.1818C165.212 63.5462 166.038 62.517 167.281 62.517C168.225 62.517 168.802 63.1136 168.961 63.8295H170.408C170.249 62.2884 168.991 61.2642 167.256 61.2642C165.103 61.2642 163.711 62.8849 163.711 65.2166C163.711 67.5185 165.053 69.1541 167.271 69.1541ZM174.22 69.169C175.482 69.169 176.193 68.5277 176.477 67.956H176.536V69H177.988V63.929C177.988 61.7067 176.238 61.2642 175.025 61.2642C173.643 61.2642 172.37 61.821 171.873 63.2131L173.27 63.5312C173.489 62.9893 174.046 62.4673 175.045 62.4673C176.004 62.4673 176.497 62.9695 176.497 63.8345V63.8693C176.497 64.4112 175.94 64.4013 174.568 64.5604C173.121 64.7294 171.639 65.1072 171.639 66.8423C171.639 68.3438 172.768 69.169 174.22 69.169ZM174.543 67.9759C173.703 67.9759 173.096 67.598 173.096 66.8622C173.096 66.0668 173.802 65.7834 174.662 65.669C175.144 65.6044 176.288 65.4751 176.502 65.2614V66.2457C176.502 67.1506 175.781 67.9759 174.543 67.9759ZM181.455 58.8182H179.968V69H181.455V58.8182ZM183.454 69H184.941V61.3636H183.454V69ZM184.205 60.1854C184.717 60.1854 185.145 59.7876 185.145 59.3004C185.145 58.8132 184.717 58.4105 184.205 58.4105C183.688 58.4105 183.265 58.8132 183.265 59.3004C183.265 59.7876 183.688 60.1854 184.205 60.1854ZM188.427 64.4659C188.427 63.2479 189.173 62.5518 190.207 62.5518C191.216 62.5518 191.828 63.2131 191.828 64.3217V69H193.314V64.1428C193.314 62.2536 192.275 61.2642 190.714 61.2642C189.566 61.2642 188.815 61.7962 188.462 62.6065H188.368V61.3636H186.941V69H188.427V64.4659ZM198.51 72.0078C200.453 72.0078 201.955 71.1179 201.955 69.169V61.3636H200.498V62.6016H200.389C200.125 62.1293 199.598 61.2642 198.176 61.2642C196.332 61.2642 194.975 62.7209 194.975 65.152C194.975 67.5881 196.362 68.8857 198.167 68.8857C199.569 68.8857 200.11 68.0952 200.379 67.608H200.473V69.1094C200.473 70.2876 199.653 70.8097 198.525 70.8097C197.287 70.8097 196.804 70.1882 196.541 69.7656L195.263 70.2926C195.666 71.2124 196.685 72.0078 198.51 72.0078ZM198.495 67.6527C197.167 67.6527 196.476 66.6335 196.476 65.1321C196.476 63.6655 197.152 62.527 198.495 62.527C199.792 62.527 200.488 63.5859 200.488 65.1321C200.488 66.7081 199.777 67.6527 198.495 67.6527Z" fill="#1A1A1F"/>
<circle opacity="0.2" cx="24" cy="52" r="36" fill="#B933F1"/>
<path d="M9.42456 45.4146L13.4318 49.4082L16.8049 59.7286L37.9472 66.004L31.6615 44.896L21.4277 41.4211L17.4275 37.4275L9.42456 45.4146Z" stroke="#7D01B7" stroke-width="2.77281" stroke-linecap="round" stroke-linejoin="round"/>
<path d="M37.9773 65.9788L26.5493 54.5691" stroke="#7D01B7" stroke-width="2.77281" stroke-linecap="round"/>
<path d="M13.3801 49.4595L21.3797 41.4728" stroke="#7D01B7" stroke-width="2.77281" stroke-linecap="round"/>
</g>
<defs>
<clipPath id="clip0">
<rect width="240" height="104" fill="white"/>
</clipPath>
</defs>
</svg>
