<svg width="240" height="104" viewBox="0 0 240 104" fill="none" xmlns="http://www.w3.org/2000/svg">
<g clip-path="url(#clip0)">
<rect x="1" y="1" width="238" height="102" rx="7" stroke="#30B801" stroke-width="2"/>
<path d="M76.4148 45C79.517 45 81.3118 43.076 81.3118 39.8942C81.3118 36.7273 79.517 34.8182 76.5192 34.8182H73.1186V45H76.4148ZM74.6548 43.6577V36.1605H76.4247C78.652 36.1605 79.8004 37.4929 79.8004 39.8942C79.8004 42.3054 78.652 43.6577 76.3303 43.6577H74.6548ZM86.394 45.1541C88.0595 45.1541 89.2377 44.3338 89.5758 43.0909L88.1689 42.8374C87.9004 43.5582 87.2541 43.9261 86.4089 43.9261C85.1362 43.9261 84.2811 43.1009 84.2413 41.6293H89.6703V41.1023C89.6703 38.343 88.0197 37.2642 86.2896 37.2642C84.1618 37.2642 82.7598 38.8849 82.7598 41.2315C82.7598 43.603 84.1419 45.1541 86.394 45.1541ZM84.2463 40.5156C84.3059 39.4318 85.0914 38.4922 86.2995 38.4922C87.4529 38.4922 88.2086 39.3473 88.2136 40.5156H84.2463ZM97.6199 37.3636H96.024L94.095 43.2401H94.0154L92.0815 37.3636H90.4856L93.2598 45H94.8507L97.6199 37.3636ZM102.841 45H104.377V40.5604H109.453V45H110.995V34.8182H109.453V39.2429H104.377V34.8182H102.841V45ZM115.335 45.169C116.598 45.169 117.309 44.5277 117.592 43.956H117.652V45H119.103V39.929C119.103 37.7067 117.353 37.2642 116.14 37.2642C114.758 37.2642 113.485 37.821 112.988 39.2131L114.385 39.5312C114.604 38.9893 115.161 38.4673 116.16 38.4673C117.12 38.4673 117.612 38.9695 117.612 39.8345V39.8693C117.612 40.4112 117.055 40.4013 115.683 40.5604C114.236 40.7294 112.755 41.1072 112.755 42.8423C112.755 44.3438 113.883 45.169 115.335 45.169ZM115.658 43.9759C114.818 43.9759 114.211 43.598 114.211 42.8622C114.211 42.0668 114.917 41.7834 115.777 41.669C116.26 41.6044 117.403 41.4751 117.617 41.2614V42.2457C117.617 43.1506 116.896 43.9759 115.658 43.9759ZM122.57 40.4659C122.57 39.2479 123.316 38.5518 124.35 38.5518C125.359 38.5518 125.97 39.2131 125.97 40.3217V45H127.457V40.1428C127.457 38.2536 126.418 37.2642 124.857 37.2642C123.708 37.2642 122.958 37.7962 122.605 38.6065H122.51V37.3636H121.083V45H122.57V40.4659ZM132.309 45.1491C133.701 45.1491 134.248 44.299 134.517 43.8118H134.641V45H136.093V34.8182H134.606V38.6016H134.517C134.248 38.1293 133.741 37.2642 132.319 37.2642C130.475 37.2642 129.117 38.7209 129.117 41.1967C129.117 43.6676 130.455 45.1491 132.309 45.1491ZM132.637 43.8814C131.31 43.8814 130.619 42.7131 130.619 41.1818C130.619 39.6655 131.295 38.527 132.637 38.527C133.935 38.527 134.631 39.5859 134.631 41.1818C134.631 42.7876 133.92 43.8814 132.637 43.8814ZM142.713 40.0533H138.199V41.3409H142.713V40.0533ZM147.911 45.1541C150.064 45.1541 151.471 43.5781 151.471 41.2166C151.471 38.8402 150.064 37.2642 147.911 37.2642C145.759 37.2642 144.352 38.8402 144.352 41.2166C144.352 43.5781 145.759 45.1541 147.911 45.1541ZM147.916 43.9062C146.509 43.9062 145.853 42.6783 145.853 41.2116C145.853 39.75 146.509 38.5071 147.916 38.5071C149.313 38.5071 149.969 39.75 149.969 41.2116C149.969 42.6783 149.313 43.9062 147.916 43.9062ZM156.764 37.3636H155.119V36.6776C155.119 36.0014 155.397 35.6335 156.123 35.6335C156.431 35.6335 156.65 35.7031 156.789 35.7479L157.137 34.5447C156.928 34.4652 156.496 34.3409 155.894 34.3409C154.686 34.3409 153.627 35.0469 153.627 36.4787V37.3636H152.449V38.5568H153.627V45H155.119V38.5568H156.764V37.3636ZM161.932 37.3636H160.287V36.6776C160.287 36.0014 160.565 35.6335 161.291 35.6335C161.599 35.6335 161.818 35.7031 161.957 35.7479L162.305 34.5447C162.096 34.4652 161.664 34.3409 161.062 34.3409C159.854 34.3409 158.795 35.0469 158.795 36.4787V37.3636H157.617V38.5568H158.795V45H160.287V38.5568H161.932V37.3636ZM73.9787 69L74.9134 66.3054H78.8906L79.8203 69H81.451L77.7869 58.8182H76.0121L72.348 69H73.9787ZM75.3608 65.0128L76.8622 60.6676H76.9418L78.4432 65.0128H75.3608ZM82.802 71.8636H84.2885V67.8118H84.378C84.6465 68.299 85.1934 69.1491 86.5854 69.1491C88.4348 69.1491 89.7772 67.6676 89.7772 65.1967C89.7772 62.7209 88.415 61.2642 86.5705 61.2642C85.1536 61.2642 84.6415 62.1293 84.378 62.6016H84.2537V61.3636H82.802V71.8636ZM84.2587 65.1818C84.2587 63.5859 84.9547 62.527 86.2523 62.527C87.5996 62.527 88.2757 63.6655 88.2757 65.1818C88.2757 66.7131 87.5797 67.8814 86.2523 67.8814C84.9746 67.8814 84.2587 66.7876 84.2587 65.1818ZM91.4426 71.8636H92.9292V67.8118H93.0186C93.2871 68.299 93.834 69.1491 95.226 69.1491C97.0755 69.1491 98.4178 67.6676 98.4178 65.1967C98.4178 62.7209 97.0556 61.2642 95.2111 61.2642C93.7942 61.2642 93.2821 62.1293 93.0186 62.6016H92.8944V61.3636H91.4426V71.8636ZM92.8993 65.1818C92.8993 63.5859 93.5953 62.527 94.8929 62.527C96.2402 62.527 96.9164 63.6655 96.9164 65.1818C96.9164 66.7131 96.2203 67.8814 94.8929 67.8814C93.6152 67.8814 92.8993 66.7876 92.8993 65.1818ZM103.406 60.1406H106.577V69H108.109V60.1406H111.286V58.8182H103.406V60.1406ZM115.091 69.1541C116.757 69.1541 117.935 68.3338 118.273 67.0909L116.866 66.8374C116.598 67.5582 115.951 67.9261 115.106 67.9261C113.833 67.9261 112.978 67.1009 112.939 65.6293H118.368V65.1023C118.368 62.343 116.717 61.2642 114.987 61.2642C112.859 61.2642 111.457 62.8849 111.457 65.2315C111.457 67.603 112.839 69.1541 115.091 69.1541ZM112.944 64.5156C113.003 63.4318 113.789 62.4922 114.997 62.4922C116.15 62.4922 116.906 63.3473 116.911 64.5156H112.944ZM125.739 63.228C125.431 62.0398 124.501 61.2642 122.851 61.2642C121.126 61.2642 119.903 62.174 119.903 63.5263C119.903 64.6101 120.559 65.331 121.991 65.6491L123.283 65.9325C124.019 66.0966 124.362 66.4247 124.362 66.902C124.362 67.4936 123.731 67.956 122.756 67.956C121.866 67.956 121.295 67.5732 121.116 66.8224L119.679 67.0412C119.927 68.3935 121.051 69.1541 122.766 69.1541C124.611 69.1541 125.888 68.1747 125.888 66.7926C125.888 65.7138 125.202 65.0476 123.8 64.7244L122.587 64.446C121.747 64.2472 121.384 63.9638 121.389 63.4467C121.384 62.8601 122.02 62.4425 122.866 62.4425C123.79 62.4425 124.218 62.9545 124.392 63.4666L125.739 63.228ZM131.087 61.3636H129.521V59.5341H128.035V61.3636H126.916V62.5568H128.035V67.0661C128.03 68.4531 129.089 69.1243 130.262 69.0994C130.734 69.0945 131.053 69.005 131.227 68.9403L130.958 67.7124C130.859 67.7322 130.675 67.777 130.436 67.777C129.954 67.777 129.521 67.6179 129.521 66.7578V62.5568H131.087V61.3636ZM132.732 69H134.218V61.3636H132.732V69ZM133.482 60.1854C133.994 60.1854 134.422 59.7876 134.422 59.3004C134.422 58.8132 133.994 58.4105 133.482 58.4105C132.965 58.4105 132.543 58.8132 132.543 59.3004C132.543 59.7876 132.965 60.1854 133.482 60.1854ZM137.705 64.4659C137.705 63.2479 138.45 62.5518 139.484 62.5518C140.494 62.5518 141.105 63.2131 141.105 64.3217V69H142.592V64.1428C142.592 62.2536 141.553 61.2642 139.991 61.2642C138.843 61.2642 138.092 61.7962 137.739 62.6065H137.645V61.3636H136.218V69H137.705V64.4659ZM147.787 72.0078C149.731 72.0078 151.232 71.1179 151.232 69.169V61.3636H149.776V62.6016H149.666C149.403 62.1293 148.876 61.2642 147.454 61.2642C145.609 61.2642 144.252 62.7209 144.252 65.152C144.252 67.5881 145.639 68.8857 147.444 68.8857C148.846 68.8857 149.388 68.0952 149.656 67.608H149.751V69.1094C149.751 70.2876 148.93 70.8097 147.802 70.8097C146.564 70.8097 146.082 70.1882 145.818 69.7656L144.54 70.2926C144.943 71.2124 145.962 72.0078 147.787 72.0078ZM147.772 67.6527C146.445 67.6527 145.754 66.6335 145.754 65.1321C145.754 63.6655 146.43 62.527 147.772 62.527C149.07 62.527 149.766 63.5859 149.766 65.1321C149.766 66.7081 149.055 67.6527 147.772 67.6527Z" fill="#1A1A1F"/>
<circle opacity="0.2" cx="24" cy="52" r="36" fill="#71E00B"/>
<path d="M29.7143 38.6667H18.2857C17.0233 38.6667 16 39.8607 16 41.3334V62.6667C16 64.1395 17.0233 65.3334 18.2857 65.3334H29.7143C30.9767 65.3334 32 64.1395 32 62.6667V41.3334C32 39.8607 30.9767 38.6667 29.7143 38.6667Z" stroke="#30B801" stroke-width="2.66667" stroke-linecap="round" stroke-linejoin="round"/>
<ellipse cx="24.0001" cy="61.3333" rx="1.33333" ry="1.33333" fill="#30B801"/>
</g>
<defs>
<clipPath id="clip0">
<rect width="240" height="104" fill="white"/>
</clipPath>
</defs>
</svg>
