<svg width="240" height="104" viewBox="0 0 240 104" fill="none" xmlns="http://www.w3.org/2000/svg">
<g clip-path="url(#clip0)">
<rect x="1" y="1" width="238" height="102" rx="7" stroke="#FF9314" stroke-width="2"/>
<path d="M73.9787 33L74.9134 30.3054H78.8906L79.8203 33H81.451L77.7869 22.8182H76.0121L72.348 33H73.9787ZM75.3608 29.0128L76.8622 24.6676H76.9418L78.4432 29.0128H75.3608ZM82.802 35.8636H84.2885V31.8118H84.378C84.6465 32.299 85.1934 33.1491 86.5854 33.1491C88.4348 33.1491 89.7772 31.6676 89.7772 29.1967C89.7772 26.7209 88.415 25.2642 86.5705 25.2642C85.1536 25.2642 84.6415 26.1293 84.378 26.6016H84.2537V25.3636H82.802V35.8636ZM84.2587 29.1818C84.2587 27.5859 84.9547 26.527 86.2523 26.527C87.5996 26.527 88.2757 27.6655 88.2757 29.1818C88.2757 30.7131 87.5797 31.8814 86.2523 31.8814C84.9746 31.8814 84.2587 30.7876 84.2587 29.1818ZM91.4426 35.8636H92.9292V31.8118H93.0186C93.2871 32.299 93.834 33.1491 95.226 33.1491C97.0755 33.1491 98.4178 31.6676 98.4178 29.1967C98.4178 26.7209 97.0556 25.2642 95.2111 25.2642C93.7942 25.2642 93.2821 26.1293 93.0186 26.6016H92.8944V25.3636H91.4426V35.8636ZM92.8993 29.1818C92.8993 27.5859 93.5953 26.527 94.8929 26.527C96.2402 26.527 96.9164 27.6655 96.9164 29.1818C96.9164 30.7131 96.2203 31.8814 94.8929 31.8814C93.6152 31.8814 92.8993 30.7876 92.8993 29.1818ZM104.768 33L105.702 30.3054H109.68L110.609 33H112.24L108.576 22.8182H106.801L103.137 33H104.768ZM106.15 29.0128L107.651 24.6676H107.731L109.232 29.0128H106.15ZM118.428 29.8331C118.433 31.1307 117.469 31.7472 116.634 31.7472C115.714 31.7472 115.078 31.081 115.078 30.0419V25.3636H113.591V30.2209C113.591 32.1151 114.63 33.0994 116.097 33.0994C117.245 33.0994 118.026 32.4929 118.379 31.6776H118.458V33H119.92V25.3636H118.428V29.8331ZM124.776 33.1491C126.168 33.1491 126.715 32.299 126.983 31.8118H127.108V33H128.559V22.8182H127.073V26.6016H126.983C126.715 26.1293 126.208 25.2642 124.786 25.2642C122.941 25.2642 121.584 26.7209 121.584 29.1967C121.584 31.6676 122.922 33.1491 124.776 33.1491ZM125.104 31.8814C123.777 31.8814 123.086 30.7131 123.086 29.1818C123.086 27.6655 123.762 26.527 125.104 26.527C126.402 26.527 127.098 27.5859 127.098 29.1818C127.098 30.7876 126.387 31.8814 125.104 31.8814ZM130.681 33H132.167V25.3636H130.681V33ZM131.432 24.1854C131.944 24.1854 132.371 23.7876 132.371 23.3004C132.371 22.8132 131.944 22.4105 131.432 22.4105C130.915 22.4105 130.492 22.8132 130.492 23.3004C130.492 23.7876 130.915 24.1854 131.432 24.1854ZM137.732 25.3636H136.166V23.5341H134.679V25.3636H133.561V26.5568H134.679V31.0661C134.674 32.4531 135.733 33.1243 136.907 33.0994C137.379 33.0945 137.697 33.005 137.871 32.9403L137.603 31.7124C137.503 31.7322 137.319 31.777 137.081 31.777C136.598 31.777 136.166 31.6179 136.166 30.7578V26.5568H137.732V25.3636ZM79.6662 46.8182V53.3906C79.6662 54.7727 78.7116 55.767 77.1605 55.767C75.6143 55.767 74.6548 54.7727 74.6548 53.3906V46.8182H73.1186V53.5149C73.1186 55.6527 74.7195 57.169 77.1605 57.169C79.6016 57.169 81.2074 55.6527 81.2074 53.5149V46.8182H79.6662ZM89.0439 51.228C88.7356 50.0398 87.8059 49.2642 86.1554 49.2642C84.4302 49.2642 83.2072 50.174 83.2072 51.5263C83.2072 52.6101 83.8635 53.331 85.2953 53.6491L86.5879 53.9325C87.3237 54.0966 87.6667 54.4247 87.6667 54.902C87.6667 55.4936 87.0353 55.956 86.0609 55.956C85.171 55.956 84.5993 55.5732 84.4203 54.8224L82.9835 55.0412C83.2321 56.3935 84.3556 57.1541 86.0708 57.1541C87.9153 57.1541 89.193 56.1747 89.193 54.7926C89.193 53.7138 88.5069 53.0476 87.1049 52.7244L85.8919 52.446C85.0517 52.2472 84.6887 51.9638 84.6937 51.4467C84.6887 50.8601 85.3251 50.4425 86.1703 50.4425C87.095 50.4425 87.5225 50.9545 87.6966 51.4666L89.0439 51.228ZM94.1186 57.1541C95.7841 57.1541 96.9624 56.3338 97.3004 55.0909L95.8935 54.8374C95.625 55.5582 94.9787 55.9261 94.1335 55.9261C92.8608 55.9261 92.0057 55.1009 91.9659 53.6293H97.3949V53.1023C97.3949 50.343 95.7443 49.2642 94.0142 49.2642C91.8864 49.2642 90.4844 50.8849 90.4844 53.2315C90.4844 55.603 91.8665 57.1541 94.1186 57.1541ZM91.9709 52.5156C92.0305 51.4318 92.8161 50.4922 94.0241 50.4922C95.1776 50.4922 95.9332 51.3473 95.9382 52.5156H91.9709ZM99.0442 57H100.531V52.3366C100.531 51.3374 101.301 50.6165 102.355 50.6165C102.664 50.6165 103.012 50.6712 103.131 50.706V49.2841C102.982 49.2642 102.688 49.2493 102.499 49.2493C101.605 49.2493 100.839 49.7564 100.561 50.5767H100.481V49.3636H99.0442V57ZM108.242 57H109.778V53.4205H111.866C114.227 53.4205 115.396 51.9936 115.396 50.1143C115.396 48.2401 114.237 46.8182 111.871 46.8182H108.242V57ZM109.778 52.1179V48.1357H111.707C113.228 48.1357 113.85 48.9609 113.85 50.1143C113.85 51.2678 113.228 52.1179 111.727 52.1179H109.778ZM119.231 57.169C120.494 57.169 121.205 56.5277 121.488 55.956H121.548V57H123V51.929C123 49.7067 121.25 49.2642 120.037 49.2642C118.655 49.2642 117.382 49.821 116.885 51.2131L118.282 51.5312C118.501 50.9893 119.057 50.4673 120.057 50.4673C121.016 50.4673 121.508 50.9695 121.508 51.8345V51.8693C121.508 52.4112 120.952 52.4013 119.579 52.5604C118.133 52.7294 116.651 53.1072 116.651 54.8423C116.651 56.3438 117.78 57.169 119.231 57.169ZM119.555 55.9759C118.714 55.9759 118.108 55.598 118.108 54.8622C118.108 54.0668 118.814 53.7834 119.674 53.669C120.156 53.6044 121.3 53.4751 121.513 53.2614V54.2457C121.513 55.1506 120.792 55.9759 119.555 55.9759ZM124.98 57H126.466V49.3636H124.98V57ZM125.73 48.1854C126.243 48.1854 126.67 47.7876 126.67 47.3004C126.67 46.8132 126.243 46.4105 125.73 46.4105C125.213 46.4105 124.791 46.8132 124.791 47.3004C124.791 47.7876 125.213 48.1854 125.73 48.1854ZM129.953 52.4659C129.953 51.2479 130.698 50.5518 131.732 50.5518C132.742 50.5518 133.353 51.2131 133.353 52.3217V57H134.84V52.1428C134.84 50.2536 133.801 49.2642 132.24 49.2642C131.091 49.2642 130.34 49.7962 129.987 50.6065H129.893V49.3636H128.466V57H129.953V52.4659ZM140.658 57H142.194V53.4205H144.282C146.643 53.4205 147.812 51.9936 147.812 50.1143C147.812 48.2401 146.653 46.8182 144.287 46.8182H140.658V57ZM142.194 52.1179V48.1357H144.123C145.644 48.1357 146.266 48.9609 146.266 50.1143C146.266 51.2678 145.644 52.1179 144.143 52.1179H142.194ZM152.614 57.1541C154.767 57.1541 156.174 55.5781 156.174 53.2166C156.174 50.8402 154.767 49.2642 152.614 49.2642C150.462 49.2642 149.055 50.8402 149.055 53.2166C149.055 55.5781 150.462 57.1541 152.614 57.1541ZM152.619 55.9062C151.212 55.9062 150.556 54.6783 150.556 53.2116C150.556 51.75 151.212 50.5071 152.619 50.5071C154.016 50.5071 154.673 51.75 154.673 53.2116C154.673 54.6783 154.016 55.9062 152.619 55.9062ZM157.833 57H159.32V49.3636H157.833V57ZM158.584 48.1854C159.096 48.1854 159.524 47.7876 159.524 47.3004C159.524 46.8132 159.096 46.4105 158.584 46.4105C158.067 46.4105 157.644 46.8132 157.644 47.3004C157.644 47.7876 158.067 48.1854 158.584 48.1854ZM162.806 52.4659C162.806 51.2479 163.552 50.5518 164.586 50.5518C165.595 50.5518 166.207 51.2131 166.207 52.3217V57H167.693V52.1428C167.693 50.2536 166.654 49.2642 165.093 49.2642C163.945 49.2642 163.194 49.7962 162.841 50.6065H162.746V49.3636H161.32V57H162.806V52.4659ZM173.251 49.3636H171.685V47.5341H170.199V49.3636H169.08V50.5568H170.199V55.0661C170.194 56.4531 171.253 57.1243 172.426 57.0994C172.898 57.0945 173.217 57.005 173.391 56.9403L173.122 55.7124C173.023 55.7322 172.839 55.777 172.6 55.777C172.118 55.777 171.685 55.6179 171.685 54.7578V50.5568H173.251V49.3636ZM180.495 51.228C180.187 50.0398 179.257 49.2642 177.607 49.2642C175.881 49.2642 174.658 50.174 174.658 51.5263C174.658 52.6101 175.315 53.331 176.746 53.6491L178.039 53.9325C178.775 54.0966 179.118 54.4247 179.118 54.902C179.118 55.4936 178.487 55.956 177.512 55.956C176.622 55.956 176.05 55.5732 175.871 54.8224L174.435 55.0412C174.683 56.3935 175.807 57.1541 177.522 57.1541C179.366 57.1541 180.644 56.1747 180.644 54.7926C180.644 53.7138 179.958 53.0476 178.556 52.7244L177.343 52.446C176.503 52.2472 176.14 51.9638 176.145 51.4467C176.14 50.8601 176.776 50.4425 177.621 50.4425C178.546 50.4425 178.974 50.9545 179.148 51.4666L180.495 51.228ZM81.5753 74.1293C81.2273 71.9517 79.522 70.679 77.3693 70.679C74.7344 70.679 72.7905 72.6527 72.7905 75.9091C72.7905 79.1655 74.7244 81.1392 77.3693 81.1392C79.6065 81.1392 81.2422 79.7372 81.5753 77.7237L80.0241 77.7188C79.7607 79.0213 78.6669 79.7372 77.3793 79.7372C75.6342 79.7372 74.3168 78.3999 74.3168 75.9091C74.3168 73.4382 75.6293 72.081 77.3842 72.081C78.6818 72.081 79.7706 72.8118 80.0241 74.1293H81.5753ZM86.5108 81.1541C88.6635 81.1541 90.0705 79.5781 90.0705 77.2166C90.0705 74.8402 88.6635 73.2642 86.5108 73.2642C84.3581 73.2642 82.9512 74.8402 82.9512 77.2166C82.9512 79.5781 84.3581 81.1541 86.5108 81.1541ZM86.5158 79.9062C85.1088 79.9062 84.4526 78.6783 84.4526 77.2116C84.4526 75.75 85.1088 74.5071 86.5158 74.5071C87.9128 74.5071 88.5691 75.75 88.5691 77.2116C88.5691 78.6783 87.9128 79.9062 86.5158 79.9062ZM91.7298 81H93.2163V76.2919C93.2163 75.2628 93.9371 74.5469 94.7823 74.5469C95.6076 74.5469 96.1793 75.0938 96.1793 75.924V81H97.6609V76.1328C97.6609 75.2131 98.2227 74.5469 99.1921 74.5469C99.9776 74.5469 100.624 74.9844 100.624 76.0185V81H102.11V75.8793C102.11 74.1342 101.136 73.2642 99.7539 73.2642C98.6552 73.2642 97.8299 73.7912 97.462 74.6065H97.3825C97.0494 73.7713 96.3484 73.2642 95.3292 73.2642C94.32 73.2642 93.5692 73.7663 93.2511 74.6065H93.1566V73.3636H91.7298V81ZM104.103 83.8636H105.589V79.8118H105.679C105.947 80.299 106.494 81.1491 107.886 81.1491C109.736 81.1491 111.078 79.6676 111.078 77.1967C111.078 74.7209 109.716 73.2642 107.871 73.2642C106.454 73.2642 105.942 74.1293 105.679 74.6016H105.555V73.3636H104.103V83.8636ZM105.559 77.1818C105.559 75.5859 106.256 74.527 107.553 74.527C108.9 74.527 109.577 75.6655 109.577 77.1818C109.577 78.7131 108.881 79.8814 107.553 79.8814C106.275 79.8814 105.559 78.7876 105.559 77.1818ZM116.035 81.1541C117.7 81.1541 118.878 80.3338 119.216 79.0909L117.809 78.8374C117.541 79.5582 116.895 79.9261 116.05 79.9261C114.777 79.9261 113.922 79.1009 113.882 77.6293H119.311V77.1023C119.311 74.343 117.66 73.2642 115.93 73.2642C113.802 73.2642 112.4 74.8849 112.4 77.2315C112.4 79.603 113.782 81.1541 116.035 81.1541ZM113.887 76.5156C113.947 75.4318 114.732 74.4922 115.94 74.4922C117.094 74.4922 117.849 75.3473 117.854 76.5156H113.887ZM124.525 73.3636H122.959V71.5341H121.472V73.3636H120.354V74.5568H121.472V79.0661C121.467 80.4531 122.526 81.1243 123.7 81.0994C124.172 81.0945 124.49 81.005 124.664 80.9403L124.396 79.7124C124.296 79.7322 124.112 79.777 123.874 79.777C123.391 79.777 122.959 79.6179 122.959 78.7578V74.5568H124.525V73.3636ZM126.169 81H127.656V73.3636H126.169V81ZM126.92 72.1854C127.432 72.1854 127.86 71.7876 127.86 71.3004C127.86 70.8132 127.432 70.4105 126.92 70.4105C126.403 70.4105 125.98 70.8132 125.98 71.3004C125.98 71.7876 126.403 72.1854 126.92 72.1854ZM133.22 73.3636H131.654V71.5341H130.168V73.3636H129.049V74.5568H130.168V79.0661C130.163 80.4531 131.222 81.1243 132.395 81.0994C132.867 81.0945 133.185 81.005 133.359 80.9403L133.091 79.7124C132.991 79.7322 132.808 79.777 132.569 79.777C132.087 79.777 131.654 79.6179 131.654 78.7578V74.5568H133.22V73.3636ZM134.865 81H136.351V73.3636H134.865V81ZM135.615 72.1854C136.127 72.1854 136.555 71.7876 136.555 71.3004C136.555 70.8132 136.127 70.4105 135.615 70.4105C135.098 70.4105 134.676 70.8132 134.676 71.3004C134.676 71.7876 135.098 72.1854 135.615 72.1854ZM144.884 73.3636H143.288L141.359 79.2401H141.279L139.345 73.3636H137.749L140.523 81H142.114L144.884 73.3636ZM149.298 81.1541C150.964 81.1541 152.142 80.3338 152.48 79.0909L151.073 78.8374C150.805 79.5582 150.158 79.9261 149.313 79.9261C148.04 79.9261 147.185 79.1009 147.146 77.6293H152.575V77.1023C152.575 74.343 150.924 73.2642 149.194 73.2642C147.066 73.2642 145.664 74.8849 145.664 77.2315C145.664 79.603 147.046 81.1541 149.298 81.1541ZM147.151 76.5156C147.21 75.4318 147.996 74.4922 149.204 74.4922C150.357 74.4922 151.113 75.3473 151.118 76.5156H147.151ZM158.908 81L159.843 78.3054H163.82L164.75 81H166.381L162.717 70.8182H160.942L157.278 81H158.908ZM160.29 77.0128L161.792 72.6676H161.871L163.373 77.0128H160.29ZM169.218 76.4659C169.218 75.2479 169.964 74.5518 170.998 74.5518C172.007 74.5518 172.619 75.2131 172.619 76.3217V81H174.105V76.1428C174.105 74.2536 173.066 73.2642 171.505 73.2642C170.357 73.2642 169.606 73.7962 169.253 74.6065H169.159V73.3636H167.732V81H169.218V76.4659ZM178.321 81.169C179.584 81.169 180.295 80.5277 180.578 79.956H180.638V81H182.09V75.929C182.09 73.7067 180.34 73.2642 179.127 73.2642C177.744 73.2642 176.472 73.821 175.975 75.2131L177.372 75.5312C177.59 74.9893 178.147 74.4673 179.146 74.4673C180.106 74.4673 180.598 74.9695 180.598 75.8345V75.8693C180.598 76.4112 180.041 76.4013 178.669 76.5604C177.222 76.7294 175.741 77.1072 175.741 78.8423C175.741 80.3438 176.869 81.169 178.321 81.169ZM178.644 79.9759C177.804 79.9759 177.198 79.598 177.198 78.8622C177.198 78.0668 177.904 77.7834 178.764 77.669C179.246 77.6044 180.389 77.4751 180.603 77.2614V78.2457C180.603 79.1506 179.882 79.9759 178.644 79.9759ZM185.556 70.8182H184.07V81H185.556V70.8182ZM188.496 83.8438C189.724 83.8438 190.504 83.2024 190.942 82.0192L194.099 73.3786L192.493 73.3636L190.559 79.2898H190.479L188.545 73.3636H186.954L189.748 81.0994L189.564 81.6065C189.187 82.5959 188.655 82.6854 187.839 82.4616L187.481 83.6797C187.66 83.7642 188.048 83.8438 188.496 83.8438ZM201.222 75.228C200.913 74.0398 199.984 73.2642 198.333 73.2642C196.608 73.2642 195.385 74.174 195.385 75.5263C195.385 76.6101 196.041 77.331 197.473 77.6491L198.766 77.9325C199.501 78.0966 199.844 78.4247 199.844 78.902C199.844 79.4936 199.213 79.956 198.239 79.956C197.349 79.956 196.777 79.5732 196.598 78.8224L195.161 79.0412C195.41 80.3935 196.533 81.1541 198.249 81.1541C200.093 81.1541 201.371 80.1747 201.371 78.7926C201.371 77.7138 200.685 77.0476 199.283 76.7244L198.07 76.446C197.229 76.2472 196.866 75.9638 196.871 75.4467C196.866 74.8601 197.503 74.4425 198.348 74.4425C199.273 74.4425 199.7 74.9545 199.874 75.4666L201.222 75.228ZM203.005 81H204.492V73.3636H203.005V81ZM203.756 72.1854C204.268 72.1854 204.695 71.7876 204.695 71.3004C204.695 70.8132 204.268 70.4105 203.756 70.4105C203.239 70.4105 202.816 70.8132 202.816 71.3004C202.816 71.7876 203.239 72.1854 203.756 72.1854ZM212.214 75.228C211.906 74.0398 210.976 73.2642 209.325 73.2642C207.6 73.2642 206.377 74.174 206.377 75.5263C206.377 76.6101 207.033 77.331 208.465 77.6491L209.758 77.9325C210.494 78.0966 210.837 78.4247 210.837 78.902C210.837 79.4936 210.205 79.956 209.231 79.956C208.341 79.956 207.769 79.5732 207.59 78.8224L206.153 79.0412C206.402 80.3935 207.526 81.1541 209.241 81.1541C211.085 81.1541 212.363 80.1747 212.363 78.7926C212.363 77.7138 211.677 77.0476 210.275 76.7244L209.062 76.446C208.222 76.2472 207.859 75.9638 207.864 75.4467C207.859 74.8601 208.495 74.4425 209.34 74.4425C210.265 74.4425 210.692 74.9545 210.866 75.4666L212.214 75.228Z" fill="#1A1A1F"/>
<circle opacity="0.2" cx="24" cy="52" r="36" fill="#FFCD14"/>
<path d="M22.6667 61.3333C28.5577 61.3333 33.3333 56.5577 33.3333 50.6667C33.3333 44.7756 28.5577 40 22.6667 40C16.7756 40 12 44.7756 12 50.6667C12 56.5577 16.7756 61.3333 22.6667 61.3333Z" stroke="#FF9314" stroke-width="2.66667" stroke-linecap="round" stroke-linejoin="round"/>
<path d="M35.9997 63.9997L30.1997 58.1997" stroke="#FF9314" stroke-width="2.66667" stroke-linecap="round" stroke-linejoin="round"/>
</g>
<defs>
<clipPath id="clip0">
<rect width="240" height="104" fill="white"/>
</clipPath>
</defs>
</svg>
