<svg xmlns="http://www.w3.org/2000/svg" viewBox="0 0 128 128"><defs><style>.cls-1{fill:#ff7c00;}.cls-2{fill:#261300;}</style></defs><title>ai</title><g id="Layer_6" data-name="Layer 6"><g id="Layer_1-2" data-name="Layer_1"><rect class="cls-1" x="14" y="14.31" width="100" height="99.39"/><rect class="cls-2" x="22.38" y="22.64" width="83.24" height="82.73"/><g id="_1927324032" data-name=" 1927324032"><rect class="cls-1" x="80.68" y="54.12" width="8.63" height="33.15" rx="0.37" ry="0.37"/><ellipse class="cls-1" cx="85" cy="45.35" rx="4.59" ry="4.39"/></g><path class="cls-1" d="M63.62,75.68,66.86,86.4c.17.63.5.79.94.78h8.29c.64,0,.68-.19.59-.61L63,40.9a.2.2,0,0,0-.22-.14l-11.48,0c-.45,0-.46.23-.42.67a9.34,9.34,0,0,1-.27,3.73L38.47,86.59c-.13.39-.1.59.42.59h7.83c.83,0,.87-.25,1-.67l2.71-10.84Zm-1.67-8.34H52.44L57,48.71Z"/></g></g></svg>