<svg xmlns="http://www.w3.org/2000/svg" viewBox="0 0 128 128"><defs><style>.cls-1{fill:#1572b6;}.cls-2{fill:#33a9dc;}.cls-3{fill:#fff;}.cls-4{fill:#ebebeb;}</style></defs><title>css</title><g id="Layer_1" data-name="Layer 1"><polygon class="cls-1" points="27.94 103.94 19.91 13.94 108.09 13.94 100.06 103.93 63.95 113.94 27.94 103.94"/><polygon class="cls-2" points="64 106.29 93.18 98.2 100.04 21.3 64 21.3 64 106.29"/><polygon class="cls-3" points="91.68 31.57 64.04 31.57 64 31.57 64 42.6 79.62 42.6 78.61 53.91 64 53.91 64 64.95 77.63 64.95 76.34 79.26 64.03 82.59 64.03 94.07 86.66 87.8 86.82 85.93 88.7 64.95 88.7 64.95 88.71 64.88 88.74 64.48 88.74 64.48 91.42 34.53 91.68 31.57"/><polygon class="cls-4" points="64.02 82.59 51.72 79.27 50.94 70.47 44.97 70.47 39.86 70.47 41.4 87.8 64.02 94.08 64.07 94.06 64.07 82.58 64.02 82.59"/><polygon class="cls-4" points="64.04 42.58 64.04 38.42 64.04 31.57 36.39 31.57 36.65 34.53 37.15 40.12 37.38 42.6 37.41 42.6 64.04 42.6 64.04 42.58"/><polygon class="cls-4" points="51.64 62.47 51.86 64.95 51.9 64.95 64 64.95 64 64.92 64 60.77 64 53.91 50.87 53.91 51.14 56.87 51.64 62.47"/></g></svg>