<svg xmlns="http://www.w3.org/2000/svg" viewBox="0 0 128 128"><defs><style>.cls-1{fill:#e44f26;}.cls-2{fill:#f1662a;}.cls-3{fill:#ebebeb;}.cls-4{fill:#fff;}</style></defs><title>html</title><g id="Layer_2" data-name="Layer 2"><polygon class="cls-1" points="27.9 104.06 19.88 14.06 108.05 14.06 100.02 104.05 63.91 114.06 27.9 104.06"/><polygon class="cls-2" points="63.97 106.41 93.14 98.32 100.01 21.42 63.97 21.42 63.97 106.41"/><polygon class="cls-3" points="63.97 32.46 63.93 32.46 36.29 32.46 36.55 35.42 39.26 65.84 63.97 65.84 63.97 54.8 49.36 54.8 48.35 43.5 63.97 43.5 63.97 32.46"/><polygon class="cls-3" points="51.63 80.16 50.84 71.36 44.87 71.36 39.76 71.36 41.3 88.69 63.92 94.97 63.97 94.95 63.97 83.47 63.92 83.48 51.63 80.16"/><polygon class="cls-4" points="63.93 54.8 63.93 65.84 77.52 65.84 76.24 80.15 63.93 83.48 63.93 94.96 86.56 88.69 86.72 86.83 89.32 57.76 89.59 54.8 86.61 54.8 63.93 54.8"/><polygon class="cls-4" points="63.93 32.46 63.93 39.31 63.93 43.47 63.93 43.5 90.56 43.5 90.59 43.5 90.81 41.01 91.32 35.42 91.58 32.46 63.93 32.46"/></g></svg>