<svg id="Layer_4" data-name="Layer 4" xmlns="http://www.w3.org/2000/svg" viewBox="0 0 127 127"><defs><style>.cls-1{fill:#efc725;}.cls-2{fill:#fbde34;}.cls-3{fill:#ebebeb;}.cls-4{fill:#fff;}</style></defs><title>js</title><path class="cls-1" d="M63.52,13.5h43.42c.72,0,.68-.11.62.68-.2,2.32-.43,4.63-.63,7-.18,2-.34,4-.52,5.95s-.36,3.9-.54,5.85c-.11,1.26-.21,2.53-.32,3.79-.14,1.61-.3,3.23-.44,4.84-.11,1.23-.21,2.46-.32,3.69s-.24,2.56-.35,3.83-.21,2.43-.32,3.64-.24,2.62-.36,3.93-.21,2.43-.32,3.64-.24,2.59-.35,3.88-.21,2.4-.32,3.6-.24,2.68-.36,4-.21,2.46-.32,3.69-.24,2.56-.35,3.83-.21,2.43-.32,3.64-.24,2.62-.36,3.93-.21,2.43-.32,3.64-.24,2.59-.35,3.88-.21,2.46-.32,3.69-.23,2.56-.35,3.83c0,.38-.1.77-.09,1.15s-.16.46-.46.54c-2.12.58-4.23,1.17-6.35,1.75l-17.24,4.78-11.72,3.25a1.41,1.41,0,0,1-.8,0L33,105.1l-5.14-1.43c-.45-.13-.44-.13-.48-.57-.15-1.68-.31-3.36-.45-5-.11-1.25-.21-2.49-.32-3.74-.15-1.63-.3-3.26-.45-4.89-.11-1.21-.21-2.43-.32-3.64s-.24-2.59-.35-3.88-.21-2.46-.32-3.69c-.15-1.66-.3-3.32-.45-5-.11-1.21-.21-2.43-.32-3.64S24.16,67,24,65.71s-.21-2.4-.32-3.6-.24-2.68-.36-4-.21-2.46-.32-3.69-.24-2.56-.35-3.83-.21-2.46-.32-3.69S22.13,44.28,22,43s-.21-2.46-.32-3.69-.23-2.56-.35-3.83S21.13,33,21,31.81s-.24-2.65-.36-4-.21-2.4-.32-3.6-.24-2.62-.36-3.93-.21-2.43-.32-3.64c-.08-.93-.16-1.85-.25-2.78,0-.37,0-.37.34-.38H63.52Z"/><path class="cls-2" d="M42.91,25.06c.15-.18.36-.1.54-.1H63.06c.36,0,.37,0,.37-.39,0-1.08,0-2.15,0-3.23,0-.52,0-.52.53-.52H98.8c.71,0,.7,0,.6.7-.05.36-.06.73-.08,1.1,0,.52-.11,1-.14,1.58A12.84,12.84,0,0,1,99,25.8,10.65,10.65,0,0,0,98.93,27c0,.52-.08,1.05-.15,1.57a14.63,14.63,0,0,1-.15,1.62,7.08,7.08,0,0,0-.09,1.14c0,.53-.09,1.05-.14,1.57a12.67,12.67,0,0,1-.15,1.52,8.78,8.78,0,0,0-.09,1.24c0,.52-.09,1.05-.14,1.57a13.12,13.12,0,0,1-.15,1.52,7.13,7.13,0,0,0-.1,1.19c0,.93-.16,1.85-.23,2.77s-.15,1.71-.24,2.57c-.06.54-.08,1.09-.14,1.62A15.72,15.72,0,0,1,97,48.57a6.35,6.35,0,0,0-.09,1c0,.54-.1,1.08-.14,1.62s-.06,1-.15,1.57,0,.92-.11,1.38c-.09.61-.13,1.24-.18,1.85s-.08,1.05-.13,1.58A15.64,15.64,0,0,1,96,59.24a10.44,10.44,0,0,0-.09,1.14c0,.52-.11,1-.14,1.57a12.78,12.78,0,0,1-.15,1.62,10.65,10.65,0,0,0-.09,1.19c0,.52-.09,1.05-.15,1.57A14.33,14.33,0,0,1,95.26,68a7.22,7.22,0,0,0-.09,1.14c0,.53-.09,1.05-.14,1.57a12.42,12.42,0,0,1-.15,1.52,9,9,0,0,0-.09,1.24c0,.52-.09,1.05-.14,1.57a12.89,12.89,0,0,1-.15,1.52,7.24,7.24,0,0,0-.1,1.19c0,.93-.15,1.85-.23,2.77s-.15,1.71-.24,2.57c-.06.54-.09,1.08-.14,1.62a13.22,13.22,0,0,1-.16,1.57,8.19,8.19,0,0,0-.09,1.14c0,.54-.1,1.08-.14,1.62a13.33,13.33,0,0,1-.15,1.57,8.73,8.73,0,0,0-.1,1.19c0,.53-.08,1.06-.14,1.57s0,1.08-.15,1.62a7.65,7.65,0,0,0-.1,1.19c0,.43-.14.85-.12,1.29,0,.19-.1.25-.25.29l-1.57.45-5,1.38-4.76,1.32-4.94,1.37L72,103.4l-3.83,1.07-4.58,1.26a.82.82,0,0,1-.17,0V94.36a.28.28,0,0,1,.16-.2c2-.63,4.08-1.15,6.12-1.72l15.5-4.3c.68-.19.68-.23.73-.93.13-1.6.29-3.19.42-4.79s.3-3.32.44-5,.29-3.13.42-4.7c.17-2,.37-4.06.54-6.09.13-1.55.28-3.1.42-4.65.17-2,.36-4,.54-6,0-.43.1-.86.11-1.29s-.1-.42-.39-.41H64.32a2.06,2.06,0,0,1-.86-.08.31.31,0,0,1-.12-.14,2.5,2.5,0,0,1-.07-.86q0-7.61,0-15.23a3.28,3.28,0,0,1,0-.43.71.71,0,0,0-.59-.91c-.08-.22.11-.22.23-.25a2.58,2.58,0,0,1,.71,0,39.4,39.4,0,0,1,3.94.15c1.2.07,2.4.15,3.6.21,1.78.09,3.55.24,5.33.3.47,0,.59.32.63.7q.12,1.2.22,2.4c.22,2.61.47,5.21.7,7.82,0,.48.13.55.71.55h7.08c.84,0,1.67,0,2.51,0,.38,0,.52-.13.48-.51-.14-1.63-.3-3.26-.44-4.89q-.31-3.5-.63-7c-.19-2-.35-4-.53-6-.12-1.34-.24-2.69-.33-4,0-.77-.1-.83-.89-.83H63.59a7.23,7.23,0,0,1-.77,0h-19A1.29,1.29,0,0,1,42.91,25.06Z"/><path class="cls-3" d="M42.91,25.06H63.62a.86.86,0,0,1,.15.64q0,5.09,0,10.19a.89.89,0,0,1-.15.64,4.42,4.42,0,0,0-1,.08.67.67,0,0,1-.58.16c-1.89-.05-3.78.12-5.68.12-1,0-1.92.1-2.89.08-.33,0-.49.14-.51.49-.24,2.91-.53,5.82-.79,8.72-.22,2.4-.44,4.79-.66,7.19-.06.64,0,.64.61.64h10.5a1.23,1.23,0,0,1,.79.13v0a1.23,1.23,0,0,1,.07.61q0,4.72,0,9.44c0,.74,0,.75.75.75H76.1a3.5,3.5,0,0,1,.67,0c.17,0,.31.1.34.29s.06.36-.18.43c-.23-.35-.58-.35-.94-.34H64.26a1.24,1.24,0,0,1-.83-.14l-.62,0h-23c-.64,0-.62,0-.55-.65.1-.88.16-1.76.24-2.63q.18-2,.36-3.93c.08-.85.14-1.69.22-2.54.12-1.31.24-2.62.36-3.93.07-.83.14-1.66.22-2.49.12-1.33.24-2.65.36-4,.07-.83.14-1.66.22-2.49.12-1.33.24-2.65.36-4,.08-.85.14-1.69.22-2.54.12-1.28.24-2.55.36-3.83s.22-2.39.34-3.59S42.78,26.25,42.91,25.06Z"/><path class="cls-4" d="M76.94,65.72c.1-.1.08-.24.07-.36a.19.19,0,0,0-.21-.21h-13c-.47,0-.47,0-.47-.49q0-4.14,0-8.28c0-.56,0-1.12,0-1.69a.92.92,0,0,1,.09-.51H88.66c.38,0,.37,0,.34.41-.11,1.26-.21,2.52-.33,3.79-.15,1.61-.3,3.22-.45,4.84-.11,1.28-.21,2.56-.32,3.84-.14,1.58-.3,3.16-.44,4.74-.08.81-.14,1.63-.21,2.44-.12,1.36-.25,2.71-.37,4.07s-.21,2.46-.32,3.69-.24,2.55-.35,3.83c-.05.61-.09,1.22-.14,1.82,0,.43,0,.43-.46.55l-21.73,6-.33.06c-.22.08-.29-.07-.33-.23a2.21,2.21,0,0,1,0-.57q0-4.9,0-9.8c0-.27-.06-.55.16-.78l.11-.07a.81.81,0,0,1,.51-.25l10.92-2.94c.65-.17.71-.26.76-.91q.26-3,.54-6.08c.15-1.61.28-3.23.43-4.84,0-.53.07-1.06.16-1.58C76.78,66,76.78,65.84,76.94,65.72Z"/><path class="cls-3" d="M63.33,82.88q0,5.44,0,10.88c0,.19-.1.44.21.51l-.12.09-5.75-1.59L41.42,88.26c-.81-.23-.68-.08-.75-.91-.11-1.28-.24-2.55-.35-3.83-.07-.8-.14-1.6-.21-2.4-.12-1.36-.25-2.71-.37-4.07s-.21-2.49-.32-3.74c-.06-.72-.14-1.44-.19-2.16,0-.41,0-.42.41-.42H49.86c.44,0,.42,0,.46.45.11,1.31.24,2.62.36,3.93s.21,2.49.32,3.74c0,.11,0,.22,0,.34s.13.38.39.45c2.46.65,4.92,1.32,7.38,2l4.36,1.18A1.26,1.26,0,0,1,63.33,82.88Z"/><path class="cls-2" d="M76.94,65.72q-.21,2.3-.42,4.6c-.18,1.93-.36,3.86-.54,5.79-.08.89-.15,1.79-.22,2.68,0,.08,0,.16,0,.24-.05.49-.05.49-.51.62l-8,2.16-3.39.91-.38.07c0-.22,0-.45,0-.67q0-8.44,0-16.88l1.82,0H76.44C76.92,65.23,76.92,65.23,76.94,65.72Z"/><path class="cls-4" d="M63.62,36.52q0-5.73,0-11.46c.63-.05,1.25,0,1.88,0H86.36c.59,0,.6,0,.66.58.08.88.14,1.76.22,2.64.12,1.42.25,2.84.37,4.26.11,1.25.21,2.49.32,3.74s.24,2.49.35,3.73c.08.83.14,1.66.22,2.49.12,1.29.24,2.59.36,3.88.06.69.12,1.37.18,2.06,0,.17,0,.24-.21.23H78.51c-.57,0-.57,0-.62-.58-.15-1.74-.32-3.48-.47-5.22S77.14,39.59,77,38c-.06-.75-.06-.73-.8-.77l-5.81-.36-1.92-.11c-1.55-.07-3.11-.22-4.66-.18A1.15,1.15,0,0,1,63.62,36.52Z"/><path class="cls-1" d="M63.43,54.14l-.53,0H51.68c-.39,0-.38,0-.34-.42.12-1.2.22-2.4.33-3.59s.24-2.52.36-3.78c.07-.8.14-1.6.22-2.4.12-1.31.25-2.62.37-3.93.08-.91.15-1.82.23-2.73,0-.47,0-.48.51-.49,1.78,0,3.56-.06,5.35-.13,1.32-.05,2.63-.08,3.95-.08h0c.74,0,.74,0,.74.8Q63.43,45.77,63.43,54.14Z"/></svg>