<svg xmlns="http://www.w3.org/2000/svg" viewBox="0 0 128 128"><defs><style>.cls-1{fill:#31c5f0;}.cls-2{fill:#0c0824;}</style></defs><title>ps</title><g id="Layer_3" data-name="Layer 3"><g id="Layer_1-2" data-name="Layer_1"><rect class="cls-1" x="14" y="14.31" width="100" height="99.39"/><rect class="cls-2" x="22.38" y="22.64" width="83.24" height="82.73"/><path class="cls-1" d="M88.14,53.38C80.74,49.65,68,51.45,68,61.2c0,7.26,5,10.11,11.16,12.51,8.72,3.41.25,9.84-10.4,3.19,0,0-.38-.19-.57,0a.69.69,0,0,0-.19.57v7c3.72,1.91,6.5,2.88,10.8,2.83,13.86-.14,15.86-13.41,8.48-18.52a45.7,45.7,0,0,0-6-3.22c-5.86-2.24-5.36-5.41-3.5-7,2.05-1.78,7.75.91,10.15,2.41,1.45.9,1.69-.22,1.69-1.2l0-4.65C89.54,54,89.16,53.9,88.14,53.38Z"/><path class="cls-1" d="M45.34,65V48a.84.84,0,0,1,.37-.37c7.21-.37,11.31,1,11.68,8.74.42,8.84-7,9-12.06,9Zm-8.7-23.64V87.1h8.7V72.36c10.69.76,20.33-3.07,20.33-15.42,0-5-1.55-10-5.23-13C55.3,39.67,43.3,40.61,36.64,41.35Z"/></g></g></svg>