<svg xmlns="http://www.w3.org/2000/svg" viewBox="0 0 128 128"><defs><style>.cls-1{fill:#ff2bc2;}.cls-2{fill:#2e001e;}.cls-3{fill:#ff3bc1;}.cls-4{fill:#fe31c0;}</style></defs><title>xd</title><g id="Layer_5" data-name="Layer 5"><g id="Layer_1-2" data-name="Layer_1"><rect class="cls-1" x="14" y="14.31" width="100" height="99.39"/><rect class="cls-2" x="22.38" y="22.64" width="83.24" height="82.73"/><path class="cls-3" d="M33.34,41.7c.33.72.82,1.6,1,2,.5,1,1,1.94,1.49,2.94l8.11,16.14c.24.47.68,1,.46,1.51L33,86c-.27.54-.87,1.16.22,1.16H40c1,0,1-.5,1.58-1.8l7.72-16.18c.53.47,6.84,14.16,8.36,17.28.26.54.33.69,1.1.69,1.09,0,7.09.13,7.67-.12.12-.63-1-2.38-1.29-3l-3-5.75c-2.37-4.56-5.09-10.1-7.49-14.44-.49-.89-.3-.84.8-2.89.54-1,1-1.91,1.52-2.9s1-1.87,1.48-2.84L63,46.55A51.17,51.17,0,0,0,65.71,41c.11-.39-.54-.37-1-.37H58.64c-.65,0-.75.13-1,.6L51.81,53.76a47.63,47.63,0,0,1-2.13,4.51c-.61-1.52-1.36-3-2-4.5l-4.28-9c-.39-.74-.68-1.49-1.05-2.22-.2-.4-.37-.74-.55-1.13-.25-.55-.21-.75-.94-.75H34C33,40.68,32.88,40.71,33.34,41.7Z"/><path class="cls-4" d="M75.8,70.5c0-2.82.29-5.49,1.87-7.86a10.11,10.11,0,0,1,1.26-1.59,8.83,8.83,0,0,1,8.59-1.93v21.4C80.8,82.46,75.8,78.32,75.8,70.5ZM87.53,52.31l-2.74-.05a17.08,17.08,0,0,0-12,5A18.7,18.7,0,0,0,68,69.65c0,5.61,1,9.69,4.06,13.25a15.19,15.19,0,0,0,11.35,4.83,24.79,24.79,0,0,0,7.11-.83A19.64,19.64,0,0,0,95.38,85a18.75,18.75,0,0,0-.13-2.47c-.09-2.55,0-5.94,0-8.54V41.5c0-.65,0-.84-.64-.84H88.16c-.89,0-.63.55-.63,2.43Z"/></g></g></svg>