<svg width="12" height="12" viewBox="0 0 12 12" fill="none" xmlns="http://www.w3.org/2000/svg">
<path fill-rule="evenodd" clip-rule="evenodd" d="M2.25183 1.50085C1.83711 1.50085 1.50092 1.83704 1.50092 2.25174V9.7578C1.50092 10.1725 1.83711 10.5087 2.25183 10.5087H9.75783C10.1726 10.5087 10.5087 10.1725 10.5087 9.7578V2.25174C10.5087 1.83704 10.1726 1.50085 9.75783 1.50085H2.25183ZM0.750916 2.25174C0.750916 1.4228 1.42292 0.750854 2.25183 0.750854H9.75783C10.5867 0.750854 11.2587 1.4228 11.2587 2.25174V9.7578C11.2587 10.5867 10.5867 11.2587 9.75783 11.2587H2.25183C1.42292 11.2587 0.750916 10.5867 0.750916 9.7578V2.25174Z" fill="#424242"/>
<path d="M4.24006 7.72497L4.52344 6.85432H5.90119L6.18457 7.72497H7.04963L5.7334 3.90679H4.69309L3.375 7.72497H4.24006ZM4.72852 6.22417L5.19833 4.7793H5.22816L5.69798 6.22417H4.72852Z" fill="#424242"/>
<path d="M7.50453 7.72497H8.29874V4.86133H7.50453V7.72497ZM7.9035 4.49219C8.14027 4.49219 8.33416 4.31135 8.33416 4.08949C8.33416 3.8695 8.14027 3.68866 7.9035 3.68866C7.66859 3.68866 7.4747 3.8695 7.4747 4.08949C7.4747 4.31135 7.66859 4.49219 7.9035 4.49219Z" fill="#424242"/>
</svg>
