<svg width="12" height="12" viewBox="0 0 12 12" fill="none" xmlns="http://www.w3.org/2000/svg">
<path d="M6.12215 11.25H7.0344L7.60912 11.1588C8.37975 11.0765 9.10295 10.7466 9.67034 10.2187C10.2377 9.69073 10.6188 8.99316 10.7564 8.23046C10.8385 7.84731 10.8841 7.45503 10.9388 7.07188V6.25089C10.8841 5.83126 10.8385 5.41163 10.7564 5.00111C10.5968 4.02701 10.2023 3.10646 9.60695 2.3191C9.29058 1.85719 8.81177 1.53146 8.26595 1.40685C7.78245 1.32475 7.29896 1.26999 6.80634 1.21526C6.46881 1.16964 6.12215 1.16055 5.77549 1.13318V1.06932L5.93972 1.01459V0.950724L5.50183 0.75H5.31937L4.13346 1.34298C3.42304 1.66258 2.79259 2.13611 2.28772 2.72934C1.78284 3.32258 1.41615 4.02068 1.21425 4.77305C1.14127 5.06497 1.10478 5.36601 1.05005 5.6853V6.41509C1.05005 6.49719 1.05007 6.5793 1.09568 6.65228C1.1537 7.34861 1.36222 8.02402 1.70687 8.63185C2.07398 9.22703 2.55581 9.74325 3.12433 10.1504C3.69284 10.5576 4.33667 10.8477 5.01834 11.0037C5.30114 11.1314 5.70252 11.177 6.12215 11.25ZM6.18602 10.5385C5.33451 10.5677 4.49246 10.3524 3.75943 9.91815C2.98503 9.36044 2.38404 8.59519 2.02572 7.71069C1.6674 6.82619 1.56635 5.85843 1.73424 4.91899C1.83469 4.35414 2.07523 3.8235 2.43382 3.37567C2.79241 2.92783 3.25759 2.5771 3.7868 2.35557C3.8964 2.31938 4.01472 2.31938 4.12433 2.35557C4.20475 2.39128 4.29176 2.40974 4.37975 2.40974C4.46775 2.40974 4.55476 2.39128 4.63518 2.35557C4.92862 2.18839 5.23345 2.04208 5.54743 1.91771C6.06707 1.77615 6.61513 1.77615 7.13476 1.91771C7.72608 1.9751 8.28858 2.20062 8.75578 2.56759C9.22298 2.93456 9.57532 3.42764 9.77115 3.98853C10.2515 5.26364 10.3653 6.64771 10.0996 7.98413C10.0143 8.52598 9.77568 9.03211 9.41196 9.44271C9.04825 9.8533 8.57461 10.1512 8.04701 10.3013C7.44209 10.4718 6.81401 10.5457 6.18602 10.5202V10.5385ZM3.577 6.80735C3.7412 6.97155 3.88714 7.16312 4.06959 7.31821C4.67847 7.75856 5.41869 7.9794 6.16931 7.9446C6.91993 7.9098 7.63656 7.62147 8.20208 7.12667C8.35958 6.9376 8.49716 6.73274 8.6126 6.51542C8.65952 6.45637 8.71139 6.40144 8.76767 6.35122C8.80661 6.41278 8.83443 6.48075 8.8498 6.55195C8.83442 6.83366 8.7539 7.10794 8.61461 7.35329C8.47532 7.59863 8.28104 7.80835 8.04701 7.96592C7.63069 8.26288 7.15511 8.46631 6.65283 8.56236C6.15056 8.65841 5.63345 8.64478 5.13694 8.52238C4.67993 8.46981 4.25595 8.25829 3.93911 7.92478C3.62227 7.59126 3.43275 7.15698 3.40367 6.69788C3.4584 6.72525 3.53139 6.76174 3.577 6.80735ZM8.13824 5.03758C8.14673 5.10271 8.14043 5.16892 8.11987 5.23129C8.09931 5.29366 8.06498 5.35058 8.01943 5.39788C7.97387 5.44519 7.91828 5.48166 7.85673 5.50457C7.79518 5.52747 7.72925 5.53626 7.66386 5.53023C7.6108 5.5348 7.55738 5.52735 7.50757 5.50852C7.45775 5.48969 7.4128 5.4599 7.37602 5.42138C7.33925 5.38286 7.31162 5.33661 7.29512 5.28597C7.27862 5.23533 7.2737 5.18163 7.28073 5.12884C7.27575 5.06531 7.28337 5.00138 7.30317 4.94081C7.32297 4.88024 7.35455 4.82421 7.3961 4.77589C7.43764 4.72757 7.48832 4.68791 7.54523 4.65924C7.60215 4.63058 7.66416 4.61347 7.72772 4.60885C7.78421 4.60524 7.84078 4.61449 7.89317 4.63591C7.94556 4.65734 7.9924 4.69036 8.03017 4.73252C8.06794 4.77468 8.09565 4.82486 8.11121 4.87929C8.12677 4.93371 8.12976 4.99096 8.11998 5.04671L8.13824 5.03758ZM4.84501 5.11058C4.84501 5.39338 4.68994 5.60318 4.48925 5.61231C4.35374 5.60145 4.22588 5.54504 4.1265 5.45228C4.02711 5.35953 3.96206 5.23589 3.94189 5.10145C3.95241 4.98732 4.00312 4.88065 4.08499 4.80045C4.16686 4.72024 4.27457 4.67175 4.38889 4.66359C4.44482 4.6659 4.49974 4.67937 4.55038 4.70323C4.60103 4.72709 4.64639 4.76085 4.68379 4.80251C4.72119 4.84416 4.74988 4.89286 4.76817 4.94577C4.78646 4.99868 4.79398 5.05472 4.79028 5.11058H4.84501Z" fill="#424242"/>
</svg>
