<svg width="448" height="540" viewBox="0 0 448 540" fill="none" xmlns="http://www.w3.org/2000/svg">
<rect width="448" height="540" fill="#1C3EA8"/>
<path opacity="0.05" fill-rule="evenodd" clip-rule="evenodd" d="M356.715 490.073C356.802 490.038 356.884 489.994 356.962 489.941L429.391 447.854C429.408 447.845 429.425 447.835 429.442 447.825L489.857 412.718C490.273 412.475 490.506 412.035 490.504 411.583C490.506 411.131 490.273 410.691 489.857 410.448L356.88 333.177C356.258 332.814 355.458 333.026 355.084 333.654C354.729 334.281 354.942 335.085 355.564 335.449L486.571 411.583L477.103 417.085L344.791 340.203C344.169 339.837 343.369 340.05 342.996 340.679C342.64 341.305 342.853 342.109 343.476 342.473L474.482 418.609L465.014 424.111L332.702 347.227C332.08 346.862 331.28 347.076 330.907 347.703C330.551 348.331 330.765 349.134 331.387 349.499L462.394 425.633L452.926 431.136L320.631 354.251C319.991 353.886 319.191 354.1 318.836 354.727C318.462 355.355 318.676 356.158 319.298 356.523L450.305 432.659L440.839 438.16L308.542 361.277C307.902 360.912 307.102 361.125 306.747 361.751C306.374 362.379 306.587 363.182 307.209 363.547L438.218 439.684L428.75 445.186L296.454 368.301C295.831 367.936 295.014 368.149 294.658 368.777C294.285 369.403 294.498 370.206 295.12 370.573L426.139 446.703L416.663 452.211L284.365 375.324C283.743 374.962 282.925 375.173 282.569 375.801C282.196 376.428 282.409 377.232 283.031 377.596L414.051 453.728L404.575 459.236L272.276 382.35C271.654 381.986 270.836 382.197 270.48 382.825C270.107 383.452 270.32 384.256 270.943 384.62L401.963 460.754L392.486 466.261L260.187 389.374C259.565 389.012 258.747 389.223 258.392 389.851C258.018 390.478 258.232 391.28 258.872 391.646L389.875 467.779L380.399 473.286L248.098 396.4C247.476 396.035 246.658 396.247 246.303 396.875C245.929 397.502 246.143 398.306 246.783 398.67L377.788 474.803L368.311 480.311L236.009 403.424C235.387 403.058 234.587 403.271 234.214 403.899C233.841 404.526 234.054 405.33 234.694 405.694L365.699 481.829L356.222 487.336L223.921 410.448C223.298 410.083 222.498 410.297 222.125 410.924C221.77 411.55 221.983 412.354 222.605 412.718L355.564 489.989C355.778 490.11 355.991 490.167 356.222 490.167C356.391 490.167 356.56 490.136 356.715 490.073ZM356.317 504.965C356.555 504.952 356.8 504.89 357.011 504.77C357.05 504.749 357.089 504.727 357.127 504.702L490.035 427.473C490.817 427.009 491.102 425.987 490.64 425.187C490.177 424.389 489.146 424.12 488.346 424.583L356.223 501.366L224.099 424.583C223.299 424.119 222.285 424.391 221.823 425.187C221.361 425.987 221.628 427.009 222.428 427.473L355.318 504.702C355.434 504.777 355.559 504.836 355.688 504.88C355.863 504.94 356.043 504.968 356.223 504.968L356.247 504.968L356.27 504.967C356.286 504.967 356.301 504.966 356.317 504.965V504.965ZM357.382 519.411L490.214 442.227C491.174 441.664 491.511 440.421 490.942 439.452C490.374 438.483 489.129 438.154 488.169 438.718L356.223 515.4L224.277 438.718C223.317 438.154 222.073 438.483 221.504 439.452C220.953 440.421 221.273 441.664 222.25 442.227L355.123 519.446C355.453 519.659 355.835 519.772 356.223 519.772C356.435 519.772 356.647 519.738 356.849 519.673L357.382 519.411ZM224.454 452.853L356.231 529.427L487.991 452.853C489.129 452.188 490.586 452.58 491.262 453.717C491.92 454.859 491.529 456.32 490.391 456.981L357.747 534.181C357.747 534.181 356.851 534.507 356.256 534.494C355.716 534.483 354.909 534.181 354.909 534.181L222.054 456.981C220.917 456.32 220.543 454.858 221.201 453.717C221.859 452.578 223.317 452.188 224.454 452.853ZM356.231 543.458L224.649 466.988C223.334 466.224 221.645 466.672 220.88 467.982C220.134 469.294 220.578 470.974 221.876 471.735L354.689 548.911C355.142 549.216 355.679 549.377 356.222 549.377C356.7 549.377 357.164 549.258 357.609 549.006L490.568 471.735C491.883 470.974 492.328 469.294 491.563 467.982C490.799 466.672 489.128 466.224 487.812 466.988L356.231 543.458ZM224.827 481.123L356.222 557.483L487.635 481.123C489.11 480.262 491.012 480.766 491.866 482.246C492.737 483.729 492.221 485.63 490.746 486.49C476.757 494.619 462.761 502.721 448.772 510.818L448.762 510.824L448.759 510.826C418.388 528.405 388.049 545.966 357.884 563.761C357.466 564.007 356.789 564.12 356.255 564.12C355.722 564.12 355.155 564.045 354.658 563.761L221.698 486.49C220.223 485.629 219.725 483.729 220.578 482.246C221.431 480.764 223.334 480.262 224.827 481.123ZM357.872 578.567C357.771 578.621 357.668 578.67 357.562 578.714C357.131 578.896 356.682 578.984 356.222 578.984C356.151 578.984 356.079 578.982 356.007 578.978C355.566 578.95 355.135 578.838 354.737 578.649C354.65 578.608 354.564 578.563 354.48 578.515L221.521 501.244C219.867 500.284 219.316 498.165 220.276 496.514C221.236 494.86 223.352 494.297 225.005 495.258L356.222 571.515L487.457 495.258C489.093 494.297 491.226 494.86 492.186 496.514C493.146 498.165 492.577 500.284 490.924 501.244L357.964 578.515C357.934 578.533 357.903 578.55 357.872 578.567ZM491.102 516L358.205 593.234L357.671 593.502C357.213 593.69 356.72 593.788 356.222 593.788C355.725 593.788 355.232 593.69 354.773 593.502C354.75 593.493 354.726 593.483 354.703 593.473L354.67 593.458C354.522 593.393 354.379 593.318 354.24 593.234L221.343 516C219.512 514.938 218.908 512.6 219.956 510.776C221.023 508.952 223.352 508.336 225.183 509.392L356.222 585.546L487.262 509.392C489.093 508.336 491.44 508.952 492.488 510.776C493.555 512.6 492.933 514.938 491.102 516ZM491.28 530.753L358.457 607.944C357.789 608.366 357.011 608.589 356.223 608.589C355.777 608.589 355.336 608.518 354.916 608.379C354.645 608.29 354.38 608.172 354.125 608.024L221.165 530.753C219.174 529.594 218.481 527.036 219.654 525.041C220.81 523.045 223.37 522.369 225.361 523.528L356.223 599.578L487.084 523.528C489.075 522.369 491.635 523.045 492.808 525.041C493.964 527.036 493.288 529.594 491.28 530.753ZM491.475 545.507L359.103 622.694C358.42 623.091 357.539 623.38 356.479 623.385H356.478L356.479 623.386C356.433 623.388 356.387 623.39 356.341 623.391C356.301 623.392 356.262 623.393 356.222 623.393C355.746 623.393 355.269 623.319 354.809 623.167L355.516 623.259C354.644 623.06 353.806 622.694 353.806 622.694L220.987 545.507C218.818 544.248 218.072 541.471 219.334 539.306C220.596 537.139 223.37 536.405 225.538 537.663L356.222 613.61L486.906 537.663C489.075 536.401 491.848 537.139 493.11 539.306C494.373 541.471 493.626 544.248 491.475 545.507ZM355.516 623.259L356.478 623.385C356.181 623.386 355.847 623.335 355.516 623.259ZM357.125 638.11C357.661 638.01 358.192 637.819 358.693 637.531L491.653 560.262C493.981 558.904 494.781 555.908 493.413 553.57C492.061 551.233 489.075 550.438 486.728 551.798L356.231 627.636L225.716 551.798C223.387 550.436 220.383 551.233 219.032 553.57C217.663 555.908 218.463 558.904 220.809 560.262L353.642 637.457C353.769 637.536 353.899 637.609 354.033 637.675C354.727 638.026 355.482 638.194 356.222 638.194C356.526 638.194 356.828 638.166 357.125 638.11ZM358.972 652.226C358.575 652.469 358.148 652.658 357.704 652.787C357.218 652.93 356.72 653 356.222 653C356.068 653 355.913 652.993 355.757 652.979L355.757 652.979C355.168 652.926 354.574 652.771 354.016 652.51C353.825 652.421 353.639 652.32 353.459 652.208L220.614 575.016C218.107 573.558 217.254 570.344 218.712 567.836C220.17 565.327 223.387 564.471 225.894 565.934L356.231 641.67L486.55 565.934C489.057 564.474 492.275 565.327 493.733 567.836C495.19 570.344 494.337 573.558 491.83 575.016L358.972 652.226Z" fill="white"/>
</svg>
