<svg width="400" height="572" viewBox="0 0 400 572" fill="none" xmlns="http://www.w3.org/2000/svg">
<rect width="400" height="572" fill="#1C3EA8"/>
<path opacity="0.05" fill-rule="evenodd" clip-rule="evenodd" d="M308.715 522.073C308.802 522.038 308.884 521.994 308.962 521.941L381.39 479.854L381.399 479.849L381.419 479.838L381.441 479.825L441.857 444.718C442.273 444.475 442.506 444.035 442.504 443.583C442.506 443.131 442.273 442.691 441.857 442.448L308.88 365.177C308.258 364.814 307.458 365.026 307.084 365.654C306.729 366.281 306.942 367.085 307.564 367.449L438.57 443.583L429.103 449.085L296.791 372.203C296.169 371.837 295.369 372.05 294.995 372.679C294.64 373.305 294.853 374.109 295.475 374.473L426.481 450.609L417.014 456.111L284.702 379.227C284.08 378.862 283.28 379.076 282.907 379.703C282.551 380.331 282.764 381.134 283.387 381.499L414.394 457.633L404.926 463.136L272.631 386.251C271.991 385.886 271.191 386.1 270.836 386.727C270.462 387.355 270.676 388.158 271.298 388.523L402.305 464.659L392.839 470.16L260.542 393.277C259.902 392.912 259.102 393.125 258.747 393.751C258.373 394.379 258.587 395.182 259.209 395.547L390.218 471.684L380.75 477.186L248.453 400.301C247.831 399.936 247.013 400.149 246.658 400.777C246.285 401.403 246.498 402.206 247.12 402.573L378.139 478.703L368.662 484.211L236.365 407.324C235.742 406.962 234.925 407.173 234.569 407.801C234.196 408.428 234.409 409.232 235.031 409.596L366.051 485.728L356.575 491.236L224.276 414.35C223.654 413.986 222.836 414.197 222.48 414.825C222.107 415.452 222.32 416.256 222.942 416.62L353.962 492.754L344.486 498.261L212.187 421.374C211.565 421.012 210.747 421.223 210.391 421.851C210.018 422.478 210.231 423.28 210.871 423.646L341.875 499.779L332.399 505.286L200.098 428.4C199.476 428.035 198.658 428.247 198.303 428.875C197.929 429.502 198.143 430.306 198.783 430.67L329.788 506.803L320.311 512.311L188.009 435.424C187.387 435.058 186.587 435.271 186.214 435.899C185.84 436.526 186.054 437.33 186.694 437.694L317.699 513.829L308.222 519.336L175.921 442.448C175.298 442.083 174.498 442.297 174.125 442.924C173.769 443.55 173.983 444.354 174.605 444.718L307.564 521.989C307.778 522.11 307.991 522.167 308.222 522.167C308.391 522.167 308.56 522.136 308.715 522.073ZM308.317 536.965C308.555 536.952 308.8 536.89 309.011 536.77C309.05 536.749 309.089 536.727 309.126 536.702L442.035 459.473C442.817 459.009 443.102 457.987 442.64 457.187C442.177 456.389 441.146 456.12 440.346 456.583L308.222 533.366L176.099 456.583C175.299 456.119 174.285 456.391 173.823 457.187C173.361 457.987 173.628 459.009 174.428 459.473L307.318 536.702C307.434 536.777 307.558 536.836 307.688 536.88C307.863 536.94 308.043 536.968 308.222 536.968C308.254 536.968 308.286 536.967 308.317 536.965V536.965ZM309.382 551.411L442.213 474.227C443.173 473.664 443.511 472.421 442.942 471.452C442.373 470.483 441.129 470.154 440.169 470.718L308.223 547.4L176.277 470.718C175.317 470.154 174.073 470.483 173.504 471.452C172.953 472.421 173.273 473.664 174.25 474.227L307.123 551.446C307.453 551.659 307.835 551.772 308.223 551.772C308.435 551.772 308.646 551.738 308.849 551.673L309.382 551.411ZM176.454 484.853L308.231 561.427L439.991 484.853C441.129 484.188 442.586 484.58 443.262 485.717C443.92 486.859 443.529 488.32 442.391 488.981L309.747 566.181C309.747 566.181 308.851 566.507 308.256 566.494C307.716 566.483 306.909 566.181 306.909 566.181L174.054 488.981C172.916 488.32 172.543 486.858 173.201 485.717C173.859 484.578 175.316 484.188 176.454 484.853ZM308.231 575.458L176.649 498.988C175.333 498.224 173.645 498.672 172.88 499.982C172.133 501.294 172.578 502.974 173.876 503.735L306.689 580.911C307.142 581.216 307.679 581.377 308.222 581.377C308.7 581.377 309.164 581.258 309.608 581.006L442.568 503.735C443.883 502.974 444.328 501.294 443.563 499.982C442.799 498.672 441.128 498.224 439.812 498.988L308.231 575.458ZM176.827 513.123L308.222 589.483L439.635 513.123C441.11 512.262 443.012 512.766 443.866 514.246C444.737 515.729 444.221 517.63 442.746 518.49C428.757 526.619 414.761 534.721 400.772 542.818L400.762 542.824L400.759 542.826C370.388 560.405 340.049 577.966 309.884 595.761C309.465 596.007 308.788 596.12 308.255 596.12C307.722 596.12 307.155 596.045 306.657 595.761L173.698 518.49C172.222 517.629 171.725 515.729 172.578 514.246C173.431 512.764 175.334 512.262 176.827 513.123ZM309.872 610.567C309.771 610.621 309.668 610.67 309.562 610.714C309.131 610.896 308.682 610.984 308.222 610.984C308.15 610.984 308.079 610.982 308.006 610.978C307.566 610.95 307.135 610.838 306.737 610.649C306.65 610.608 306.564 610.563 306.48 610.515L173.521 533.244C171.867 532.284 171.316 530.165 172.276 528.514C173.236 526.86 175.352 526.297 177.005 527.258L308.222 603.515L439.457 527.258C441.093 526.297 443.226 526.86 444.186 528.514C445.146 530.165 444.577 532.284 442.924 533.244L309.964 610.515C309.934 610.533 309.903 610.55 309.872 610.567ZM443.102 548L310.205 625.234L309.671 625.502C309.213 625.69 308.72 625.788 308.222 625.788C307.725 625.788 307.232 625.69 306.773 625.502C306.739 625.488 306.704 625.473 306.669 625.458C306.522 625.393 306.379 625.318 306.24 625.234L173.343 548C171.512 546.938 170.907 544.6 171.956 542.776C173.023 540.952 175.352 540.336 177.183 541.392L308.222 617.546L439.262 541.392C441.093 540.336 443.439 540.952 444.488 542.776C445.555 544.6 444.933 546.938 443.102 548ZM443.279 562.753L310.457 639.944C309.789 640.366 309.011 640.589 308.222 640.589C307.776 640.589 307.336 640.518 306.916 640.379C306.645 640.29 306.379 640.172 306.125 640.024L173.165 562.753C171.174 561.594 170.481 559.036 171.654 557.041C172.81 555.045 175.37 554.369 177.361 555.528L308.222 631.578L439.084 555.528C441.075 554.369 443.635 555.045 444.808 557.041C445.964 559.036 445.288 561.594 443.279 562.753ZM443.475 577.507L311.103 654.694C310.42 655.091 309.539 655.38 308.479 655.385H308.477L308.479 655.386C308.393 655.39 308.308 655.393 308.222 655.393C307.746 655.393 307.269 655.319 306.809 655.167L307.516 655.259C306.644 655.06 305.806 654.694 305.806 654.694L172.987 577.507C170.818 576.248 170.072 573.471 171.334 571.306C172.596 569.139 175.369 568.405 177.538 569.663L308.222 645.61L438.906 569.663C441.075 568.401 443.848 569.139 445.11 571.306C446.372 573.471 445.626 576.248 443.475 577.507ZM307.516 655.259L308.477 655.385C308.181 655.386 307.846 655.335 307.516 655.259ZM309.125 670.11C309.661 670.01 310.192 669.819 310.693 669.531L443.652 592.262C445.981 590.904 446.781 587.908 445.412 585.57C444.061 583.233 441.075 582.438 438.728 583.798L308.231 659.636L177.716 583.798C175.387 582.436 172.383 583.233 171.032 585.57C169.663 587.908 170.463 590.904 172.809 592.262L305.641 669.457C305.769 669.536 305.899 669.609 306.033 669.675C306.727 670.026 307.481 670.194 308.222 670.194C308.526 670.194 308.828 670.166 309.125 670.11ZM310.972 684.226C310.575 684.469 310.147 684.658 309.703 684.787C309.218 684.93 308.72 685 308.222 685C308.068 685 307.913 684.993 307.757 684.979L307.756 684.979C307.168 684.926 306.574 684.771 306.016 684.51C305.825 684.421 305.639 684.32 305.459 684.208L172.614 607.016C170.107 605.558 169.254 602.344 170.712 599.836C172.169 597.327 175.387 596.471 177.894 597.934L308.231 673.67L438.55 597.934C441.057 596.474 444.275 597.327 445.733 599.836C447.19 602.344 446.337 605.558 443.83 607.016L310.972 684.226Z" fill="white"/>
</svg>
