<svg width="400" height="572" viewBox="0 0 400 572" fill="none" xmlns="http://www.w3.org/2000/svg">
<g clip-path="url(#clip0)">
<rect width="400" height="572" fill="#0F2AFF"/>
<g opacity="0.4">
<path opacity="0.4" d="M943.342 530L-481.941 -292L-722.199 123.692L703.079 945.692L943.342 530Z" fill="#EEEEEE"/>
<path opacity="0.4" d="M-192.014 406.372L-188.009 399.444L-195.338 372.123L-417.279 244.123L-444.629 251.444L-448.633 258.372L-465.973 248.372L-461.968 241.444L-469.296 214.123L-611.477 132.123L-618.806 104.803L-434.608 -213.895L-407.257 -221.215L265.501 166.785L257.492 180.641L35.5517 52.6411L-16.5043 142.708L184.63 258.708L199.966 272.172L213.302 289.1L224.634 309.492L230.497 331.349L232.892 351.205L229.817 372.526L223.274 391.846L199.248 433.415L358.376 502.095L365.848 497.167L407.644 368.851L451.691 292.641L473.571 286.785L886.24 524.785L892.107 546.641L850.062 619.387L833.651 623.78L778.165 591.78L772.159 602.172L755.749 606.564L724.539 588.564L723.073 583.1L601.699 513.1L585.289 517.492L550.611 497.492L542.602 511.349L520.721 517.205L510.318 511.205L378.861 493.009L374.249 506.631L359.305 516.487L186.306 439.808L-84.3672 436.123L-139.853 404.123L-167.202 411.444L-171.207 418.372L-192.014 406.372ZM-81.8286 423.731L188.845 427.415L210.868 389.31L217.411 369.99L220.487 348.669L218.091 328.813L213.694 312.421L207.295 299.492L193.96 282.564L178.624 269.1L-22.5107 153.1L-142.64 360.946L-133.846 393.731L-81.8286 423.731ZM-189.331 361.731L-156.511 352.946L21.6798 44.641L-241.875 -107.359L-420.066 200.946L-411.273 233.731L-189.331 361.731ZM-463.29 203.731L-430.47 194.946L-250.276 -116.823L-406.328 -206.823L-428.209 -200.967L-604.398 103.874L-598.535 125.731L-463.29 203.731ZM380.813 484.273L510.855 502.277L521.258 508.277L537.669 503.885L549.682 483.1L407.5 401.1L380.813 484.273ZM561.55 494.564L585.825 508.564L596.765 505.636L604.774 491.78L601.843 480.851L577.568 466.851L566.628 469.78L558.619 483.636L561.55 494.564ZM727.077 576.172L728.543 581.636L756.286 597.636L761.756 596.172L767.762 585.78L766.297 580.315L738.554 564.315L733.084 565.78L731.082 569.244L609.707 499.244L605.703 506.172L727.077 576.172ZM553.686 476.172L561.694 462.315L578.104 457.923L609.315 475.923L613.711 492.315L731.617 560.315L781.671 473.713L473.034 295.713L456.625 300.105L416.581 369.387L408.036 392.172L553.686 476.172ZM836.189 611.387L847.129 608.459L883.167 546.105L878.772 529.713L788.608 477.713L742.558 557.387L836.189 611.387Z" fill="#424242"/>
<path opacity="0.4" d="M-21.0452 158.564L-137.17 359.482L-126.91 397.731L-81.8287 423.731L179.907 426.879L205.935 381.846L212.478 362.525L213.55 344.669L211.155 324.813L206.759 308.42L196.891 293.492L188.49 284.028L173.154 270.564L-21.0452 158.564Z" fill="#89EBAD"/>
<path opacity="0.4" d="M200.177 447.808L240.326 466.344L210.293 518.305L172.146 496.305L200.177 447.808Z" fill="#89EBAD"/>
<path opacity="0.4" d="M238.754 373.062L253.163 372.133L266.354 421.31L363.452 477.31L358.911 493.167L339.571 486.631L210.188 430.487L230.209 395.846L238.754 373.062Z" fill="#89EBAD"/>
<path opacity="0.4" d="M412.434 408.564L392.268 475.454L514.859 495.349L516.325 500.813L519.792 502.813L530.732 499.884L536.739 489.492L533.808 478.564L412.434 408.564Z" fill="#89EBAD"/>
<path opacity="0.4" d="M-9.93335 451.338L-7.14636 494.515L57.4211 494.802L54.6331 451.625L-9.93335 451.338Z" fill="#B8C2CC"/>
<path opacity="0.4" d="M-21.1223 398.697L-20.1933 413.09L17.5603 411.769L16.6313 397.377L-21.1223 398.697Z" fill="#B8C2CC"/>
<path opacity="0.4" d="M11.6889 182.062C10.8751 183.171 -0.323975 202.846 -0.323975 202.846L37.764 224.813L49.7769 204.028L11.6889 182.062Z" fill="#B8C2CC"/>
<path opacity="0.4" d="M103.403 207.244L145.449 134.497L37.9461 72.4974L21.9289 100.21L18.4611 98.2102L6.44821 118.995L9.91595 120.995L-4.09912 145.244L103.403 207.244Z" fill="#67717A"/>
<path opacity="0.4" d="M155.852 140.497L190.53 160.497L160.498 212.459L125.82 192.459L155.852 140.497Z" fill="#67717A"/>
<path opacity="0.4" d="M211.338 172.497L193.318 203.674L182.915 197.674L170.902 218.459L229.856 252.459L241.868 231.674L231.464 225.674L249.484 194.497L211.338 172.497Z" fill="#67717A"/>
<path opacity="0.4" d="M318.275 435.476L331.065 389.349L308.255 380.813L302.249 391.205L283.837 399.061L263.709 345.884L245.297 353.741L237.433 335.349L255.845 327.492L233.716 277.779L257.598 268.459L264.534 272.459L280.551 244.746L256.276 230.746L272.293 203.033L390.199 271.033L401.532 291.426L354.659 444.525L318.275 435.476ZM282.265 305.779L297.995 342.564L285.053 348.956L294.383 372.813L307.326 366.42L333.602 376.956L357.772 303.138L353.375 286.746L290.954 250.746L272.935 281.923L256.525 286.315L265.855 310.172L282.265 305.779Z" fill="#67717A"/>
<path opacity="0.4" d="M204.574 464.2L188.557 491.913L192.025 493.913L190.023 497.377L200.426 503.377L202.515 499.963L205.896 501.913L221.913 474.2L204.574 464.2Z" fill="#67717A"/>
<path opacity="0.4" d="M105.406 203.78L147.451 131.033L39.9483 69.0333L23.9311 96.7461L20.4633 94.7461L8.45041 115.531L11.9181 117.531L-2.09692 141.78L105.406 203.78Z" fill="#818D99"/>
<path opacity="0.4" d="M157.854 137.033L192.532 157.033L162.5 208.995L127.822 188.995L157.854 137.033Z" fill="#818D99"/>
<path opacity="0.4" d="M213.34 169.033L195.32 200.21L184.917 194.21L172.904 214.995L231.858 248.995L243.871 228.21L233.466 222.21L251.486 191.033L213.34 169.033Z" fill="#818D99"/>
<path opacity="0.4" d="M320.277 432.012L333.066 385.884L310.257 377.349L304.25 387.741L285.839 395.597L265.711 342.42L247.299 350.277L239.435 331.884L257.847 324.028L235.718 274.315L259.599 264.995L266.536 268.995L282.553 241.282L258.278 227.282L274.295 199.569L392.201 267.569L403.534 287.961L356.661 441.061L320.277 432.012ZM284.267 302.315L299.997 339.1L287.055 345.492L296.385 369.349L309.328 362.956L335.604 373.492L359.774 299.674L355.377 283.282L292.956 247.282L274.937 278.459L258.527 282.851L267.857 306.708L284.267 302.315Z" fill="#818D99"/>
<path opacity="0.4" d="M206.577 460.736L190.559 488.449L194.027 490.449L192.025 493.913L202.428 499.913L204.517 496.499L207.898 498.449L223.915 470.736L206.577 460.736Z" fill="#818D99"/>
</g>
<g style="mix-blend-mode:multiply" opacity="0.6">
<path d="M0 572V1.9253e-05L400 0V572H0Z" fill="#0F2AFF"/>
</g>
</g>
<defs>
<clipPath id="clip0">
<rect width="400" height="572" fill="white"/>
</clipPath>
</defs>
</svg>
