<svg width="448" height="540" viewBox="0 0 448 540" fill="none" xmlns="http://www.w3.org/2000/svg">
<g clip-path="url(#clip0)">
<rect width="448" height="540" fill="#0F2AFF"/>
<g opacity="0.4">
<path opacity="0.4" d="M967.342 514L-457.941 -308L-698.199 107.692L727.079 929.692L967.342 514Z" fill="#EEEEEE"/>
<path opacity="0.4" d="M-168.014 390.372L-164.009 383.444L-171.338 356.123L-393.279 228.123L-420.629 235.444L-424.633 242.372L-441.973 232.372L-437.968 225.444L-445.296 198.123L-587.477 116.123L-594.806 88.8025L-410.608 -229.895L-383.257 -237.215L289.501 150.785L281.492 164.641L59.5517 36.6411L7.49573 126.708L208.63 242.708L223.966 256.172L237.302 273.1L248.634 293.492L254.497 315.349L256.892 335.205L253.817 356.526L247.274 375.846L223.248 417.415L382.376 486.095L389.848 481.167L431.644 352.851L475.691 276.641L497.571 270.785L910.24 508.785L916.107 530.641L874.062 603.387L857.651 607.78L802.165 575.78L796.159 586.172L779.749 590.564L748.539 572.564L747.073 567.1L625.698 497.1L609.289 501.492L574.61 481.492L566.602 495.349L544.721 501.205L534.318 495.205L402.861 477.009L398.249 490.631L383.305 500.487L210.306 423.808L-60.3672 420.123L-115.853 388.123L-143.202 395.444L-147.207 402.372L-168.014 390.372ZM-57.8286 407.731L212.845 411.415L234.868 373.31L241.411 353.99L244.487 332.669L242.091 312.813L237.694 296.421L231.295 283.492L217.96 266.564L202.624 253.1L1.48926 137.1L-118.64 344.946L-109.846 377.731L-57.8286 407.731ZM-165.331 345.731L-132.511 336.946L45.6798 28.641L-217.875 -123.359L-396.066 184.946L-387.273 217.731L-165.331 345.731ZM-439.29 187.731L-406.47 178.946L-226.276 -132.823L-382.328 -222.823L-404.209 -216.967L-580.398 87.8743L-574.535 109.731L-439.29 187.731ZM404.813 468.273L534.855 486.277L545.258 492.277L561.669 487.885L573.682 467.1L431.5 385.1L404.813 468.273ZM585.55 478.564L609.825 492.564L620.765 489.636L628.774 475.78L625.843 464.851L601.568 450.851L590.628 453.78L582.619 467.636L585.55 478.564ZM751.077 560.172L752.543 565.636L780.286 581.636L785.756 580.172L791.762 569.78L790.297 564.315L762.554 548.315L757.084 549.78L755.082 553.244L633.707 483.244L629.703 490.172L751.077 560.172ZM577.686 460.172L585.694 446.315L602.104 441.923L633.315 459.923L637.711 476.315L755.617 544.315L805.671 457.713L497.034 279.713L480.625 284.105L440.582 353.387L432.036 376.172L577.686 460.172ZM860.189 595.387L871.129 592.459L907.167 530.105L902.772 513.713L812.608 461.713L766.558 541.387L860.189 595.387Z" fill="#424242"/>
<path opacity="0.4" d="M2.95476 142.564L-113.17 343.482L-102.91 381.731L-57.8287 407.731L203.907 410.879L229.935 365.846L236.478 346.525L237.55 328.669L235.155 308.813L230.759 292.42L220.891 277.492L212.49 268.028L197.154 254.564L2.95476 142.564Z" fill="#89EBAD"/>
<path opacity="0.4" d="M224.177 431.808L264.326 450.344L234.293 502.305L196.146 480.305L224.177 431.808Z" fill="#89EBAD"/>
<path opacity="0.4" d="M262.754 357.062L277.163 356.133L290.354 405.31L387.452 461.31L382.911 477.167L363.571 470.631L234.188 414.487L254.209 379.846L262.754 357.062Z" fill="#89EBAD"/>
<path opacity="0.4" d="M436.434 392.564L416.268 459.454L538.859 479.349L540.325 484.813L543.792 486.813L554.732 483.884L560.739 473.492L557.808 462.564L436.434 392.564Z" fill="#89EBAD"/>
<path opacity="0.4" d="M14.0667 435.338L16.8536 478.515L81.4211 478.802L78.6331 435.625L14.0667 435.338Z" fill="#B8C2CC"/>
<path opacity="0.4" d="M2.87769 382.697L3.80669 397.09L41.5603 395.769L40.6313 381.377L2.87769 382.697Z" fill="#B8C2CC"/>
<path opacity="0.4" d="M35.6889 166.062C34.8751 167.171 23.676 186.846 23.676 186.846L61.764 208.813L73.7769 188.028L35.6889 166.062Z" fill="#B8C2CC"/>
<path opacity="0.4" d="M127.404 191.244L169.449 118.497L61.9462 56.4974L45.929 84.2102L42.4613 82.2102L30.4483 102.995L33.9161 104.995L19.901 129.244L127.404 191.244Z" fill="#67717A"/>
<path opacity="0.4" d="M179.852 124.497L214.53 144.497L184.498 196.459L149.82 176.459L179.852 124.497Z" fill="#67717A"/>
<path opacity="0.4" d="M235.338 156.497L217.318 187.674L206.915 181.674L194.902 202.459L253.856 236.459L265.868 215.674L255.464 209.674L273.484 178.497L235.338 156.497Z" fill="#67717A"/>
<path opacity="0.4" d="M342.275 419.476L355.064 373.349L332.255 364.813L326.248 375.205L307.837 383.061L287.709 329.884L269.297 337.741L261.433 319.349L279.845 311.492L257.716 261.779L281.597 252.459L288.534 256.459L304.551 228.746L280.276 214.746L296.293 187.033L414.199 255.033L425.532 275.426L378.659 428.525L342.275 419.476ZM306.265 289.779L321.995 326.564L309.053 332.956L318.383 356.813L331.326 350.42L357.602 360.956L381.772 287.138L377.375 270.746L314.954 234.746L296.935 265.923L280.525 270.315L289.855 294.172L306.265 289.779Z" fill="#67717A"/>
<path opacity="0.4" d="M228.574 448.2L212.557 475.913L216.025 477.913L214.023 481.377L224.426 487.377L226.515 483.963L229.896 485.913L245.913 458.2L228.574 448.2Z" fill="#67717A"/>
<path opacity="0.4" d="M129.406 187.78L171.451 115.033L63.9483 53.0333L47.9311 80.7461L44.4633 78.7461L32.4504 99.5307L35.9181 101.531L21.9031 125.78L129.406 187.78Z" fill="#818D99"/>
<path opacity="0.4" d="M181.854 121.033L216.532 141.033L186.5 192.995L151.822 172.995L181.854 121.033Z" fill="#818D99"/>
<path opacity="0.4" d="M237.34 153.033L219.32 184.21L208.917 178.21L196.904 198.995L255.858 232.995L267.871 212.21L257.466 206.21L275.486 175.033L237.34 153.033Z" fill="#818D99"/>
<path opacity="0.4" d="M344.277 416.012L357.066 369.884L334.257 361.349L328.25 371.741L309.839 379.597L289.711 326.42L271.299 334.277L263.435 315.884L281.847 308.028L259.718 258.315L283.599 248.995L290.536 252.995L306.553 225.282L282.278 211.282L298.295 183.569L416.201 251.569L427.534 271.961L380.661 425.061L344.277 416.012ZM308.267 286.315L323.997 323.1L311.055 329.492L320.385 353.349L333.328 346.956L359.604 357.492L383.774 283.674L379.377 267.282L316.956 231.282L298.937 262.459L282.527 266.851L291.857 290.708L308.267 286.315Z" fill="#818D99"/>
<path opacity="0.4" d="M230.577 444.736L214.559 472.449L218.027 474.449L216.025 477.913L226.428 483.913L228.517 480.499L231.898 482.449L247.915 454.736L230.577 444.736Z" fill="#818D99"/>
</g>
<g style="mix-blend-mode:multiply" opacity="0.6">
<path d="M0 540V1.81759e-05L448 0V540H0Z" fill="#0F2AFF"/>
</g>
</g>
<defs>
<clipPath id="clip0">
<rect width="448" height="540" fill="white"/>
</clipPath>
</defs>
</svg>
