<svg width="400" height="572" viewBox="0 0 400 572" fill="none" xmlns="http://www.w3.org/2000/svg">
<g clip-path="url(#clip0)">
<path d="M437.739 504.647C520.481 489.06 606.856 481.624 691.565 490.776C730.324 494.851 768.553 502.645 805.647 514.657L805.647 572L166.881 572C254.618 548.262 341.599 523.308 430.018 506.077C432.592 505.576 435.166 505.147 437.739 504.647Z" fill="#FFB100"/>
<path d="M-405.571 0.00033288L805.647 0L805.647 514.658C768.553 502.646 730.324 494.781 691.565 490.706C606.856 481.625 520.481 488.99 437.739 504.577C435.166 505.077 432.592 505.578 430.018 506.007C341.599 523.167 254.618 548.192 166.881 571.93L-405.571 571.93L-405.571 0.00033288Z" fill="#FFB800"/>
<path d="M443.493 415.416C441.07 415.988 438.648 416.632 436.301 417.204C287.776 454.741 142.051 512.656 -12.9849 543.473C-144.856 569.642 -277.56 564.351 -405.571 536.18L-405.571 0.00033288L805.647 0L805.647 411.055C766.055 398.47 725.025 391.249 683.692 388.961C602.465 384.242 521.238 396.254 443.493 415.416Z" fill="#FFBF00"/>
<path d="M805.647 0L805.647 307.022C763.557 293.866 719.726 287.502 675.895 287.216C598.074 286.644 522.07 303.447 449.322 326.184C447.051 326.899 444.855 327.614 442.584 328.329C303.597 372.659 165.745 432.791 16.8411 465.681C-124.493 496.926 -268.022 490.277 -405.495 456.672L-405.495 0.000332859L805.647 0Z" fill="#FFC500"/>
<path d="M668.022 185.471C593.684 189.761 522.752 210.64 455.075 237.023C452.955 237.81 450.911 238.668 448.792 239.454C319.343 290.648 189.364 352.782 46.5919 387.96C-103.902 424.997 -258.786 417.132 -405.571 377.378L-405.571 0.00033288L805.647 0L805.647 202.488C760.983 188.474 714.351 182.826 668.022 185.471Z" fill="#FFCC00"/>
<path d="M-405.571 0.00033288L805.647 0L805.647 97.4547C758.485 82.5112 708.976 77.7922 660.149 83.7267C589.293 92.3783 523.509 117.832 460.828 147.791C458.86 148.72 456.967 149.65 454.999 150.579C335.089 208.566 212.983 272.773 76.2665 310.168C-83.0843 353.783 -249.854 345.203 -405.647 298.299L-405.647 0.000332901L-405.571 0.00033288Z" fill="#FFD624"/>
<path d="M461.294 61.7047C350.921 126.555 236.688 192.55 106.104 232.376C-51.8088 280.567 -220.395 275.848 -376.794 228.586C-386.483 225.655 -396.022 222.58 -405.636 219.363L-405.636 0.000272961L587.563 0C545.17 15.2295 505.276 36.1791 466.668 58.6302C464.851 59.6312 463.11 60.7037 461.294 61.7047Z" fill="#FFE038"/>
<path d="M-405.569 0.000229271L428.657 0C339.254 61.3472 244.325 117.618 135.845 154.583C-9.34985 204.062 -166.96 207.994 -314.577 169.67C-345.463 161.662 -375.97 151.652 -405.645 139.855L-405.645 0.000229292L-405.569 0.000229271Z" fill="#FFEB49"/>
<path d="M-252.282 110.682C-288.013 103.103 -323.139 92.5929 -357.204 79.3653C-373.631 73.0018 -389.756 65.9233 -405.577 58.2728L-405.577 0.00019902L318.58 0C270.964 29.8156 220.395 55.9131 165.588 76.7912C33.1864 127.342 -113.522 140.212 -252.282 110.682Z" fill="#FFF558"/>
<path d="M-190.037 51.7662C-247.039 42.7572 -302.755 25.2397 -354.156 0.00015042L193.163 0C73.7819 50.7651 -60.8904 72.2152 -190.037 51.7662Z" fill="#FFFF66"/>
<rect width="400" height="572" fill="white" style="mix-blend-mode:color"/>
<rect width="400" height="572" fill="#9600E0" style="mix-blend-mode:multiply"/>
</g>
<defs>
<clipPath id="clip0">
<rect width="400" height="572" fill="white"/>
</clipPath>
</defs>
</svg>
