<svg width="448" height="540" viewBox="0 0 448 540" fill="none" xmlns="http://www.w3.org/2000/svg">
<g clip-path="url(#clip0)">
<path d="M448.439 476.415C526.552 461.7 608.094 454.68 688.065 463.32C724.656 467.167 760.746 474.525 795.764 485.865L795.764 540L192.734 540C275.563 517.59 357.677 494.032 441.15 477.765C443.58 477.292 446.009 476.887 448.439 476.415Z" fill="#FFB100"/>
<path d="M-347.693 0.000436327L795.764 0.00012207L795.764 485.866C760.746 474.526 724.656 467.101 688.065 463.254C608.095 454.681 526.552 461.634 448.439 476.349C446.01 476.821 443.58 477.294 441.15 477.699C357.677 493.899 275.563 517.524 192.734 539.934L-347.693 539.934L-347.693 0.000436327Z" fill="#FFB800"/>
<path d="M453.871 392.176C451.584 392.716 449.297 393.324 447.081 393.864C306.865 429.301 169.293 483.976 22.9304 513.069C-101.564 537.774 -226.843 532.779 -347.693 506.184L-347.693 0.000436327L795.764 0.00012207L795.764 388.059C758.388 376.179 719.653 369.361 680.633 367.201C603.949 362.746 527.266 374.086 453.871 392.176Z" fill="#FFBF00"/>
<path d="M795.764 0.00012207L795.764 289.846C756.029 277.426 714.65 271.418 673.272 271.148C599.804 270.608 528.052 286.471 459.374 307.936C457.23 308.611 455.157 309.286 453.013 309.961C321.801 351.811 191.662 408.579 51.0878 439.629C-82.3393 469.126 -217.839 462.849 -347.621 431.124L-347.621 0.000436308L795.764 0.00012207Z" fill="#FFC500"/>
<path d="M665.839 175.096C595.659 179.146 528.696 198.856 464.805 223.763C462.804 224.506 460.874 225.316 458.873 226.058C336.666 274.388 213.959 333.046 79.1742 366.256C-62.9004 401.221 -209.12 393.796 -347.693 356.266L-347.693 0.000436327L795.764 0.00012207L795.764 191.161C753.599 177.931 709.576 172.598 665.839 175.096Z" fill="#FFCC00"/>
<path d="M-347.693 0.000436327L795.764 0.00012207L795.764 92.0028C751.241 77.8953 704.502 73.4403 658.407 79.0428C591.514 87.2104 529.41 111.24 470.236 139.523C468.378 140.401 466.592 141.278 464.733 142.156C351.531 196.898 236.256 257.513 107.189 292.816C-43.2474 333.991 -200.687 325.891 -347.764 281.611L-347.764 0.000436347L-347.693 0.000436327Z" fill="#FFD624"/>
<path d="M470.676 58.2528C366.478 119.475 258.636 181.778 135.357 219.376C-13.7215 264.871 -172.877 260.416 -320.526 215.798C-329.673 213.031 -338.678 210.128 -347.754 207.091L-347.754 0.000379761L589.881 0.00012207C549.86 14.3777 512.197 34.1552 475.75 55.3503C474.035 56.2953 472.391 57.3078 470.676 58.2528Z" fill="#FFE038"/>
<path d="M-347.692 0.000338515L439.865 0.00012207C355.463 57.9153 265.845 111.038 163.434 145.936C26.3619 192.646 -122.43 196.358 -261.789 160.178C-290.948 152.618 -319.748 143.168 -347.763 132.031L-347.763 0.000338534L-347.692 0.000338515Z" fill="#FFEB49"/>
<path d="M-202.98 104.49C-236.712 97.3355 -269.872 87.413 -302.032 74.9254C-317.54 68.9179 -332.762 62.2354 -347.699 55.0129L-347.699 0.000309957L335.946 0.00012207C290.994 28.1477 243.254 52.7852 191.513 72.4953C66.5187 120.218 -71.9826 132.368 -202.98 104.49Z" fill="#FFF558"/>
<path d="M-144.216 48.8704C-198.03 40.3654 -250.629 23.8279 -299.155 0.000386145L217.545 0.000244141C104.843 47.9254 -22.2952 68.1754 -144.216 48.8704Z" fill="#FFFF66"/>
<rect width="448" height="540" fill="white" style="mix-blend-mode:color"/>
<rect width="448" height="540" fill="#0C32F2" style="mix-blend-mode:multiply"/>
</g>
<defs>
<clipPath id="clip0">
<rect width="448" height="540" fill="white"/>
</clipPath>
</defs>
</svg>
