<svg width="12" height="12" viewBox="0 0 12 12" fill="none" xmlns="http://www.w3.org/2000/svg">
<path fill-rule="evenodd" clip-rule="evenodd" d="M1.60121 1.24649C1.67219 1.16978 1.77196 1.12617 1.87647 1.12617H10.2774C10.3819 1.12617 10.4816 1.16971 10.5525 1.24632C10.6235 1.32293 10.6593 1.42566 10.6513 1.52979L10.0547 9.32453C10.0432 9.47491 9.94273 9.60376 9.79968 9.65157L6.20065 10.8545C6.1235 10.8802 6.04006 10.8802 5.96291 10.8545L2.36386 9.65157C2.22097 9.60382 2.12054 9.47519 2.10885 9.32499L1.5026 1.53025C1.49449 1.42605 1.53024 1.3232 1.60121 1.24649ZM2.28177 1.87617L2.83732 9.01903L6.08178 10.1034L9.3259 9.01914L9.87264 1.87617H2.28177Z" fill="#424242"/>
<path fill-rule="evenodd" clip-rule="evenodd" d="M3.37805 3.16601C3.37805 2.9589 3.54594 2.79101 3.75305 2.79101H8.5646C8.67158 2.79101 8.77347 2.8367 8.84463 2.91659C8.91578 2.99648 8.94943 3.10295 8.9371 3.20922L8.65732 5.62105L8.33972 8.01719C8.32082 8.15979 8.22201 8.27902 8.0854 8.32406L6.30512 8.91106C6.22826 8.9364 6.14527 8.9362 6.06854 8.91048L4.25939 8.30422C4.12216 8.25824 4.02364 8.13738 4.00626 7.99369L3.86192 6.80044C3.83705 6.59483 3.98357 6.40799 4.18917 6.38312C4.39478 6.35825 4.58162 6.50476 4.60649 6.71037L4.72238 7.66838L6.18865 8.15974L7.62713 7.68545L7.85755 5.94678H5.99998C5.79288 5.94678 5.62498 5.77889 5.62498 5.57178C5.62498 5.36467 5.79288 5.19678 5.99998 5.19678H7.95151L8.14358 3.54101H3.75305C3.54594 3.54101 3.37805 3.37311 3.37805 3.16601Z" fill="#424242"/>
</svg>
