<svg width="240" height="104" viewBox="0 0 240 104" fill="none" xmlns="http://www.w3.org/2000/svg">
<g clip-path="url(#clip0)">
<g filter="url(#filter0_i)">
<rect width="240" height="104" rx="3" fill="url(#paint0_linear)"/>
</g>
<path d="M74.6548 22.8182H73.1186V33H74.6548V22.8182ZM78.2592 28.4659C78.2592 27.2479 79.005 26.5518 80.0391 26.5518C81.0483 26.5518 81.6598 27.2131 81.6598 28.3217V33H83.1463V28.1428C83.1463 26.2536 82.1072 25.2642 80.5462 25.2642C79.3977 25.2642 78.647 25.7962 78.294 26.6065H78.1996V25.3636H76.7727V33H78.2592V28.4659ZM88.7741 25.3636H87.1286V24.6776C87.1286 24.0014 87.407 23.6335 88.1328 23.6335C88.4411 23.6335 88.6598 23.7031 88.799 23.7479L89.147 22.5447C88.9382 22.4652 88.5057 22.3409 87.9041 22.3409C86.696 22.3409 85.6371 23.0469 85.6371 24.4787V25.3636H84.4588V26.5568H85.6371V33H87.1286V26.5568H88.7741V25.3636ZM93.2237 33.1541C95.3764 33.1541 96.7834 31.5781 96.7834 29.2166C96.7834 26.8402 95.3764 25.2642 93.2237 25.2642C91.071 25.2642 89.6641 26.8402 89.6641 29.2166C89.6641 31.5781 91.071 33.1541 93.2237 33.1541ZM93.2287 31.9062C91.8217 31.9062 91.1655 30.6783 91.1655 29.2116C91.1655 27.75 91.8217 26.5071 93.2287 26.5071C94.6257 26.5071 95.282 27.75 95.282 29.2116C95.282 30.6783 94.6257 31.9062 93.2287 31.9062ZM103.127 33L104.062 30.3054H108.039L108.969 33H110.599L106.935 22.8182H105.161L101.496 33H103.127ZM104.509 29.0128L106.011 24.6676H106.09L107.592 29.0128H104.509ZM111.95 33H113.437V28.3366C113.437 27.3374 114.208 26.6165 115.262 26.6165C115.57 26.6165 115.918 26.6712 116.037 26.706V25.2841C115.888 25.2642 115.595 25.2493 115.406 25.2493C114.511 25.2493 113.745 25.7564 113.467 26.5767H113.387V25.3636H111.95V33ZM120.267 33.1541C122.071 33.1541 123.24 32.0703 123.404 30.5838H121.957C121.768 31.4091 121.127 31.8963 120.277 31.8963C119.019 31.8963 118.208 30.8473 118.208 29.1818C118.208 27.5462 119.034 26.517 120.277 26.517C121.221 26.517 121.798 27.1136 121.957 27.8295H123.404C123.245 26.2884 121.987 25.2642 120.252 25.2642C118.099 25.2642 116.707 26.8849 116.707 29.2166C116.707 31.5185 118.049 33.1541 120.267 33.1541ZM126.48 28.4659C126.48 27.2479 127.251 26.5518 128.309 26.5518C129.334 26.5518 129.945 27.2031 129.945 28.3217V33H131.432V28.1428C131.432 26.2386 130.388 25.2642 128.817 25.2642C127.628 25.2642 126.912 25.7812 126.555 26.6065H126.46V22.8182H124.993V33H126.48V28.4659ZM133.415 33H134.902V25.3636H133.415V33ZM134.166 24.1854C134.678 24.1854 135.106 23.7876 135.106 23.3004C135.106 22.8132 134.678 22.4105 134.166 22.4105C133.649 22.4105 133.226 22.8132 133.226 23.3004C133.226 23.7876 133.649 24.1854 134.166 24.1854ZM140.466 25.3636H138.9V23.5341H137.414V25.3636H136.295V26.5568H137.414V31.0661C137.409 32.4531 138.468 33.1243 139.641 33.0994C140.113 33.0945 140.431 33.005 140.605 32.9403L140.337 31.7124C140.238 31.7322 140.054 31.777 139.815 31.777C139.333 31.777 138.9 31.6179 138.9 30.7578V26.5568H140.466V25.3636ZM145.32 33.1541C146.985 33.1541 148.164 32.3338 148.502 31.0909L147.095 30.8374C146.826 31.5582 146.18 31.9261 145.335 31.9261C144.062 31.9261 143.207 31.1009 143.167 29.6293H148.596V29.1023C148.596 26.343 146.945 25.2642 145.215 25.2642C143.088 25.2642 141.686 26.8849 141.686 29.2315C141.686 31.603 143.068 33.1541 145.32 33.1541ZM143.172 28.5156C143.232 27.4318 144.017 26.4922 145.225 26.4922C146.379 26.4922 147.134 27.3473 147.139 28.5156H143.172ZM153.462 33.1541C155.267 33.1541 156.435 32.0703 156.599 30.5838H155.152C154.963 31.4091 154.322 31.8963 153.472 31.8963C152.214 31.8963 151.404 30.8473 151.404 29.1818C151.404 27.5462 152.229 26.517 153.472 26.517C154.417 26.517 154.993 27.1136 155.152 27.8295H156.599C156.44 26.2884 155.182 25.2642 153.447 25.2642C151.294 25.2642 149.902 26.8849 149.902 29.2166C149.902 31.5185 151.245 33.1541 153.462 33.1541ZM161.753 25.3636H160.187V23.5341H158.701V25.3636H157.582V26.5568H158.701V31.0661C158.696 32.4531 159.755 33.1243 160.928 33.0994C161.4 33.0945 161.719 33.005 161.893 32.9403L161.624 31.7124C161.525 31.7322 161.341 31.777 161.102 31.777C160.62 31.777 160.187 31.6179 160.187 30.7578V26.5568H161.753V25.3636ZM168.235 29.8331C168.24 31.1307 167.276 31.7472 166.44 31.7472C165.521 31.7472 164.884 31.081 164.884 30.0419V25.3636H163.398V30.2209C163.398 32.1151 164.437 33.0994 165.903 33.0994C167.052 33.0994 167.832 32.4929 168.185 31.6776H168.265V33H169.727V25.3636H168.235V29.8331ZM171.724 33H173.21V28.3366C173.21 27.3374 173.981 26.6165 175.035 26.6165C175.343 26.6165 175.691 26.6712 175.811 26.706V25.2841C175.661 25.2642 175.368 25.2493 175.179 25.2493C174.284 25.2493 173.519 25.7564 173.24 26.5767H173.161V25.3636H171.724V33ZM180.115 33.1541C181.78 33.1541 182.958 32.3338 183.297 31.0909L181.89 30.8374C181.621 31.5582 180.975 31.9261 180.13 31.9261C178.857 31.9261 178.002 31.1009 177.962 29.6293H183.391V29.1023C183.391 26.343 181.74 25.2642 180.01 25.2642C177.882 25.2642 176.48 26.8849 176.48 29.2315C176.48 31.603 177.863 33.1541 180.115 33.1541ZM177.967 28.5156C178.027 27.4318 178.812 26.4922 180.02 26.4922C181.174 26.4922 181.929 27.3473 181.934 28.5156H177.967ZM73.1186 57H74.6548V53.4205H76.7429C79.1044 53.4205 80.2727 51.9936 80.2727 50.1143C80.2727 48.2401 79.1143 46.8182 76.7479 46.8182H73.1186V57ZM74.6548 52.1179V48.1357H76.5838C78.1051 48.1357 78.7266 48.9609 78.7266 50.1143C78.7266 51.2678 78.1051 52.1179 76.6037 52.1179H74.6548ZM81.9544 57H83.4409V52.3366C83.4409 51.3374 84.2115 50.6165 85.2654 50.6165C85.5737 50.6165 85.9217 50.6712 86.041 50.706V49.2841C85.8919 49.2642 85.5985 49.2493 85.4096 49.2493C84.5147 49.2493 83.7491 49.7564 83.4707 50.5767H83.3912V49.3636H81.9544V57ZM90.2706 57.1541C92.4233 57.1541 93.8303 55.5781 93.8303 53.2166C93.8303 50.8402 92.4233 49.2642 90.2706 49.2642C88.1179 49.2642 86.7109 50.8402 86.7109 53.2166C86.7109 55.5781 88.1179 57.1541 90.2706 57.1541ZM90.2756 55.9062C88.8686 55.9062 88.2124 54.6783 88.2124 53.2116C88.2124 51.75 88.8686 50.5071 90.2756 50.5071C91.6726 50.5071 92.3288 51.75 92.3288 53.2116C92.3288 54.6783 91.6726 55.9062 90.2756 55.9062ZM99.0542 49.3636H97.4881V47.5341H96.0016V49.3636H94.883V50.5568H96.0016V55.0661C95.9966 56.4531 97.0556 57.1243 98.2289 57.0994C98.7012 57.0945 99.0194 57.005 99.1934 56.9403L98.9249 55.7124C98.8255 55.7322 98.6415 55.777 98.4029 55.777C97.9206 55.777 97.4881 55.6179 97.4881 54.7578V50.5568H99.0542V49.3636ZM103.833 57.1541C105.986 57.1541 107.393 55.5781 107.393 53.2166C107.393 50.8402 105.986 49.2642 103.833 49.2642C101.68 49.2642 100.273 50.8402 100.273 53.2166C100.273 55.5781 101.68 57.1541 103.833 57.1541ZM103.838 55.9062C102.431 55.9062 101.775 54.6783 101.775 53.2116C101.775 51.75 102.431 50.5071 103.838 50.5071C105.235 50.5071 105.891 51.75 105.891 53.2116C105.891 54.6783 105.235 55.9062 103.838 55.9062ZM112.617 49.3636H111.051V47.5341H109.564V49.3636H108.445V50.5568H109.564V55.0661C109.559 56.4531 110.618 57.1243 111.791 57.0994C112.264 57.0945 112.582 57.005 112.756 56.9403L112.487 55.7124C112.388 55.7322 112.204 55.777 111.965 55.777C111.483 55.777 111.051 55.6179 111.051 54.7578V50.5568H112.617V49.3636ZM115.201 59.8438C116.429 59.8438 117.209 59.2024 117.647 58.0192L120.804 49.3786L119.198 49.3636L117.264 55.2898H117.184L115.25 49.3636H113.659L116.453 57.0994L116.27 57.6065C115.892 58.5959 115.36 58.6854 114.544 58.4616L114.186 59.6797C114.365 59.7642 114.753 59.8438 115.201 59.8438ZM122.204 59.8636H123.691V55.8118H123.78C124.049 56.299 124.596 57.1491 125.988 57.1491C127.837 57.1491 129.18 55.6676 129.18 53.1967C129.18 50.7209 127.817 49.2642 125.973 49.2642C124.556 49.2642 124.044 50.1293 123.78 50.6016H123.656V49.3636H122.204V59.8636ZM123.661 53.1818C123.661 51.5859 124.357 50.527 125.655 50.527C127.002 50.527 127.678 51.6655 127.678 53.1818C127.678 54.7131 126.982 55.8814 125.655 55.8814C124.377 55.8814 123.661 54.7876 123.661 53.1818ZM130.845 57H132.331V49.3636H130.845V57ZM131.596 48.1854C132.108 48.1854 132.535 47.7876 132.535 47.3004C132.535 46.8132 132.108 46.4105 131.596 46.4105C131.079 46.4105 130.656 46.8132 130.656 47.3004C130.656 47.7876 131.079 48.1854 131.596 48.1854ZM135.818 52.4659C135.818 51.2479 136.564 50.5518 137.598 50.5518C138.607 50.5518 139.218 51.2131 139.218 52.3217V57H140.705V52.1428C140.705 50.2536 139.666 49.2642 138.105 49.2642C136.956 49.2642 136.206 49.7962 135.853 50.6065H135.758V49.3636H134.331V57H135.818V52.4659ZM145.9 60.0078C147.844 60.0078 149.346 59.1179 149.346 57.169V49.3636H147.889V50.6016H147.779C147.516 50.1293 146.989 49.2642 145.567 49.2642C143.723 49.2642 142.365 50.7209 142.365 53.152C142.365 55.5881 143.752 56.8857 145.557 56.8857C146.959 56.8857 147.501 56.0952 147.77 55.608H147.864V57.1094C147.864 58.2876 147.044 58.8097 145.915 58.8097C144.677 58.8097 144.195 58.1882 143.931 57.7656L142.654 58.2926C143.056 59.2124 144.076 60.0078 145.9 60.0078ZM145.885 55.6527C144.558 55.6527 143.867 54.6335 143.867 53.1321C143.867 51.6655 144.543 50.527 145.885 50.527C147.183 50.527 147.879 51.5859 147.879 53.1321C147.879 54.7081 147.168 55.6527 145.885 55.6527ZM74.0085 70.8182H72.348L76.0121 81H77.7869L81.451 70.8182H79.7905L76.9567 79.1108H76.8423L74.0085 70.8182ZM82.802 81H84.2885V73.3636H82.802V81ZM83.5527 72.1854C84.0648 72.1854 84.4924 71.7876 84.4924 71.3004C84.4924 70.8132 84.0648 70.4105 83.5527 70.4105C83.0357 70.4105 82.6131 70.8132 82.6131 71.3004C82.6131 71.7876 83.0357 72.1854 83.5527 72.1854ZM92.0107 75.228C91.7024 74.0398 90.7727 73.2642 89.1222 73.2642C87.397 73.2642 86.174 74.174 86.174 75.5263C86.174 76.6101 86.8303 77.331 88.2621 77.6491L89.5547 77.9325C90.2905 78.0966 90.6335 78.4247 90.6335 78.902C90.6335 79.4936 90.0021 79.956 89.0277 79.956C88.1378 79.956 87.5661 79.5732 87.3871 78.8224L85.9503 79.0412C86.1989 80.3935 87.3224 81.1541 89.0376 81.1541C90.8821 81.1541 92.1598 80.1747 92.1598 78.7926C92.1598 77.7138 91.4737 77.0476 90.0717 76.7244L88.8587 76.446C88.0185 76.2472 87.6555 75.9638 87.6605 75.4467C87.6555 74.8601 88.2919 74.4425 89.1371 74.4425C90.0618 74.4425 90.4893 74.9545 90.6634 75.4666L92.0107 75.228ZM98.6316 77.8331C98.6365 79.1307 97.6721 79.7472 96.8368 79.7472C95.9171 79.7472 95.2807 79.081 95.2807 78.0419V73.3636H93.7942V78.2209C93.7942 80.1151 94.8333 81.0994 96.2999 81.0994C97.4483 81.0994 98.2289 80.4929 98.5819 79.6776H98.6614V81H100.123V73.3636H98.6316V77.8331ZM104.343 81.169C105.605 81.169 106.316 80.5277 106.6 79.956H106.659V81H108.111V75.929C108.111 73.7067 106.361 73.2642 105.148 73.2642C103.766 73.2642 102.493 73.821 101.996 75.2131L103.393 75.5312C103.612 74.9893 104.169 74.4673 105.168 74.4673C106.127 74.4673 106.62 74.9695 106.62 75.8345V75.8693C106.62 76.4112 106.063 76.4013 104.691 76.5604C103.244 76.7294 101.762 77.1072 101.762 78.8423C101.762 80.3438 102.891 81.169 104.343 81.169ZM104.666 79.9759C103.826 79.9759 103.219 79.598 103.219 78.8622C103.219 78.0668 103.925 77.7834 104.785 77.669C105.267 77.6044 106.411 77.4751 106.625 77.2614V78.2457C106.625 79.1506 105.904 79.9759 104.666 79.9759ZM111.578 70.8182H110.091V81H111.578V70.8182ZM120.698 81C123.8 81 125.595 79.076 125.595 75.8942C125.595 72.7273 123.8 70.8182 120.802 70.8182H117.402V81H120.698ZM118.938 79.6577V72.1605H120.708C122.935 72.1605 124.084 73.4929 124.084 75.8942C124.084 78.3054 122.935 79.6577 120.613 79.6577H118.938ZM130.677 81.1541C132.343 81.1541 133.521 80.3338 133.859 79.0909L132.452 78.8374C132.184 79.5582 131.537 79.9261 130.692 79.9261C129.419 79.9261 128.564 79.1009 128.525 77.6293H133.953V77.1023C133.953 74.343 132.303 73.2642 130.573 73.2642C128.445 73.2642 127.043 74.8849 127.043 77.2315C127.043 79.603 128.425 81.1541 130.677 81.1541ZM128.529 76.5156C128.589 75.4318 129.375 74.4922 130.583 74.4922C131.736 74.4922 132.492 75.3473 132.497 76.5156H128.529ZM141.325 75.228C141.017 74.0398 140.087 73.2642 138.437 73.2642C136.711 73.2642 135.488 74.174 135.488 75.5263C135.488 76.6101 136.145 77.331 137.577 77.6491L138.869 77.9325C139.605 78.0966 139.948 78.4247 139.948 78.902C139.948 79.4936 139.317 79.956 138.342 79.956C137.452 79.956 136.881 79.5732 136.702 78.8224L135.265 79.0412C135.513 80.3935 136.637 81.1541 138.352 81.1541C140.197 81.1541 141.474 80.1747 141.474 78.7926C141.474 77.7138 140.788 77.0476 139.386 76.7244L138.173 76.446C137.333 76.2472 136.97 75.9638 136.975 75.4467C136.97 74.8601 137.606 74.4425 138.452 74.4425C139.376 74.4425 139.804 74.9545 139.978 75.4666L141.325 75.228ZM143.109 81H144.595V73.3636H143.109V81ZM143.859 72.1854C144.371 72.1854 144.799 71.7876 144.799 71.3004C144.799 70.8132 144.371 70.4105 143.859 70.4105C143.342 70.4105 142.92 70.8132 142.92 71.3004C142.92 71.7876 143.342 72.1854 143.859 72.1854ZM149.797 84.0078C151.741 84.0078 153.242 83.1179 153.242 81.169V73.3636H151.785V74.6016H151.676C151.412 74.1293 150.885 73.2642 149.464 73.2642C147.619 73.2642 146.262 74.7209 146.262 77.152C146.262 79.5881 147.649 80.8857 149.454 80.8857C150.856 80.8857 151.398 80.0952 151.666 79.608H151.76V81.1094C151.76 82.2876 150.94 82.8097 149.812 82.8097C148.574 82.8097 148.091 82.1882 147.828 81.7656L146.55 82.2926C146.953 83.2124 147.972 84.0078 149.797 84.0078ZM149.782 79.6527C148.454 79.6527 147.763 78.6335 147.763 77.1321C147.763 75.6655 148.439 74.527 149.782 74.527C151.079 74.527 151.775 75.5859 151.775 77.1321C151.775 78.7081 151.064 79.6527 149.782 79.6527ZM156.722 76.4659C156.722 75.2479 157.468 74.5518 158.502 74.5518C159.511 74.5518 160.123 75.2131 160.123 76.3217V81H161.609V76.1428C161.609 74.2536 160.57 73.2642 159.009 73.2642C157.861 73.2642 157.11 73.7962 156.757 74.6065H156.662V73.3636H155.236V81H156.722V76.4659Z" fill="white"/>
<circle opacity="0.2" cx="24" cy="52" r="36" fill="white"/>
<path d="M9.42456 45.4146L13.4318 49.4082L16.8049 59.7286L37.9472 66.004L31.6615 44.896L21.4277 41.4211L17.4275 37.4275L9.42456 45.4146Z" stroke="white" stroke-width="2.77281" stroke-linecap="round" stroke-linejoin="round"/>
<path d="M37.9773 65.9788L26.5493 54.5691" stroke="white" stroke-width="2.77281" stroke-linecap="round"/>
<path d="M13.3801 49.4595L21.3797 41.4728" stroke="white" stroke-width="2.77281" stroke-linecap="round"/>
</g>
<defs>
<filter id="filter0_i" x="0" y="0" width="240" height="104" filterUnits="userSpaceOnUse" color-interpolation-filters="sRGB">
<feFlood flood-opacity="0" result="BackgroundImageFix"/>
<feBlend mode="normal" in="SourceGraphic" in2="BackgroundImageFix" result="shape"/>
<feColorMatrix in="SourceAlpha" type="matrix" values="0 0 0 0 0 0 0 0 0 0 0 0 0 0 0 0 0 0 127 0" result="hardAlpha"/>
<feOffset dy="-4"/>
<feComposite in2="hardAlpha" operator="arithmetic" k2="-1" k3="1"/>
<feColorMatrix type="matrix" values="0 0 0 0 0 0 0 0 0 0 0 0 0 0 0 0 0 0 0.16 0"/>
<feBlend mode="normal" in2="shape" result="effect1_innerShadow"/>
</filter>
<linearGradient id="paint0_linear" x1="61.8" y1="1.14616e-05" x2="148.668" y2="126.364" gradientUnits="userSpaceOnUse">
<stop stop-color="#2399E9"/>
<stop offset="1" stop-color="#391AF4"/>
</linearGradient>
<clipPath id="clip0">
<rect width="240" height="104" rx="3" fill="white"/>
</clipPath>
</defs>
</svg>
