<svg width="240" height="104" viewBox="0 0 240 104" fill="none" xmlns="http://www.w3.org/2000/svg">
<g clip-path="url(#clip0)">
<g filter="url(#filter0_i)">
<rect width="240" height="104" rx="3" fill="url(#paint0_linear)"/>
</g>
<path d="M73.1186 57H79.2685V55.6776H74.6548V46.8182H73.1186V57ZM83.1239 57.169C84.3867 57.169 85.0977 56.5277 85.381 55.956H85.4407V57H86.8924V51.929C86.8924 49.7067 85.1424 49.2642 83.9293 49.2642C82.5472 49.2642 81.2745 49.821 80.7773 51.2131L82.1744 51.5312C82.3931 50.9893 82.9499 50.4673 83.9492 50.4673C84.9087 50.4673 85.4009 50.9695 85.4009 51.8345V51.8693C85.4009 52.4112 84.8441 52.4013 83.4719 52.5604C82.0252 52.7294 80.5437 53.1072 80.5437 54.8423C80.5437 56.3438 81.6722 57.169 83.1239 57.169ZM83.4471 55.9759C82.6069 55.9759 82.0004 55.598 82.0004 54.8622C82.0004 54.0668 82.7063 53.7834 83.5664 53.669C84.0487 53.6044 85.1921 53.4751 85.4059 53.2614V54.2457C85.4059 55.1506 84.685 55.9759 83.4471 55.9759ZM93.7097 53.8331C93.7147 55.1307 92.7502 55.7472 91.915 55.7472C90.9952 55.7472 90.3588 55.081 90.3588 54.0419V49.3636H88.8723V54.2209C88.8723 56.1151 89.9114 57.0994 91.378 57.0994C92.5265 57.0994 93.307 56.4929 93.66 55.6776H93.7395V57H95.2012V49.3636H93.7097V53.8331ZM98.685 52.4659C98.685 51.2479 99.4308 50.5518 100.465 50.5518C101.474 50.5518 102.086 51.2131 102.086 52.3217V57H103.572V52.1428C103.572 50.2536 102.533 49.2642 100.972 49.2642C99.8235 49.2642 99.0728 49.7962 98.7198 50.6065H98.6254V49.3636H97.1985V57H98.685V52.4659ZM108.782 57.1541C110.587 57.1541 111.755 56.0703 111.919 54.5838H110.473C110.284 55.4091 109.642 55.8963 108.792 55.8963C107.534 55.8963 106.724 54.8473 106.724 53.1818C106.724 51.5462 107.549 50.517 108.792 50.517C109.737 50.517 110.314 51.1136 110.473 51.8295H111.919C111.76 50.2884 110.502 49.2642 108.767 49.2642C106.615 49.2642 105.223 50.8849 105.223 53.2166C105.223 55.5185 106.565 57.1541 108.782 57.1541ZM114.996 52.4659C114.996 51.2479 115.766 50.5518 116.825 50.5518C117.849 50.5518 118.461 51.2031 118.461 52.3217V57H119.947V52.1428C119.947 50.2386 118.903 49.2642 117.332 49.2642C116.144 49.2642 115.428 49.7812 115.07 50.6065H114.976V46.8182H113.509V57H114.996V52.4659Z" fill="white"/>
<circle opacity="0.2" cx="24" cy="52" r="36" fill="white"/>
<path d="M29.7143 38.6667H18.2857C17.0233 38.6667 16 39.8607 16 41.3334V62.6667C16 64.1395 17.0233 65.3334 18.2857 65.3334H29.7143C30.9767 65.3334 32 64.1395 32 62.6667V41.3334C32 39.8607 30.9767 38.6667 29.7143 38.6667Z" stroke="white" stroke-width="2.66667" stroke-linecap="round" stroke-linejoin="round"/>
<ellipse cx="24.0001" cy="61.3333" rx="1.33333" ry="1.33333" fill="white"/>
</g>
<defs>
<filter id="filter0_i" x="0" y="0" width="240" height="104" filterUnits="userSpaceOnUse" color-interpolation-filters="sRGB">
<feFlood flood-opacity="0" result="BackgroundImageFix"/>
<feBlend mode="normal" in="SourceGraphic" in2="BackgroundImageFix" result="shape"/>
<feColorMatrix in="SourceAlpha" type="matrix" values="0 0 0 0 0 0 0 0 0 0 0 0 0 0 0 0 0 0 127 0" result="hardAlpha"/>
<feOffset dy="-4"/>
<feComposite in2="hardAlpha" operator="arithmetic" k2="-1" k3="1"/>
<feColorMatrix type="matrix" values="0 0 0 0 0 0 0 0 0 0 0 0 0 0 0 0 0 0 0.16 0"/>
<feBlend mode="normal" in2="shape" result="effect1_innerShadow"/>
</filter>
<linearGradient id="paint0_linear" x1="61.8" y1="1.14616e-05" x2="148.668" y2="126.364" gradientUnits="userSpaceOnUse">
<stop stop-color="#72E300"/>
<stop offset="1" stop-color="#30B800"/>
</linearGradient>
<clipPath id="clip0">
<rect width="240" height="104" rx="3" fill="white"/>
</clipPath>
</defs>
</svg>
