<svg width="12" height="12" viewBox="0 0 12 12" fill="none" xmlns="http://www.w3.org/2000/svg">
<path fill-rule="evenodd" clip-rule="evenodd" d="M2.625 2.5C2.625 1.60254 3.35254 0.875 4.25 0.875H7.75C8.64746 0.875 9.375 1.60254 9.375 2.5C9.375 3.39746 8.64746 4.125 7.75 4.125H4.25C3.35254 4.125 2.625 3.39746 2.625 2.5ZM4.25 1.625C3.76675 1.625 3.375 2.01675 3.375 2.5C3.375 2.98325 3.76675 3.375 4.25 3.375H7.75C8.23325 3.375 8.625 2.98325 8.625 2.5C8.625 2.01675 8.23325 1.625 7.75 1.625H4.25ZM2.625 6C2.625 5.10254 3.35254 4.375 4.25 4.375H5.08333C5.52056 4.375 5.875 4.72944 5.875 5.16667V6.83333C5.875 7.27056 5.52056 7.625 5.08333 7.625H4.25C3.35254 7.625 2.625 6.89746 2.625 6ZM4.25 5.125C3.76675 5.125 3.375 5.51675 3.375 6C3.375 6.48325 3.76675 6.875 4.25 6.875H5.08333C5.10635 6.875 5.125 6.85635 5.125 6.83333V5.16667C5.125 5.14366 5.10635 5.125 5.08333 5.125H4.25ZM6.125 6C6.125 5.10254 6.85254 4.375 7.75 4.375C8.64746 4.375 9.375 5.10254 9.375 6C9.375 6.89746 8.64746 7.625 7.75 7.625C6.85254 7.625 6.125 6.89746 6.125 6ZM7.75 5.125C7.26675 5.125 6.875 5.51675 6.875 6C6.875 6.48325 7.26675 6.875 7.75 6.875C8.23325 6.875 8.625 6.48325 8.625 6C8.625 5.51675 8.23325 5.125 7.75 5.125ZM2.625 9.5C2.625 8.60254 3.35254 7.875 4.25 7.875H5.08333C5.52056 7.875 5.875 8.22944 5.875 8.66667V9.5C5.875 10.3975 5.14746 11.125 4.25 11.125C3.35254 11.125 2.625 10.3975 2.625 9.5ZM4.25 8.625C3.76675 8.625 3.375 9.01675 3.375 9.5C3.375 9.98325 3.76675 10.375 4.25 10.375C4.73325 10.375 5.125 9.98325 5.125 9.5V8.66667C5.125 8.64365 5.10635 8.625 5.08333 8.625H4.25Z" fill="#424242"/>
</svg>
