<svg width="12" height="12" viewBox="0 0 12 12" fill="none" xmlns="http://www.w3.org/2000/svg">
<path fill-rule="evenodd" clip-rule="evenodd" d="M1.64953 1.24635C1.72049 1.16974 1.82019 1.1262 1.92462 1.1262H10.3256C10.43 1.1262 10.5297 1.16974 10.6007 1.24635C10.6717 1.32296 10.7075 1.42569 10.6995 1.52982L10.1028 9.32456C10.0913 9.47494 9.99085 9.60379 9.84781 9.6516L6.24878 10.8545C6.17173 10.8802 6.0884 10.8803 6.01132 10.8546L2.40266 9.6517C2.25948 9.60397 2.15886 9.47505 2.14734 9.32456L1.55072 1.52982C1.54275 1.42569 1.57856 1.32296 1.64953 1.24635ZM2.32942 1.8762L2.87615 9.01895L6.12975 10.1035L9.37403 9.01917L9.92079 1.8762H2.32942Z" fill="#424242"/>
<path fill-rule="evenodd" clip-rule="evenodd" d="M3.46537 2.91441C3.53646 2.83586 3.63746 2.79104 3.74341 2.79104H8.55496C8.76206 2.79104 8.92996 2.95893 8.92996 3.16604C8.92996 3.37315 8.76206 3.54104 8.55496 3.54104H4.15778L4.32336 5.19681H8.17964C8.28562 5.19681 8.38664 5.24165 8.45774 5.32024C8.52883 5.39883 8.56335 5.50383 8.55277 5.60927L8.31219 8.00542C8.29748 8.15195 8.19835 8.27631 8.05879 8.32333L6.25928 8.92959C6.1816 8.95576 6.0975 8.95576 6.01982 8.92959L4.22031 8.32333C4.08336 8.27719 3.98511 8.15646 3.96775 8.013L3.82338 6.81974C3.79851 6.61413 3.94502 6.42729 4.15062 6.40241C4.35623 6.37754 4.54308 6.52405 4.56795 6.72966L4.68391 7.6881L6.13955 8.1785L7.59011 7.68981L7.76511 5.94681H3.98399C3.79133 5.94681 3.63002 5.80083 3.61085 5.60913L3.37027 3.20335C3.35973 3.09793 3.39427 2.99297 3.46537 2.91441Z" fill="#424242"/>
</svg>
