<svg width="544" height="340" viewBox="0 0 544 340" fill="none" xmlns="http://www.w3.org/2000/svg">
<path d="M536 0H8C3.58172 0 0 3.58172 0 8V332C0 336.418 3.58172 340 8 340H536C540.418 340 544 336.418 544 332V8C544 3.58172 540.418 0 536 0Z" fill="#1C3EA8"/>
<path d="M272.058 260C254.247 260 236.835 254.718 222.025 244.822C207.215 234.926 195.672 220.861 188.855 204.405C182.039 187.949 180.256 169.841 183.73 152.371C187.205 134.901 195.782 118.854 208.377 106.259C225.278 89.4219 248.168 79.9778 272.024 80C295.88 80.0222 318.753 89.5089 335.622 106.378C352.491 123.247 361.978 146.12 362 169.976C362.022 193.832 352.578 216.722 335.741 233.623C327.397 242.012 317.473 248.663 306.542 253.19C295.611 257.718 283.89 260.033 272.058 260V260ZM263.273 108.257V118.163C253.638 119.884 244.781 124.568 237.936 131.563C228.515 141.075 223.737 153.704 223.737 169.098C223.737 184.492 228.515 197.117 237.936 206.633C244.782 213.626 253.639 218.311 263.273 220.034V231.546H285.238V219.939C292.89 218.523 300.08 215.26 306.184 210.432C314.939 203.487 322.211 182.114 322.284 181.894H300.351C299.108 187.664 295.811 192.785 291.074 196.304C286.405 199.706 280.634 201.434 273.921 201.434C264.966 201.434 257.895 198.501 252.907 192.718C247.918 186.934 245.386 178.992 245.386 169.102C245.386 159.212 247.916 151.265 252.907 145.486C257.897 139.708 264.969 136.77 273.921 136.77C280.638 136.77 286.41 138.496 291.074 141.9C295.812 145.419 299.109 150.54 300.351 156.31H322.283C322.214 156.109 315.003 134.769 306.183 127.772C300.079 122.943 292.889 119.678 285.237 118.258V108.262L263.273 108.257Z" fill="white"/>
</svg>
