<svg width="360" height="240" viewBox="0 0 360 240" fill="none" xmlns="http://www.w3.org/2000/svg">
<path d="M180 176.25C211.066 176.25 236.25 151.066 236.25 120C236.25 88.934 211.066 63.75 180 63.75C148.934 63.75 123.75 88.934 123.75 120C123.75 151.066 148.934 176.25 180 176.25Z" stroke="white" stroke-width="10" stroke-linecap="round" stroke-linejoin="round"/>
<path d="M156.15 143.85L168.075 108.077L203.85 96.15L191.925 131.925L156.15 143.85ZM180.001 108C176.819 108.003 173.769 109.269 171.519 111.519C169.27 113.768 168.004 116.818 168.001 120C168.004 123.182 169.27 126.232 171.519 128.481C173.769 130.731 176.819 131.997 180.001 132C183.182 131.996 186.232 130.731 188.482 128.481C190.731 126.231 191.997 123.181 192.001 120C191.997 116.818 190.731 113.768 188.481 111.519C186.232 109.269 183.181 108.004 180 108H180.001Z" fill="white" stroke="white" stroke-width="10" stroke-linecap="round" stroke-linejoin="round"/>
<path d="M16.625 118.507L73.375 91.625L46.493 148.375L40.52 124.48L16.625 118.507Z" stroke="#B8C2CC" stroke-width="6" stroke-linecap="round" stroke-linejoin="round"/>
<path d="M327.727 142.818V137.727C327.727 135.027 326.654 132.437 324.745 130.527C322.835 128.618 320.245 127.545 317.545 127.545H297.182C294.482 127.545 291.892 128.618 289.982 130.527C288.073 132.437 287 135.027 287 137.727V142.818" stroke="#B8C2CC" stroke-width="6" stroke-linecap="round" stroke-linejoin="round"/>
<path d="M307.364 117.364C312.987 117.364 317.546 112.805 317.546 107.182C317.546 101.559 312.987 97 307.364 97C301.741 97 297.182 101.559 297.182 107.182C297.182 112.805 301.741 117.364 307.364 117.364Z" stroke="#B8C2CC" stroke-width="6" stroke-linecap="round" stroke-linejoin="round"/>
<path d="M343 142.818V137.727C342.998 135.471 342.248 133.28 340.865 131.497C339.483 129.714 337.548 128.44 335.364 127.876" stroke="#B8C2CC" stroke-width="6" stroke-linecap="round" stroke-linejoin="round"/>
<path d="M325.182 97.3309C327.372 97.8919 329.313 99.1657 330.699 100.952C332.085 102.737 332.837 104.934 332.837 107.194C332.837 109.455 332.085 111.651 330.699 113.437C329.313 115.223 327.372 116.497 325.182 117.058" stroke="#B8C2CC" stroke-width="6" stroke-linecap="round" stroke-linejoin="round"/>
</svg>
