<svg width="360" height="240" viewBox="0 0 360 240" fill="none" xmlns="http://www.w3.org/2000/svg">
<path d="M269.251 90.5078L282.842 100.984L282.796 115.322L293.839 108.056L304.45 115.548L328.282 78.2L269.251 90.5078ZM289.221 104.449L285.35 110.961L285.367 100.001L320.807 82.9368L289.221 104.449Z" fill="white"/>
<path fill-rule="evenodd" clip-rule="evenodd" d="M236.405 126.256C251.051 124.133 264.868 119.067 279.133 114.331C274.716 117.875 241.731 127.137 236.405 126.256Z" fill="white"/>
<path fill-rule="evenodd" clip-rule="evenodd" d="M293.827 108.056L282.785 115.322L289.218 104.458L293.827 108.056Z" fill="white"/>
<path d="M21.6001 129.943H27.696V160.566H21.6001V129.943Z" fill="white"/>
<path d="M33.8379 160.567V129.968H35.8849L55.0559 149.134V129.968H61.1716V160.567H58.932L39.9621 141.597V160.567H33.8379Z" fill="white"/>
<path d="M92.4867 129.968V135.679H82.2939V160.564H76.1669V135.679H65.9741V129.968H92.4867Z" fill="white"/>
<path d="M96.9504 160.566V129.988H119.44V135.699H103.075V142.211H115.343V147.904H103.075V154.858H119.394V160.575L96.9504 160.566Z" fill="white"/>
<path d="M144.023 147.217L151.645 160.564H144.634L137.301 147.913H131.715V160.564H125.599V129.968H138.938C146.078 129.968 149.648 132.904 149.646 138.774C149.846 140.617 149.393 142.472 148.366 144.015C147.338 145.558 145.801 146.692 144.023 147.217ZM131.715 142.203H140.291C142.749 142.157 144.02 141.039 144.079 138.839C144.023 136.823 142.771 135.781 140.348 135.693H131.715V142.205V142.203Z" fill="white"/>
<path d="M154.833 160.567V129.968H156.864L176.049 149.134V129.968H182.164V160.567H179.916L160.946 141.597V160.567H154.833Z" fill="white"/>
<path d="M205.077 130.987C206.716 131.721 208.202 132.758 209.457 134.042L205.386 138.128C204.684 137.308 203.803 136.66 202.811 136.236C201.818 135.812 200.741 135.622 199.664 135.682C197.22 135.682 195.655 136.248 194.978 137.412C194.645 137.833 194.463 138.354 194.463 138.891C194.463 139.428 194.645 139.949 194.978 140.37C196.301 141.473 197.944 142.117 199.664 142.208C202.186 142.454 204.607 143.331 206.702 144.756C207.774 145.525 208.628 146.558 209.182 147.755C209.737 148.951 209.972 150.271 209.865 151.585C209.845 152.831 209.529 154.054 208.943 155.153C208.357 156.252 207.519 157.197 206.496 157.908C204.255 159.669 201.477 160.606 198.628 160.561C196.197 160.635 193.777 160.218 191.512 159.335C189.685 158.574 188.022 157.465 186.617 156.07L190.68 152.001C191.587 152.916 192.667 153.64 193.858 154.132C195.049 154.623 196.326 154.871 197.614 154.861C200.338 154.861 202.028 154.295 202.71 153.131C203.041 152.613 203.216 152.01 203.216 151.396C203.216 150.781 203.041 150.179 202.71 149.66C202.031 148.508 200.346 147.788 197.614 147.517C195.235 147.267 192.939 146.502 190.887 145.274C189.847 144.602 189.012 143.656 188.472 142.541C187.933 141.426 187.711 140.185 187.829 138.952C187.808 137.661 188.116 136.386 188.724 135.247C189.332 134.108 190.219 133.142 191.303 132.44C193.37 130.89 195.874 130.032 198.458 129.988C200.708 129.882 202.958 130.222 205.077 130.987V130.987Z" fill="white"/>
<path d="M215.334 160.569V129.971H221.459V142.205H235.717V129.945H241.85V160.541L235.717 160.569V147.919H221.459V160.569H215.334V160.569Z" fill="white"/>
<path d="M246.825 160.569L259.056 129.971H265.18L277.4 160.549L270.888 160.578L269.051 155.889H255.177L253.34 160.578L246.825 160.569ZM262.284 138.128L257.629 149.759H266.808L262.284 138.128Z" fill="white"/>
<path d="M288.165 129.971V154.853H304.485V160.569H282.044V129.971H288.165Z" fill="white"/>
<path d="M307.908 160.569L320.157 129.971H326.273L338.49 160.549L331.978 160.578L330.163 155.881H316.289L314.455 160.569H307.908ZM323.368 138.128L318.716 149.759H327.898L323.368 138.128Z" fill="white"/>
</svg>
