<svg xmlns="http://www.w3.org/2000/svg" xmlns:xlink="http://www.w3.org/1999/xlink" width="544" height="340" viewBox="0 0 544 340">
  <defs>
    <clipPath id="clip-path">
      <rect width="544" height="340" fill="none"/>
    </clipPath>
  </defs>
  <g id="img-waves" transform="translate(36.481)">
    <rect id="Rectangle_2" data-name="Rectangle 2" width="544" height="340" rx="8" transform="translate(-36.481)" fill="#ffc300"/>
    <g id="bank-note" transform="translate(-36.481)" clip-path="url(#clip-path)">
      <g id="bank-note-2" data-name="bank-note">
        <g id="bank-note-3" data-name="bank-note">
          <path id="Combined-Shape" d="M33.895,32q.857-.313,1.741-.643L38.464,30.3C53.824,24.556,63.435,22.4,80,22.4c16.434,0,24.579,1.955,39.406,7.886,1.529.612,2.991,1.182,4.4,1.714h9.96c-4.017-1.169-8.222-2.706-13.172-4.686C105.421,21.245,96.9,19.2,80,19.2c-17,0-26.968,2.236-42.657,8.1l-2.826,1.058c-3.96,1.477-7.457,2.68-10.758,3.641Zm0-32C21.212,4.627,12.923,6.4,0,6.4H0V3.2A78.85,78.85,0,0,0,23.759,0H33.895Zm89.912,0c12.576,4.746,21,6.4,36.194,6.4V3.2c-10.948,0-18.217-.868-26.234-3.2h-9.96ZM0,22.4c13.5,0,21.949-1.936,35.636-7.043L38.464,14.3C53.824,8.556,63.435,6.4,80,6.4c16.434,0,24.579,1.955,39.406,7.886C134.579,20.355,143.1,22.4,160,22.4V19.2c-16.434,0-24.579-1.955-39.406-7.886C105.421,5.245,96.9,3.2,80,3.2c-17,0-26.968,2.236-42.657,8.1l-2.826,1.058C21.158,17.344,13.062,19.2,0,19.2v3.2Z" fill="#ffcf33" fill-rule="evenodd"/>
        </g>
      </g>
      <g id="bank-note-4" data-name="bank-note" transform="translate(160)">
        <g id="bank-note-5" data-name="bank-note">
          <path id="Combined-Shape-2" data-name="Combined-Shape" d="M33.895,32q.857-.313,1.741-.643L38.464,30.3C53.824,24.556,63.435,22.4,80,22.4c16.434,0,24.579,1.955,39.406,7.886,1.529.612,2.991,1.182,4.4,1.714h9.96c-4.017-1.169-8.222-2.706-13.172-4.686C105.421,21.245,96.9,19.2,80,19.2c-17,0-26.968,2.236-42.657,8.1l-2.826,1.058c-3.96,1.477-7.457,2.68-10.758,3.641Zm0-32C21.212,4.627,12.923,6.4,0,6.4H0V3.2A78.85,78.85,0,0,0,23.759,0H33.895Zm89.912,0c12.576,4.746,21,6.4,36.194,6.4V3.2c-10.948,0-18.217-.868-26.234-3.2h-9.96ZM0,22.4c13.5,0,21.949-1.936,35.636-7.043L38.464,14.3C53.824,8.556,63.435,6.4,80,6.4c16.434,0,24.579,1.955,39.406,7.886C134.579,20.355,143.1,22.4,160,22.4V19.2c-16.434,0-24.579-1.955-39.406-7.886C105.421,5.245,96.9,3.2,80,3.2c-17,0-26.968,2.236-42.657,8.1l-2.826,1.058C21.158,17.344,13.062,19.2,0,19.2v3.2Z" fill="#ffcf33" fill-rule="evenodd"/>
        </g>
      </g>
      <g id="bank-note-6" data-name="bank-note" transform="translate(320)">
        <g id="bank-note-7" data-name="bank-note">
          <path id="Combined-Shape-3" data-name="Combined-Shape" d="M33.895,32q.857-.313,1.741-.643L38.464,30.3C53.824,24.556,63.435,22.4,80,22.4c16.434,0,24.579,1.955,39.406,7.886,1.529.612,2.991,1.182,4.4,1.714h9.96c-4.017-1.169-8.222-2.706-13.172-4.686C105.421,21.245,96.9,19.2,80,19.2c-17,0-26.968,2.236-42.657,8.1l-2.826,1.058c-3.96,1.477-7.457,2.68-10.758,3.641Zm0-32C21.212,4.627,12.923,6.4,0,6.4H0V3.2A78.85,78.85,0,0,0,23.759,0H33.895Zm89.912,0c12.576,4.746,21,6.4,36.194,6.4V3.2c-10.948,0-18.217-.868-26.234-3.2h-9.96ZM0,22.4c13.5,0,21.949-1.936,35.636-7.043L38.464,14.3C53.824,8.556,63.435,6.4,80,6.4c16.434,0,24.579,1.955,39.406,7.886C134.579,20.355,143.1,22.4,160,22.4V19.2c-16.434,0-24.579-1.955-39.406-7.886C105.421,5.245,96.9,3.2,80,3.2c-17,0-26.968,2.236-42.657,8.1l-2.826,1.058C21.158,17.344,13.062,19.2,0,19.2v3.2Z" fill="#ffcf33" fill-rule="evenodd"/>
        </g>
      </g>
      <g id="bank-note-8" data-name="bank-note" transform="translate(480)">
        <g id="bank-note-9" data-name="bank-note">
          <path id="Combined-Shape-4" data-name="Combined-Shape" d="M33.895,32q.857-.313,1.741-.643L38.464,30.3C53.824,24.556,63.435,22.4,80,22.4c16.434,0,24.579,1.955,39.406,7.886,1.529.612,2.991,1.182,4.4,1.714h9.96c-4.017-1.169-8.222-2.706-13.172-4.686C105.421,21.245,96.9,19.2,80,19.2c-17,0-26.968,2.236-42.657,8.1l-2.826,1.058c-3.96,1.477-7.457,2.68-10.758,3.641Zm0-32C21.212,4.627,12.923,6.4,0,6.4H0V3.2A78.85,78.85,0,0,0,23.759,0H33.895Zm89.912,0c12.576,4.746,21,6.4,36.194,6.4V3.2c-10.948,0-18.217-.868-26.234-3.2h-9.96ZM0,22.4c13.5,0,21.949-1.936,35.636-7.043L38.464,14.3C53.824,8.556,63.435,6.4,80,6.4c16.434,0,24.579,1.955,39.406,7.886C134.579,20.355,143.1,22.4,160,22.4V19.2c-16.434,0-24.579-1.955-39.406-7.886C105.421,5.245,96.9,3.2,80,3.2c-17,0-26.968,2.236-42.657,8.1l-2.826,1.058C21.158,17.344,13.062,19.2,0,19.2v3.2Z" fill="#ffcf33" fill-rule="evenodd"/>
        </g>
      </g>
      <g id="bank-note-10" data-name="bank-note" transform="translate(0 32)">
        <g id="bank-note-11" data-name="bank-note">
          <path id="Combined-Shape-5" data-name="Combined-Shape" d="M33.895,32q.857-.313,1.741-.643L38.464,30.3C53.824,24.556,63.435,22.4,80,22.4c16.434,0,24.579,1.955,39.406,7.886,1.529.612,2.991,1.182,4.4,1.714h9.96c-4.017-1.169-8.222-2.706-13.172-4.686C105.421,21.245,96.9,19.2,80,19.2c-17,0-26.968,2.236-42.657,8.1l-2.826,1.058c-3.96,1.477-7.457,2.68-10.758,3.641Zm0-32C21.212,4.627,12.923,6.4,0,6.4H0V3.2A78.85,78.85,0,0,0,23.759,0H33.895Zm89.912,0c12.576,4.746,21,6.4,36.194,6.4V3.2c-10.948,0-18.217-.868-26.234-3.2h-9.96ZM0,22.4c13.5,0,21.949-1.936,35.636-7.043L38.464,14.3C53.824,8.556,63.435,6.4,80,6.4c16.434,0,24.579,1.955,39.406,7.886C134.579,20.355,143.1,22.4,160,22.4V19.2c-16.434,0-24.579-1.955-39.406-7.886C105.421,5.245,96.9,3.2,80,3.2c-17,0-26.968,2.236-42.657,8.1l-2.826,1.058C21.158,17.344,13.062,19.2,0,19.2v3.2Z" fill="#ffcf33" fill-rule="evenodd"/>
        </g>
      </g>
      <g id="bank-note-12" data-name="bank-note" transform="translate(160 32)">
        <g id="bank-note-13" data-name="bank-note">
          <path id="Combined-Shape-6" data-name="Combined-Shape" d="M33.895,32q.857-.313,1.741-.643L38.464,30.3C53.824,24.556,63.435,22.4,80,22.4c16.434,0,24.579,1.955,39.406,7.886,1.529.612,2.991,1.182,4.4,1.714h9.96c-4.017-1.169-8.222-2.706-13.172-4.686C105.421,21.245,96.9,19.2,80,19.2c-17,0-26.968,2.236-42.657,8.1l-2.826,1.058c-3.96,1.477-7.457,2.68-10.758,3.641Zm0-32C21.212,4.627,12.923,6.4,0,6.4H0V3.2A78.85,78.85,0,0,0,23.759,0H33.895Zm89.912,0c12.576,4.746,21,6.4,36.194,6.4V3.2c-10.948,0-18.217-.868-26.234-3.2h-9.96ZM0,22.4c13.5,0,21.949-1.936,35.636-7.043L38.464,14.3C53.824,8.556,63.435,6.4,80,6.4c16.434,0,24.579,1.955,39.406,7.886C134.579,20.355,143.1,22.4,160,22.4V19.2c-16.434,0-24.579-1.955-39.406-7.886C105.421,5.245,96.9,3.2,80,3.2c-17,0-26.968,2.236-42.657,8.1l-2.826,1.058C21.158,17.344,13.062,19.2,0,19.2v3.2Z" fill="#ffcf33" fill-rule="evenodd"/>
        </g>
      </g>
      <g id="bank-note-14" data-name="bank-note" transform="translate(320 32)">
        <g id="bank-note-15" data-name="bank-note">
          <path id="Combined-Shape-7" data-name="Combined-Shape" d="M33.895,32q.857-.313,1.741-.643L38.464,30.3C53.824,24.556,63.435,22.4,80,22.4c16.434,0,24.579,1.955,39.406,7.886,1.529.612,2.991,1.182,4.4,1.714h9.96c-4.017-1.169-8.222-2.706-13.172-4.686C105.421,21.245,96.9,19.2,80,19.2c-17,0-26.968,2.236-42.657,8.1l-2.826,1.058c-3.96,1.477-7.457,2.68-10.758,3.641Zm0-32C21.212,4.627,12.923,6.4,0,6.4H0V3.2A78.85,78.85,0,0,0,23.759,0H33.895Zm89.912,0c12.576,4.746,21,6.4,36.194,6.4V3.2c-10.948,0-18.217-.868-26.234-3.2h-9.96ZM0,22.4c13.5,0,21.949-1.936,35.636-7.043L38.464,14.3C53.824,8.556,63.435,6.4,80,6.4c16.434,0,24.579,1.955,39.406,7.886C134.579,20.355,143.1,22.4,160,22.4V19.2c-16.434,0-24.579-1.955-39.406-7.886C105.421,5.245,96.9,3.2,80,3.2c-17,0-26.968,2.236-42.657,8.1l-2.826,1.058C21.158,17.344,13.062,19.2,0,19.2v3.2Z" fill="#ffcf33" fill-rule="evenodd"/>
        </g>
      </g>
      <g id="bank-note-16" data-name="bank-note" transform="translate(480 32)">
        <g id="bank-note-17" data-name="bank-note">
          <path id="Combined-Shape-8" data-name="Combined-Shape" d="M33.895,32q.857-.313,1.741-.643L38.464,30.3C53.824,24.556,63.435,22.4,80,22.4c16.434,0,24.579,1.955,39.406,7.886,1.529.612,2.991,1.182,4.4,1.714h9.96c-4.017-1.169-8.222-2.706-13.172-4.686C105.421,21.245,96.9,19.2,80,19.2c-17,0-26.968,2.236-42.657,8.1l-2.826,1.058c-3.96,1.477-7.457,2.68-10.758,3.641Zm0-32C21.212,4.627,12.923,6.4,0,6.4H0V3.2A78.85,78.85,0,0,0,23.759,0H33.895Zm89.912,0c12.576,4.746,21,6.4,36.194,6.4V3.2c-10.948,0-18.217-.868-26.234-3.2h-9.96ZM0,22.4c13.5,0,21.949-1.936,35.636-7.043L38.464,14.3C53.824,8.556,63.435,6.4,80,6.4c16.434,0,24.579,1.955,39.406,7.886C134.579,20.355,143.1,22.4,160,22.4V19.2c-16.434,0-24.579-1.955-39.406-7.886C105.421,5.245,96.9,3.2,80,3.2c-17,0-26.968,2.236-42.657,8.1l-2.826,1.058C21.158,17.344,13.062,19.2,0,19.2v3.2Z" fill="#ffcf33" fill-rule="evenodd"/>
        </g>
      </g>
      <g id="bank-note-18" data-name="bank-note" transform="translate(0 64)">
        <g id="bank-note-19" data-name="bank-note">
          <path id="Combined-Shape-9" data-name="Combined-Shape" d="M33.895,32q.857-.313,1.741-.643L38.464,30.3C53.824,24.556,63.435,22.4,80,22.4c16.434,0,24.579,1.955,39.406,7.886,1.529.612,2.991,1.182,4.4,1.714h9.96c-4.017-1.169-8.222-2.706-13.172-4.686C105.421,21.245,96.9,19.2,80,19.2c-17,0-26.968,2.236-42.657,8.1l-2.826,1.058c-3.96,1.477-7.457,2.68-10.758,3.641Zm0-32C21.212,4.627,12.923,6.4,0,6.4H0V3.2A78.85,78.85,0,0,0,23.759,0H33.895Zm89.912,0c12.576,4.746,21,6.4,36.194,6.4V3.2c-10.948,0-18.217-.868-26.234-3.2h-9.96ZM0,22.4c13.5,0,21.949-1.936,35.636-7.043L38.464,14.3C53.824,8.556,63.435,6.4,80,6.4c16.434,0,24.579,1.955,39.406,7.886C134.579,20.355,143.1,22.4,160,22.4V19.2c-16.434,0-24.579-1.955-39.406-7.886C105.421,5.245,96.9,3.2,80,3.2c-17,0-26.968,2.236-42.657,8.1l-2.826,1.058C21.158,17.344,13.062,19.2,0,19.2v3.2Z" fill="#ffcf33" fill-rule="evenodd"/>
        </g>
      </g>
      <g id="bank-note-20" data-name="bank-note" transform="translate(160 64)">
        <g id="bank-note-21" data-name="bank-note">
          <path id="Combined-Shape-10" data-name="Combined-Shape" d="M33.895,32q.857-.313,1.741-.643L38.464,30.3C53.824,24.556,63.435,22.4,80,22.4c16.434,0,24.579,1.955,39.406,7.886,1.529.612,2.991,1.182,4.4,1.714h9.96c-4.017-1.169-8.222-2.706-13.172-4.686C105.421,21.245,96.9,19.2,80,19.2c-17,0-26.968,2.236-42.657,8.1l-2.826,1.058c-3.96,1.477-7.457,2.68-10.758,3.641Zm0-32C21.212,4.627,12.923,6.4,0,6.4H0V3.2A78.85,78.85,0,0,0,23.759,0H33.895Zm89.912,0c12.576,4.746,21,6.4,36.194,6.4V3.2c-10.948,0-18.217-.868-26.234-3.2h-9.96ZM0,22.4c13.5,0,21.949-1.936,35.636-7.043L38.464,14.3C53.824,8.556,63.435,6.4,80,6.4c16.434,0,24.579,1.955,39.406,7.886C134.579,20.355,143.1,22.4,160,22.4V19.2c-16.434,0-24.579-1.955-39.406-7.886C105.421,5.245,96.9,3.2,80,3.2c-17,0-26.968,2.236-42.657,8.1l-2.826,1.058C21.158,17.344,13.062,19.2,0,19.2v3.2Z" fill="#ffcf33" fill-rule="evenodd"/>
        </g>
      </g>
      <g id="bank-note-22" data-name="bank-note" transform="translate(320 64)">
        <g id="bank-note-23" data-name="bank-note">
          <path id="Combined-Shape-11" data-name="Combined-Shape" d="M33.895,32q.857-.313,1.741-.643L38.464,30.3C53.824,24.556,63.435,22.4,80,22.4c16.434,0,24.579,1.955,39.406,7.886,1.529.612,2.991,1.182,4.4,1.714h9.96c-4.017-1.169-8.222-2.706-13.172-4.686C105.421,21.245,96.9,19.2,80,19.2c-17,0-26.968,2.236-42.657,8.1l-2.826,1.058c-3.96,1.477-7.457,2.68-10.758,3.641Zm0-32C21.212,4.627,12.923,6.4,0,6.4H0V3.2A78.85,78.85,0,0,0,23.759,0H33.895Zm89.912,0c12.576,4.746,21,6.4,36.194,6.4V3.2c-10.948,0-18.217-.868-26.234-3.2h-9.96ZM0,22.4c13.5,0,21.949-1.936,35.636-7.043L38.464,14.3C53.824,8.556,63.435,6.4,80,6.4c16.434,0,24.579,1.955,39.406,7.886C134.579,20.355,143.1,22.4,160,22.4V19.2c-16.434,0-24.579-1.955-39.406-7.886C105.421,5.245,96.9,3.2,80,3.2c-17,0-26.968,2.236-42.657,8.1l-2.826,1.058C21.158,17.344,13.062,19.2,0,19.2v3.2Z" fill="#ffcf33" fill-rule="evenodd"/>
        </g>
      </g>
      <g id="bank-note-24" data-name="bank-note" transform="translate(480 64)">
        <g id="bank-note-25" data-name="bank-note">
          <path id="Combined-Shape-12" data-name="Combined-Shape" d="M33.895,32q.857-.313,1.741-.643L38.464,30.3C53.824,24.556,63.435,22.4,80,22.4c16.434,0,24.579,1.955,39.406,7.886,1.529.612,2.991,1.182,4.4,1.714h9.96c-4.017-1.169-8.222-2.706-13.172-4.686C105.421,21.245,96.9,19.2,80,19.2c-17,0-26.968,2.236-42.657,8.1l-2.826,1.058c-3.96,1.477-7.457,2.68-10.758,3.641Zm0-32C21.212,4.627,12.923,6.4,0,6.4H0V3.2A78.85,78.85,0,0,0,23.759,0H33.895Zm89.912,0c12.576,4.746,21,6.4,36.194,6.4V3.2c-10.948,0-18.217-.868-26.234-3.2h-9.96ZM0,22.4c13.5,0,21.949-1.936,35.636-7.043L38.464,14.3C53.824,8.556,63.435,6.4,80,6.4c16.434,0,24.579,1.955,39.406,7.886C134.579,20.355,143.1,22.4,160,22.4V19.2c-16.434,0-24.579-1.955-39.406-7.886C105.421,5.245,96.9,3.2,80,3.2c-17,0-26.968,2.236-42.657,8.1l-2.826,1.058C21.158,17.344,13.062,19.2,0,19.2v3.2Z" fill="#ffcf33" fill-rule="evenodd"/>
        </g>
      </g>
      <g id="bank-note-26" data-name="bank-note" transform="translate(0 96)">
        <g id="bank-note-27" data-name="bank-note">
          <path id="Combined-Shape-13" data-name="Combined-Shape" d="M33.895,32q.857-.313,1.741-.643L38.464,30.3C53.824,24.556,63.435,22.4,80,22.4c16.434,0,24.579,1.955,39.406,7.886,1.529.612,2.991,1.182,4.4,1.714h9.96c-4.017-1.169-8.222-2.706-13.172-4.686C105.421,21.245,96.9,19.2,80,19.2c-17,0-26.968,2.236-42.657,8.1l-2.826,1.058c-3.96,1.477-7.457,2.68-10.758,3.641Zm0-32C21.212,4.627,12.923,6.4,0,6.4H0V3.2A78.85,78.85,0,0,0,23.759,0H33.895Zm89.912,0c12.576,4.746,21,6.4,36.194,6.4V3.2c-10.948,0-18.217-.868-26.234-3.2h-9.96ZM0,22.4c13.5,0,21.949-1.936,35.636-7.043L38.464,14.3C53.824,8.556,63.435,6.4,80,6.4c16.434,0,24.579,1.955,39.406,7.886C134.579,20.355,143.1,22.4,160,22.4V19.2c-16.434,0-24.579-1.955-39.406-7.886C105.421,5.245,96.9,3.2,80,3.2c-17,0-26.968,2.236-42.657,8.1l-2.826,1.058C21.158,17.344,13.062,19.2,0,19.2v3.2Z" fill="#ffcf33" fill-rule="evenodd"/>
        </g>
      </g>
      <g id="bank-note-28" data-name="bank-note" transform="translate(160 96)">
        <g id="bank-note-29" data-name="bank-note">
          <path id="Combined-Shape-14" data-name="Combined-Shape" d="M33.895,32q.857-.313,1.741-.643L38.464,30.3C53.824,24.556,63.435,22.4,80,22.4c16.434,0,24.579,1.955,39.406,7.886,1.529.612,2.991,1.182,4.4,1.714h9.96c-4.017-1.169-8.222-2.706-13.172-4.686C105.421,21.245,96.9,19.2,80,19.2c-17,0-26.968,2.236-42.657,8.1l-2.826,1.058c-3.96,1.477-7.457,2.68-10.758,3.641Zm0-32C21.212,4.627,12.923,6.4,0,6.4H0V3.2A78.85,78.85,0,0,0,23.759,0H33.895Zm89.912,0c12.576,4.746,21,6.4,36.194,6.4V3.2c-10.948,0-18.217-.868-26.234-3.2h-9.96ZM0,22.4c13.5,0,21.949-1.936,35.636-7.043L38.464,14.3C53.824,8.556,63.435,6.4,80,6.4c16.434,0,24.579,1.955,39.406,7.886C134.579,20.355,143.1,22.4,160,22.4V19.2c-16.434,0-24.579-1.955-39.406-7.886C105.421,5.245,96.9,3.2,80,3.2c-17,0-26.968,2.236-42.657,8.1l-2.826,1.058C21.158,17.344,13.062,19.2,0,19.2v3.2Z" fill="#ffcf33" fill-rule="evenodd"/>
        </g>
      </g>
      <g id="bank-note-30" data-name="bank-note" transform="translate(320 96)">
        <g id="bank-note-31" data-name="bank-note">
          <path id="Combined-Shape-15" data-name="Combined-Shape" d="M33.895,32q.857-.313,1.741-.643L38.464,30.3C53.824,24.556,63.435,22.4,80,22.4c16.434,0,24.579,1.955,39.406,7.886,1.529.612,2.991,1.182,4.4,1.714h9.96c-4.017-1.169-8.222-2.706-13.172-4.686C105.421,21.245,96.9,19.2,80,19.2c-17,0-26.968,2.236-42.657,8.1l-2.826,1.058c-3.96,1.477-7.457,2.68-10.758,3.641Zm0-32C21.212,4.627,12.923,6.4,0,6.4H0V3.2A78.85,78.85,0,0,0,23.759,0H33.895Zm89.912,0c12.576,4.746,21,6.4,36.194,6.4V3.2c-10.948,0-18.217-.868-26.234-3.2h-9.96ZM0,22.4c13.5,0,21.949-1.936,35.636-7.043L38.464,14.3C53.824,8.556,63.435,6.4,80,6.4c16.434,0,24.579,1.955,39.406,7.886C134.579,20.355,143.1,22.4,160,22.4V19.2c-16.434,0-24.579-1.955-39.406-7.886C105.421,5.245,96.9,3.2,80,3.2c-17,0-26.968,2.236-42.657,8.1l-2.826,1.058C21.158,17.344,13.062,19.2,0,19.2v3.2Z" fill="#ffcf33" fill-rule="evenodd"/>
        </g>
      </g>
      <g id="bank-note-32" data-name="bank-note" transform="translate(480 96)">
        <g id="bank-note-33" data-name="bank-note">
          <path id="Combined-Shape-16" data-name="Combined-Shape" d="M33.895,32q.857-.313,1.741-.643L38.464,30.3C53.824,24.556,63.435,22.4,80,22.4c16.434,0,24.579,1.955,39.406,7.886,1.529.612,2.991,1.182,4.4,1.714h9.96c-4.017-1.169-8.222-2.706-13.172-4.686C105.421,21.245,96.9,19.2,80,19.2c-17,0-26.968,2.236-42.657,8.1l-2.826,1.058c-3.96,1.477-7.457,2.68-10.758,3.641Zm0-32C21.212,4.627,12.923,6.4,0,6.4H0V3.2A78.85,78.85,0,0,0,23.759,0H33.895Zm89.912,0c12.576,4.746,21,6.4,36.194,6.4V3.2c-10.948,0-18.217-.868-26.234-3.2h-9.96ZM0,22.4c13.5,0,21.949-1.936,35.636-7.043L38.464,14.3C53.824,8.556,63.435,6.4,80,6.4c16.434,0,24.579,1.955,39.406,7.886C134.579,20.355,143.1,22.4,160,22.4V19.2c-16.434,0-24.579-1.955-39.406-7.886C105.421,5.245,96.9,3.2,80,3.2c-17,0-26.968,2.236-42.657,8.1l-2.826,1.058C21.158,17.344,13.062,19.2,0,19.2v3.2Z" fill="#ffcf33" fill-rule="evenodd"/>
        </g>
      </g>
      <g id="bank-note-34" data-name="bank-note" transform="translate(0 128)">
        <g id="bank-note-35" data-name="bank-note">
          <path id="Combined-Shape-17" data-name="Combined-Shape" d="M33.895,32q.857-.313,1.741-.643L38.464,30.3C53.824,24.556,63.435,22.4,80,22.4c16.434,0,24.579,1.955,39.406,7.886,1.529.612,2.991,1.182,4.4,1.714h9.96c-4.017-1.169-8.222-2.706-13.172-4.686C105.421,21.245,96.9,19.2,80,19.2c-17,0-26.968,2.236-42.657,8.1l-2.826,1.058c-3.96,1.477-7.457,2.68-10.758,3.641Zm0-32C21.212,4.627,12.923,6.4,0,6.4H0V3.2A78.85,78.85,0,0,0,23.759,0H33.895Zm89.912,0c12.576,4.746,21,6.4,36.194,6.4V3.2c-10.948,0-18.217-.868-26.234-3.2h-9.96ZM0,22.4c13.5,0,21.949-1.936,35.636-7.043L38.464,14.3C53.824,8.556,63.435,6.4,80,6.4c16.434,0,24.579,1.955,39.406,7.886C134.579,20.355,143.1,22.4,160,22.4V19.2c-16.434,0-24.579-1.955-39.406-7.886C105.421,5.245,96.9,3.2,80,3.2c-17,0-26.968,2.236-42.657,8.1l-2.826,1.058C21.158,17.344,13.062,19.2,0,19.2v3.2Z" fill="#ffcf33" fill-rule="evenodd"/>
        </g>
      </g>
      <g id="bank-note-36" data-name="bank-note" transform="translate(160 128)">
        <g id="bank-note-37" data-name="bank-note">
          <path id="Combined-Shape-18" data-name="Combined-Shape" d="M33.895,32q.857-.313,1.741-.643L38.464,30.3C53.824,24.556,63.435,22.4,80,22.4c16.434,0,24.579,1.955,39.406,7.886,1.529.612,2.991,1.182,4.4,1.714h9.96c-4.017-1.169-8.222-2.706-13.172-4.686C105.421,21.245,96.9,19.2,80,19.2c-17,0-26.968,2.236-42.657,8.1l-2.826,1.058c-3.96,1.477-7.457,2.68-10.758,3.641Zm0-32C21.212,4.627,12.923,6.4,0,6.4H0V3.2A78.85,78.85,0,0,0,23.759,0H33.895Zm89.912,0c12.576,4.746,21,6.4,36.194,6.4V3.2c-10.948,0-18.217-.868-26.234-3.2h-9.96ZM0,22.4c13.5,0,21.949-1.936,35.636-7.043L38.464,14.3C53.824,8.556,63.435,6.4,80,6.4c16.434,0,24.579,1.955,39.406,7.886C134.579,20.355,143.1,22.4,160,22.4V19.2c-16.434,0-24.579-1.955-39.406-7.886C105.421,5.245,96.9,3.2,80,3.2c-17,0-26.968,2.236-42.657,8.1l-2.826,1.058C21.158,17.344,13.062,19.2,0,19.2v3.2Z" fill="#ffcf33" fill-rule="evenodd"/>
        </g>
      </g>
      <g id="bank-note-38" data-name="bank-note" transform="translate(320 128)">
        <g id="bank-note-39" data-name="bank-note">
          <path id="Combined-Shape-19" data-name="Combined-Shape" d="M33.895,32q.857-.313,1.741-.643L38.464,30.3C53.824,24.556,63.435,22.4,80,22.4c16.434,0,24.579,1.955,39.406,7.886,1.529.612,2.991,1.182,4.4,1.714h9.96c-4.017-1.169-8.222-2.706-13.172-4.686C105.421,21.245,96.9,19.2,80,19.2c-17,0-26.968,2.236-42.657,8.1l-2.826,1.058c-3.96,1.477-7.457,2.68-10.758,3.641Zm0-32C21.212,4.627,12.923,6.4,0,6.4H0V3.2A78.85,78.85,0,0,0,23.759,0H33.895Zm89.912,0c12.576,4.746,21,6.4,36.194,6.4V3.2c-10.948,0-18.217-.868-26.234-3.2h-9.96ZM0,22.4c13.5,0,21.949-1.936,35.636-7.043L38.464,14.3C53.824,8.556,63.435,6.4,80,6.4c16.434,0,24.579,1.955,39.406,7.886C134.579,20.355,143.1,22.4,160,22.4V19.2c-16.434,0-24.579-1.955-39.406-7.886C105.421,5.245,96.9,3.2,80,3.2c-17,0-26.968,2.236-42.657,8.1l-2.826,1.058C21.158,17.344,13.062,19.2,0,19.2v3.2Z" fill="#ffcf33" fill-rule="evenodd"/>
        </g>
      </g>
      <g id="bank-note-40" data-name="bank-note" transform="translate(480 128)">
        <g id="bank-note-41" data-name="bank-note">
          <path id="Combined-Shape-20" data-name="Combined-Shape" d="M33.895,32q.857-.313,1.741-.643L38.464,30.3C53.824,24.556,63.435,22.4,80,22.4c16.434,0,24.579,1.955,39.406,7.886,1.529.612,2.991,1.182,4.4,1.714h9.96c-4.017-1.169-8.222-2.706-13.172-4.686C105.421,21.245,96.9,19.2,80,19.2c-17,0-26.968,2.236-42.657,8.1l-2.826,1.058c-3.96,1.477-7.457,2.68-10.758,3.641Zm0-32C21.212,4.627,12.923,6.4,0,6.4H0V3.2A78.85,78.85,0,0,0,23.759,0H33.895Zm89.912,0c12.576,4.746,21,6.4,36.194,6.4V3.2c-10.948,0-18.217-.868-26.234-3.2h-9.96ZM0,22.4c13.5,0,21.949-1.936,35.636-7.043L38.464,14.3C53.824,8.556,63.435,6.4,80,6.4c16.434,0,24.579,1.955,39.406,7.886C134.579,20.355,143.1,22.4,160,22.4V19.2c-16.434,0-24.579-1.955-39.406-7.886C105.421,5.245,96.9,3.2,80,3.2c-17,0-26.968,2.236-42.657,8.1l-2.826,1.058C21.158,17.344,13.062,19.2,0,19.2v3.2Z" fill="#ffcf33" fill-rule="evenodd"/>
        </g>
      </g>
      <g id="bank-note-42" data-name="bank-note" transform="translate(0 160)">
        <g id="bank-note-43" data-name="bank-note">
          <path id="Combined-Shape-21" data-name="Combined-Shape" d="M33.895,32q.857-.313,1.741-.643L38.464,30.3C53.824,24.556,63.435,22.4,80,22.4c16.434,0,24.579,1.955,39.406,7.886,1.529.612,2.991,1.182,4.4,1.714h9.96c-4.017-1.169-8.222-2.706-13.172-4.686C105.421,21.245,96.9,19.2,80,19.2c-17,0-26.968,2.236-42.657,8.1l-2.826,1.058c-3.96,1.477-7.457,2.68-10.758,3.641Zm0-32C21.212,4.627,12.923,6.4,0,6.4H0V3.2A78.85,78.85,0,0,0,23.759,0H33.895Zm89.912,0c12.576,4.746,21,6.4,36.194,6.4V3.2c-10.948,0-18.217-.868-26.234-3.2h-9.96ZM0,22.4c13.5,0,21.949-1.936,35.636-7.043L38.464,14.3C53.824,8.556,63.435,6.4,80,6.4c16.434,0,24.579,1.955,39.406,7.886C134.579,20.355,143.1,22.4,160,22.4V19.2c-16.434,0-24.579-1.955-39.406-7.886C105.421,5.245,96.9,3.2,80,3.2c-17,0-26.968,2.236-42.657,8.1l-2.826,1.058C21.158,17.344,13.062,19.2,0,19.2v3.2Z" fill="#ffcf33" fill-rule="evenodd"/>
        </g>
      </g>
      <g id="bank-note-44" data-name="bank-note" transform="translate(160 160)">
        <g id="bank-note-45" data-name="bank-note">
          <path id="Combined-Shape-22" data-name="Combined-Shape" d="M33.895,32q.857-.313,1.741-.643L38.464,30.3C53.824,24.556,63.435,22.4,80,22.4c16.434,0,24.579,1.955,39.406,7.886,1.529.612,2.991,1.182,4.4,1.714h9.96c-4.017-1.169-8.222-2.706-13.172-4.686C105.421,21.245,96.9,19.2,80,19.2c-17,0-26.968,2.236-42.657,8.1l-2.826,1.058c-3.96,1.477-7.457,2.68-10.758,3.641Zm0-32C21.212,4.627,12.923,6.4,0,6.4H0V3.2A78.85,78.85,0,0,0,23.759,0H33.895Zm89.912,0c12.576,4.746,21,6.4,36.194,6.4V3.2c-10.948,0-18.217-.868-26.234-3.2h-9.96ZM0,22.4c13.5,0,21.949-1.936,35.636-7.043L38.464,14.3C53.824,8.556,63.435,6.4,80,6.4c16.434,0,24.579,1.955,39.406,7.886C134.579,20.355,143.1,22.4,160,22.4V19.2c-16.434,0-24.579-1.955-39.406-7.886C105.421,5.245,96.9,3.2,80,3.2c-17,0-26.968,2.236-42.657,8.1l-2.826,1.058C21.158,17.344,13.062,19.2,0,19.2v3.2Z" fill="#ffcf33" fill-rule="evenodd"/>
        </g>
      </g>
      <g id="bank-note-46" data-name="bank-note" transform="translate(320 160)">
        <g id="bank-note-47" data-name="bank-note">
          <path id="Combined-Shape-23" data-name="Combined-Shape" d="M33.895,32q.857-.313,1.741-.643L38.464,30.3C53.824,24.556,63.435,22.4,80,22.4c16.434,0,24.579,1.955,39.406,7.886,1.529.612,2.991,1.182,4.4,1.714h9.96c-4.017-1.169-8.222-2.706-13.172-4.686C105.421,21.245,96.9,19.2,80,19.2c-17,0-26.968,2.236-42.657,8.1l-2.826,1.058c-3.96,1.477-7.457,2.68-10.758,3.641Zm0-32C21.212,4.627,12.923,6.4,0,6.4H0V3.2A78.85,78.85,0,0,0,23.759,0H33.895Zm89.912,0c12.576,4.746,21,6.4,36.194,6.4V3.2c-10.948,0-18.217-.868-26.234-3.2h-9.96ZM0,22.4c13.5,0,21.949-1.936,35.636-7.043L38.464,14.3C53.824,8.556,63.435,6.4,80,6.4c16.434,0,24.579,1.955,39.406,7.886C134.579,20.355,143.1,22.4,160,22.4V19.2c-16.434,0-24.579-1.955-39.406-7.886C105.421,5.245,96.9,3.2,80,3.2c-17,0-26.968,2.236-42.657,8.1l-2.826,1.058C21.158,17.344,13.062,19.2,0,19.2v3.2Z" fill="#ffcf33" fill-rule="evenodd"/>
        </g>
      </g>
      <g id="bank-note-48" data-name="bank-note" transform="translate(480 160)">
        <g id="bank-note-49" data-name="bank-note">
          <path id="Combined-Shape-24" data-name="Combined-Shape" d="M33.895,32q.857-.313,1.741-.643L38.464,30.3C53.824,24.556,63.435,22.4,80,22.4c16.434,0,24.579,1.955,39.406,7.886,1.529.612,2.991,1.182,4.4,1.714h9.96c-4.017-1.169-8.222-2.706-13.172-4.686C105.421,21.245,96.9,19.2,80,19.2c-17,0-26.968,2.236-42.657,8.1l-2.826,1.058c-3.96,1.477-7.457,2.68-10.758,3.641Zm0-32C21.212,4.627,12.923,6.4,0,6.4H0V3.2A78.85,78.85,0,0,0,23.759,0H33.895Zm89.912,0c12.576,4.746,21,6.4,36.194,6.4V3.2c-10.948,0-18.217-.868-26.234-3.2h-9.96ZM0,22.4c13.5,0,21.949-1.936,35.636-7.043L38.464,14.3C53.824,8.556,63.435,6.4,80,6.4c16.434,0,24.579,1.955,39.406,7.886C134.579,20.355,143.1,22.4,160,22.4V19.2c-16.434,0-24.579-1.955-39.406-7.886C105.421,5.245,96.9,3.2,80,3.2c-17,0-26.968,2.236-42.657,8.1l-2.826,1.058C21.158,17.344,13.062,19.2,0,19.2v3.2Z" fill="#ffcf33" fill-rule="evenodd"/>
        </g>
      </g>
      <g id="bank-note-50" data-name="bank-note" transform="translate(0 192)">
        <g id="bank-note-51" data-name="bank-note">
          <path id="Combined-Shape-25" data-name="Combined-Shape" d="M33.895,32q.857-.313,1.741-.643L38.464,30.3C53.824,24.556,63.435,22.4,80,22.4c16.434,0,24.579,1.955,39.406,7.886,1.529.612,2.991,1.182,4.4,1.714h9.96c-4.017-1.169-8.222-2.706-13.172-4.686C105.421,21.245,96.9,19.2,80,19.2c-17,0-26.968,2.236-42.657,8.1l-2.826,1.058c-3.96,1.477-7.457,2.68-10.758,3.641Zm0-32C21.212,4.627,12.923,6.4,0,6.4H0V3.2A78.85,78.85,0,0,0,23.759,0H33.895Zm89.912,0c12.576,4.746,21,6.4,36.194,6.4V3.2c-10.948,0-18.217-.868-26.234-3.2h-9.96ZM0,22.4c13.5,0,21.949-1.936,35.636-7.043L38.464,14.3C53.824,8.556,63.435,6.4,80,6.4c16.434,0,24.579,1.955,39.406,7.886C134.579,20.355,143.1,22.4,160,22.4V19.2c-16.434,0-24.579-1.955-39.406-7.886C105.421,5.245,96.9,3.2,80,3.2c-17,0-26.968,2.236-42.657,8.1l-2.826,1.058C21.158,17.344,13.062,19.2,0,19.2v3.2Z" fill="#ffcf33" fill-rule="evenodd"/>
        </g>
      </g>
      <g id="bank-note-52" data-name="bank-note" transform="translate(160 192)">
        <g id="bank-note-53" data-name="bank-note">
          <path id="Combined-Shape-26" data-name="Combined-Shape" d="M33.895,32q.857-.313,1.741-.643L38.464,30.3C53.824,24.556,63.435,22.4,80,22.4c16.434,0,24.579,1.955,39.406,7.886,1.529.612,2.991,1.182,4.4,1.714h9.96c-4.017-1.169-8.222-2.706-13.172-4.686C105.421,21.245,96.9,19.2,80,19.2c-17,0-26.968,2.236-42.657,8.1l-2.826,1.058c-3.96,1.477-7.457,2.68-10.758,3.641Zm0-32C21.212,4.627,12.923,6.4,0,6.4H0V3.2A78.85,78.85,0,0,0,23.759,0H33.895Zm89.912,0c12.576,4.746,21,6.4,36.194,6.4V3.2c-10.948,0-18.217-.868-26.234-3.2h-9.96ZM0,22.4c13.5,0,21.949-1.936,35.636-7.043L38.464,14.3C53.824,8.556,63.435,6.4,80,6.4c16.434,0,24.579,1.955,39.406,7.886C134.579,20.355,143.1,22.4,160,22.4V19.2c-16.434,0-24.579-1.955-39.406-7.886C105.421,5.245,96.9,3.2,80,3.2c-17,0-26.968,2.236-42.657,8.1l-2.826,1.058C21.158,17.344,13.062,19.2,0,19.2v3.2Z" fill="#ffcf33" fill-rule="evenodd"/>
        </g>
      </g>
      <g id="bank-note-54" data-name="bank-note" transform="translate(320 192)">
        <g id="bank-note-55" data-name="bank-note">
          <path id="Combined-Shape-27" data-name="Combined-Shape" d="M33.895,32q.857-.313,1.741-.643L38.464,30.3C53.824,24.556,63.435,22.4,80,22.4c16.434,0,24.579,1.955,39.406,7.886,1.529.612,2.991,1.182,4.4,1.714h9.96c-4.017-1.169-8.222-2.706-13.172-4.686C105.421,21.245,96.9,19.2,80,19.2c-17,0-26.968,2.236-42.657,8.1l-2.826,1.058c-3.96,1.477-7.457,2.68-10.758,3.641Zm0-32C21.212,4.627,12.923,6.4,0,6.4H0V3.2A78.85,78.85,0,0,0,23.759,0H33.895Zm89.912,0c12.576,4.746,21,6.4,36.194,6.4V3.2c-10.948,0-18.217-.868-26.234-3.2h-9.96ZM0,22.4c13.5,0,21.949-1.936,35.636-7.043L38.464,14.3C53.824,8.556,63.435,6.4,80,6.4c16.434,0,24.579,1.955,39.406,7.886C134.579,20.355,143.1,22.4,160,22.4V19.2c-16.434,0-24.579-1.955-39.406-7.886C105.421,5.245,96.9,3.2,80,3.2c-17,0-26.968,2.236-42.657,8.1l-2.826,1.058C21.158,17.344,13.062,19.2,0,19.2v3.2Z" fill="#ffcf33" fill-rule="evenodd"/>
        </g>
      </g>
      <g id="bank-note-56" data-name="bank-note" transform="translate(480 192)">
        <g id="bank-note-57" data-name="bank-note">
          <path id="Combined-Shape-28" data-name="Combined-Shape" d="M33.895,32q.857-.313,1.741-.643L38.464,30.3C53.824,24.556,63.435,22.4,80,22.4c16.434,0,24.579,1.955,39.406,7.886,1.529.612,2.991,1.182,4.4,1.714h9.96c-4.017-1.169-8.222-2.706-13.172-4.686C105.421,21.245,96.9,19.2,80,19.2c-17,0-26.968,2.236-42.657,8.1l-2.826,1.058c-3.96,1.477-7.457,2.68-10.758,3.641Zm0-32C21.212,4.627,12.923,6.4,0,6.4H0V3.2A78.85,78.85,0,0,0,23.759,0H33.895Zm89.912,0c12.576,4.746,21,6.4,36.194,6.4V3.2c-10.948,0-18.217-.868-26.234-3.2h-9.96ZM0,22.4c13.5,0,21.949-1.936,35.636-7.043L38.464,14.3C53.824,8.556,63.435,6.4,80,6.4c16.434,0,24.579,1.955,39.406,7.886C134.579,20.355,143.1,22.4,160,22.4V19.2c-16.434,0-24.579-1.955-39.406-7.886C105.421,5.245,96.9,3.2,80,3.2c-17,0-26.968,2.236-42.657,8.1l-2.826,1.058C21.158,17.344,13.062,19.2,0,19.2v3.2Z" fill="#ffcf33" fill-rule="evenodd"/>
        </g>
      </g>
      <g id="bank-note-58" data-name="bank-note" transform="translate(0 224)">
        <g id="bank-note-59" data-name="bank-note">
          <path id="Combined-Shape-29" data-name="Combined-Shape" d="M33.895,32q.857-.313,1.741-.643L38.464,30.3C53.824,24.556,63.435,22.4,80,22.4c16.434,0,24.579,1.955,39.406,7.886,1.529.612,2.991,1.182,4.4,1.714h9.96c-4.017-1.169-8.222-2.706-13.172-4.686C105.421,21.245,96.9,19.2,80,19.2c-17,0-26.968,2.236-42.657,8.1l-2.826,1.058c-3.96,1.477-7.457,2.68-10.758,3.641Zm0-32C21.212,4.627,12.923,6.4,0,6.4H0V3.2A78.85,78.85,0,0,0,23.759,0H33.895Zm89.912,0c12.576,4.746,21,6.4,36.194,6.4V3.2c-10.948,0-18.217-.868-26.234-3.2h-9.96ZM0,22.4c13.5,0,21.949-1.936,35.636-7.043L38.464,14.3C53.824,8.556,63.435,6.4,80,6.4c16.434,0,24.579,1.955,39.406,7.886C134.579,20.355,143.1,22.4,160,22.4V19.2c-16.434,0-24.579-1.955-39.406-7.886C105.421,5.245,96.9,3.2,80,3.2c-17,0-26.968,2.236-42.657,8.1l-2.826,1.058C21.158,17.344,13.062,19.2,0,19.2v3.2Z" fill="#ffcf33" fill-rule="evenodd"/>
        </g>
      </g>
      <g id="bank-note-60" data-name="bank-note" transform="translate(160 224)">
        <g id="bank-note-61" data-name="bank-note">
          <path id="Combined-Shape-30" data-name="Combined-Shape" d="M33.895,32q.857-.313,1.741-.643L38.464,30.3C53.824,24.556,63.435,22.4,80,22.4c16.434,0,24.579,1.955,39.406,7.886,1.529.612,2.991,1.182,4.4,1.714h9.96c-4.017-1.169-8.222-2.706-13.172-4.686C105.421,21.245,96.9,19.2,80,19.2c-17,0-26.968,2.236-42.657,8.1l-2.826,1.058c-3.96,1.477-7.457,2.68-10.758,3.641Zm0-32C21.212,4.627,12.923,6.4,0,6.4H0V3.2A78.85,78.85,0,0,0,23.759,0H33.895Zm89.912,0c12.576,4.746,21,6.4,36.194,6.4V3.2c-10.948,0-18.217-.868-26.234-3.2h-9.96ZM0,22.4c13.5,0,21.949-1.936,35.636-7.043L38.464,14.3C53.824,8.556,63.435,6.4,80,6.4c16.434,0,24.579,1.955,39.406,7.886C134.579,20.355,143.1,22.4,160,22.4V19.2c-16.434,0-24.579-1.955-39.406-7.886C105.421,5.245,96.9,3.2,80,3.2c-17,0-26.968,2.236-42.657,8.1l-2.826,1.058C21.158,17.344,13.062,19.2,0,19.2v3.2Z" fill="#ffcf33" fill-rule="evenodd"/>
        </g>
      </g>
      <g id="bank-note-62" data-name="bank-note" transform="translate(320 224)">
        <g id="bank-note-63" data-name="bank-note">
          <path id="Combined-Shape-31" data-name="Combined-Shape" d="M33.895,32q.857-.313,1.741-.643L38.464,30.3C53.824,24.556,63.435,22.4,80,22.4c16.434,0,24.579,1.955,39.406,7.886,1.529.612,2.991,1.182,4.4,1.714h9.96c-4.017-1.169-8.222-2.706-13.172-4.686C105.421,21.245,96.9,19.2,80,19.2c-17,0-26.968,2.236-42.657,8.1l-2.826,1.058c-3.96,1.477-7.457,2.68-10.758,3.641Zm0-32C21.212,4.627,12.923,6.4,0,6.4H0V3.2A78.85,78.85,0,0,0,23.759,0H33.895Zm89.912,0c12.576,4.746,21,6.4,36.194,6.4V3.2c-10.948,0-18.217-.868-26.234-3.2h-9.96ZM0,22.4c13.5,0,21.949-1.936,35.636-7.043L38.464,14.3C53.824,8.556,63.435,6.4,80,6.4c16.434,0,24.579,1.955,39.406,7.886C134.579,20.355,143.1,22.4,160,22.4V19.2c-16.434,0-24.579-1.955-39.406-7.886C105.421,5.245,96.9,3.2,80,3.2c-17,0-26.968,2.236-42.657,8.1l-2.826,1.058C21.158,17.344,13.062,19.2,0,19.2v3.2Z" fill="#ffcf33" fill-rule="evenodd"/>
        </g>
      </g>
      <g id="bank-note-64" data-name="bank-note" transform="translate(480 224)">
        <g id="bank-note-65" data-name="bank-note">
          <path id="Combined-Shape-32" data-name="Combined-Shape" d="M33.895,32q.857-.313,1.741-.643L38.464,30.3C53.824,24.556,63.435,22.4,80,22.4c16.434,0,24.579,1.955,39.406,7.886,1.529.612,2.991,1.182,4.4,1.714h9.96c-4.017-1.169-8.222-2.706-13.172-4.686C105.421,21.245,96.9,19.2,80,19.2c-17,0-26.968,2.236-42.657,8.1l-2.826,1.058c-3.96,1.477-7.457,2.68-10.758,3.641Zm0-32C21.212,4.627,12.923,6.4,0,6.4H0V3.2A78.85,78.85,0,0,0,23.759,0H33.895Zm89.912,0c12.576,4.746,21,6.4,36.194,6.4V3.2c-10.948,0-18.217-.868-26.234-3.2h-9.96ZM0,22.4c13.5,0,21.949-1.936,35.636-7.043L38.464,14.3C53.824,8.556,63.435,6.4,80,6.4c16.434,0,24.579,1.955,39.406,7.886C134.579,20.355,143.1,22.4,160,22.4V19.2c-16.434,0-24.579-1.955-39.406-7.886C105.421,5.245,96.9,3.2,80,3.2c-17,0-26.968,2.236-42.657,8.1l-2.826,1.058C21.158,17.344,13.062,19.2,0,19.2v3.2Z" fill="#ffcf33" fill-rule="evenodd"/>
        </g>
      </g>
      <g id="bank-note-66" data-name="bank-note" transform="translate(0 256)">
        <g id="bank-note-67" data-name="bank-note">
          <path id="Combined-Shape-33" data-name="Combined-Shape" d="M33.895,32q.857-.313,1.741-.643L38.464,30.3C53.824,24.556,63.435,22.4,80,22.4c16.434,0,24.579,1.955,39.406,7.886,1.529.612,2.991,1.182,4.4,1.714h9.96c-4.017-1.169-8.222-2.706-13.172-4.686C105.421,21.245,96.9,19.2,80,19.2c-17,0-26.968,2.236-42.657,8.1l-2.826,1.058c-3.96,1.477-7.457,2.68-10.758,3.641Zm0-32C21.212,4.627,12.923,6.4,0,6.4H0V3.2A78.85,78.85,0,0,0,23.759,0H33.895Zm89.912,0c12.576,4.746,21,6.4,36.194,6.4V3.2c-10.948,0-18.217-.868-26.234-3.2h-9.96ZM0,22.4c13.5,0,21.949-1.936,35.636-7.043L38.464,14.3C53.824,8.556,63.435,6.4,80,6.4c16.434,0,24.579,1.955,39.406,7.886C134.579,20.355,143.1,22.4,160,22.4V19.2c-16.434,0-24.579-1.955-39.406-7.886C105.421,5.245,96.9,3.2,80,3.2c-17,0-26.968,2.236-42.657,8.1l-2.826,1.058C21.158,17.344,13.062,19.2,0,19.2v3.2Z" fill="#ffcf33" fill-rule="evenodd"/>
        </g>
      </g>
      <g id="bank-note-68" data-name="bank-note" transform="translate(160 256)">
        <g id="bank-note-69" data-name="bank-note">
          <path id="Combined-Shape-34" data-name="Combined-Shape" d="M33.895,32q.857-.313,1.741-.643L38.464,30.3C53.824,24.556,63.435,22.4,80,22.4c16.434,0,24.579,1.955,39.406,7.886,1.529.612,2.991,1.182,4.4,1.714h9.96c-4.017-1.169-8.222-2.706-13.172-4.686C105.421,21.245,96.9,19.2,80,19.2c-17,0-26.968,2.236-42.657,8.1l-2.826,1.058c-3.96,1.477-7.457,2.68-10.758,3.641Zm0-32C21.212,4.627,12.923,6.4,0,6.4H0V3.2A78.85,78.85,0,0,0,23.759,0H33.895Zm89.912,0c12.576,4.746,21,6.4,36.194,6.4V3.2c-10.948,0-18.217-.868-26.234-3.2h-9.96ZM0,22.4c13.5,0,21.949-1.936,35.636-7.043L38.464,14.3C53.824,8.556,63.435,6.4,80,6.4c16.434,0,24.579,1.955,39.406,7.886C134.579,20.355,143.1,22.4,160,22.4V19.2c-16.434,0-24.579-1.955-39.406-7.886C105.421,5.245,96.9,3.2,80,3.2c-17,0-26.968,2.236-42.657,8.1l-2.826,1.058C21.158,17.344,13.062,19.2,0,19.2v3.2Z" fill="#ffcf33" fill-rule="evenodd"/>
        </g>
      </g>
      <g id="bank-note-70" data-name="bank-note" transform="translate(320 256)">
        <g id="bank-note-71" data-name="bank-note">
          <path id="Combined-Shape-35" data-name="Combined-Shape" d="M33.895,32q.857-.313,1.741-.643L38.464,30.3C53.824,24.556,63.435,22.4,80,22.4c16.434,0,24.579,1.955,39.406,7.886,1.529.612,2.991,1.182,4.4,1.714h9.96c-4.017-1.169-8.222-2.706-13.172-4.686C105.421,21.245,96.9,19.2,80,19.2c-17,0-26.968,2.236-42.657,8.1l-2.826,1.058c-3.96,1.477-7.457,2.68-10.758,3.641Zm0-32C21.212,4.627,12.923,6.4,0,6.4H0V3.2A78.85,78.85,0,0,0,23.759,0H33.895Zm89.912,0c12.576,4.746,21,6.4,36.194,6.4V3.2c-10.948,0-18.217-.868-26.234-3.2h-9.96ZM0,22.4c13.5,0,21.949-1.936,35.636-7.043L38.464,14.3C53.824,8.556,63.435,6.4,80,6.4c16.434,0,24.579,1.955,39.406,7.886C134.579,20.355,143.1,22.4,160,22.4V19.2c-16.434,0-24.579-1.955-39.406-7.886C105.421,5.245,96.9,3.2,80,3.2c-17,0-26.968,2.236-42.657,8.1l-2.826,1.058C21.158,17.344,13.062,19.2,0,19.2v3.2Z" fill="#ffcf33" fill-rule="evenodd"/>
        </g>
      </g>
      <g id="bank-note-72" data-name="bank-note" transform="translate(480 256)">
        <g id="bank-note-73" data-name="bank-note">
          <path id="Combined-Shape-36" data-name="Combined-Shape" d="M33.895,32q.857-.313,1.741-.643L38.464,30.3C53.824,24.556,63.435,22.4,80,22.4c16.434,0,24.579,1.955,39.406,7.886,1.529.612,2.991,1.182,4.4,1.714h9.96c-4.017-1.169-8.222-2.706-13.172-4.686C105.421,21.245,96.9,19.2,80,19.2c-17,0-26.968,2.236-42.657,8.1l-2.826,1.058c-3.96,1.477-7.457,2.68-10.758,3.641Zm0-32C21.212,4.627,12.923,6.4,0,6.4H0V3.2A78.85,78.85,0,0,0,23.759,0H33.895Zm89.912,0c12.576,4.746,21,6.4,36.194,6.4V3.2c-10.948,0-18.217-.868-26.234-3.2h-9.96ZM0,22.4c13.5,0,21.949-1.936,35.636-7.043L38.464,14.3C53.824,8.556,63.435,6.4,80,6.4c16.434,0,24.579,1.955,39.406,7.886C134.579,20.355,143.1,22.4,160,22.4V19.2c-16.434,0-24.579-1.955-39.406-7.886C105.421,5.245,96.9,3.2,80,3.2c-17,0-26.968,2.236-42.657,8.1l-2.826,1.058C21.158,17.344,13.062,19.2,0,19.2v3.2Z" fill="#ffcf33" fill-rule="evenodd"/>
        </g>
      </g>
      <g id="bank-note-74" data-name="bank-note" transform="translate(0 288)">
        <g id="bank-note-75" data-name="bank-note">
          <path id="Combined-Shape-37" data-name="Combined-Shape" d="M33.895,32q.857-.313,1.741-.643L38.464,30.3C53.824,24.556,63.435,22.4,80,22.4c16.434,0,24.579,1.955,39.406,7.886,1.529.612,2.991,1.182,4.4,1.714h9.96c-4.017-1.169-8.222-2.706-13.172-4.686C105.421,21.245,96.9,19.2,80,19.2c-17,0-26.968,2.236-42.657,8.1l-2.826,1.058c-3.96,1.477-7.457,2.68-10.758,3.641Zm0-32C21.212,4.627,12.923,6.4,0,6.4H0V3.2A78.85,78.85,0,0,0,23.759,0H33.895Zm89.912,0c12.576,4.746,21,6.4,36.194,6.4V3.2c-10.948,0-18.217-.868-26.234-3.2h-9.96ZM0,22.4c13.5,0,21.949-1.936,35.636-7.043L38.464,14.3C53.824,8.556,63.435,6.4,80,6.4c16.434,0,24.579,1.955,39.406,7.886C134.579,20.355,143.1,22.4,160,22.4V19.2c-16.434,0-24.579-1.955-39.406-7.886C105.421,5.245,96.9,3.2,80,3.2c-17,0-26.968,2.236-42.657,8.1l-2.826,1.058C21.158,17.344,13.062,19.2,0,19.2v3.2Z" fill="#ffcf33" fill-rule="evenodd"/>
        </g>
      </g>
      <g id="bank-note-76" data-name="bank-note" transform="translate(160 288)">
        <g id="bank-note-77" data-name="bank-note">
          <path id="Combined-Shape-38" data-name="Combined-Shape" d="M33.895,32q.857-.313,1.741-.643L38.464,30.3C53.824,24.556,63.435,22.4,80,22.4c16.434,0,24.579,1.955,39.406,7.886,1.529.612,2.991,1.182,4.4,1.714h9.96c-4.017-1.169-8.222-2.706-13.172-4.686C105.421,21.245,96.9,19.2,80,19.2c-17,0-26.968,2.236-42.657,8.1l-2.826,1.058c-3.96,1.477-7.457,2.68-10.758,3.641Zm0-32C21.212,4.627,12.923,6.4,0,6.4H0V3.2A78.85,78.85,0,0,0,23.759,0H33.895Zm89.912,0c12.576,4.746,21,6.4,36.194,6.4V3.2c-10.948,0-18.217-.868-26.234-3.2h-9.96ZM0,22.4c13.5,0,21.949-1.936,35.636-7.043L38.464,14.3C53.824,8.556,63.435,6.4,80,6.4c16.434,0,24.579,1.955,39.406,7.886C134.579,20.355,143.1,22.4,160,22.4V19.2c-16.434,0-24.579-1.955-39.406-7.886C105.421,5.245,96.9,3.2,80,3.2c-17,0-26.968,2.236-42.657,8.1l-2.826,1.058C21.158,17.344,13.062,19.2,0,19.2v3.2Z" fill="#ffcf33" fill-rule="evenodd"/>
        </g>
      </g>
      <g id="bank-note-78" data-name="bank-note" transform="translate(320 288)">
        <g id="bank-note-79" data-name="bank-note">
          <path id="Combined-Shape-39" data-name="Combined-Shape" d="M33.895,32q.857-.313,1.741-.643L38.464,30.3C53.824,24.556,63.435,22.4,80,22.4c16.434,0,24.579,1.955,39.406,7.886,1.529.612,2.991,1.182,4.4,1.714h9.96c-4.017-1.169-8.222-2.706-13.172-4.686C105.421,21.245,96.9,19.2,80,19.2c-17,0-26.968,2.236-42.657,8.1l-2.826,1.058c-3.96,1.477-7.457,2.68-10.758,3.641Zm0-32C21.212,4.627,12.923,6.4,0,6.4H0V3.2A78.85,78.85,0,0,0,23.759,0H33.895Zm89.912,0c12.576,4.746,21,6.4,36.194,6.4V3.2c-10.948,0-18.217-.868-26.234-3.2h-9.96ZM0,22.4c13.5,0,21.949-1.936,35.636-7.043L38.464,14.3C53.824,8.556,63.435,6.4,80,6.4c16.434,0,24.579,1.955,39.406,7.886C134.579,20.355,143.1,22.4,160,22.4V19.2c-16.434,0-24.579-1.955-39.406-7.886C105.421,5.245,96.9,3.2,80,3.2c-17,0-26.968,2.236-42.657,8.1l-2.826,1.058C21.158,17.344,13.062,19.2,0,19.2v3.2Z" fill="#ffcf33" fill-rule="evenodd"/>
        </g>
      </g>
      <g id="bank-note-80" data-name="bank-note" transform="translate(480 288)">
        <g id="bank-note-81" data-name="bank-note">
          <path id="Combined-Shape-40" data-name="Combined-Shape" d="M33.895,32q.857-.313,1.741-.643L38.464,30.3C53.824,24.556,63.435,22.4,80,22.4c16.434,0,24.579,1.955,39.406,7.886,1.529.612,2.991,1.182,4.4,1.714h9.96c-4.017-1.169-8.222-2.706-13.172-4.686C105.421,21.245,96.9,19.2,80,19.2c-17,0-26.968,2.236-42.657,8.1l-2.826,1.058c-3.96,1.477-7.457,2.68-10.758,3.641Zm0-32C21.212,4.627,12.923,6.4,0,6.4H0V3.2A78.85,78.85,0,0,0,23.759,0H33.895Zm89.912,0c12.576,4.746,21,6.4,36.194,6.4V3.2c-10.948,0-18.217-.868-26.234-3.2h-9.96ZM0,22.4c13.5,0,21.949-1.936,35.636-7.043L38.464,14.3C53.824,8.556,63.435,6.4,80,6.4c16.434,0,24.579,1.955,39.406,7.886C134.579,20.355,143.1,22.4,160,22.4V19.2c-16.434,0-24.579-1.955-39.406-7.886C105.421,5.245,96.9,3.2,80,3.2c-17,0-26.968,2.236-42.657,8.1l-2.826,1.058C21.158,17.344,13.062,19.2,0,19.2v3.2Z" fill="#ffcf33" fill-rule="evenodd"/>
        </g>
      </g>
      <g id="bank-note-82" data-name="bank-note" transform="translate(0 320)">
        <g id="bank-note-83" data-name="bank-note">
          <path id="Combined-Shape-41" data-name="Combined-Shape" d="M33.895,32q.857-.313,1.741-.643L38.464,30.3C53.824,24.556,63.435,22.4,80,22.4c16.434,0,24.579,1.955,39.406,7.886,1.529.612,2.991,1.182,4.4,1.714h9.96c-4.017-1.169-8.222-2.706-13.172-4.686C105.421,21.245,96.9,19.2,80,19.2c-17,0-26.968,2.236-42.657,8.1l-2.826,1.058c-3.96,1.477-7.457,2.68-10.758,3.641Zm0-32C21.212,4.627,12.923,6.4,0,6.4H0V3.2A78.85,78.85,0,0,0,23.759,0H33.895Zm89.912,0c12.576,4.746,21,6.4,36.194,6.4V3.2c-10.948,0-18.217-.868-26.234-3.2h-9.96ZM0,22.4c13.5,0,21.949-1.936,35.636-7.043L38.464,14.3C53.824,8.556,63.435,6.4,80,6.4c16.434,0,24.579,1.955,39.406,7.886C134.579,20.355,143.1,22.4,160,22.4V19.2c-16.434,0-24.579-1.955-39.406-7.886C105.421,5.245,96.9,3.2,80,3.2c-17,0-26.968,2.236-42.657,8.1l-2.826,1.058C21.158,17.344,13.062,19.2,0,19.2v3.2Z" fill="#ffcf33" fill-rule="evenodd"/>
        </g>
      </g>
      <g id="bank-note-84" data-name="bank-note" transform="translate(160 320)">
        <g id="bank-note-85" data-name="bank-note">
          <path id="Combined-Shape-42" data-name="Combined-Shape" d="M33.895,32q.857-.313,1.741-.643L38.464,30.3C53.824,24.556,63.435,22.4,80,22.4c16.434,0,24.579,1.955,39.406,7.886,1.529.612,2.991,1.182,4.4,1.714h9.96c-4.017-1.169-8.222-2.706-13.172-4.686C105.421,21.245,96.9,19.2,80,19.2c-17,0-26.968,2.236-42.657,8.1l-2.826,1.058c-3.96,1.477-7.457,2.68-10.758,3.641Zm0-32C21.212,4.627,12.923,6.4,0,6.4H0V3.2A78.85,78.85,0,0,0,23.759,0H33.895Zm89.912,0c12.576,4.746,21,6.4,36.194,6.4V3.2c-10.948,0-18.217-.868-26.234-3.2h-9.96ZM0,22.4c13.5,0,21.949-1.936,35.636-7.043L38.464,14.3C53.824,8.556,63.435,6.4,80,6.4c16.434,0,24.579,1.955,39.406,7.886C134.579,20.355,143.1,22.4,160,22.4V19.2c-16.434,0-24.579-1.955-39.406-7.886C105.421,5.245,96.9,3.2,80,3.2c-17,0-26.968,2.236-42.657,8.1l-2.826,1.058C21.158,17.344,13.062,19.2,0,19.2v3.2Z" fill="#ffcf33" fill-rule="evenodd"/>
        </g>
      </g>
      <g id="bank-note-86" data-name="bank-note" transform="translate(320 320)">
        <g id="bank-note-87" data-name="bank-note">
          <path id="Combined-Shape-43" data-name="Combined-Shape" d="M33.895,32q.857-.313,1.741-.643L38.464,30.3C53.824,24.556,63.435,22.4,80,22.4c16.434,0,24.579,1.955,39.406,7.886,1.529.612,2.991,1.182,4.4,1.714h9.96c-4.017-1.169-8.222-2.706-13.172-4.686C105.421,21.245,96.9,19.2,80,19.2c-17,0-26.968,2.236-42.657,8.1l-2.826,1.058c-3.96,1.477-7.457,2.68-10.758,3.641Zm0-32C21.212,4.627,12.923,6.4,0,6.4H0V3.2A78.85,78.85,0,0,0,23.759,0H33.895Zm89.912,0c12.576,4.746,21,6.4,36.194,6.4V3.2c-10.948,0-18.217-.868-26.234-3.2h-9.96ZM0,22.4c13.5,0,21.949-1.936,35.636-7.043L38.464,14.3C53.824,8.556,63.435,6.4,80,6.4c16.434,0,24.579,1.955,39.406,7.886C134.579,20.355,143.1,22.4,160,22.4V19.2c-16.434,0-24.579-1.955-39.406-7.886C105.421,5.245,96.9,3.2,80,3.2c-17,0-26.968,2.236-42.657,8.1l-2.826,1.058C21.158,17.344,13.062,19.2,0,19.2v3.2Z" fill="#ffcf33" fill-rule="evenodd"/>
        </g>
      </g>
      <g id="bank-note-88" data-name="bank-note" transform="translate(480 320)">
        <g id="bank-note-89" data-name="bank-note">
          <path id="Combined-Shape-44" data-name="Combined-Shape" d="M33.895,32q.857-.313,1.741-.643L38.464,30.3C53.824,24.556,63.435,22.4,80,22.4c16.434,0,24.579,1.955,39.406,7.886,1.529.612,2.991,1.182,4.4,1.714h9.96c-4.017-1.169-8.222-2.706-13.172-4.686C105.421,21.245,96.9,19.2,80,19.2c-17,0-26.968,2.236-42.657,8.1l-2.826,1.058c-3.96,1.477-7.457,2.68-10.758,3.641Zm0-32C21.212,4.627,12.923,6.4,0,6.4H0V3.2A78.85,78.85,0,0,0,23.759,0H33.895Zm89.912,0c12.576,4.746,21,6.4,36.194,6.4V3.2c-10.948,0-18.217-.868-26.234-3.2h-9.96ZM0,22.4c13.5,0,21.949-1.936,35.636-7.043L38.464,14.3C53.824,8.556,63.435,6.4,80,6.4c16.434,0,24.579,1.955,39.406,7.886C134.579,20.355,143.1,22.4,160,22.4V19.2c-16.434,0-24.579-1.955-39.406-7.886C105.421,5.245,96.9,3.2,80,3.2c-17,0-26.968,2.236-42.657,8.1l-2.826,1.058C21.158,17.344,13.062,19.2,0,19.2v3.2Z" fill="#ffcf33" fill-rule="evenodd"/>
        </g>
      </g>
    </g>
    <g id="Waves-logo" transform="translate(135.519 90)">
      <rect id="Rectangle_4" data-name="Rectangle 4" width="200" height="160" fill="none"/>
      <path id="Path_68" data-name="Path 68" d="M24,129H36.381c12.381,0,12.381-26,24.762-26,3.912,0,6.588,9.086,8.9,22.009C74.76,151.424,77.436,194,85.9,194c12.381,0,12.381-130,24.762-130s12.354,130.03,24.762,130,12.381-91,24.762-91,12.381,26,24.762,26h12.381" transform="translate(-11 -49)" fill="none" stroke="#ffde71" stroke-linecap="round" stroke-linejoin="round" stroke-width="12"/>
      <path id="Path_67" data-name="Path 67" d="M24,129H36.381c12.381,0,12.381-26,24.762-26,3.912,0,6.588,9.086,8.9,22.009C74.76,151.424,77.436,194,85.9,194c12.381,0,12.381-130,24.762-130s12.354,130.03,24.762,130,12.381-91,24.762-91,12.381,26,24.762,26h12.381" transform="translate(-11 -49)" fill="none" stroke="#fff" stroke-linecap="round" stroke-linejoin="round" stroke-width="12"/>
    </g>
  </g>
</svg>
