<svg xmlns="http://www.w3.org/2000/svg" width="544" height="340" viewBox="0 0 544 340">
  <g id="img-crypto" transform="translate(36)">
    <rect id="Rectangle_2" data-name="Rectangle 2" width="544" height="340" rx="8" transform="translate(-36)" fill="#1c3ea8"/>
    <g id="Insignia" transform="translate(146 80)">
      <path id="Combined_Shape" data-name="Combined Shape" d="M90,180A90,90,0,0,1,26.361,26.361,90,90,0,0,1,153.64,153.64,89.409,89.409,0,0,1,90,180ZM81.22,28.357v9.9A46.987,46.987,0,0,0,55.9,51.648c-9.415,9.506-14.189,22.126-14.189,37.51s4.774,28,14.189,37.51A47.016,47.016,0,0,0,81.22,140.06v11.505h21.951v-11.6a47.744,47.744,0,0,0,20.932-9.5c8.749-6.941,16.016-28.3,16.089-28.519H118.274a24.318,24.318,0,0,1-9.271,14.4c-4.666,3.4-10.433,5.127-17.142,5.127-8.949,0-16.015-2.931-21-8.711s-7.516-13.717-7.516-23.6,2.529-17.825,7.516-23.6,12.054-8.711,21-8.711c6.713,0,12.481,1.725,17.142,5.127a24.31,24.31,0,0,1,9.271,14.4h21.917c-.069-.2-7.275-21.526-16.089-28.519a47.793,47.793,0,0,0-20.932-9.507v-9.99Z" transform="translate(0)" fill="#fff"/>
    </g>
  </g>
</svg>
