<svg width="360" height="240" viewBox="0 0 360 240" fill="none" xmlns="http://www.w3.org/2000/svg">
<path d="M118.235 92.9413C118.235 78.322 130.086 66.4707 144.706 66.4707H215.294C229.913 66.4707 241.765 78.322 241.765 92.9413V163.53C241.765 178.149 229.913 190 215.294 190H144.706C130.086 190 118.235 178.149 118.235 163.53V92.9413Z" fill="url(#paint0_linear)"/>
<path d="M127.059 92.9415C127.059 83.1953 134.959 75.2944 144.706 75.2944H215.294C225.04 75.2944 232.941 83.1953 232.941 92.9415V163.53C232.941 173.276 225.04 181.177 215.294 181.177H144.706C134.959 181.177 127.059 173.276 127.059 163.53V92.9415Z" fill="url(#paint1_linear)"/>
<path d="M166.8 113.9C166.8 123.04 159.39 130.45 150.25 130.45C141.11 130.45 133.7 123.04 133.7 113.9C133.7 104.76 141.11 97.3501 150.25 97.3501C159.39 97.3501 166.8 104.76 166.8 113.9Z" fill="url(#paint2_radial)"/>
<path fill-rule="evenodd" clip-rule="evenodd" d="M150.221 129.338C158.749 129.338 165.662 122.425 165.662 113.897C165.662 105.369 158.749 98.4555 150.221 98.4555C141.693 98.4555 134.779 105.369 134.779 113.897C134.779 122.425 141.693 129.338 150.221 129.338ZM150.221 130.441C159.358 130.441 166.765 123.034 166.765 113.897C166.765 104.76 159.358 97.3525 150.221 97.3525C141.084 97.3525 133.677 104.76 133.677 113.897C133.677 123.034 141.084 130.441 150.221 130.441Z" fill="url(#paint3_linear)"/>
<path d="M165.662 113.897C165.662 115.925 165.262 117.933 164.487 119.806C163.711 121.68 162.573 123.382 161.139 124.816C159.705 126.25 158.003 127.387 156.13 128.163C154.256 128.939 152.248 129.339 150.221 129.339C148.193 129.339 146.185 128.939 144.312 128.163C142.438 127.387 140.736 126.25 139.302 124.816C137.868 123.382 136.731 121.68 135.955 119.806C135.179 117.933 134.78 115.925 134.78 113.897L165.662 113.897Z" fill="#30849E"/>
<path d="M160.147 113.897C160.147 119.379 155.703 123.824 150.221 123.824C144.738 123.824 140.294 119.379 140.294 113.897C140.294 108.415 144.738 103.971 150.221 103.971C155.703 103.971 160.147 108.415 160.147 113.897Z" fill="#E8FFFF"/>
<path fill-rule="evenodd" clip-rule="evenodd" d="M161.25 113.897C161.25 119.988 156.312 124.926 150.221 124.926C144.129 124.926 139.191 119.988 139.191 113.897C139.191 107.806 144.129 102.868 150.221 102.868C156.312 102.868 161.25 107.806 161.25 113.897ZM150.221 123.824C155.703 123.824 160.147 119.379 160.147 113.897C160.147 108.415 155.703 103.971 150.221 103.971C144.739 103.971 140.294 108.415 140.294 113.897C140.294 119.379 144.739 123.824 150.221 123.824Z" fill="#0D7981"/>
<path d="M160.147 113.897C160.147 115.201 159.89 116.492 159.392 117.696C158.893 118.9 158.161 119.995 157.24 120.916C156.318 121.838 155.224 122.569 154.019 123.068C152.815 123.567 151.524 123.824 150.221 123.824C148.917 123.824 147.626 123.567 146.422 123.068C145.218 122.569 144.123 121.838 143.202 120.916C142.28 119.995 141.549 118.9 141.05 117.696C140.551 116.492 140.294 115.201 140.294 113.897L160.147 113.897Z" fill="#EBF0F3"/>
<path d="M226.8 113.9C226.8 123.04 219.39 130.45 210.25 130.45C201.11 130.45 193.7 123.04 193.7 113.9C193.7 104.76 201.11 97.3501 210.25 97.3501C219.39 97.3501 226.8 104.76 226.8 113.9Z" fill="url(#paint4_radial)"/>
<path fill-rule="evenodd" clip-rule="evenodd" d="M209.779 129.338C218.307 129.338 225.22 122.425 225.22 113.897C225.22 105.369 218.307 98.4555 209.779 98.4555C201.251 98.4555 194.338 105.369 194.338 113.897C194.338 122.425 201.251 129.338 209.779 129.338ZM209.779 130.441C218.916 130.441 226.323 123.034 226.323 113.897C226.323 104.76 218.916 97.3525 209.779 97.3525C200.642 97.3525 193.235 104.76 193.235 113.897C193.235 123.034 200.642 130.441 209.779 130.441Z" fill="url(#paint5_linear)"/>
<path d="M225.22 113.897C225.22 115.925 224.821 117.933 224.045 119.806C223.269 121.68 222.132 123.382 220.698 124.816C219.264 126.25 217.562 127.387 215.688 128.163C213.815 128.939 211.807 129.339 209.779 129.339C207.752 129.339 205.744 128.939 203.87 128.163C201.997 127.387 200.295 126.25 198.861 124.816C197.427 123.382 196.29 121.68 195.514 119.806C194.738 117.933 194.338 115.925 194.338 113.897L225.22 113.897Z" fill="#30849E"/>
<path d="M219.706 113.897C219.706 119.379 215.262 123.824 209.779 123.824C204.297 123.824 199.853 119.379 199.853 113.897C199.853 108.415 204.297 103.971 209.779 103.971C215.262 103.971 219.706 108.415 219.706 113.897Z" fill="#E8FFFF"/>
<path fill-rule="evenodd" clip-rule="evenodd" d="M220.809 113.897C220.809 119.988 215.871 124.926 209.779 124.926C203.688 124.926 198.75 119.988 198.75 113.897C198.75 107.806 203.688 102.868 209.779 102.868C215.871 102.868 220.809 107.806 220.809 113.897ZM209.779 123.824C215.262 123.824 219.706 119.379 219.706 113.897C219.706 108.415 215.262 103.971 209.779 103.971C204.297 103.971 199.853 108.415 199.853 113.897C199.853 119.379 204.297 123.824 209.779 123.824Z" fill="#0D7981"/>
<path d="M219.706 113.897C219.706 115.201 219.449 116.492 218.95 117.696C218.452 118.9 217.72 119.995 216.799 120.916C215.877 121.838 214.783 122.569 213.578 123.068C212.374 123.567 211.083 123.824 209.779 123.824C208.476 123.824 207.185 123.567 205.981 123.068C204.776 122.569 203.682 121.838 202.76 120.916C201.839 119.995 201.107 118.9 200.609 117.696C200.11 116.492 199.853 115.201 199.853 113.897L219.706 113.897Z" fill="#EBF0F3"/>
<path d="M179.015 114.743C179.423 113.935 180.576 113.935 180.984 114.743L192.564 137.665C192.934 138.398 192.401 139.265 191.579 139.265H168.42C167.598 139.265 167.065 138.398 167.436 137.665L179.015 114.743Z" fill="url(#paint6_linear)"/>
<path fill-rule="evenodd" clip-rule="evenodd" d="M180 117.686L170.213 137.059H189.787L180 117.686ZM180.984 114.743C180.576 113.935 179.423 113.935 179.015 114.743L167.436 137.665C167.065 138.398 167.598 139.265 168.42 139.265H191.579C192.401 139.265 192.934 138.398 192.564 137.665L180.984 114.743Z" fill="url(#paint7_linear)"/>
<path d="M241.765 109.485C241.765 107.658 243.246 106.176 245.074 106.176H247.28C249.107 106.176 250.588 107.658 250.588 109.485V144.779C250.588 146.607 249.107 148.088 247.28 148.088H245.074C243.246 148.088 241.765 146.607 241.765 144.779V109.485Z" fill="url(#paint8_linear)"/>
<path fill-rule="evenodd" clip-rule="evenodd" d="M247.28 107.279H245.074C243.855 107.279 242.868 108.267 242.868 109.485V144.779C242.868 145.997 243.855 146.985 245.074 146.985H247.28C248.498 146.985 249.485 145.997 249.485 144.779V109.485C249.485 108.267 248.498 107.279 247.28 107.279ZM245.074 106.176C243.246 106.176 241.765 107.658 241.765 109.485V144.779C241.765 146.607 243.246 148.088 245.074 148.088H247.28C249.107 148.088 250.588 146.607 250.588 144.779V109.485C250.588 107.658 249.107 106.176 247.28 106.176H245.074Z" fill="url(#paint9_linear)"/>
<path d="M109.412 109.485C109.412 107.658 110.893 106.176 112.72 106.176H114.926C116.754 106.176 118.235 107.658 118.235 109.485V144.779C118.235 146.607 116.754 148.088 114.926 148.088H112.72C110.893 148.088 109.412 146.607 109.412 144.779V109.485Z" fill="url(#paint10_linear)"/>
<path fill-rule="evenodd" clip-rule="evenodd" d="M114.926 107.279H112.72C111.502 107.279 110.515 108.267 110.515 109.485V144.779C110.515 145.997 111.502 146.985 112.72 146.985H114.926C116.145 146.985 117.132 145.997 117.132 144.779V109.485C117.132 108.267 116.145 107.279 114.926 107.279ZM112.72 106.176C110.893 106.176 109.412 107.658 109.412 109.485V144.779C109.412 146.607 110.893 148.088 112.72 148.088H114.926C116.754 148.088 118.235 146.607 118.235 144.779V109.485C118.235 107.658 116.754 106.176 114.926 106.176H112.72Z" fill="url(#paint11_linear)"/>
<path d="M151.323 154.706C151.323 151.051 154.286 148.088 157.941 148.088H202.059C205.713 148.088 208.676 151.051 208.676 154.706C208.676 158.361 205.713 161.323 202.059 161.323H157.941C154.286 161.323 151.323 158.361 151.323 154.706Z" fill="url(#paint12_linear)"/>
<path fill-rule="evenodd" clip-rule="evenodd" d="M157.941 146.985H202.058C206.322 146.985 209.779 150.442 209.779 154.706C209.779 158.97 206.322 162.426 202.058 162.426H157.941C153.677 162.426 150.22 158.97 150.22 154.706C150.22 150.442 153.677 146.985 157.941 146.985ZM157.941 148.088C154.286 148.088 151.323 151.051 151.323 154.706C151.323 158.361 154.286 161.323 157.941 161.323H202.058C205.713 161.323 208.676 158.361 208.676 154.706C208.676 151.051 205.713 148.088 202.058 148.088H157.941Z" fill="#090305"/>
<path d="M162.353 148.088H165.661V161.323H162.353V148.088Z" fill="#090305"/>
<path d="M179.448 148.088H182.757V161.323H179.448V148.088Z" fill="#090305"/>
<path d="M194.338 148.088H197.647V161.323H194.338V148.088Z" fill="#090305"/>
<path d="M193.235 53.2353C193.235 60.5449 187.31 66.4706 180 66.4706C172.691 66.4706 166.765 60.5449 166.765 53.2353C166.765 45.9256 172.691 40 180 40C187.31 40 193.235 45.9256 193.235 53.2353Z" fill="url(#paint13_radial)"/>
<path fill-rule="evenodd" clip-rule="evenodd" d="M180 64.2647C186.092 64.2647 191.03 59.3267 191.03 53.2353C191.03 47.1439 186.092 42.2059 180 42.2059C173.909 42.2059 168.971 47.1439 168.971 53.2353C168.971 59.3267 173.909 64.2647 180 64.2647ZM180 66.4706C187.31 66.4706 193.235 60.5449 193.235 53.2353C193.235 45.9256 187.31 40 180 40C172.691 40 166.765 45.9256 166.765 53.2353C166.765 60.5449 172.691 66.4706 180 66.4706Z" fill="#FB890C"/>
<path d="M196.544 66.4706C196.544 69.7794 188.824 75.2941 180 75.2941C171.177 75.2941 163.456 69.7794 163.456 66.4706L171.177 62.0588H188.824L196.544 66.4706Z" fill="url(#paint14_radial)"/>
<path fill-rule="evenodd" clip-rule="evenodd" d="M169.041 71.7635C171.931 73.7343 175.854 75.2942 180 75.2942C184.146 75.2942 188.069 73.7343 190.96 71.7635C192.402 70.7797 193.556 69.7151 194.336 68.732C195.147 67.7101 195.441 66.9216 195.441 66.4707H197.647C197.647 67.6742 196.976 68.9537 196.064 70.1033C195.121 71.2916 193.793 72.5017 192.202 73.586C189.027 75.7513 184.678 77.5001 180 77.5001C175.322 77.5001 170.974 75.7513 167.798 73.586C166.208 72.5017 164.879 71.2916 163.936 70.1033C163.024 68.9537 162.353 67.6742 162.353 66.4707H164.559C164.559 66.9216 164.853 67.7101 165.664 68.732C166.444 69.7151 167.598 70.7797 169.041 71.7635Z" fill="url(#paint15_linear)"/>
<defs>
<linearGradient id="paint0_linear" x1="180" y1="66.4707" x2="180" y2="190" gradientUnits="userSpaceOnUse">
<stop stop-color="#B4C9C2"/>
<stop offset="1" stop-color="#003542"/>
</linearGradient>
<linearGradient id="paint1_linear" x1="180" y1="75.2944" x2="180" y2="181.177" gradientUnits="userSpaceOnUse">
<stop stop-color="#DAF1F2"/>
<stop offset="1" stop-color="#278291"/>
</linearGradient>
<radialGradient id="paint2_radial" cx="0" cy="0" r="1" gradientUnits="userSpaceOnUse" gradientTransform="translate(150.25 113.9) rotate(90) scale(16.55)">
<stop stop-color="#00FBFD"/>
<stop offset="0.829713" stop-color="#00DFF7"/>
<stop offset="1" stop-color="#00BCEF"/>
</radialGradient>
<linearGradient id="paint3_linear" x1="150.221" y1="97.3525" x2="150.221" y2="130.441" gradientUnits="userSpaceOnUse">
<stop stop-color="#0A85BD"/>
<stop offset="0.498437" stop-color="#0A85BD"/>
<stop offset="0.503385" stop-color="#22637D"/>
<stop offset="1" stop-color="#22637D"/>
</linearGradient>
<radialGradient id="paint4_radial" cx="0" cy="0" r="1" gradientUnits="userSpaceOnUse" gradientTransform="translate(210.25 113.9) rotate(90) scale(16.55)">
<stop stop-color="#00FBFD"/>
<stop offset="0.829713" stop-color="#00DFF7"/>
<stop offset="1" stop-color="#00BCEF"/>
</radialGradient>
<linearGradient id="paint5_linear" x1="209.779" y1="97.3525" x2="209.779" y2="130.441" gradientUnits="userSpaceOnUse">
<stop stop-color="#0A85BD"/>
<stop offset="0.498437" stop-color="#0A85BD"/>
<stop offset="0.503385" stop-color="#22637D"/>
<stop offset="1" stop-color="#22637D"/>
</linearGradient>
<linearGradient id="paint6_linear" x1="180" y1="118.309" x2="180" y2="138.162" gradientUnits="userSpaceOnUse">
<stop stop-color="#FEB9B8"/>
<stop offset="0.347293" stop-color="#EF7E7D"/>
<stop offset="0.753114" stop-color="#B55655"/>
<stop offset="1" stop-color="#AE5150"/>
</linearGradient>
<linearGradient id="paint7_linear" x1="180" y1="112.794" x2="180" y2="139.265" gradientUnits="userSpaceOnUse">
<stop stop-color="#FF221F"/>
<stop offset="0.696981" stop-color="#FF1A17"/>
<stop offset="0.968935" stop-color="#643133"/>
<stop offset="1" stop-color="#643133"/>
</linearGradient>
<linearGradient id="paint8_linear" x1="246.177" y1="106.176" x2="246.177" y2="148.088" gradientUnits="userSpaceOnUse">
<stop stop-color="#FE0202"/>
<stop offset="0.143525" stop-color="#FE4A4A"/>
<stop offset="0.250755" stop-color="#FFAEAD"/>
<stop offset="0.379734" stop-color="#E79796"/>
<stop offset="0.518227" stop-color="#9D5150"/>
<stop offset="0.636786" stop-color="#6E1D1C"/>
<stop offset="1" stop-color="#651313"/>
</linearGradient>
<linearGradient id="paint9_linear" x1="246.177" y1="106.176" x2="246.177" y2="148.088" gradientUnits="userSpaceOnUse">
<stop stop-color="#FE0101"/>
<stop offset="0.515625" stop-color="#780A08"/>
<stop offset="1" stop-color="#651313"/>
</linearGradient>
<linearGradient id="paint10_linear" x1="113.823" y1="106.176" x2="113.823" y2="148.088" gradientUnits="userSpaceOnUse">
<stop stop-color="#FE0202"/>
<stop offset="0.143525" stop-color="#FE4A4A"/>
<stop offset="0.250755" stop-color="#FFAEAD"/>
<stop offset="0.379734" stop-color="#E79796"/>
<stop offset="0.518227" stop-color="#9D5150"/>
<stop offset="0.636786" stop-color="#6E1D1C"/>
<stop offset="1" stop-color="#651313"/>
</linearGradient>
<linearGradient id="paint11_linear" x1="113.823" y1="106.176" x2="113.823" y2="148.088" gradientUnits="userSpaceOnUse">
<stop stop-color="#FE0101"/>
<stop offset="0.515625" stop-color="#780A08"/>
<stop offset="1" stop-color="#651313"/>
</linearGradient>
<linearGradient id="paint12_linear" x1="180" y1="148.088" x2="180" y2="161.323" gradientUnits="userSpaceOnUse">
<stop stop-color="#615753"/>
<stop offset="0.270833" stop-color="#726D68"/>
<stop offset="0.609375" stop-color="#B9BFB7"/>
<stop offset="1" stop-color="#E3EDE2"/>
</linearGradient>
<radialGradient id="paint13_radial" cx="0" cy="0" r="1" gradientUnits="userSpaceOnUse" gradientTransform="translate(180 42.2059) rotate(90) scale(24.2647)">
<stop stop-color="#FFFFE5"/>
<stop offset="0.285188" stop-color="#FFFBBE"/>
<stop offset="0.428388" stop-color="#FFEF4C"/>
<stop offset="1" stop-color="#FB890C"/>
</radialGradient>
<radialGradient id="paint14_radial" cx="0" cy="0" r="1" gradientUnits="userSpaceOnUse" gradientTransform="translate(180 62.0588) rotate(90) scale(15.4412)">
<stop stop-color="#7B629A"/>
<stop offset="0.140837" stop-color="#9376B5"/>
<stop offset="0.244792" stop-color="#8B6EA9"/>
<stop offset="1" stop-color="#4E385D"/>
</radialGradient>
<linearGradient id="paint15_linear" x1="180" y1="62.0589" x2="180" y2="75.2942" gradientUnits="userSpaceOnUse">
<stop stop-color="#463253"/>
<stop offset="1" stop-color="#2D2236"/>
</linearGradient>
</defs>
</svg>
