<svg width="360" height="240" viewBox="0 0 360 240" fill="none" xmlns="http://www.w3.org/2000/svg">
<path d="M180.058 210C162.247 210 144.835 204.718 130.025 194.822C115.215 184.926 103.672 170.861 96.8554 154.405C90.0391 137.949 88.2556 119.841 91.7304 102.371C95.2053 84.9014 103.782 68.8545 116.377 56.2594C133.278 39.4219 156.168 29.9778 180.024 30C203.88 30.0222 226.753 39.5089 243.622 56.3779C260.491 73.2468 269.978 96.1195 270 119.976C270.022 143.832 260.578 166.722 243.741 183.623C235.397 192.012 225.473 198.663 214.542 203.19C203.611 207.718 191.89 210.033 180.058 210ZM171.273 58.2567V68.1633C161.638 69.8841 152.781 74.5685 145.936 81.5631C136.515 91.0754 131.737 103.704 131.737 119.098C131.737 134.492 136.515 147.117 145.936 156.633C152.782 163.626 161.639 168.311 171.273 170.034V181.546H193.238V169.939C200.89 168.523 208.08 165.26 214.184 160.432C222.939 153.487 230.211 132.114 230.284 131.894H208.351C207.108 137.664 203.811 142.785 199.074 146.304C194.405 149.706 188.634 151.434 181.921 151.434C172.966 151.434 165.895 148.501 160.907 142.718C155.918 136.934 153.386 128.992 153.386 119.102C153.386 109.212 155.916 101.265 160.907 95.4864C165.897 89.7075 172.969 86.7696 181.921 86.7696C188.638 86.7696 194.41 88.4957 199.074 91.9C203.812 95.4188 207.109 100.54 208.351 106.31H230.283C230.214 106.109 223.003 84.7693 214.183 77.7716C208.079 72.9435 200.889 69.6779 193.237 68.2583V58.2617L171.273 58.2567Z" fill="white"/>
</svg>
