<svg width="544" height="340" viewBox="0 0 544 340" fill="none" xmlns="http://www.w3.org/2000/svg">
<path d="M536 0H8C3.58172 0 0 3.58172 0 8V332C0 336.418 3.58172 340 8 340H536C540.418 340 544 336.418 544 332V8C544 3.58172 540.418 0 536 0Z" fill="url(#paint0_linear)"/>
<path fill-rule="evenodd" clip-rule="evenodd" d="M369.995 188.337C369.995 172.412 359.625 165.911 341.167 161.043C325.613 157.142 321.724 155.187 321.724 149.018V148.686C321.724 144.14 325.613 140.894 333.39 140.894C342.018 141.438 350.28 144.594 357.083 149.946L367.452 134.998C357.903 127.287 345.969 123.162 333.712 123.336C326.053 122.986 318.506 125.281 312.33 129.837C304.26 125.157 295.062 122.797 285.743 123.014C274.233 122.815 263.052 126.865 254.323 134.393V124.637H234.579V180.536L192.468 124.314H174V215.31H193.764V157.465L237.814 215.31H254.665V205.885C263.131 213.179 273.961 217.122 285.12 216.973C294.098 217.279 302.978 215.006 310.712 210.421C318.847 214.572 327.86 216.695 336.987 216.61C356.39 216.61 370.316 206.531 369.995 188.337ZM337.279 198.739C345.377 198.739 350.23 195.484 350.23 189.96C350.23 185.082 347.316 182.481 332.104 178.903C313.626 174.025 301.96 169.157 301.96 150.953V150.661C301.899 149.245 302.01 147.827 302.292 146.438C297.408 143.119 291.661 141.311 285.763 141.237C270.581 141.237 259.528 153.856 259.528 169.459V169.782C259.528 185.384 270.219 198.376 285.763 198.376C296.132 198.376 302.613 194.153 309.737 187.652V187.985L310.059 187.652C317.529 194.477 327.18 198.408 337.279 198.739Z" fill="white"/>
<defs>
<linearGradient id="paint0_linear" x1="0" y1="0" x2="544" y2="340" gradientUnits="userSpaceOnUse">
<stop stop-color="#FFAA00"/>
<stop offset="1" stop-color="#F1726C"/>
</linearGradient>
</defs>
</svg>
