<svg width="360" height="240" viewBox="0 0 360 240" fill="none" xmlns="http://www.w3.org/2000/svg">
<path d="M117.778 97.7778C117.778 83.0502 129.717 71.1111 144.444 71.1111H215.556C230.283 71.1111 242.222 83.0502 242.222 97.7777V168.889C242.222 183.616 230.283 195.556 215.556 195.556H144.444C129.717 195.556 117.778 183.616 117.778 168.889V97.7778Z" fill="url(#paint0_linear)"/>
<path d="M126.667 97.7778C126.667 87.9594 134.626 80 144.445 80H215.556C225.374 80 233.333 87.9594 233.333 97.7778V168.889C233.333 178.707 225.374 186.667 215.556 186.667H144.445C134.626 186.667 126.667 178.707 126.667 168.889V97.7778Z" fill="url(#paint1_linear)"/>
<path d="M166.669 118.889C166.669 128.094 159.212 135.556 150.013 135.556C140.815 135.556 133.358 128.094 133.358 118.889C133.358 109.684 140.815 102.222 150.013 102.222C159.212 102.222 166.669 109.684 166.669 118.889Z" fill="url(#paint2_radial)"/>
<path fill-rule="evenodd" clip-rule="evenodd" d="M149.983 134.433C158.566 134.433 165.523 127.471 165.523 118.883C165.523 110.295 158.566 103.333 149.983 103.333C141.401 103.333 134.443 110.295 134.443 118.883C134.443 127.471 141.401 134.433 149.983 134.433ZM149.983 135.544C159.179 135.544 166.633 128.085 166.633 118.883C166.633 109.682 159.179 102.223 149.983 102.223C140.788 102.223 133.333 109.682 133.333 118.883C133.333 128.085 140.788 135.544 149.983 135.544Z" fill="url(#paint3_linear)"/>
<path d="M165.523 118.886C165.523 120.928 165.121 122.95 164.34 124.836C163.559 126.723 162.415 128.437 160.972 129.881C159.529 131.325 157.815 132.471 155.93 133.252C154.045 134.034 152.024 134.436 149.983 134.436C147.942 134.436 145.922 134.034 144.036 133.252C142.151 132.471 140.438 131.325 138.995 129.881C137.552 128.437 136.407 126.723 135.626 124.836C134.845 122.95 134.443 120.928 134.443 118.886L165.523 118.886Z" fill="#30849E"/>
<path d="M159.973 118.886C159.973 124.407 155.5 128.882 149.983 128.882C144.466 128.882 139.993 124.407 139.993 118.886C139.993 113.365 144.466 108.889 149.983 108.889C155.5 108.889 159.973 113.365 159.973 118.886Z" fill="#E8FFFF"/>
<path fill-rule="evenodd" clip-rule="evenodd" d="M161.083 118.886C161.083 125.02 156.113 129.993 149.983 129.993C143.853 129.993 138.883 125.02 138.883 118.886C138.883 112.751 143.853 107.779 149.983 107.779C156.113 107.779 161.083 112.751 161.083 118.886ZM149.983 128.882C155.5 128.882 159.973 124.407 159.973 118.886C159.973 113.365 155.5 108.889 149.983 108.889C144.466 108.889 139.993 113.365 139.993 118.886C139.993 124.407 144.466 128.882 149.983 128.882Z" fill="#0D7981"/>
<path d="M159.973 118.886C159.973 120.198 159.715 121.498 159.213 122.711C158.711 123.924 157.975 125.026 157.047 125.954C156.119 126.883 155.018 127.619 153.806 128.121C152.594 128.624 151.295 128.882 149.983 128.882C148.671 128.882 147.372 128.624 146.16 128.121C144.948 127.619 143.847 126.883 142.919 125.954C141.992 125.026 141.256 123.924 140.754 122.711C140.252 121.498 139.993 120.198 139.993 118.886L159.973 118.886Z" fill="#EBF0F3"/>
<path d="M226.668 118.889C226.668 128.094 219.209 135.556 210.008 135.556C200.807 135.556 193.348 128.094 193.348 118.889C193.348 109.684 200.807 102.222 210.008 102.222C219.209 102.222 226.668 109.684 226.668 118.889Z" fill="url(#paint4_radial)"/>
<path fill-rule="evenodd" clip-rule="evenodd" d="M209.988 134.433C218.572 134.433 225.531 127.471 225.531 118.883C225.531 110.295 218.572 103.333 209.988 103.333C201.403 103.333 194.444 110.295 194.444 118.883C194.444 127.471 201.403 134.433 209.988 134.433ZM209.988 135.544C219.185 135.544 226.642 128.085 226.642 118.883C226.642 109.682 219.185 102.223 209.988 102.223C200.79 102.223 193.333 109.682 193.333 118.883C193.333 128.085 200.79 135.544 209.988 135.544Z" fill="url(#paint5_linear)"/>
<path d="M225.531 118.886C225.531 120.928 225.129 122.95 224.348 124.836C223.567 126.723 222.422 128.437 220.979 129.881C219.535 131.325 217.822 132.471 215.936 133.252C214.05 134.034 212.029 134.436 209.988 134.436C207.946 134.436 205.925 134.034 204.039 133.252C202.153 132.471 200.44 131.325 198.996 129.881C197.553 128.437 196.408 126.723 195.627 124.836C194.846 122.95 194.444 120.928 194.444 118.886L225.531 118.886Z" fill="#30849E"/>
<path d="M219.98 118.886C219.98 124.407 215.506 128.882 209.988 128.882C204.469 128.882 199.995 124.407 199.995 118.886C199.995 113.365 204.469 108.889 209.988 108.889C215.506 108.889 219.98 113.365 219.98 118.886Z" fill="#E8FFFF"/>
<path fill-rule="evenodd" clip-rule="evenodd" d="M221.09 118.886C221.09 125.02 216.119 129.993 209.987 129.993C203.856 129.993 198.885 125.02 198.885 118.886C198.885 112.751 203.856 107.779 209.987 107.779C216.119 107.779 221.09 112.751 221.09 118.886ZM209.987 128.882C215.506 128.882 219.98 124.407 219.98 118.886C219.98 113.365 215.506 108.889 209.987 108.889C204.469 108.889 199.995 113.365 199.995 118.886C199.995 124.407 204.469 128.882 209.987 128.882Z" fill="#0D7981"/>
<path d="M219.98 118.886C219.98 120.198 219.722 121.498 219.219 122.711C218.717 123.924 217.981 125.026 217.053 125.954C216.125 126.883 215.024 127.619 213.812 128.121C212.599 128.624 211.3 128.882 209.988 128.882C208.675 128.882 207.376 128.624 206.164 128.121C204.951 127.619 203.85 126.883 202.922 125.954C201.994 125.026 201.258 123.924 200.756 122.711C200.254 121.498 199.995 120.198 199.995 118.886L219.98 118.886Z" fill="#EBF0F3"/>
<path d="M179.015 119.494C179.423 118.687 180.576 118.687 180.984 119.494L192.564 142.416C192.934 143.149 192.401 144.016 191.579 144.016H168.42C167.598 144.016 167.065 143.149 167.436 142.416L179.015 119.494Z" fill="url(#paint6_linear)"/>
<path fill-rule="evenodd" clip-rule="evenodd" d="M180 122.438L170.213 141.81H189.786L180 122.438ZM180.984 119.494C180.576 118.687 179.423 118.687 179.015 119.494L167.436 142.416C167.065 143.149 167.598 144.016 168.42 144.016H191.579C192.401 144.016 192.934 143.149 192.564 142.416L180.984 119.494Z" fill="url(#paint7_linear)"/>
<path d="M242.222 114.444C242.222 112.603 243.715 111.111 245.556 111.111H247.778C249.619 111.111 251.111 112.603 251.111 114.444V150C251.111 151.841 249.619 153.333 247.778 153.333H245.556C243.715 153.333 242.222 151.841 242.222 150V114.444Z" fill="url(#paint8_linear)"/>
<path fill-rule="evenodd" clip-rule="evenodd" d="M247.778 112.222H245.556C244.328 112.222 243.333 113.217 243.333 114.444V150C243.333 151.227 244.328 152.222 245.556 152.222H247.778C249.005 152.222 250 151.227 250 150V114.444C250 113.217 249.005 112.222 247.778 112.222ZM245.556 111.111C243.715 111.111 242.222 112.603 242.222 114.444V150C242.222 151.841 243.715 153.333 245.556 153.333H247.778C249.619 153.333 251.111 151.841 251.111 150V114.444C251.111 112.603 249.619 111.111 247.778 111.111H245.556Z" fill="url(#paint9_linear)"/>
<path d="M108.889 114.444C108.889 112.603 110.381 111.111 112.222 111.111H114.444C116.285 111.111 117.778 112.603 117.778 114.444V150C117.778 151.841 116.285 153.333 114.444 153.333H112.222C110.381 153.333 108.889 151.841 108.889 150V114.444Z" fill="url(#paint10_linear)"/>
<path fill-rule="evenodd" clip-rule="evenodd" d="M114.444 112.222H112.222C110.995 112.222 110 113.217 110 114.444V150C110 151.227 110.995 152.222 112.222 152.222H114.444C115.672 152.222 116.667 151.227 116.667 150V114.444C116.667 113.217 115.672 112.222 114.444 112.222ZM112.222 111.111C110.381 111.111 108.889 112.603 108.889 114.444V150C108.889 151.841 110.381 153.333 112.222 153.333H114.444C116.285 153.333 117.778 151.841 117.778 150V114.444C117.778 112.603 116.285 111.111 114.444 111.111H112.222Z" fill="url(#paint11_linear)"/>
<path d="M152.222 161.111C152.222 157.429 155.092 154.444 158.632 154.444H201.367C204.908 154.444 207.778 157.429 207.778 161.111C207.778 164.793 204.908 167.778 201.367 167.778H158.632C155.092 167.778 152.222 164.793 152.222 161.111Z" fill="url(#paint12_linear)"/>
<path fill-rule="evenodd" clip-rule="evenodd" d="M159.034 153.333H200.966C205.399 153.333 208.889 156.871 208.889 161.111C208.889 165.351 205.399 168.889 200.966 168.889H159.034C154.601 168.889 151.111 165.351 151.111 161.111C151.111 156.871 154.601 153.333 159.034 153.333ZM159.034 154.889C155.56 154.889 152.744 157.675 152.744 161.111C152.744 164.547 155.56 167.333 159.034 167.333H200.966C204.44 167.333 207.256 164.547 207.256 161.111C207.256 157.675 204.44 154.889 200.966 154.889H159.034Z" fill="#090305"/>
<path d="M162.222 154.444H166.667V167.777H162.222V154.444Z" fill="#090305"/>
<path d="M177.778 154.444H182.222V167.777H177.778V154.444Z" fill="#090305"/>
<path d="M193.333 154.444H197.778V167.777H193.333V154.444Z" fill="#090305"/>
<path d="M193.333 57.7777C193.333 65.1415 187.364 71.111 180 71.111C172.636 71.111 166.667 65.1415 166.667 57.7777C166.667 50.4139 172.636 44.4443 180 44.4443C187.364 44.4443 193.333 50.4139 193.333 57.7777Z" fill="url(#paint13_radial)"/>
<path fill-rule="evenodd" clip-rule="evenodd" d="M180 68.709C186.091 68.709 191.029 63.771 191.029 57.6796C191.029 51.5883 186.091 46.6502 180 46.6502C173.909 46.6502 168.971 51.5883 168.971 57.6796C168.971 63.771 173.909 68.709 180 68.709ZM180 70.9149C187.31 70.9149 193.235 64.9893 193.235 57.6796C193.235 50.37 187.31 44.4443 180 44.4443C172.69 44.4443 166.765 50.37 166.765 57.6796C166.765 64.9893 172.69 70.9149 180 70.9149Z" fill="#FB890C"/>
<path d="M196.667 71.1109C196.667 74.4442 188.889 79.9997 180 79.9997C171.111 79.9997 163.333 74.4442 163.333 71.1109L171.111 66.6665C171.111 66.6665 176.524 67.1111 180 67.1111C183.476 67.1111 188.889 66.6665 188.889 66.6665L196.667 71.1109Z" fill="url(#paint14_radial)"/>
<path fill-rule="evenodd" clip-rule="evenodd" d="M168.959 76.443C171.871 78.4284 175.824 79.9999 180 79.9999C184.176 79.9999 188.129 78.4284 191.041 76.443C192.494 75.452 193.656 74.3795 194.442 73.3891C195.259 72.3597 195.556 71.5653 195.556 71.1111H197.778C197.778 72.3235 197.102 73.6125 196.183 74.7705C195.233 75.9676 193.895 77.1868 192.293 78.2791C189.093 80.4603 184.713 82.2221 180 82.2221C175.287 82.2221 170.907 80.4603 167.707 78.2791C166.105 77.1868 164.767 75.9676 163.817 74.7705C162.898 73.6125 162.222 72.3235 162.222 71.1111H164.444C164.444 71.5653 164.741 72.3597 165.558 73.3891C166.344 74.3795 167.506 75.452 168.959 76.443Z" fill="url(#paint15_linear)"/>
<defs>
<linearGradient id="paint0_linear" x1="180" y1="71.1111" x2="180" y2="195.556" gradientUnits="userSpaceOnUse">
<stop offset="0.323244" stop-color="#B8CEC7"/>
<stop offset="0.589645" stop-color="#446D72"/>
<stop offset="1" stop-color="#003542"/>
</linearGradient>
<linearGradient id="paint1_linear" x1="180" y1="80" x2="180" y2="186.667" gradientUnits="userSpaceOnUse">
<stop offset="0.293784" stop-color="#DAF1F2"/>
<stop offset="0.526886" stop-color="#82BBC3"/>
<stop offset="1" stop-color="#278291"/>
</linearGradient>
<radialGradient id="paint2_radial" cx="0" cy="0" r="1" gradientUnits="userSpaceOnUse" gradientTransform="translate(150.013 118.889) rotate(90) scale(16.6667 16.6558)">
<stop stop-color="#00FBFD"/>
<stop offset="0.829713" stop-color="#00DFF7"/>
<stop offset="1" stop-color="#00BCEF"/>
</radialGradient>
<linearGradient id="paint3_linear" x1="149.983" y1="102.223" x2="149.983" y2="135.544" gradientUnits="userSpaceOnUse">
<stop stop-color="#0A85BD"/>
<stop offset="0.498437" stop-color="#0A85BD"/>
<stop offset="0.503385" stop-color="#22637D"/>
<stop offset="1" stop-color="#22637D"/>
</linearGradient>
<radialGradient id="paint4_radial" cx="0" cy="0" r="1" gradientUnits="userSpaceOnUse" gradientTransform="translate(210.008 118.889) rotate(90) scale(16.6667 16.6601)">
<stop stop-color="#00FBFD"/>
<stop offset="0.829713" stop-color="#00DFF7"/>
<stop offset="1" stop-color="#00BCEF"/>
</radialGradient>
<linearGradient id="paint5_linear" x1="209.988" y1="102.223" x2="209.988" y2="135.544" gradientUnits="userSpaceOnUse">
<stop stop-color="#0A85BD"/>
<stop offset="0.498437" stop-color="#0A85BD"/>
<stop offset="0.503385" stop-color="#22637D"/>
<stop offset="1" stop-color="#22637D"/>
</linearGradient>
<linearGradient id="paint6_linear" x1="180" y1="123.06" x2="180" y2="142.913" gradientUnits="userSpaceOnUse">
<stop stop-color="#FEB9B8"/>
<stop offset="0.347293" stop-color="#EF7E7D"/>
<stop offset="0.753114" stop-color="#B55655"/>
<stop offset="1" stop-color="#AE5150"/>
</linearGradient>
<linearGradient id="paint7_linear" x1="180" y1="117.546" x2="180" y2="144.016" gradientUnits="userSpaceOnUse">
<stop stop-color="#FF221F"/>
<stop offset="0.696981" stop-color="#FF1A17"/>
<stop offset="0.968935" stop-color="#643133"/>
<stop offset="1" stop-color="#643133"/>
</linearGradient>
<linearGradient id="paint8_linear" x1="246.667" y1="111.111" x2="246.667" y2="153.333" gradientUnits="userSpaceOnUse">
<stop stop-color="#FE0202"/>
<stop offset="0.143525" stop-color="#FE4A4A"/>
<stop offset="0.250755" stop-color="#FFAEAD"/>
<stop offset="0.379734" stop-color="#E79796"/>
<stop offset="0.518227" stop-color="#9D5150"/>
<stop offset="0.636786" stop-color="#6E1D1C"/>
<stop offset="1" stop-color="#651313"/>
</linearGradient>
<linearGradient id="paint9_linear" x1="246.667" y1="111.111" x2="246.667" y2="153.333" gradientUnits="userSpaceOnUse">
<stop stop-color="#FE0101"/>
<stop offset="0.515625" stop-color="#780A08"/>
<stop offset="1" stop-color="#651313"/>
</linearGradient>
<linearGradient id="paint10_linear" x1="113.333" y1="111.111" x2="113.333" y2="153.333" gradientUnits="userSpaceOnUse">
<stop stop-color="#FE0202"/>
<stop offset="0.143525" stop-color="#FE4A4A"/>
<stop offset="0.250755" stop-color="#FFAEAD"/>
<stop offset="0.379734" stop-color="#E79796"/>
<stop offset="0.518227" stop-color="#9D5150"/>
<stop offset="0.636786" stop-color="#6E1D1C"/>
<stop offset="1" stop-color="#651313"/>
</linearGradient>
<linearGradient id="paint11_linear" x1="113.333" y1="111.111" x2="113.333" y2="153.333" gradientUnits="userSpaceOnUse">
<stop stop-color="#FE0101"/>
<stop offset="0.515625" stop-color="#780A08"/>
<stop offset="1" stop-color="#651313"/>
</linearGradient>
<linearGradient id="paint12_linear" x1="180" y1="154.444" x2="180" y2="167.778" gradientUnits="userSpaceOnUse">
<stop stop-color="#615753"/>
<stop offset="0.270833" stop-color="#726D68"/>
<stop offset="0.609375" stop-color="#B9BFB7"/>
<stop offset="1" stop-color="#E3EDE2"/>
</linearGradient>
<radialGradient id="paint13_radial" cx="0" cy="0" r="1" gradientUnits="userSpaceOnUse" gradientTransform="translate(180 46.6666) rotate(90) scale(24.4444)">
<stop stop-color="#FFFFE5"/>
<stop offset="0.215329" stop-color="#FFFBBE"/>
<stop offset="0.385382" stop-color="#FFEF4C"/>
<stop offset="0.606617" stop-color="#FC9815"/>
<stop offset="1" stop-color="#FB890C"/>
</radialGradient>
<radialGradient id="paint14_radial" cx="0" cy="0" r="1" gradientUnits="userSpaceOnUse" gradientTransform="translate(180 66.6665) rotate(90) scale(15.5554 15.5556)">
<stop offset="0.244792" stop-color="#8B6EA9"/>
<stop offset="0.80352" stop-color="#59426B"/>
<stop offset="1" stop-color="#4E385D"/>
</radialGradient>
<linearGradient id="paint15_linear" x1="180" y1="66.6667" x2="180" y2="79.9999" gradientUnits="userSpaceOnUse">
<stop stop-color="#463253"/>
<stop offset="1" stop-color="#2D2236"/>
</linearGradient>
</defs>
</svg>
