<svg width="360" height="240" viewBox="0 0 360 240" fill="none" xmlns="http://www.w3.org/2000/svg">
<path d="M27.9975 159.73L21.5738 153.742C21.1403 153.696 20.739 153.491 20.4483 153.167C20.1575 152.842 19.9979 152.421 20 151.986V138.182C19.9987 137.881 20.0748 137.585 20.2209 137.321L20.7106 136.438C26.1546 126.606 30.7475 118.326 34.7622 111.125C31.252 111.57 27.6332 112.061 24.8737 112.429L22.3674 112.767H22.2482H22.1293C21.8154 112.765 21.5071 112.681 21.235 112.525C20.9685 112.37 20.7477 112.147 20.5943 111.88C20.441 111.612 20.3606 111.309 20.3614 111.001V93.1321C20.3648 92.7053 20.522 92.2941 20.8041 91.9735C21.0862 91.6529 21.4743 91.4444 21.8976 91.3863L23.8112 91.1281C35.2612 89.5961 46.9628 88.1871 58.6056 86.9331L59.0685 86.8851L59.2253 86.857L60.4068 86.7379L61.0318 86.6684H61.2085C72.6117 85.5347 83.6334 84.5574 93.97 83.7593L96.3427 83.5762H96.4766C96.8089 83.5763 97.134 83.672 97.4133 83.8517C100.799 83.6231 103.959 83.4238 107.074 83.2433C107.373 82.9767 107.753 82.8189 108.153 82.7955L109.694 82.7031C114.884 82.401 120.474 82.1016 126.309 81.8101L128.035 81.7285H128.105C128.512 81.7318 128.905 81.8733 129.221 82.1297C133.185 81.9733 136.763 81.8436 140.16 81.7367C140.477 81.4091 140.908 81.2175 141.364 81.2021L143.521 81.1365C148.914 80.9627 151.551 80.8984 156.75 80.7928L158.998 80.75H159.009C159.471 80.7494 159.916 80.9242 160.255 81.2393C164.336 81.1684 168.364 81.1204 172.228 81.095C172.389 80.928 172.581 80.7948 172.794 80.703C173.007 80.6112 173.236 80.5628 173.468 80.5604H180.655C183.273 80.5604 185.534 80.5601 188.898 80.5989H191.086C191.535 80.6008 191.966 80.7745 192.291 81.0843C197.748 81.1217 203.23 81.1965 208.583 81.3088C211.313 80.4483 214.158 80.007 217.02 80C217.459 80 217.914 80 218.358 80.0268C221.458 80.1855 224.517 80.8009 227.437 81.8529L227.561 81.8956C229.523 82.6026 231.409 83.5048 233.19 84.5883C236.477 86.658 239.361 89.3054 241.703 92.4023C242.227 91.7807 242.797 91.1699 243.396 90.587C247.08 87.0273 251.64 84.5026 256.615 83.2688C258.8 82.729 261.043 82.4538 263.294 82.4492C264.089 82.4492 264.885 82.4842 265.66 82.5523C268.6 82.8079 271.492 83.4566 274.26 84.4813C279.402 86.364 283.965 89.5508 287.501 93.7284C288.688 95.1375 289.769 96.6312 290.737 98.1976V87.7768C290.737 87.3159 290.921 86.8739 291.247 86.548C291.573 86.222 292.016 86.0388 292.477 86.0388C292.519 86.0388 292.559 86.0388 292.599 86.0388C292.639 86.0388 292.679 86.0388 292.721 86.0388L295.852 86.3502L296.886 86.4533L298.455 86.6149L299.158 86.687C300.201 86.7939 301.281 86.9036 302.488 87.0346L305.34 87.3407L306.418 87.4547C306.681 87.4902 306.933 87.5836 307.156 87.7285C307.418 87.8939 307.636 88.1188 307.793 88.3848L308.299 89.1979C311.922 95.0721 315.526 100.941 319.034 106.641V90.9316C319.034 90.586 319.137 90.2481 319.329 89.9606C319.521 89.6732 319.794 89.449 320.113 89.3167C320.328 89.2204 320.561 89.1709 320.797 89.1711C320.837 89.1711 320.876 89.1711 320.916 89.1711C320.956 89.1711 320.995 89.1711 321.034 89.1711L323.503 89.4786C328.871 90.147 331.473 90.4921 336.571 91.1859L338.474 91.4437C338.896 91.5058 339.282 91.717 339.562 92.0391C339.842 92.3611 339.997 92.7726 339.999 93.199V151.978C340.006 152.247 339.951 152.514 339.838 152.758C339.705 153.029 339.506 153.262 339.259 153.435C339.013 153.608 338.726 153.716 338.426 153.749L332.014 159.722C331.69 160.031 331.258 160.203 330.81 160.202H330.643L328.077 159.96L327.838 159.937H327.826C255.159 153.208 218.677 149.829 181.743 149.829C144.636 149.829 106.992 153.218 31.9932 159.969H31.9825L29.3703 160.209H29.2096C28.7596 160.207 28.327 160.036 27.9975 159.73ZM42.049 106.23C36.0269 117.009 29.9513 127.951 23.9827 138.749V149.473C35.7807 147.889 47.7765 146.439 59.6347 145.164V131.733C53.5778 132.367 47.2909 133.07 40.9503 133.844C46.9643 123.073 53.0546 112.22 59.0473 101.585V90.8716C47.4996 92.1149 35.8247 93.524 24.3506 95.0614V108.493C30.188 107.707 36.1446 106.946 42.0529 106.22L42.049 106.23ZM307.824 118.649C313.904 128.513 319.987 138.435 325.908 148.135C329.427 148.586 331.436 148.855 334.473 149.261L336.004 149.466V95.1162C330.918 94.4224 328.362 94.0866 322.978 93.4128V120.756C316.996 110.969 310.91 101.063 304.885 91.3129C300.927 90.873 298.927 90.6603 294.696 90.2351V144.593C300.147 145.135 302.726 145.407 307.819 145.976V118.644L307.824 118.649ZM61.6114 90.6108V144.963C72.2517 143.893 83.054 142.935 93.7171 142.106C98.3408 141.753 103.077 141.428 107.793 141.14C108.184 139.736 108.489 138.639 108.782 137.581L108.885 137.211C109.225 135.993 109.561 134.78 110.013 133.158C115.964 132.801 121.862 132.49 127.544 132.222L130.013 139.935C135.568 139.713 138.271 139.619 143.576 139.45C138.089 122.105 132.362 104.04 126.53 85.7539C121.225 86.0119 115.646 86.3114 109.953 86.6442C104.58 104.78 99.5772 121.701 94.6578 138.371V128.985C87.9665 129.486 81.2754 130.039 74.7488 130.633V122.64C80.8405 122.085 86.793 121.588 92.4524 121.16V108.347C86.6391 108.787 80.6759 109.283 74.7488 109.827V102.289C81.1911 101.702 87.7647 101.158 94.2873 100.672V87.7047C83.3525 88.571 72.3615 89.5466 61.6101 90.6108H61.6114ZM246.175 93.4504C241.059 98.7349 238.243 105.826 238.341 113.177C238.271 120.775 241.068 128.12 246.175 133.749C251.184 139.14 258.001 142.503 265.33 143.201C265.922 143.241 266.534 143.26 267.132 143.26C273.556 143.366 279.77 140.974 284.462 136.589C289.518 131.405 292.327 124.441 292.279 117.204C292.109 109.56 289.354 102.198 284.462 96.318C279.622 90.6647 272.746 87.1454 265.325 86.5228C264.683 86.472 264.03 86.4464 263.386 86.4464C256.951 86.4326 250.768 88.9484 246.174 93.4504H246.175ZM198.918 91.6027C193.846 97.0612 191.109 104.283 191.29 111.728C191.141 119.23 193.871 126.504 198.918 132.06C203.97 137.326 210.878 140.417 218.175 140.675C218.46 140.685 218.745 140.69 219.018 140.69C223.245 140.686 227.408 139.657 231.15 137.693C235.038 135.634 238.264 132.52 240.455 128.708C237.042 126.445 233.312 123.979 229.054 121.169C228.096 123.073 226.562 124.627 224.671 125.612C222.852 126.565 220.83 127.063 218.776 127.065C218.57 127.065 218.363 127.065 218.158 127.05C216.282 127.057 214.425 126.671 212.707 125.919C210.988 125.167 209.446 124.064 208.18 122.681C205.599 119.7 204.25 115.85 204.407 111.911C204.309 109.985 204.591 108.059 205.239 106.242C205.886 104.426 206.885 102.754 208.18 101.323C209.392 100.071 210.855 99.0872 212.473 98.4359C214.091 97.7846 215.827 97.4803 217.57 97.5426C217.762 97.5426 217.96 97.5427 218.158 97.552C220.458 97.6036 222.704 98.2591 224.67 99.4529C226.55 100.581 228.07 102.219 229.054 104.177C233.717 101.549 235.956 100.301 240.455 97.8047C238.213 93.7954 235.001 90.4112 231.112 87.9612C227.203 85.566 222.754 84.1919 218.174 83.9653C217.794 83.9465 217.408 83.9372 217.032 83.9372C210.225 84.0395 203.725 86.7893 198.915 91.6027H198.918ZM143.648 85.0962V139.432C153.953 139.141 164.364 138.96 174.576 138.898V125.45C168.739 125.478 162.768 125.553 156.83 125.672V84.7512C151.502 84.8675 148.85 84.9318 143.646 85.0962H143.648ZM188.863 138.91V84.5413H175.683V138.915C178.317 138.894 180.22 138.886 182.046 138.886C184.09 138.88 186.092 138.891 188.861 138.91H188.863ZM261.833 134.498L269.784 134.916L265.568 139.247L261.833 134.498ZM266.526 129.652C266.134 129.652 265.732 129.637 265.331 129.608C263.437 129.499 261.585 129.014 259.882 128.18C258.176 127.35 256.654 126.188 255.405 124.762C252.751 121.779 251.332 117.899 251.437 113.91C251.354 112.005 251.664 110.104 252.347 108.324C253.031 106.544 254.073 104.923 255.41 103.562C256.556 102.421 257.921 101.523 259.422 100.92C260.923 100.317 262.53 100.023 264.148 100.054C264.536 100.054 264.935 100.069 265.334 100.099C267.233 100.219 269.089 100.718 270.792 101.565C272.496 102.413 274.013 103.592 275.254 105.033C277.908 108.047 279.322 111.952 279.211 115.965C279.308 117.858 279.006 119.75 278.323 121.519C277.641 123.287 276.594 124.893 275.25 126.231C274.093 127.347 272.727 128.224 271.23 128.811C269.733 129.398 268.134 129.684 266.526 129.652ZM113.405 120.974C115.344 113.918 117.027 107.784 118.548 102.223C120.355 108.498 122.112 114.626 123.768 120.438C119.639 120.626 117.611 120.731 113.403 120.973L113.405 120.974ZM283.128 112.25L287.878 115.982L283.543 120.188L283.128 112.25ZM243.013 114.414L247.417 109.767L247.697 118.702L243.013 114.414ZM261.337 96.4998L265.548 92.1735L269.284 96.9182L261.337 96.4998Z" fill="white"/>
</svg>
