<svg width="544" height="340" viewBox="0 0 544 340" fill="none" xmlns="http://www.w3.org/2000/svg">
<mask id="mask0" mask-type="alpha" maskUnits="userSpaceOnUse" x="0" y="0" width="544" height="340">
<path d="M536 0H8C3.58172 0 0 3.58172 0 8V332C0 336.418 3.58172 340 8 340H536C540.418 340 544 336.418 544 332V8C544 3.58172 540.418 0 536 0Z" fill="#0F2AFF"/>
</mask>
<g mask="url(#mask0)">
<g opacity="0.4">
<path d="M1094.75 378L-329 -444L-569 -28.3078L854.746 793.692L1094.75 378Z" fill="#EEEEEE"/>
<path d="M-541.679 -35.6283L-287.038 -396.679L1067.43 385.321L999.425 503.1L878.574 456.421L797.828 428.277L692.297 395.062L603.551 380.774L510.805 373.415L422.987 373.52L327.705 378.554L233.887 389.051L228.031 367.195L178.854 380.372L-541.679 -35.6283Z" stroke="#67717A" stroke-width="2"/>
<path d="M-39.3848 254.372L-35.3848 247.444L-42.7053 220.123L-264.408 92.123L-291.728 99.4435L-295.728 106.372L-313.049 96.3717L-309.049 89.4435L-316.369 62.123L-458.397 -19.877L-465.718 -47.1975L-281.718 -365.895L-254.397 -373.215L417.638 14.7847L409.638 28.6411L187.936 -99.3589L135.936 -9.29229L336.854 106.708L352.174 120.172L365.495 137.1L376.815 157.492L382.672 179.349L385.064 199.205L381.992 220.526L375.456 239.846L351.456 281.415L510.413 350.095L517.877 345.167L559.628 216.851L603.628 140.641L625.484 134.785L1037.71 372.785L1043.57 394.641L1001.57 467.387L985.177 471.78L929.751 439.78L923.751 450.172L907.359 454.564L876.182 436.564L874.718 431.1L753.474 361.1L737.082 365.492L702.441 345.492L694.441 359.349L672.584 365.205L662.192 359.205L530.876 341.009L526.269 354.631L511.341 364.487L338.528 287.808L68.146 284.123L12.7204 252.123L-14.6001 259.444L-18.6001 266.372L-39.3848 254.372ZM70.6819 271.731L341.064 275.415L363.064 237.31L369.6 217.99L372.672 196.669L370.279 176.813L365.887 160.421L359.495 147.492L346.174 130.564L330.854 117.1L129.936 1.10002L9.93575 208.946L18.7204 241.731L70.6819 271.731ZM-36.7053 209.731L-3.92065 200.946L174.079 -107.359L-89.1924 -259.359L-267.192 48.9461L-258.408 81.7307L-36.7053 209.731ZM-310.369 51.7307L-277.585 42.9461L-97.5847 -268.823L-253.469 -358.823L-275.326 -352.967L-451.326 -48.1257L-445.469 -26.2693L-310.369 51.7307ZM532.826 332.273L662.728 350.277L673.12 356.277L689.513 351.885L701.513 331.1L559.484 249.1L532.826 332.273ZM713.369 342.564L737.618 356.564L748.546 353.636L756.546 339.78L753.618 328.851L729.369 314.851L718.441 317.78L710.441 331.636L713.369 342.564ZM878.718 424.172L880.182 429.636L907.895 445.636L913.359 444.172L919.359 433.78L917.895 428.315L890.182 412.315L884.718 413.78L882.718 417.244L761.474 347.244L757.474 354.172L878.718 424.172ZM705.513 324.172L713.513 310.315L729.905 305.923L761.082 323.923L765.474 340.315L883.253 408.315L933.253 321.713L624.948 143.713L608.556 148.105L568.556 217.387L560.02 240.172L705.513 324.172ZM987.712 459.387L998.641 456.459L1034.64 394.105L1030.25 377.713L940.182 325.713L894.182 405.387L987.712 459.387Z" fill="#424242"/>
<path d="M131.4 6.56396L15.3998 207.482L25.6486 245.731L70.6819 271.731L332.136 274.879L358.136 229.846L364.672 210.525L365.743 192.669L363.351 172.813L358.959 156.42L349.102 141.492L340.71 132.028L325.39 118.564L131.4 6.56396Z" fill="#89EBAD"/>
<path d="M352.384 295.808L392.49 314.344L362.49 366.305L324.384 344.305L352.384 295.808Z" fill="#89EBAD"/>
<path d="M390.92 221.062L405.313 220.133L418.49 269.31L515.484 325.31L510.948 341.167L491.628 334.631L362.384 278.487L382.384 243.846L390.92 221.062Z" fill="#89EBAD"/>
<path d="M564.413 256.564L544.269 323.454L666.728 343.349L668.192 348.813L671.656 350.813L682.584 347.884L688.584 337.492L685.656 326.564L564.413 256.564Z" fill="#89EBAD"/>
<path d="M142.5 299.338L145.284 342.515L209.782 342.802L206.997 299.625L142.5 299.338Z" fill="#B8C2CC"/>
<path d="M131.323 246.697L132.251 261.09L169.964 259.769L169.036 245.377L131.323 246.697Z" fill="#B8C2CC"/>
<path d="M164.099 30.0617C163.286 31.1705 152.099 50.8463 152.099 50.8463L190.146 72.8128L202.146 52.0281L164.099 30.0617Z" fill="#B8C2CC"/>
<path d="M-74.7719 67.664L-2.02578 109.664L-18.1309 49.5588L-52.7719 29.5588L-74.7719 67.664Z" fill="#B8C2CC"/>
<path d="M-116.38 163.731L-120.772 147.338L-78.7719 74.5923L21.687 132.592L-14.313 194.946L-47.0976 203.731L-116.38 163.731Z" fill="#B8C2CC"/>
<path d="M-24.7719 -18.9385L-42.7719 12.2384L-32.3796 18.2384L-38.3796 28.6307L-10.6668 44.6307L5.43832 104.736L43.687 94.4871L29.046 39.8461L35.046 29.4538L89.687 14.8128L79.4383 -23.4359L19.3332 -7.3308L-8.37961 -23.3308L-14.3796 -12.9385L-24.7719 -18.9385Z" fill="#67717A"/>
<path d="M255.715 55.2436L297.715 -17.5026L190.328 -79.5026L174.328 -51.7898L170.864 -53.7898L158.864 -33.0051L162.328 -31.0051L148.328 -6.75643L255.715 55.2436Z" fill="#67717A"/>
<path d="M308.107 -11.5027L342.748 8.49731L312.748 60.4588L278.107 40.4588L308.107 -11.5027Z" fill="#67717A"/>
<path d="M363.533 20.4973L345.533 51.6742L335.141 45.6742L323.141 66.4588L382.031 100.459L394.031 79.6742L383.638 73.6742L401.638 42.4973L363.533 20.4973Z" fill="#67717A"/>
<path d="M470.355 283.476L483.131 237.349L460.346 228.813L454.346 239.205L435.954 247.061L415.848 193.884L397.456 201.741L389.6 183.349L407.992 175.492L385.887 125.779L409.743 116.459L416.672 120.459L432.672 92.746L408.423 78.746L424.423 51.0332L542.202 119.033L553.523 139.426L506.7 292.525L470.355 283.476ZM434.384 153.779L450.097 190.564L437.169 196.956L446.489 220.813L459.418 214.42L485.666 224.956L509.81 151.138L505.418 134.746L443.064 98.746L425.064 129.923L408.672 134.315L417.992 158.172L434.384 153.779Z" fill="#67717A"/>
<path d="M356.777 312.2L340.777 339.913L344.241 341.913L342.241 345.377L352.633 351.377L354.72 347.963L358.097 349.913L374.097 322.2L356.777 312.2Z" fill="#67717A"/>
<path d="M-22.7719 -22.4026L-40.7719 8.77431L-30.3796 14.7743L-36.3796 25.1666L-8.66679 41.1666L7.43832 101.272L45.687 91.023L31.046 36.382L37.046 25.9897L91.687 11.3487L81.4383 -26.9L21.3332 -10.7949L-6.37961 -26.7949L-12.3796 -16.4026L-22.7719 -22.4026Z" fill="#818D99"/>
<path d="M257.715 51.7795L299.715 -20.9667L192.328 -82.9667L176.328 -55.2539L172.864 -57.2539L160.864 -36.4693L164.328 -34.4693L150.328 -10.2205L257.715 51.7795Z" fill="#818D99"/>
<path d="M310.107 -14.9668L344.748 5.0332L314.748 56.9947L280.107 36.9947L310.107 -14.9668Z" fill="#818D99"/>
<path d="M365.533 17.0332L347.533 48.2101L337.141 42.2101L325.141 62.9947L384.031 96.9947L396.031 76.2101L385.638 70.2101L403.638 39.0332L365.533 17.0332Z" fill="#818D99"/>
<path d="M472.355 280.012L485.131 233.884L462.346 225.349L456.346 235.741L437.954 243.597L417.848 190.42L399.456 198.277L391.6 179.884L409.992 172.028L387.887 122.315L411.743 112.995L418.672 116.995L434.672 89.2819L410.423 75.2819L426.423 47.5691L544.202 115.569L555.523 135.961L508.7 289.061L472.355 280.012ZM436.384 150.315L452.097 187.1L439.169 193.492L448.489 217.349L461.418 210.956L487.666 221.492L511.81 147.674L507.418 131.282L445.064 95.2819L427.064 126.459L410.672 130.851L419.992 154.708L436.384 150.315Z" fill="#818D99"/>
<path d="M358.777 308.736L342.777 336.449L346.241 338.449L344.241 341.913L354.633 347.913L356.72 344.499L360.097 346.449L376.097 318.736L358.777 308.736Z" fill="#818D99"/>
</g>
<g style="mix-blend-mode:multiply">
<path d="M536 0H8C3.58172 0 0 3.58172 0 8V332C0 336.418 3.58172 340 8 340H536C540.418 340 544 336.418 544 332V8C544 3.58172 540.418 0 536 0Z" fill="#0F2AFF"/>
</g>
</g>
<path d="M271.908 231.25C302.974 231.25 328.158 206.066 328.158 175C328.158 143.934 302.974 118.75 271.908 118.75C240.842 118.75 215.658 143.934 215.658 175C215.658 206.066 240.842 231.25 271.908 231.25Z" stroke="white" stroke-width="10" stroke-linecap="round" stroke-linejoin="round"/>
<path d="M248.058 198.85L259.983 163.077L295.758 151.15L283.833 186.925L248.058 198.85ZM271.909 163C268.727 163.003 265.677 164.269 263.427 166.518C261.178 168.768 259.912 171.818 259.909 175C259.912 178.181 261.178 181.232 263.427 183.481C265.677 185.731 268.727 186.996 271.909 187C275.09 186.996 278.14 185.73 280.39 183.481C282.639 181.231 283.905 178.181 283.909 175C283.905 171.818 282.639 168.768 280.39 166.519C278.14 164.269 275.09 163.004 271.908 163H271.909Z" fill="white" stroke="white" stroke-width="10" stroke-linecap="round" stroke-linejoin="round"/>
<path d="M108.533 173.507L165.283 146.625L138.401 203.375L132.428 179.48L108.533 173.507Z" stroke="#B8C2CC" stroke-width="6" stroke-linecap="round" stroke-linejoin="round"/>
<path d="M419.635 197.818V192.727C419.635 190.026 418.562 187.437 416.653 185.527C414.743 183.618 412.153 182.545 409.453 182.545H389.09C386.39 182.545 383.8 183.618 381.89 185.527C379.981 187.437 378.908 190.026 378.908 192.727V197.818" stroke="#B8C2CC" stroke-width="6" stroke-linecap="round" stroke-linejoin="round"/>
<path d="M399.272 172.364C404.895 172.364 409.454 167.805 409.454 162.182C409.454 156.559 404.895 152 399.272 152C393.649 152 389.09 156.559 389.09 162.182C389.09 167.805 393.649 172.364 399.272 172.364Z" stroke="#B8C2CC" stroke-width="6" stroke-linecap="round" stroke-linejoin="round"/>
<path d="M434.908 197.818V192.727C434.906 190.471 434.155 188.28 432.773 186.497C431.391 184.714 429.456 183.44 427.272 182.876" stroke="#B8C2CC" stroke-width="6" stroke-linecap="round" stroke-linejoin="round"/>
<path d="M417.09 152.331C419.28 152.892 421.221 154.166 422.607 155.952C423.993 157.738 424.745 159.934 424.745 162.195C424.745 164.455 423.993 166.652 422.607 168.437C421.221 170.223 419.28 171.497 417.09 172.058" stroke="#B8C2CC" stroke-width="6" stroke-linecap="round" stroke-linejoin="round"/>
</svg>
