<svg width="360" height="240" viewBox="0 0 360 240" fill="none" xmlns="http://www.w3.org/2000/svg">
<path d="M133.677 99.7058C133.677 88.7414 142.565 79.8529 153.529 79.8529H206.471C217.435 79.8529 226.324 88.7414 226.324 99.7058V152.647C226.324 163.611 217.435 172.5 206.471 172.5H153.529C142.565 172.5 133.677 163.611 133.677 152.647V99.7058Z" fill="url(#paint0_linear)"/>
<path d="M140.294 99.7059C140.294 92.3962 146.22 86.4706 153.529 86.4706H206.471C213.78 86.4706 219.706 92.3962 219.706 99.7059V152.647C219.706 159.957 213.78 165.882 206.471 165.882H153.529C146.22 165.882 140.294 159.957 140.294 152.647V99.7059Z" fill="url(#paint1_linear)"/>
<path d="M170.1 115.425C170.1 122.28 164.543 127.837 157.688 127.837C150.832 127.837 145.275 122.28 145.275 115.425C145.275 108.57 150.832 103.012 157.688 103.012C164.543 103.012 170.1 108.57 170.1 115.425Z" fill="url(#paint2_radial)"/>
<path fill-rule="evenodd" clip-rule="evenodd" d="M157.666 127.004C164.062 127.004 169.247 121.819 169.247 115.423C169.247 109.027 164.062 103.842 157.666 103.842C151.27 103.842 146.085 109.027 146.085 115.423C146.085 121.819 151.27 127.004 157.666 127.004ZM157.666 127.831C164.518 127.831 170.074 122.276 170.074 115.423C170.074 108.57 164.518 103.015 157.666 103.015C150.813 103.015 145.258 108.57 145.258 115.423C145.258 122.276 150.813 127.831 157.666 127.831Z" fill="url(#paint3_linear)"/>
<path d="M169.246 115.423C169.246 116.944 168.947 118.449 168.365 119.855C167.783 121.26 166.93 122.536 165.855 123.612C164.779 124.687 163.502 125.54 162.097 126.122C160.692 126.704 159.186 127.004 157.666 127.004C156.145 127.004 154.639 126.704 153.234 126.122C151.829 125.54 150.552 124.687 149.477 123.612C148.401 122.536 147.548 121.26 146.966 119.855C146.384 118.449 146.085 116.944 146.085 115.423L169.246 115.423Z" fill="#30849E"/>
<path d="M165.111 115.423C165.111 119.534 161.777 122.868 157.666 122.868C153.554 122.868 150.221 119.534 150.221 115.423C150.221 111.311 153.554 107.978 157.666 107.978C161.777 107.978 165.111 111.311 165.111 115.423Z" fill="#E8FFFF"/>
<path fill-rule="evenodd" clip-rule="evenodd" d="M165.938 115.423C165.938 119.991 162.234 123.695 157.666 123.695C153.097 123.695 149.394 119.991 149.394 115.423C149.394 110.854 153.097 107.151 157.666 107.151C162.234 107.151 165.938 110.854 165.938 115.423ZM157.666 122.868C161.778 122.868 165.111 119.534 165.111 115.423C165.111 111.311 161.778 107.978 157.666 107.978C153.554 107.978 150.221 111.311 150.221 115.423C150.221 119.534 153.554 122.868 157.666 122.868Z" fill="#0D7981"/>
<path d="M165.111 115.423C165.111 116.4 164.918 117.369 164.544 118.272C164.17 119.175 163.621 119.996 162.93 120.687C162.239 121.378 161.418 121.927 160.515 122.301C159.612 122.675 158.643 122.868 157.666 122.868C156.688 122.868 155.72 122.675 154.817 122.301C153.914 121.927 153.093 121.378 152.401 120.687C151.71 119.996 151.162 119.175 150.788 118.272C150.414 117.369 150.221 116.4 150.221 115.423L165.111 115.423Z" fill="#EBF0F3"/>
<path d="M215.1 115.425C215.1 122.28 209.543 127.837 202.688 127.837C195.832 127.837 190.275 122.28 190.275 115.425C190.275 108.57 195.832 103.012 202.688 103.012C209.543 103.012 215.1 108.57 215.1 115.425Z" fill="url(#paint4_radial)"/>
<path fill-rule="evenodd" clip-rule="evenodd" d="M202.335 127.004C208.731 127.004 213.915 121.819 213.915 115.423C213.915 109.027 208.731 103.842 202.335 103.842C195.939 103.842 190.754 109.027 190.754 115.423C190.754 121.819 195.939 127.004 202.335 127.004ZM202.335 127.831C209.187 127.831 214.743 122.276 214.743 115.423C214.743 108.57 209.187 103.015 202.335 103.015C195.482 103.015 189.927 108.57 189.927 115.423C189.927 122.276 195.482 127.831 202.335 127.831Z" fill="url(#paint5_linear)"/>
<path d="M213.916 115.423C213.916 116.944 213.616 118.449 213.034 119.855C212.452 121.26 211.599 122.536 210.524 123.612C209.448 124.687 208.172 125.54 206.767 126.122C205.362 126.704 203.856 127.004 202.335 127.004C200.814 127.004 199.308 126.704 197.903 126.122C196.498 125.54 195.221 124.687 194.146 123.612C193.07 122.536 192.217 121.26 191.635 119.855C191.053 118.449 190.754 116.944 190.754 115.423L213.916 115.423Z" fill="#30849E"/>
<path d="M209.78 115.423C209.78 119.534 206.446 122.868 202.335 122.868C198.223 122.868 194.89 119.534 194.89 115.423C194.89 111.311 198.223 107.978 202.335 107.978C206.446 107.978 209.78 111.311 209.78 115.423Z" fill="#E8FFFF"/>
<path fill-rule="evenodd" clip-rule="evenodd" d="M210.607 115.423C210.607 119.991 206.903 123.695 202.335 123.695C197.766 123.695 194.063 119.991 194.063 115.423C194.063 110.854 197.766 107.151 202.335 107.151C206.903 107.151 210.607 110.854 210.607 115.423ZM202.335 122.868C206.446 122.868 209.78 119.534 209.78 115.423C209.78 111.311 206.446 107.978 202.335 107.978C198.223 107.978 194.89 111.311 194.89 115.423C194.89 119.534 198.223 122.868 202.335 122.868Z" fill="#0D7981"/>
<path d="M209.78 115.423C209.78 116.4 209.587 117.369 209.213 118.272C208.839 119.175 208.29 119.996 207.599 120.687C206.908 121.378 206.087 121.927 205.184 122.301C204.281 122.675 203.312 122.868 202.335 122.868C201.357 122.868 200.389 122.675 199.486 122.301C198.582 121.927 197.762 121.378 197.07 120.687C196.379 119.996 195.831 119.175 195.457 118.272C195.082 117.369 194.89 116.4 194.89 115.423L209.78 115.423Z" fill="#EBF0F3"/>
<path d="M179.262 116.057C179.568 115.452 180.432 115.452 180.738 116.057L189.423 133.248C189.701 133.799 189.301 134.449 188.685 134.449H171.315C170.699 134.449 170.299 133.799 170.577 133.248L179.262 116.057Z" fill="url(#paint6_linear)"/>
<path fill-rule="evenodd" clip-rule="evenodd" d="M180 118.265L172.66 132.794H187.34L180 118.265ZM180.738 116.057C180.432 115.452 179.568 115.452 179.262 116.057L170.577 133.248C170.299 133.799 170.699 134.449 171.315 134.449H188.685C189.301 134.449 189.701 133.799 189.423 133.248L180.738 116.057Z" fill="url(#paint7_linear)"/>
<path d="M226.324 112.114C226.324 110.743 227.435 109.632 228.805 109.632H230.46C231.83 109.632 232.941 110.743 232.941 112.114V138.585C232.941 139.955 231.83 141.066 230.46 141.066H228.805C227.435 141.066 226.324 139.955 226.324 138.585V112.114Z" fill="url(#paint8_linear)"/>
<path fill-rule="evenodd" clip-rule="evenodd" d="M230.46 110.46H228.805C227.892 110.46 227.151 111.2 227.151 112.114V138.585C227.151 139.498 227.892 140.239 228.805 140.239H230.46C231.373 140.239 232.114 139.498 232.114 138.585V112.114C232.114 111.2 231.373 110.46 230.46 110.46ZM228.805 109.632C227.435 109.632 226.324 110.743 226.324 112.114V138.585C226.324 139.955 227.435 141.066 228.805 141.066H230.46C231.83 141.066 232.941 139.955 232.941 138.585V112.114C232.941 110.743 231.83 109.632 230.46 109.632H228.805Z" fill="url(#paint9_linear)"/>
<path d="M127.059 112.114C127.059 110.743 128.17 109.632 129.54 109.632H131.195C132.565 109.632 133.676 110.743 133.676 112.114V138.585C133.676 139.955 132.565 141.066 131.195 141.066H129.54C128.17 141.066 127.059 139.955 127.059 138.585V112.114Z" fill="url(#paint10_linear)"/>
<path fill-rule="evenodd" clip-rule="evenodd" d="M131.195 110.46H129.54C128.627 110.46 127.886 111.2 127.886 112.114V138.585C127.886 139.498 128.627 140.239 129.54 140.239H131.195C132.109 140.239 132.849 139.498 132.849 138.585V112.114C132.849 111.2 132.109 110.46 131.195 110.46ZM129.54 109.632C128.17 109.632 127.059 110.743 127.059 112.114V138.585C127.059 139.955 128.17 141.066 129.54 141.066H131.195C132.565 141.066 133.676 139.955 133.676 138.585V112.114C133.676 110.743 132.565 109.632 131.195 109.632H129.54Z" fill="url(#paint11_linear)"/>
<path d="M158.493 146.029C158.493 143.288 160.715 141.066 163.456 141.066H196.544C199.285 141.066 201.507 143.288 201.507 146.029C201.507 148.771 199.285 150.993 196.544 150.993H163.456C160.715 150.993 158.493 148.771 158.493 146.029Z" fill="url(#paint12_linear)"/>
<path fill-rule="evenodd" clip-rule="evenodd" d="M163.456 140.239H196.544C199.742 140.239 202.335 142.831 202.335 146.029C202.335 149.227 199.742 151.82 196.544 151.82H163.456C160.258 151.82 157.666 149.227 157.666 146.029C157.666 142.831 160.258 140.239 163.456 140.239ZM163.456 141.066C160.715 141.066 158.493 143.288 158.493 146.029C158.493 148.771 160.715 150.993 163.456 150.993H196.544C199.285 150.993 201.507 148.771 201.507 146.029C201.507 143.288 199.285 141.066 196.544 141.066H163.456Z" fill="#090305"/>
<path d="M166.765 141.066H169.246V150.993H166.765V141.066Z" fill="#090305"/>
<path d="M179.586 141.066H182.068V150.993H179.586V141.066Z" fill="#090305"/>
<path d="M190.754 141.066H193.236V150.993H190.754V141.066Z" fill="#090305"/>
<path d="M189.926 69.9265C189.926 75.4087 185.482 79.8529 180 79.8529C174.518 79.8529 170.073 75.4087 170.073 69.9265C170.073 64.4442 174.518 60 180 60C185.482 60 189.926 64.4442 189.926 69.9265Z" fill="url(#paint13_radial)"/>
<path fill-rule="evenodd" clip-rule="evenodd" d="M180 78.1985C184.568 78.1985 188.272 74.495 188.272 69.9265C188.272 65.3579 184.568 61.6544 180 61.6544C175.431 61.6544 171.728 65.3579 171.728 69.9265C171.728 74.495 175.431 78.1985 180 78.1985ZM180 79.8529C185.482 79.8529 189.926 75.4087 189.926 69.9265C189.926 64.4442 185.482 60 180 60C174.518 60 170.073 64.4442 170.073 69.9265C170.073 75.4087 174.518 79.8529 180 79.8529Z" fill="#FB890C"/>
<path d="M192.408 79.853C192.408 82.3346 186.618 86.4707 180 86.4707C173.382 86.4707 167.592 82.3346 167.592 79.853L173.382 76.5442H186.618L192.408 79.853Z" fill="url(#paint14_radial)"/>
<path fill-rule="evenodd" clip-rule="evenodd" d="M171.78 83.8225C173.948 85.3006 176.891 86.4706 180 86.4706C183.109 86.4706 186.052 85.3006 188.22 83.8225C189.302 83.0847 190.167 82.2862 190.752 81.5489C191.36 80.7825 191.581 80.1911 191.581 79.8529H193.235C193.235 80.7555 192.732 81.7152 192.048 82.5773C191.341 83.4685 190.344 84.3762 189.152 85.1894C186.77 86.8133 183.508 88.125 180 88.125C176.492 88.125 173.23 86.8133 170.848 85.1894C169.656 84.3762 168.659 83.4685 167.952 82.5773C167.268 81.7152 166.765 80.7555 166.765 79.8529H168.419C168.419 80.1911 168.64 80.7825 169.248 81.5489C169.833 82.2862 170.698 83.0847 171.78 83.8225Z" fill="url(#paint15_linear)"/>
<defs>
<linearGradient id="paint0_linear" x1="180" y1="79.8529" x2="180" y2="172.5" gradientUnits="userSpaceOnUse">
<stop stop-color="#B4C9C2"/>
<stop offset="1" stop-color="#003542"/>
</linearGradient>
<linearGradient id="paint1_linear" x1="180" y1="86.4706" x2="180" y2="165.882" gradientUnits="userSpaceOnUse">
<stop stop-color="#DAF1F2"/>
<stop offset="1" stop-color="#278291"/>
</linearGradient>
<radialGradient id="paint2_radial" cx="0" cy="0" r="1" gradientUnits="userSpaceOnUse" gradientTransform="translate(157.688 115.425) rotate(90) scale(12.4125)">
<stop stop-color="#00FBFD"/>
<stop offset="0.829713" stop-color="#00DFF7"/>
<stop offset="1" stop-color="#00BCEF"/>
</radialGradient>
<linearGradient id="paint3_linear" x1="157.666" y1="103.015" x2="157.666" y2="127.831" gradientUnits="userSpaceOnUse">
<stop stop-color="#0A85BD"/>
<stop offset="0.498437" stop-color="#0A85BD"/>
<stop offset="0.503385" stop-color="#22637D"/>
<stop offset="1" stop-color="#22637D"/>
</linearGradient>
<radialGradient id="paint4_radial" cx="0" cy="0" r="1" gradientUnits="userSpaceOnUse" gradientTransform="translate(202.688 115.425) rotate(90) scale(12.4125)">
<stop stop-color="#00FBFD"/>
<stop offset="0.829713" stop-color="#00DFF7"/>
<stop offset="1" stop-color="#00BCEF"/>
</radialGradient>
<linearGradient id="paint5_linear" x1="202.335" y1="103.015" x2="202.335" y2="127.831" gradientUnits="userSpaceOnUse">
<stop stop-color="#0A85BD"/>
<stop offset="0.498437" stop-color="#0A85BD"/>
<stop offset="0.503385" stop-color="#22637D"/>
<stop offset="1" stop-color="#22637D"/>
</linearGradient>
<linearGradient id="paint6_linear" x1="180" y1="118.732" x2="180" y2="133.621" gradientUnits="userSpaceOnUse">
<stop stop-color="#FEB9B8"/>
<stop offset="0.347293" stop-color="#EF7E7D"/>
<stop offset="0.753114" stop-color="#B55655"/>
<stop offset="1" stop-color="#AE5150"/>
</linearGradient>
<linearGradient id="paint7_linear" x1="180" y1="114.596" x2="180" y2="134.449" gradientUnits="userSpaceOnUse">
<stop stop-color="#FF221F"/>
<stop offset="0.696981" stop-color="#FF1A17"/>
<stop offset="0.968935" stop-color="#643133"/>
<stop offset="1" stop-color="#643133"/>
</linearGradient>
<linearGradient id="paint8_linear" x1="229.633" y1="109.632" x2="229.633" y2="141.066" gradientUnits="userSpaceOnUse">
<stop stop-color="#FE0202"/>
<stop offset="0.143525" stop-color="#FE4A4A"/>
<stop offset="0.250755" stop-color="#FFAEAD"/>
<stop offset="0.379734" stop-color="#E79796"/>
<stop offset="0.518227" stop-color="#9D5150"/>
<stop offset="0.636786" stop-color="#6E1D1C"/>
<stop offset="1" stop-color="#651313"/>
</linearGradient>
<linearGradient id="paint9_linear" x1="229.633" y1="109.632" x2="229.633" y2="141.066" gradientUnits="userSpaceOnUse">
<stop stop-color="#FE0101"/>
<stop offset="0.515625" stop-color="#780A08"/>
<stop offset="1" stop-color="#651313"/>
</linearGradient>
<linearGradient id="paint10_linear" x1="130.368" y1="109.632" x2="130.368" y2="141.066" gradientUnits="userSpaceOnUse">
<stop stop-color="#FE0202"/>
<stop offset="0.143525" stop-color="#FE4A4A"/>
<stop offset="0.250755" stop-color="#FFAEAD"/>
<stop offset="0.379734" stop-color="#E79796"/>
<stop offset="0.518227" stop-color="#9D5150"/>
<stop offset="0.636786" stop-color="#6E1D1C"/>
<stop offset="1" stop-color="#651313"/>
</linearGradient>
<linearGradient id="paint11_linear" x1="130.368" y1="109.632" x2="130.368" y2="141.066" gradientUnits="userSpaceOnUse">
<stop stop-color="#FE0101"/>
<stop offset="0.515625" stop-color="#780A08"/>
<stop offset="1" stop-color="#651313"/>
</linearGradient>
<linearGradient id="paint12_linear" x1="180" y1="141.066" x2="180" y2="150.993" gradientUnits="userSpaceOnUse">
<stop stop-color="#615753"/>
<stop offset="0.270833" stop-color="#726D68"/>
<stop offset="0.609375" stop-color="#B9BFB7"/>
<stop offset="1" stop-color="#E3EDE2"/>
</linearGradient>
<radialGradient id="paint13_radial" cx="0" cy="0" r="1" gradientUnits="userSpaceOnUse" gradientTransform="translate(180 61.6544) rotate(90) scale(18.1985)">
<stop stop-color="#FFFFE5"/>
<stop offset="0.285188" stop-color="#FFFBBE"/>
<stop offset="0.428388" stop-color="#FFEF4C"/>
<stop offset="1" stop-color="#FB890C"/>
</radialGradient>
<radialGradient id="paint14_radial" cx="0" cy="0" r="1" gradientUnits="userSpaceOnUse" gradientTransform="translate(180 76.5442) rotate(90) scale(11.5809)">
<stop stop-color="#9376B5"/>
<stop offset="0.244792" stop-color="#8B6EA9"/>
<stop offset="1" stop-color="#4E385D"/>
</radialGradient>
<linearGradient id="paint15_linear" x1="180" y1="76.5441" x2="180" y2="86.4706" gradientUnits="userSpaceOnUse">
<stop stop-color="#463253"/>
<stop offset="1" stop-color="#2D2236"/>
</linearGradient>
</defs>
</svg>
