<svg width="360" height="240" viewBox="0 0 360 240" fill="none" xmlns="http://www.w3.org/2000/svg">
<path fill-rule="evenodd" clip-rule="evenodd" d="M277.995 138.337C277.995 122.412 267.625 115.911 249.167 111.043C233.613 107.142 229.724 105.187 229.724 99.0183V98.6856C229.724 94.1399 233.613 90.8944 241.39 90.8944C250.018 91.4384 258.28 94.5943 265.083 99.9455L275.452 84.998C265.903 77.2869 253.969 73.1623 241.712 73.3363C234.053 72.9859 226.506 75.2805 220.33 79.8374C212.26 75.1574 203.062 72.7965 193.743 73.0137C182.233 72.8151 171.052 76.8648 162.323 84.3932V74.6365H142.579V130.536L100.468 74.314H82V165.31H101.764V107.465L145.814 165.31H162.665V155.885C171.131 163.179 181.961 167.122 193.12 166.973C202.098 167.279 210.978 165.006 218.712 160.421C226.847 164.572 235.86 166.695 244.987 166.61C264.39 166.61 278.316 156.531 277.995 138.337ZM245.279 148.739C253.377 148.739 258.23 145.484 258.23 139.96C258.23 135.082 255.316 132.481 240.104 128.903C221.626 124.025 209.96 119.157 209.96 100.953V100.661C209.899 99.2451 210.01 97.8269 210.292 96.438C205.408 93.1194 199.661 91.3111 193.763 91.2371C178.581 91.2371 167.528 103.856 167.528 119.459V119.782C167.528 135.384 178.219 148.376 193.763 148.376C204.132 148.376 210.613 144.153 217.737 137.652V137.985L218.059 137.652C225.529 144.477 235.18 148.408 245.279 148.739Z" fill="white"/>
</svg>
