<svg width="12" height="12" viewBox="0 0 12 12" fill="none" xmlns="http://www.w3.org/2000/svg">
<path fill-rule="evenodd" clip-rule="evenodd" d="M2.25183 1.50082C1.83713 1.50082 1.50092 1.83704 1.50092 2.25177V9.75777C1.50092 10.1725 1.83711 10.5087 2.25183 10.5087H9.75783C10.1726 10.5087 10.5087 10.1725 10.5087 9.75777V2.25177C10.5087 1.83704 10.1725 1.50082 9.75783 1.50082H2.25183ZM0.750916 2.25177C0.750916 1.42286 1.42289 0.750824 2.25183 0.750824H9.75783C10.5868 0.750824 11.2587 1.42286 11.2587 2.25177V9.75777C11.2587 10.5867 10.5867 11.2587 9.75783 11.2587H2.25183C1.42292 11.2587 0.750916 10.5867 0.750916 9.75777V2.25177Z" fill="#424242"/>
<path d="M4.86064 5.18176V7.84404C4.85877 8.21132 4.69471 8.40521 4.39641 8.40521C4.1149 8.40521 3.93219 8.22996 3.9266 7.92607H3.12307C3.11934 8.68859 3.66373 9.05214 4.3554 9.05214C5.1291 9.05214 5.65671 8.58419 5.65858 7.84404V5.18176H4.86064Z" fill="#424242"/>
<path d="M8.3973 6.27986H9.17101C9.15982 5.59937 8.60052 5.12955 7.75037 5.12955C6.91328 5.12955 6.29991 5.59191 6.30364 6.28545C6.30178 6.84848 6.69888 7.17101 7.34395 7.32576L7.7597 7.43016C8.17545 7.53083 8.40662 7.65015 8.40849 7.90743C8.40662 8.18708 8.14189 8.37725 7.73173 8.37725C7.31225 8.37725 7.01023 8.18335 6.98413 7.80116H6.20297C6.22347 8.62707 6.81447 9.054 7.74105 9.054C8.67323 9.054 9.22134 8.60843 9.22321 7.9093C9.22134 7.27355 8.74221 6.93611 8.0785 6.78696L7.73546 6.70493C7.40361 6.62849 7.12582 6.50544 7.13141 6.23138C7.13141 5.98529 7.34954 5.80445 7.74478 5.80445C8.1307 5.80445 8.36747 5.9797 8.3973 6.27986Z" fill="#424242"/>
</svg>
