<svg width="60" height="60" viewBox="0 0 60 60" fill="none" xmlns="http://www.w3.org/2000/svg">
<path fill-rule="evenodd" clip-rule="evenodd" d="M15.3333 19.3333C15.3333 17.1241 17.1242 15.3333 19.3333 15.3333H40.6666C42.8758 15.3333 44.6666 17.1241 44.6666 19.3333V40.6666C44.6666 42.8757 42.8758 44.6666 40.6666 44.6666H19.3333C17.1242 44.6666 15.3333 42.8757 15.3333 40.6666V19.3333ZM19.3333 17.9999C18.5969 17.9999 18 18.5969 18 19.3333V40.6666C18 41.403 18.5969 41.9999 19.3333 41.9999H40.6666C41.403 41.9999 42 41.403 42 40.6666V19.3333C42 18.5969 41.403 17.9999 40.6666 17.9999H19.3333Z" fill="#1A1A1F"/>
<path d="M22.3898 37.9999H25.6692V26.1754H22.3898V37.9999ZM24.0372 24.6512C25.0148 24.6512 25.8155 23.9045 25.8155 22.9884C25.8155 22.08 25.0148 21.3333 24.0372 21.3333C23.0672 21.3333 22.2666 22.08 22.2666 22.9884C22.2666 23.9045 23.0672 24.6512 24.0372 24.6512Z" fill="#1A1A1F"/>
<path d="M30.4918 31.1639C30.4995 29.6396 31.4078 28.7466 32.7319 28.7466C34.0483 28.7466 34.8413 29.6088 34.8336 31.0561V37.9999H38.113V30.471C38.113 27.7151 36.4964 26.0215 34.0329 26.0215C32.2777 26.0215 31.0075 26.8837 30.4764 28.2617H30.3378V26.1754H27.2123V37.9999H30.4918V31.1639Z" fill="#1A1A1F"/>
</svg>
