<svg width="20" height="20" viewBox="0 0 20 20" fill="none" xmlns="http://www.w3.org/2000/svg">
<path d="M0 16.468H5.18689C8.33207 16.468 9.75268 14.9481 9.75268 12.9343C9.75268 10.9012 8.28581 9.75325 6.94449 9.6827V9.55444C8.1867 9.2466 9.22408 8.42569 9.22408 6.78387C9.22408 4.84063 7.8365 3.3335 4.95563 3.3335H0V16.468ZM2.04172 14.7685V10.5613H5.06135C6.70001 10.5613 7.72418 11.5875 7.72418 12.8381C7.72418 13.9412 6.9511 14.7685 4.98867 14.7685H2.04172ZM2.04172 9.01571V5.0202H4.83009C6.44893 5.0202 7.22201 5.84753 7.22201 6.93779C7.22201 8.20763 6.15159 9.01571 4.77723 9.01571H2.04172Z" fill="#1A1A1F"/>
<path d="M15.6457 16.6668C17.8592 16.6668 19.4251 15.6086 19.8745 14.0053L18.0045 13.6782C17.6477 14.6081 16.7888 15.0827 15.6655 15.0827C13.974 15.0827 12.8375 14.0181 12.7846 12.1198H20V11.44C20 7.88055 17.8063 6.48886 15.5069 6.48886C12.6789 6.48886 10.8156 8.57961 10.8156 11.6067C10.8156 14.6659 12.6525 16.6668 15.6457 16.6668ZM12.7912 10.6832C12.8705 9.28508 13.9145 8.07295 15.5201 8.07295C17.0531 8.07295 18.0574 9.17605 18.064 10.6832H12.7912ZM18.5662 3.3335H12.2956V4.6803H18.5662V3.3335Z" fill="#1A1A1F"/>
</svg>
