<svg width="20" height="20" viewBox="0 0 20 20" fill="none" xmlns="http://www.w3.org/2000/svg">
<path fill-rule="evenodd" clip-rule="evenodd" d="M0.833374 3.3335C0.833374 1.95278 1.95266 0.833496 3.33337 0.833496H16.6667C18.0474 0.833496 19.1667 1.95278 19.1667 3.3335V16.6668C19.1667 18.0475 18.0474 19.1668 16.6667 19.1668H3.33337C1.95266 19.1668 0.833374 18.0475 0.833374 16.6668V3.3335ZM3.33337 2.50016C2.87314 2.50016 2.50004 2.87326 2.50004 3.3335V16.6668C2.50004 17.1271 2.87314 17.5002 3.33337 17.5002H16.6667C17.1269 17.5002 17.5 17.1271 17.5 16.6668V3.3335C17.5 2.87326 17.1269 2.50016 16.6667 2.50016H3.33337Z" fill="#1A1A1F"/>
<path d="M5.24365 15.0002H7.2933V7.60986H5.24365V15.0002ZM6.27329 6.65721C6.88433 6.65721 7.38472 6.1905 7.38472 5.61795C7.38472 5.0502 6.88433 4.5835 6.27329 4.5835C5.66705 4.5835 5.16667 5.0502 5.16667 5.61795C5.16667 6.1905 5.66705 6.65721 6.27329 6.65721Z" fill="#1A1A1F"/>
<path d="M10.3074 10.7276C10.3122 9.77499 10.88 9.21687 11.7075 9.21687C12.5303 9.21687 13.0258 9.75574 13.021 10.6603V15.0002H15.0707V10.2946C15.0707 8.57214 14.0603 7.51363 12.5206 7.51363C11.4236 7.51363 10.6298 8.05251 10.2978 8.91375H10.2112V7.60986H8.25775V15.0002H10.3074V10.7276Z" fill="#1A1A1F"/>
</svg>
