<svg width="20" height="20" viewBox="0 0 20 20" fill="none" xmlns="http://www.w3.org/2000/svg">
<path d="M10 20C4.48438 20 0 15.5182 0 10.0039C0 4.48182 4.48438 0 10 0C15.5156 0 20 4.48182 20 9.99609C20 15.5104 15.5156 20 10 20ZM18.4297 11.3649C18.1406 11.271 15.7891 10.5749 13.1094 10.9973C14.2266 14.0634 14.6797 16.5663 14.7656 17.0825C16.6875 15.7919 18.0547 13.7427 18.4297 11.3649ZM13.3359 17.8725C13.2109 17.1216 12.7109 14.5092 11.5156 11.3962C11.5 11.404 11.4766 11.4118 11.4609 11.4118C6.64062 13.0935 4.91406 16.4333 4.75781 16.7462C6.20313 17.8725 8.02344 18.5452 10 18.5452C11.1797 18.553 12.3125 18.3105 13.3359 17.8725ZM3.65625 15.7215C3.85156 15.393 6.19531 11.5135 10.6016 10.0821C10.7109 10.043 10.8281 10.0117 10.9375 9.98045C10.7266 9.4955 10.4922 9.01056 10.2422 8.53344C5.97656 9.80837 1.83594 9.75362 1.46094 9.7458C1.46094 9.83183 1.45313 9.91787 1.45313 10.0039C1.46094 12.2018 2.28906 14.2041 3.65625 15.7215ZM1.64062 8.25968C2.02344 8.2675 5.53906 8.28315 9.53906 7.2194C8.125 4.70082 6.59375 2.58897 6.375 2.28393C3.97656 3.41025 2.19531 5.61596 1.64062 8.25968ZM8 1.70512C8.23438 2.01799 9.78906 4.12984 11.1875 6.70317C14.2266 5.5612 15.5078 3.84044 15.6641 3.62143C14.1563 2.28393 12.1719 1.47047 10 1.47047C9.3125 1.47047 8.64063 1.55651 8 1.70512ZM16.6094 4.60696C16.4297 4.84943 15 6.68752 11.8438 7.9781C12.0391 8.38483 12.2344 8.79937 12.4141 9.21392C12.4766 9.36253 12.5391 9.51115 12.6016 9.65194C15.4453 9.29214 18.2656 9.87094 18.5469 9.92569C18.5234 7.91553 17.8047 6.06179 16.6094 4.60696Z" fill="#1A1A1F"/>
</svg>
