<svg width="60" height="60" viewBox="0 0 60 60" fill="none" xmlns="http://www.w3.org/2000/svg">
<path d="M30 46C21.175 46 14 38.8291 14 30.0063C14 21.1709 21.175 14 30 14C38.825 14 46 21.1709 46 29.9937C46 38.8166 38.825 46 30 46ZM43.4875 32.1838C43.025 32.0336 39.2625 30.9198 34.975 31.5956C36.7625 36.5014 37.4875 40.5061 37.625 41.332C40.7 39.2671 42.8875 35.9883 43.4875 32.1838ZM35.3375 42.596C35.1375 41.3946 34.3375 37.2147 32.425 32.2339C32.4 32.2464 32.3625 32.2589 32.3375 32.2589C24.625 34.9495 21.8625 40.2933 21.6125 40.7939C23.925 42.596 26.8375 43.6723 30 43.6723C31.8875 43.6848 33.7 43.2968 35.3375 42.596ZM19.85 39.1545C20.1625 38.6289 23.9125 32.4216 30.9625 30.1314C31.1375 30.0688 31.325 30.0188 31.5 29.9687C31.1625 29.1928 30.7875 28.4169 30.3875 27.6535C23.5625 29.6934 16.9375 29.6058 16.3375 29.5933C16.3375 29.7309 16.325 29.8686 16.325 30.0063C16.3375 33.5229 17.6625 36.7266 19.85 39.1545ZM16.625 27.2155C17.2375 27.228 22.8625 27.253 29.2625 25.551C27 21.5213 24.55 18.1424 24.2 17.6543C20.3625 19.4564 17.5125 22.9855 16.625 27.2155ZM26.8 16.7282C27.175 17.2288 29.6625 20.6077 31.9 24.7251C36.7625 22.8979 38.8125 20.1447 39.0625 19.7943C36.65 17.6543 33.475 16.3528 30 16.3528C28.9 16.3528 27.825 16.4904 26.8 16.7282ZM40.575 21.3711C40.2875 21.7591 38 24.7 32.95 26.765C33.2625 27.4157 33.575 28.079 33.8625 28.7423C33.9625 28.9801 34.0625 29.2178 34.1625 29.4431C38.7125 28.8674 43.225 29.7935 43.675 29.8811C43.6375 26.6648 42.4875 23.6989 40.575 21.3711Z" fill="#1A1A1F"/>
</svg>
