<svg width="60" height="60" viewBox="0 0 60 60" fill="none" xmlns="http://www.w3.org/2000/svg">
<path d="M14 40.3485H22.299C27.3313 40.3485 29.6043 37.9165 29.6043 34.6945C29.6043 31.4416 27.2573 29.6049 25.1112 29.492V29.2868C27.0987 28.7942 28.7585 27.4808 28.7585 24.8539C28.7585 21.7447 26.5384 19.3333 21.929 19.3333H14V40.3485ZM17.2668 37.6292V30.8978H22.0982C24.72 30.8978 26.3587 32.5396 26.3587 34.5406C26.3587 36.3055 25.1218 37.6292 21.9819 37.6292H17.2668ZM17.2668 28.4248V22.032H21.7281C24.3183 22.032 25.5552 23.3557 25.5552 25.1001C25.5552 27.1319 23.8425 28.4248 21.6436 28.4248H17.2668Z" fill="#1A1A1F"/>
<path d="M39.033 40.6666C42.5747 40.6666 45.0802 38.9735 45.7991 36.4081L42.8073 35.8848C42.2364 37.3727 40.862 38.132 39.0648 38.132C36.3583 38.132 34.5399 36.4286 34.4554 33.3913H46V32.3036C46 26.6085 42.4901 24.3818 38.811 24.3818C34.2862 24.3818 31.3049 27.727 31.3049 32.5704C31.3049 37.465 34.2439 40.6666 39.033 40.6666ZM34.4659 31.0928C34.5928 28.8558 36.2632 26.9164 38.8322 26.9164C41.2849 26.9164 42.8918 28.6813 42.9024 31.0928H34.4659ZM43.7059 19.3333H33.673V21.4881H43.7059V19.3333Z" fill="#1A1A1F"/>
</svg>
