<svg xmlns="http://www.w3.org/2000/svg" width="20" height="20" viewBox="0 0 20 20">
  <g id="pencil-logo" transform="translate(1.071 1)">
    <g id="Path_80" data-name="Path 80" transform="translate(-0.321 0.75)" fill="none" stroke-linecap="round" stroke-linejoin="round">
      <path d="M12.167,2,15.5,5.333,6.333,14.5H3V11.167Z" stroke="none"/>
      <path d="M 12.16666793823242 1.999999046325684 L 2.999998092651367 11.16665840148926 L 2.999998092651367 14.49999904632568 L 6.333328247070313 14.49999904632568 L 15.49999809265137 5.333329200744629 L 12.16666793823242 1.999999046325684 M 12.16666793823242 0.9999990463256836 C 12.4225902557373 0.9999990463256836 12.67851257324219 1.097628593444824 12.87377738952637 1.292888641357422 L 16.20710754394531 4.626218795776367 C 16.59762763977051 5.016749382019043 16.59762763977051 5.649909019470215 16.20710754394531 6.040438652038574 L 7.040437698364258 15.20710945129395 C 6.852897644042969 15.39463901519775 6.59854793548584 15.49999904632568 6.333328247070313 15.49999904632568 L 2.999998092651367 15.49999904632568 C 2.447717666625977 15.49999904632568 1.999998092651367 15.05227851867676 1.999998092651367 14.49999904632568 L 1.999998092651367 11.16665840148926 C 1.999998092651367 10.90143966674805 2.105358123779297 10.6470890045166 2.292888641357422 10.45954895019531 L 11.45955848693848 1.292888641357422 C 11.65482330322266 1.097628593444824 11.91074562072754 0.9999990463256836 12.16666793823242 0.9999990463256836 Z" stroke="none" fill="#212121"/>
    </g>
    <path id="Path_88" data-name="Path 88" d="M8.929,2.583l4.38,4.38" transform="translate(1.25 0.896)" fill="none" stroke="#212121" stroke-width="1"/>
    <rect id="Rectangle_31" data-name="Rectangle 31" width="20" height="20" transform="translate(-1.071 -1)" fill="none"/>
  </g>
</svg>
