<svg width="12" height="12" viewBox="0 0 12 12" fill="none" xmlns="http://www.w3.org/2000/svg">
<path fill-rule="evenodd" clip-rule="evenodd" d="M8.19374 1.22633C8.32876 1.09137 8.54755 1.0912 8.68278 1.22595L10.8982 3.43352C10.9633 3.49837 10.9999 3.58643 11 3.67831C11.0001 3.77018 10.9637 3.85833 10.8988 3.92333L4.80648 10.0235C4.74155 10.0885 4.65343 10.125 4.56155 10.125H2.34615C2.15498 10.125 2 9.97002 2 9.77885V7.5606C2 7.46877 2.03649 7.3807 2.10144 7.31578L8.19374 1.22633ZM8.43882 1.9602L7.61236 2.78628L9.33524 4.50917L10.164 3.67931L8.43882 1.9602ZM8.84602 4.99902L7.12271 3.2757L2.69231 7.70403V9.43269H4.41804L8.84602 4.99902Z" fill="#424242"/>
</svg>
