<svg width="12" height="12" viewBox="0 0 12 12" fill="none" xmlns="http://www.w3.org/2000/svg">
<path fill-rule="evenodd" clip-rule="evenodd" d="M2.25183 1.50089C1.83711 1.50089 1.50092 1.83707 1.50092 2.25177V9.75777C1.50092 10.1725 1.83713 10.5087 2.25183 10.5087H9.75783C10.1725 10.5087 10.5087 10.1725 10.5087 9.75777V2.25177C10.5087 1.83707 10.1726 1.50089 9.75783 1.50089H2.25183ZM0.750916 2.25177C0.750916 1.42283 1.42292 0.750885 2.25183 0.750885H9.75783C10.5867 0.750885 11.2587 1.42283 11.2587 2.25177V9.75777C11.2587 10.5867 10.5868 11.2587 9.75783 11.2587H2.25183C1.42289 11.2587 0.750916 10.5867 0.750916 9.75777V2.25177Z" fill="#424242"/>
<path d="M3.33191 7.87501H4.13917V6.63708H4.81779C5.6959 6.63708 6.20673 6.1132 6.20673 5.35068C6.20673 4.59189 5.70522 4.05682 4.8383 4.05682H3.33191V7.87501ZM4.13917 5.99015V4.7168H4.68356C5.14965 4.7168 5.37523 4.97035 5.37523 5.35068C5.37523 5.72914 5.14965 5.99015 4.68729 5.99015H4.13917Z" fill="#424242"/>
<path d="M8.8888 5.82795C8.81795 5.30034 8.39288 4.97408 7.66952 4.97408C6.93683 4.97408 6.45396 5.31339 6.45583 5.86524C6.45396 6.29404 6.72429 6.57183 7.2836 6.68369L7.77951 6.7825C8.02934 6.83284 8.14306 6.92419 8.14679 7.06774C8.14306 7.2374 7.95849 7.35858 7.6807 7.35858C7.39732 7.35858 7.20902 7.2374 7.16055 7.00436L6.37939 7.04537C6.45396 7.59349 6.92005 7.93094 7.67884 7.93094C8.42085 7.93094 8.95219 7.55247 8.95405 6.98758C8.95219 6.57369 8.68186 6.32573 8.12628 6.21201L7.60799 6.1076C7.34139 6.04981 7.24258 5.95846 7.24445 5.8205C7.24258 5.64898 7.43647 5.53712 7.68257 5.53712C7.95849 5.53712 8.12255 5.68813 8.1617 5.8727L8.8888 5.82795Z" fill="#424242"/>
</svg>
