<svg width="48" height="48" viewBox="0 0 48 48" fill="none" xmlns="http://www.w3.org/2000/svg">
<g filter="url(#filter0_i)">
<path d="M0 4C0 1.79086 1.79086 0 4 0H44C46.2091 0 48 1.79086 48 4V44C48 46.2091 46.2091 48 44 48H4C1.79086 48 0 46.2091 0 44V4Z" fill="#692DB7"/>
<path d="M14 34.2153H19.2418V26.4462H23.766L28.1342 34.2153H34L28.6334 25.7285C31.5351 24.7925 33.5008 22.3588 33.5008 19.3947C33.5008 15.0265 29.9126 12 24.7644 12H14V34.2153ZM23.922 15.9626C26.3869 15.9626 28.259 17.2106 28.259 19.3947C28.259 21.3916 26.3869 22.7332 23.922 22.7332H19.2418V15.9626H23.922Z" fill="white"/>
</g>
<defs>
<filter id="filter0_i" x="0" y="0" width="48" height="48" filterUnits="userSpaceOnUse" color-interpolation-filters="sRGB">
<feFlood flood-opacity="0" result="BackgroundImageFix"/>
<feBlend mode="normal" in="SourceGraphic" in2="BackgroundImageFix" result="shape"/>
<feColorMatrix in="SourceAlpha" type="matrix" values="0 0 0 0 0 0 0 0 0 0 0 0 0 0 0 0 0 0 127 0" result="hardAlpha"/>
<feOffset dy="-2"/>
<feComposite in2="hardAlpha" operator="arithmetic" k2="-1" k3="1"/>
<feColorMatrix type="matrix" values="0 0 0 0 0 0 0 0 0 0 0 0 0 0 0 0 0 0 0.32 0"/>
<feBlend mode="normal" in2="shape" result="effect1_innerShadow"/>
</filter>
</defs>
</svg>
