<svg width="12" height="12" viewBox="0 0 12 12" fill="none" xmlns="http://www.w3.org/2000/svg">
<path fill-rule="evenodd" clip-rule="evenodd" d="M2.25183 1.50089C1.83712 1.50089 1.50092 1.83709 1.50092 2.2518V9.7578C1.50092 10.1725 1.83712 10.5087 2.25183 10.5087H9.75783C10.1725 10.5087 10.5087 10.1725 10.5087 9.7578V2.2518C10.5087 1.83709 10.1725 1.50089 9.75783 1.50089H2.25183ZM0.750916 2.2518C0.750916 1.42287 1.4229 0.750885 2.25183 0.750885H9.75783C10.5868 0.750885 11.2587 1.42287 11.2587 2.2518V9.7578C11.2587 10.5867 10.5868 11.2587 9.75783 11.2587H2.25183C1.4229 11.2587 0.750916 10.5867 0.750916 9.7578V2.2518Z" fill="#424242"/>
<path d="M3.71377 3.84682H2.79837L3.97105 5.75591L2.776 7.665H3.70072L4.48374 6.36182H4.51357L5.2966 7.665H6.22504L5.03372 5.75591L6.19894 3.84682H5.28728L4.51357 5.14813H4.48374L3.71377 3.84682Z" fill="#424242"/>
<path d="M7.4964 7.71161C7.95875 7.71161 8.19925 7.44501 8.30925 7.20637H8.34281V7.665H9.12584V3.84682H8.33349V5.28236H8.30925C8.20298 5.04932 7.97367 4.76408 7.49453 4.76408C6.86625 4.76408 6.33491 5.25253 6.33491 6.23691C6.33491 7.19518 6.84387 7.71161 7.4964 7.71161ZM7.74808 7.07959C7.35843 7.07959 7.1459 6.73283 7.1459 6.23318C7.1459 5.73726 7.35471 5.39609 7.74808 5.39609C8.134 5.39609 8.35027 5.72235 8.35027 6.23318C8.35027 6.74401 8.13027 7.07959 7.74808 7.07959Z" fill="#424242"/>
</svg>
